<svg xmlns="http://www.w3.org/2000/svg" width="94" height="100" viewBox="0 0 94 100">
    <g fill="none" fill-rule="evenodd">
        <path fill="#00A590" d="M65.784 2.446c.39 0 4.732 1.692 5.795 2.078 1.062.387 3.371 2.985 3.953 4.256.582 1.27.153 2.28.477 5.047.216 1.844.216 3.894 0 6.15-.679 3.294-1.018 5.053-1.018 5.275 0 .334.76 5.267.89 5.662.128.395 1.181 8.019 1.181 8.739 0 .72 2.094 6.028 3.044 8.965.951 2.938 1.229 4.196 1.79 6.762.563 2.566.457 9.125.51 10.074.053.948 2.128 7.72 3.023 13.233.793 2.124 3.225 3.56 5.07 6.035.99 2.473 1.724 4.34 1.724 5.654-.686.88.75 1.138.761 1.627.092.248-.219.57-.697.57s-1.994-1.048-2.14-1.455c-.146-.407-.626-4.037-.523-4.186.102-.149-.54 3.837.523 5.19.546 1.475.318 1.707.57 2.616.27.821.481 2.351-.11 2.872-.592.521-1.16.284-1.403-.17-.384-.938-1.595-6.153-2.01-6.153-.414 0 1.028 4.872 1.07 6.153.042 1.28-.528 1.913-1.345 1.84-.817-.071-.768-2.329-.882-3.101-.06-.401-.66-2.114-.976-3.1.154-1.463-.298-1.117-.37-1.267-.072-.154-.412-.11-.091 1.338.187.835.092 1.72.092 1.994 0 .54.26 2.571.198 2.963-.061.392-.386.844-1.132.633-.497-.14-.797-.744-.898-1.813a103.002 103.002 0 0 1-.454-3.339c-.114-1.037.237-1.864-.153-2.172-.389-.308-.96 2.544-.96 3.17 0 .625-.048 2.183-.932 2.25-.885.067-1.065-1.534-1.065-2.25 0-.718.456-1.37.427-3.17-.03-1.8.315-1.368-.576-3.723-1.206-3.443-.892-6.453-.708-7.73.185-1.276-1.592-3.087-2.25-6.304-.657-3.216-3.888-11.859-5.04-14.532-1.15-2.672-1.673-3.466-1.958-5.479-.285-2.012-.33-1.21-.586-2.782-.256-1.572-.3-3.14-.405-3.317-.105-.178.966-1.461-.105-5.167-1.072-3.705-.935-4.249-1.41-6.612-.477-2.363-.613-1.935-.901-4.856-.289-2.92-.39-28.468 0-28.468zM27.541 1.81c-.799.182-3.148.865-5.232 1.867s-3.655 3.308-3.655 4.234c0 .926-.643 6.22-.643 6.22s0 3.564.643 6.27c.642 2.708-.12 4.254-.273 7.78-.153 3.527-.002 5.507-.37 7.017-.368 1.51-.614 4.81-2.003 8.263-1.389 3.452-2.542 6.686-2.542 11.181 0 4.496-.369 5.047-.369 9.205s-2.844 11.166-2.482 11.986c.362.82-1.906 2.48-2.9 3.003-.993.523-2.64.98-3.083 1.343-.443.363-2.222 4.173-2.67 5.647C1.511 87.3.656 87.3 1.146 87.93c.655.376 1.904-.333 2.49-.768.586-.435.655-1.34 1.198-2.15.544-.811.873-1.335 1.133-1.407.26-.072.309.743.384 1.066.076.323-.315 1.523-.384 2.178-.07.655.149.92 0 1.453s-.711 1.654-.893 2.286c-.182.633 0 .925-.443 2.148-.244 1.349-.248 1.854-.195 2.392.111.838.304.857.638.968.334.11.781.177 1.177-.548.395-.724.213-1.487.593-2.696.379-1.209.667-1.236.87-1.97.205-.735.348-1.81.433-1.867.086-.058-.233 1.671-.359 2.383a56.595 56.595 0 0 1-.505 2.373c-.895 2.68-.869 4.092.079 4.24 1.5.03 1.223-1.692 1.704-3.165.317-1.203.651-2.124.867-2.922.134-.765.155-1.71.319-1.916.163-.206.866-.58.866 0s-.504 1.256-.408 3.203c.103 1.075-.458 2.353-.458 3.31 0 .955.344 1.102.56 1.193.218.09.872.095 1.097-.186.224-.28.942-3.716.942-4.016 0-.2.082-.905.245-2.114-.184-.998-.23-1.575-.138-1.732.138-.236.578-.485.763-.34.186.144.186.682.28 1.151.093.47.314.604.428 1.179.077.383.123.935.138 1.658-.058.532.07.983.382 1.353.468.556 1.144.27 1.396-1.456.162-.453-.01-.616-.135-1.73-.057-1.125-.158-1.843-.301-2.156.053-1.806.237-3.133.552-3.98.473-1.273.882-2.718 1.082-4.08.2-1.363-.072-3.07.095-3.607.166-.536 1.18-2.73 2.07-6.545.594-2.544 1.46-5.882 2.6-10.014 1.734-4.82 2.711-7.601 2.933-8.343.332-1.112.308-2.307.432-2.917.124-.61.346-.577.346-.916 0-.34.181-1.919.181-2.568 0-.65-.412-2.333-.412-2.895 0-.562.712-4.94.992-5.966.186-.685.44-2.98.76-6.889.39-19.003.39-28.602 0-28.797z"/>
        <g stroke="#333" stroke-width=".594">
            <path stroke-linecap="round" d="M65.37 35.842c.037-.685-.013-1.373.036-2.057.083-1.173.291-2.334.435-3.5.11-.89.207-1.782.326-2.671.211-1.567.356-3.147.69-4.692.13-.599.325-1.182.507-1.768.125-.4.258-.797.4-1.19.125-.352.3-.688.399-1.047.13-.471.203-.958.253-1.444.038-.36-.02-.726.037-1.083.061-.383.326-1.118.326-1.118"/>
            <path stroke-linecap="round" d="M65.696 30.862s.22 1.543.363 2.31c.253 1.366.618 2.71.87 4.077.186 1.006.23 2.038.472 3.032.08.332.226.646.326.974.172.561.36 1.12.472 1.696.123.63.191 1.272.218 1.913a9.16 9.16 0 0 1-.037 1.19c-.036.412-.157.815-.181 1.228-.022.384-.003.771.036 1.154.036.353.125.697.181 1.047.04.24.091.48.11.722.02.264-.04.532 0 .794.073.497.276.966.435 1.443.133.401.217.828.435 1.191.233.388.624.657.907 1.01M69.178 53.344l.254 1.047c.097.397.188.795.29 1.19.115.447.198.905.363 1.336.27.704.717 1.33 1.016 2.02.224.518.385 1.06.58 1.589.263.71.525 1.422.798 2.129.354.918.75 1.82 1.088 2.743a86.22 86.22 0 0 1 1.306 3.861c.286.908.553 1.823.798 2.743.106.394.177.798.29 1.19.222.768.461 1.534.762 2.274.252.619.621 1.185.87 1.805.233.575.509 1.587.581 1.768.073.18.126.477.145.722.022.276-.019.553-.036.83-.038.614-.13 1.225-.145 1.84-.01.421 0 .844.036 1.263a9.5 9.5 0 0 0 .182 1.227c.1.454.27.89.399 1.335.162.564.317 1.13.471 1.697.111.408.23.814.327 1.227.055.239.12.477.145.721.022.228.005.457 0 .686-.006.265-.012.53-.036.794-.02.212-.07.42-.091.631-.024.246-.015.494-.036.74-.022.248-.054.494-.091.74-.03.205-.085.407-.109.613-.013.114-.015.229-.018.343-.003.109-.009.217 0 .325.018.225.071.445.109.668.035.21.015.439.109.631a.848.848 0 0 0 .308.343c.112.07.249.107.38.108a.695.695 0 0 0 .345-.09.756.756 0 0 0 .272-.27c.092-.157.114-.346.145-.524.039-.214.027-.434.055-.65.027-.211.077-.42.109-.63.028-.193.06-.385.072-.578.011-.174.014-.387.037-.56.018-.141.026-.243.072-.379.06-.173.14-.339.218-.505.062-.134.158-.255.2-.397.032-.11.03-.228.036-.343.007-.15-.019-.301 0-.45.003-.025-.003-.058.018-.073.083-.06.214-.024.308.018a.466.466 0 0 1 .236.235c.025.06.003.132 0 .198-.01.157-.036.313-.055.47-.023.192-.06.383-.072.577a3.584 3.584 0 0 0 0 .56c.021.225.09.443.127.667.042.251.077.504.109.758.043.348.077.697.108 1.046.022.234.012.472.055.704.027.148.094.286.127.433.033.148.053.3.072.451.024.18-.002.369.055.541a1.163 1.163 0 0 0 .599.668c.09.043.19.062.29.072.144.015.297.028.435-.018.09-.03.161-.103.236-.162.096-.078.216-.143.272-.253.046-.092.03-.204.036-.307a4.204 4.204 0 0 0 0-.595c-.012-.146-.056-.288-.073-.433-.022-.198-.023-.397-.036-.596-.012-.18-.003-.363-.036-.54-.023-.119-.086-.226-.11-.344-.027-.142-.024-.288-.035-.433-.014-.174-.037-.348-.037-.523 0-.175.022-.35.037-.523.015-.193.054-.384.054-.578 0-.133-.018-.265-.036-.397-.019-.133-.054-.264-.073-.397-.026-.185-.013-.376-.054-.56-.016-.068-.065-.128-.073-.198-.004-.042-.014-.098.018-.126.064-.055.17-.009.254 0 .086.01.183.005.254.054a.463.463 0 0 1 .163.253c.024.08-.001.168 0 .252.004.15.015.301.019.452.002.138-.013.277 0 .415.012.134.04.266.072.397.044.177.097.352.163.523.067.173.178.329.236.505.066.198.071.412.127.614.063.227.183.437.236.667.06.26.063.53.09.794.027.253.046.506.073.758.022.199.04.398.073.595.024.152.057.302.09.452.028.126.021.269.091.378.087.138.23.245.38.307a.974.974 0 0 0 .527.054.99.99 0 0 0 .417-.198c.095-.073.165-.174.236-.27.083-.114.172-.229.217-.362.053-.155.046-.324.055-.487.017-.312 0-.625 0-.938 0-.247.04-.497 0-.74-.03-.182-.135-.345-.182-.523-.07-.272-.094-.554-.145-.83-.028-.157-.108-.397-.09-.47.018-.072-.007-.374-.037-.559-.023-.14-.075-.276-.108-.415-.04-.161-.048-.332-.11-.487-.043-.11-.142-.195-.18-.307-.045-.126-.024-.267-.055-.397-.039-.16-.124-.308-.163-.469-.02-.082-.027-.168-.037-.252-.008-.078-.061-.17-.018-.235.021-.032.071-.03.11-.036.047-.008.1-.02.144 0 .067.03.113.098.145.162.053.105.055.228.073.343.018.114.01.231.036.343.028.119.09.227.127.343.043.136.062.28.109.415.05.142.124.275.181.415.064.155.125.311.182.469.072.203.146.405.2.613.072.285.111.577.162.867.052.294.088.59.145.884.037.187.073.376.127.56.055.183.11.37.2.54.058.111.138.21.218.307.067.083.129.175.217.235a.918.918 0 0 0 .327.126.904.904 0 0 0 .38.018.622.622 0 0 0 .236-.126c.071-.055.118-.135.182-.199.075-.075.186-.122.236-.216.042-.081.026-.18.036-.27.025-.24.048-.481.054-.723.006-.24-.015-.48-.018-.721-.001-.145.037-.294 0-.433-.028-.107-.123-.186-.163-.29a2.097 2.097 0 0 1-.109-.468c-.016-.114.003-.23-.018-.343-.025-.131-.104-.248-.127-.38-.037-.206.005-.421-.018-.63a2.322 2.322 0 0 0-.09-.47c-.036-.107-.108-.2-.146-.306-.075-.21-.095-.437-.163-.65-.06-.19-.161-.368-.218-.56-.068-.23-.073-.475-.145-.703-.041-.131-.132-.245-.163-.38a1.484 1.484 0 0 1-.018-.396c.004-.091.017-.182.036-.27.027-.13.083-.25.109-.38.032-.16.059-.323.054-.487-.003-.11-.043-.215-.054-.325-.02-.197 0-.397-.018-.595-.011-.121-.049-.24-.055-.36a1.528 1.528 0 0 1 .018-.344c.015-.08.045-.158.073-.234.063-.172.177-.327.218-.506.034-.152.003-.313.018-.469.015-.157.074-.31.072-.469 0-.104-.054-.307-.054-.307"/>
            <path stroke-linecap="round" d="M79.861 96.072c.127 0 .254-.003.38 0 .11.003.241.085.327.018.05-.037.025-.12.037-.18.025-.132.064-.263.072-.397a.94.94 0 0 0-.018-.325.604.604 0 0 0-.145-.253.654.654 0 0 0-.218-.126c-.063-.026-.13-.056-.2-.054a.376.376 0 0 0-.162.054.865.865 0 0 0-.182.145c-.04.038-.083.077-.109.126a.566.566 0 0 0-.054.216c-.005.067.012.133.018.199.012.126.019.253.036.379.01.066-.015.155.037.198.046.039.12 0 .181 0zM83.289 97.75c.097.083.253.03.38.036.146.007.292.016.436 0 .11-.012.254.013.327-.072.062-.073.022-.192.018-.288a1.554 1.554 0 0 0-.073-.452.714.714 0 0 0-.127-.216.963.963 0 0 0-.236-.199.625.625 0 0 0-.217-.09.528.528 0 0 0-.272.018.633.633 0 0 0-.272.217.545.545 0 0 0-.091.234c-.021.131-.002.266.018.397.022.142 0 .323.109.415zM86.336 98.22c.071.074.205.031.308.036.224.01.45.012.671-.018.148-.02.346.01.436-.109.098-.13.017-.328-.019-.487a1.378 1.378 0 0 0-.2-.469.396.396 0 0 0-.126-.126.684.684 0 0 0-.363-.09c-.07.003-.135.043-.2.072a1.191 1.191 0 0 0-.199.108.925.925 0 0 0-.181.162.678.678 0 0 0-.109.18.847.847 0 0 0-.054.253c-.012.163-.077.37.036.487zM89.274 96.938c.077.064.192.058.29.073.12.017.242.025.363.018.11-.007.223-.017.326-.055.1-.036.225-.068.273-.162.051-.103-.012-.23-.037-.343-.024-.111-.048-.227-.109-.325a.596.596 0 0 0-.163-.162.631.631 0 0 0-.217-.108c-.071-.017-.146-.007-.218 0a1.564 1.564 0 0 0-.29.054 1.03 1.03 0 0 0-.182.072c-.07.036-.148.067-.2.126a.303.303 0 0 0-.072.163c-.009.085.028.17.055.252.046.138.069.304.181.397zM89.532 88.519s.049.374.077.561c.04.256.082.511.128.766.04.213.05.435.129.638.09.23.22.45.384.637.188.215.437.368.667.536.174.127.348.257.539.358.18.094.363.198.564.23a.914.914 0 0 0 .334-.026c.071-.016.15-.03.205-.077.052-.044.042-.034.084-.088.037-.048.124-.162.147-.218a.285.285 0 0 0 0-.179c-.018-.066-.067-.12-.103-.178-.203-.33-.53-.6-.641-.97-.015-.049 0-.102 0-.153 0-.102.015-.205 0-.306-.013-.088-.062-.168-.077-.255-.027-.151-.013-.307-.026-.46-.02-.247-.033-.496-.077-.74-.03-.173-.059-.349-.128-.51-.063-.148-.188-.263-.256-.408-.139-.292-.194-.617-.308-.92-.062-.163-.152-.317-.205-.484-.037-.116-.043-.24-.077-.357-.055-.183-.161-.35-.206-.536-.039-.166-.01-.344-.05-.51a.883.883 0 0 0-.103-.256c-.055-.087-.134-.155-.206-.23-.247-.255-.515-.49-.77-.74-.387-.379-.775-.758-1.153-1.148-.375-.385-.751-.768-1.103-1.173-.251-.289-.483-.593-.718-.894-.218-.277-.443-.55-.642-.842a6.808 6.808 0 0 1-.384-.638c-.106-.198-.22-.396-.283-.612-.073-.256-.066-.528-.102-.791-.04-.298-.082-.596-.128-.893-.048-.299-.093-.597-.154-.893-.14-.677-.319-1.346-.488-2.016-.156-.623-.32-1.243-.487-1.863-.224-.827-.49-1.643-.693-2.475-.198-.81-.351-1.631-.513-2.45-.1-.51-.216-1.016-.282-1.531-.06-.465-.076-.935-.102-1.404-.024-.425-.033-.85-.052-1.275-.032-.758-.06-1.515-.102-2.272-.036-.63-.077-1.26-.128-1.888-.052-.63-.07-1.265-.18-1.888-.047-.268-.142-.526-.205-.791-.083-.348-.188-.692-.231-1.046-.042-.347.003-.699-.026-1.047-.04-.496-.116-.99-.205-1.48a18.212 18.212 0 0 0-.359-1.607c-.16-.579-.371-1.142-.564-1.71-.217-.64-.415-1.287-.667-1.914-.23-.573-.52-1.12-.77-1.684-.299-.677-.614-1.348-.872-2.042a20.817 20.817 0 0 1-.667-2.092c-.21-.823-.351-1.663-.487-2.5-.128-.788-.19-1.585-.308-2.374-.098-.657-.249-1.306-.333-1.965-.076-.593-.094-1.191-.154-1.786-.074-.733-.169-1.463-.257-2.195-.083-.697-.137-1.4-.256-2.092-.093-.541-.268-1.066-.36-1.608a11.58 11.58 0 0 1-.179-1.582c-.013-.46.016-.922.077-1.378.076-.569.244-1.122.36-1.684.123-.603.264-1.203.358-1.812a27.62 27.62 0 0 0 .257-2.245c.039-.535.043-1.072.051-1.608.008-.493.027-.987 0-1.48-.03-.547-.118-1.089-.18-1.633-.05-.451-.128-.9-.153-1.353-.036-.628.056-1.26 0-1.888a8.366 8.366 0 0 0-.257-1.429 4.563 4.563 0 0 0-.333-.919 4.064 4.064 0 0 0-.462-.663c-.284-.352-.6-.678-.923-.995a12.238 12.238 0 0 0-1.078-.97 5.072 5.072 0 0 0-.769-.51c-.252-.13-.526-.217-.795-.306-.388-.13-.793-.2-1.18-.332-.497-.17-.982-.375-1.462-.587a26.523 26.523 0 0 1-1.847-.893c-.806-.434-1.55-.977-2.36-1.404M29.64.814c-.744.319-1.454.716-2.205 1.02-.501.203-1.018.367-1.532.536-.619.204-1.25.371-1.868.578-.524.175-1.062.32-1.56.56-.3.143-.585.323-.852.522-.26.194-.488.428-.725.65-.29.27-.59.534-.853.83-.237.267-.476.539-.653.848-.16.282-.258.596-.362.902a8.44 8.44 0 0 0-.236.83c-.077.334-.138.671-.182 1.01-.039.306-.049.614-.072.921-.05.643-.09 1.288-.145 1.93-.033.38-.072.759-.11 1.137-.04.416-.102.829-.126 1.245-.03.517-.04 1.035-.018 1.552.016.387.062.771.109 1.155.054.447.124.892.2 1.335.08.483.188.961.271 1.444.073.42.16.839.2 1.263.036.383.038.77.036 1.155-.003.421-.035.842-.054 1.263-.023.469-.043.938-.073 1.407a49.697 49.697 0 0 1-.127 1.696c-.044.452-.13.9-.163 1.354-.034.462-.028.926-.036 1.389-.012.661-.006 1.323-.019 1.985-.012.631-.016 1.264-.054 1.894-.024.392-.063.783-.109 1.173-.07.592-.17 1.179-.254 1.769-.073.517-.127 1.037-.217 1.551a26.402 26.402 0 0 1-.4 1.895c-.188.748-.399 1.49-.652 2.22-.25.716-.572 1.406-.853 2.11-.232.583-.476 1.161-.689 1.75-.15.418-.288.84-.417 1.264-.183.597-.37 1.195-.508 1.804-.111.494-.182.997-.254 1.498-.074.521-.13 1.045-.181 1.57-.073.738-.112 1.48-.182 2.219-.053.56-.14 1.117-.181 1.678-.057.775-.063 1.552-.09 2.328-.02.571-.044 1.142-.055 1.714-.016.812-.01 1.624-.018 2.436-.005.427.014.855-.018 1.281-.024.309-.083.614-.127.92-.052.361-.102.723-.164 1.083a44.811 44.811 0 0 1-.308 1.606c-.14.67-.278 1.34-.453 2.003-.085.322-.205.634-.29.956-.078.292-.123.592-.2.884-.123.468-.286.924-.417 1.39-.11.389-.198.784-.308 1.172-.063.218-.155.428-.2.65-.046.225-.051.457-.073.686-.02.222-.039.444-.054.667-.008.114.016.234-.018.343-.038.121-.12.226-.2.325-.12.149-.28.263-.417.397-.256.25-.489.525-.761.758-.257.218-.54.404-.817.595-.552.381-1.083.805-1.686 1.1-.132.066-.282.087-.418.145-.263.113-.505.27-.761.397-.24.12-.514.18-.726.343-.149.115-.258.276-.363.433-.123.186-.22.39-.308.595-.132.31-.182.652-.326.957-.103.217-.252.41-.381.613-.131.206-.278.402-.4.614-.093.163-.157.343-.253.505-.07.12-.174.219-.236.343-.109.216-.17.453-.236.685-.045.16-.054.33-.109.488-.059.17-.187.313-.235.487a1.047 1.047 0 0 0-.018.198"/>
            <path stroke-linecap="round" d="M92.575 91.327s-.264-.09-.345-.145c-.102-.07-.21-.14-.29-.234a.76.76 0 0 1-.163-.289.539.539 0 0 1 0-.289c.013-.041.03-.095.073-.108.044-.013.126.054.126.054M2.108 85.805c-.06-.006-.105.064-.145.109-.251.276-.662.592-.58.956.004.021.033.028.054.036a.48.48 0 0 0 .217.036.591.591 0 0 0 .29-.108.83.83 0 0 0 .236-.307.833.833 0 0 0 .09-.343.544.544 0 0 0-.053-.252c-.025-.05-.054-.12-.11-.127z"/>
            <path stroke-linecap="round" d="M1.31 86.87s-.12.159-.145.253a.507.507 0 0 0 0 .252c.018.073.05.152.108.199.103.082.25.095.381.108.157.016.319.002.472-.036.205-.051.387-.168.58-.253.303-.132.637-.208.907-.397.137-.095.241-.23.345-.36.116-.147.216-.307.308-.47.144-.255.254-.53.38-.794.073-.15.154-.297.219-.45.041-.101.055-.213.108-.308.061-.108.156-.193.236-.288.179-.213.373-.413.544-.632.09-.116.135-.274.254-.36.067-.049.155-.06.236-.073a.92.92 0 0 1 .145 0"/>
            <path stroke-linecap="round" d="M5.808 82.034s.311.49.417.758c.072.185.106.383.145.577.032.161.054.324.072.488.027.233.06.468.055.703a4.401 4.401 0 0 1-.09.704c-.047.244-.143.477-.182.722a5.54 5.54 0 0 0-.055.74c-.007.276.057.555.019.83-.032.224-.131.433-.2.65-.088.277-.18.553-.272.83-.077.228-.139.463-.236.685-.077.175-.214.323-.272.505-.06.19-.053.396-.072.596-.025.258-.01.52-.055.775-.038.222-.122.433-.181.65-.068.246-.146.49-.2.74a5.86 5.86 0 0 0-.109.667c-.018.186-.015.373-.018.56-.003.18-.003.36 0 .541.003.145-.02.294.018.433.03.112.1.21.164.307.053.083.097.182.181.234.1.063.228.058.345.073.138.017.28.04.417.018a.824.824 0 0 0 .326-.127.898.898 0 0 0 .218-.234c.113-.161.21-.337.272-.524.058-.173.057-.361.09-.54a21.583 21.583 0 0 1 .363-1.607c.087-.31.174-.62.29-.92.1-.253.235-.491.345-.74.063-.143.135-.284.182-.433.051-.164.074-.336.108-.505.065-.318.139-.635.182-.956.02-.156-.047-.336.036-.47.037-.06.115-.085.181-.108.046-.016.102-.04.145-.018.032.016.042.058.055.09.024.063.04.132.036.199-.006.137-.07.265-.109.397-.057.2-.123.396-.181.595-.05.174-.097.35-.145.524-.03.108-.046.221-.09.324-.066.149-.194.265-.255.415-.062.155-.077.324-.109.488-.028.143-.058.287-.072.433-.019.185 0 .373-.018.559-.025.249-.06.499-.127.74-.067.242-.2.463-.272.703-.073.242-.117.492-.163.74-.052.275-.095.552-.127.83a7.89 7.89 0 0 0-.055.704c-.005.223-.065.461.018.668.07.173.225.31.381.415a1.046 1.046 0 0 0 .925.108.914.914 0 0 0 .308-.217.95.95 0 0 0 .218-.306c.06-.147.046-.314.073-.47.027-.162.055-.325.09-.487.032-.145.083-.286.11-.433.02-.113.015-.23.035-.343.087-.482.227-.954.363-1.425.093-.322.194-.642.309-.956.093-.257.225-.498.308-.758.073-.23.12-.467.163-.704.051-.286.074-.577.109-.866.025-.204.04-.41.072-.614.024-.145-.002-.317.091-.433.046-.056.13-.066.2-.09.1-.034.202-.07.308-.072.098-.002.212-.005.29.054.076.057.113.16.127.253.022.144-.041.29-.072.433-.04.182-.086.364-.145.541-.046.136-.131.258-.164.397-.04.17-.025.349-.036.523-.007.115-.02.229-.018.343.002.145.025.289.036.433.014.187.046.373.036.56-.009.176-.064.348-.09.523-.05.324-.073.651-.127.974-.045.267-.113.529-.163.794-.059.306-.122.612-.164.92a3.353 3.353 0 0 0-.036.397c-.001.097-.007.196.018.29a.79.79 0 0 0 .127.252.582.582 0 0 0 .163.162c.087.052.195.056.29.09.074.027.141.075.218.09.09.018.182.007.272 0 .08-.005.163-.005.236-.036a.865.865 0 0 0 .29-.216c.092-.1.17-.217.218-.343.064-.165.06-.349.09-.523.036-.205.064-.41.11-.614.065-.297.173-.585.235-.884.041-.196.056-.398.09-.595.049-.272.137-.538.164-.812.014-.138-.014-.278 0-.415.027-.263.102-.519.163-.776.05-.206.134-.404.164-.614.037-.262.026-.529.018-.794-.011-.35-.088-.696-.091-1.046-.002-.175-.057-.375.036-.523.052-.083.164-.108.254-.145a.987.987 0 0 1 .272-.072c.103-.01.22-.035.309.018.09.055.135.17.163.27.024.088.002.181 0 .271-.003.145-.04.29-.018.433.021.14.087.269.145.397.068.15.187.277.236.434.035.115.027.24.036.36.019.253.014.506.036.758.021.242.07.48.09.722.023.258.01.518.037.776.02.188.044.376.09.56.028.104.04.223.11.306.089.105.233.15.362.198.105.04.217.088.327.073.137-.02.259-.108.363-.199a.83.83 0 0 0 .2-.27c.084-.18.098-.385.144-.578.057-.234.14-.464.163-.704.02-.197-.008-.397-.018-.595-.013-.283-.02-.567-.054-.848-.02-.17-.072-.335-.09-.505-.043-.377-.001-.762-.055-1.137-.026-.178-.088-.348-.127-.523-.047-.21-.1-.419-.127-.632a4.753 4.753 0 0 1-.036-.686c.003-.199.02-.399.054-.595.058-.342.17-.674.254-1.01.11-.44.211-.88.326-1.318.16-.61.355-1.21.508-1.822.115-.46.205-.927.308-1.39.054-.24.13-.477.164-.721.043-.31.045-.625.054-.939.016-.535-.014-1.07 0-1.605.006-.23.006-.46.036-.686.023-.17.064-.339.11-.505.07-.263.168-.518.253-.776.127-.385.258-.769.381-1.155.125-.396.238-.795.363-1.19.088-.279.181-.554.272-.83.223-.68.475-1.352.67-2.04.269-.94.455-1.902.69-2.85.231-.934.457-1.87.707-2.798.206-.76.43-1.517.653-2.273.403-1.368.78-2.744 1.234-4.096.299-.894.649-1.77.98-2.653.304-.813.653-1.61.924-2.436.19-.575.345-1.161.49-1.75.083-.34.155-.683.217-1.028.073-.401.119-.807.182-1.21.046-.294.073-.593.145-.883.06-.24.196-.46.236-.704.032-.196-.005-.397 0-.596.006-.252.014-.505.036-.757.02-.242.062-.481.09-.722.02-.162.06-.324.055-.487-.008-.244-.086-.481-.127-.722-.03-.18-.055-.362-.09-.541-.038-.188-.099-.37-.128-.56a4.699 4.699 0 0 1-.054-.667 9.99 9.99 0 0 1 .073-1.155c.06-.563.163-1.12.253-1.678.114-.7.232-1.397.363-2.093.09-.477.215-.947.29-1.426.135-.849.195-1.708.29-2.562.08-.704.158-1.407.236-2.111.067-.602.158-1.2.2-1.805.03-.438.036-1.317.036-1.317"/>
            <path stroke-linecap="round" d="M23.872 13.395s.198.877.29 1.317c.096.457.187.914.272 1.372.065.348.102.701.182 1.046.049.214.11.425.181.632.095.276.217.542.327.812.15.367.326.725.453 1.1.112.33.18.674.272 1.01.125.458.257.914.38 1.372.212.78.456 1.554.618 2.346.109.536.147 1.084.235 1.624.11.664.245 1.323.363 1.985.093.523.17 1.048.272 1.57.081.41.17.82.272 1.227.114.448.267.886.381 1.335.122.478.25.956.327 1.443.075.484.09.974.126 1.462"/>
            <path d="M4.792 95.145c.083.12.268.116.409.153.105.028.216.034.323.05.154.024.332.155.46.069.082-.056.052-.191.069-.288.026-.157.051-.316.05-.475 0-.097-.011-.194-.033-.288-.016-.064-.023-.138-.069-.186-.03-.032-.079-.035-.119-.051-.09-.036-.175-.096-.272-.102-.117-.007-.23.048-.341.085-.082.027-.175.043-.238.101-.09.083-.13.208-.17.322a1.36 1.36 0 0 0-.069.322c-.01.096-.055.21 0 .288zM6.99 96.755c.028.075.122.105.187.153.104.078.2.178.323.22.092.031.193.023.29.017.132-.007.269-.018.392-.068.083-.034.178-.074.221-.152.063-.114.03-.26.017-.39a1.765 1.765 0 0 0-.12-.457 1.08 1.08 0 0 0-.118-.22c-.035-.05-.07-.102-.12-.136-.04-.028-.09-.034-.136-.051-.057-.022-.11-.065-.17-.068a.539.539 0 0 0-.29.085.694.694 0 0 0-.221.22c-.07.107-.096.236-.136.356-.033.095-.063.19-.086.288-.015.067-.058.139-.034.203zM10.583 96.806c.092.152.323.154.494.204.16.046.327.08.494.084.097.003.207.017.29-.034.035-.02.054-.063.068-.101.03-.08.03-.17.034-.254.01-.192.003-.386-.017-.577-.007-.062-.007-.129-.034-.186-.019-.04-.057-.067-.085-.102-.04-.05-.068-.113-.12-.152a.414.414 0 0 0-.17-.068.578.578 0 0 0-.204 0c-.101.017-.195.063-.29.102-.087.035-.189.052-.255.118-.058.058-.078.143-.102.22-.04.126-.05.26-.069.39-.016.118-.095.254-.034.356zM15.165 94.146c.092.076.239-.016.358-.017.187-.002.424.143.562.017.15-.138.036-.407.034-.61 0-.159.038-.333-.034-.475a.443.443 0 0 0-.238-.203c-.075-.028-.16-.01-.239 0a.577.577 0 0 0-.204.05.55.55 0 0 0-.222.204c-.042.075-.04.168-.05.254a2.317 2.317 0 0 0-.018.373c.006.137-.054.319.051.407z"/>
        </g>
    </g>
</svg>
