<svg xmlns="http://www.w3.org/2000/svg" width="105" height="101" viewBox="0 0 105 101">
    <g fill="none" fill-rule="evenodd">
        <path fill="#00A590" d="M75.03 1.917l3.23.82 2.65 1.89 1.076 1.324.502 1.494.327 4.18.157 3.18v1.829l-.318 3.047-.49 2.548-.178 1.67v1.918l.179 2.446.489 2.226.318 1.791v.845l.185 2.495.511 2.761.32 2.554.428 1.723.575 1.85 1.175 2.668 1.12 2.186.47 2.17.69 3.188.367 2.213.068 2.073v2.168l.31 2.44.924 3.644.612 2.244 1.032 2.573v.691l.46.821 1.496.675 2.62 1.098 2.401 1.023.953 1.197.487 1.073 1.155 1.402 1.356 1.697.885 1.006.735.515-.498.905-1.47.021-1.47-.633-.864-.808-1.103-1.563-1.146-1.14-.165 1.697.165 2.152.38 2.375 1.039 2.799.514 1.49.662 2.057.518 2.117.29 1.429-.497.993-1.277-.305-.98-2.427-.65-2.282-.84-1.395-.767-2.029h-.478l-.265.352.265 1.316.664 1.568.58 1.523.449 1.781.393 2.811.16 1.104-.553.652-1.215-.25-.248-.675-.692-2.993-.702-2.63-.601-1.779-.19-.938-.279-.759-.456.253.244 1.444.212 1.779.469 1.981.183 1.593.178 1.489-.178.833h-.864l-.699-.526-.527-2.178-.24-1.735-.447-1.457-.339-2.236v-1.24c-.257-.518-.413-.762-.47-.731-.057.03-.057.358 0 .984l-.387 1.444v2.498l.091 1.815-.538.658-.787-.306-.373-1.046-.272-1.12v-4.692l-.192-1.244-.288-.758-.47-1.032-1.584-3.521-.711-2.13-.255-1.975-.017-2.501-1.747-3.386-1.586-4.872-2.692-6.745-2.733-6.058-.29-1.254-.29-1.45-.351-.854V49.97l-.345-1.314.345-3.77-.742-3.042-1.512-6.594-.363-4.99v-9.043l1.233-1.855.642-1.75.742-15.696zM30.948 1.917l-3.259.82-2.673 1.89-1.086 1.324-.835 1.272-.216 4.251-.286 3.034v2.08l.664 3.093.167 2.494.506 1.723v1.919l-.506 2.431-.488 2.06v2.817l-.453 2.446-.357 2.799-.502 2.381-.144 1.907-.58 1.85-1.185 2.668-1.396 2.006-.5 2.2-.66 3.2-.37 2.237-.049 2.164-.078 2.056-.191 2.495-.926 3.603-.679 2.207-.82 2.004-.264 1.256-.34.91-1.343.748-2.642 1.098-2.423 1.023-.96 1.197-.492 1.073-1.485 1.177-1.048 1.922-.893 1.006L1 83.566l.918.612L3.4 84.2l1.483-.633.871-.808 1.113-1.563.677-.765.318 1.322.162 2.152-.667 1.565-.765 3.609-.71 1.378-.477 2.169-.758 2.027-.366 1.516.811.996 1.127-.408.815-2.362.99-2.244.545-1.582 1.077-1.842h.48l.268.352-.619 1.238-.574 1.468-.632 1.566-.38 1.86-.727 2.774.4 1.197.558.652.946-.31.28-.665.48-3.215 1.175-2.358.607-1.779.191-.938.282-.759.46.253-.46 1.355-.352 1.755-.121 2.094-.482 1.593-.46 1.746.757.576h.871l.553-.576.53-2.128.285-1.735.337-1.57.567-2.123v-1.24c.26-.518.417-.762.475-.731.057.03.057.358 0 .984v1.444l.075.644v1.854l.13 1.806.635.667.481-.393.496-.982.256-1.098-.063-2.042.276-2.649.192-1.244.292-.758.473-1.032 1.598-3.521.718-2.13.257-1.975.016-2.501 1.577-3.548 1.39-4.894 3.11-6.56 2.758-6.059.292-1.254.292-1.45.356-.854V49.97l.347-1.314-.347-3.77.748-3.042 1.139-6.4.452-5.138.3-5.539v-3.55l-1.243-1.855-.648-1.75-.748-15.696z"/>
        <g stroke="#333" stroke-width=".648">
            <path d="M32.642 1.296c-.41.195-.79.459-1.213.624-.62.243-1.284.354-1.924.535-.622.176-1.263.297-1.865.535-.402.16-.778.379-1.154.594-.385.22-.778.435-1.125.713-.305.245-.567.54-.828.832-.263.293-.534.586-.74.921-.2.324-.356.678-.474 1.04-.122.375-.184.768-.237 1.159-.078.58-.089 1.168-.118 1.752-.03.604-.03 1.209-.06 1.813a48.36 48.36 0 0 1-.118 1.93c-.038.438-.123.87-.148 1.308a13.34 13.34 0 0 0 0 1.486c.025.447.094.892.148 1.337.1.813.214 1.624.326 2.436.067.485.124.973.207 1.456.101.587.256 1.165.355 1.753.062.364.128.73.148 1.099.022.395.002.793-.03 1.188-.035.448-.109.893-.177 1.337a74.694 74.694 0 0 1-.414 2.377c-.084.447-.196.888-.267 1.337-.066.423-.106.85-.148 1.277-.06.623-.083 1.25-.148 1.872-.072.695-.17 1.388-.266 2.08-.128.912-.285 1.82-.414 2.733-.107.752-.162 1.511-.296 2.258-.086.48-.198.956-.326 1.426-.12.441-.268.874-.414 1.307-.169.499-.332 1-.533 1.486a20.347 20.347 0 0 1-.8 1.693c-.154.295-.349.567-.502.862-.207.397-.387.807-.563 1.218-.116.274-.235.548-.325.832-.112.35-.19.71-.267 1.07-.104.482-.17.971-.266 1.455-.11.557-.238 1.11-.355 1.664-.11.515-.233 1.027-.326 1.545-.047.266-.086.534-.118.802a28.144 28.144 0 0 0-.148 1.545 34.2 34.2 0 0 0-.06 1.634c-.007.406.01.812 0 1.218-.01.476-.019.952-.059 1.426-.032.388-.074.777-.148 1.159-.067.352-.179.693-.266 1.04-.161.643-.305 1.29-.473 1.931-.241.915-.486 1.83-.77 2.733-.198.63-.395 1.263-.651 1.872-.146.347-.397.65-.503 1.01-.076.258-.02.542-.09.802-.076.292-.174.59-.354.832a1.44 1.44 0 0 1-.503.416c-.445.224-.985.18-1.45.357-.397.15-.748.4-1.125.594-.471.243-.938.496-1.421.713-.368.165-.742.32-1.125.446-.261.085-.566.06-.799.208-.13.082-.195.239-.296.356-.155.18-.327.347-.473.535a8.485 8.485 0 0 0-.592.861c-.144.24-.231.51-.385.743-.17.258-.399.472-.592.713-.141.176-.253.378-.414.535-.097.094-.224.15-.326.238a.798.798 0 0 0-.118.119c-.097.126-.154.28-.237.416-.094.151-.204.293-.296.445-.117.193-.188.416-.326.594-.14.183-.332.32-.503.476-.155.141-.308.287-.473.416-.18.14-.383.246-.563.386-.083.064-.182.118-.237.208a.586.586 0 0 0-.088.356c.012.11.077.212.148.297.094.115.226.194.355.268.176.101.363.197.562.238.155.03.317.016.474 0 .24-.025.478-.081.71-.149.294-.086.586-.188.858-.327.242-.123.476-.268.681-.445.18-.156.313-.36.474-.535.146-.16.329-.292.444-.476.073-.116.082-.264.148-.386.04-.075.095-.14.148-.208.186-.237.384-.465.592-.683.197-.208.396-.417.621-.594.225-.178.315-.246.503-.297a.987.987 0 0 1 .415 0c.184.03.363.097.532.178.2.095.563.356.563.356M10.06 80.8s1.193-.172 1.775-.326c.697-.185 1.369-.279 2.043-.535.558-.213 1.184-.496 1.657-.862.44-.34.723-.856 1.006-1.337.27-.457.651-1.456.651-1.456"/>
            <path d="M7.573 80.533s0 .378.03.564c.048.304.181.59.237.892.052.284.087.573.088.861.002.319-.038.637-.088.951-.077.482-.202.955-.326 1.426-.053.2-.148.39-.178.594-.027.187.018.378 0 .565-.02.21-.062.42-.118.624-.069.254-.171.497-.266.743-.093.24-.201.473-.296.713-.133.334-.259.672-.385 1.01-.1.267-.177.543-.296.802-.076.165-.2.306-.266.475-.06.152-.086.316-.119.476-.038.186-.041.38-.089.564-.065.255-.176.495-.266.743-.108.297-.22.593-.326.891-.09.257-.186.512-.266.773a6.454 6.454 0 0 0-.118.445c-.059.256-.11.513-.148.773-.041.276-.09.553-.09.832.001.179-.007.368.06.534.06.151.182.271.296.387.124.125.247.273.414.326.17.054.368.037.533-.03.156-.062.276-.198.385-.326.173-.203.296-.445.414-.683a9.18 9.18 0 0 0 .444-1.13c.15-.438.243-.895.385-1.336.126-.39.246-.785.414-1.16.084-.185.196-.356.296-.534.107-.189.237-.366.326-.564.09-.2.132-.419.207-.624.118-.321.258-.634.385-.951.12-.297.167-.633.355-.891A.912.912 0 0 1 9.527 89a.439.439 0 0 1 .236-.06c.088.01.183.05.237.12.056.072.057.176.06.267.003.12-.023.242-.06.357-.061.19-.187.352-.266.534-.08.184-.14.376-.207.565-.11.306-.192.624-.326.92-.083.187-.206.353-.296.536-.11.222-.218.447-.296.683-.122.367-.18.752-.266 1.129-.123.544-.235 1.09-.355 1.634-.068.307-.15.612-.208.921-.073.394-.14.79-.177 1.188a5.878 5.878 0 0 0-.03.892c.012.19.023.386.089.564.052.142.127.283.237.387.106.1.25.153.385.207.17.07.35.175.532.149.15-.021.267-.144.385-.238.11-.086.232-.172.296-.297.11-.214.074-.476.118-.713.062-.328.107-.662.208-.98.045-.144.143-.27.177-.416.043-.184.005-.378.03-.565.037-.28.104-.558.177-.832.108-.402.242-.797.385-1.188.107-.292.208-.588.355-.862.092-.169.253-.297.326-.475.042-.102.04-.217.06-.327.02-.128.033-.258.058-.386.05-.25.132-.492.178-.743.041-.226.042-.458.089-.683a6.37 6.37 0 0 1 .266-.921c.05-.133.063-.303.178-.386a.293.293 0 0 1 .266-.03c.072.029.122.106.148.178.037.103.015.22 0 .327-.03.214-.117.417-.178.624-.067.228-.153.452-.207.683a4.718 4.718 0 0 0-.089.535c-.035.306-.04.614-.059.921-.01.188-.006.378-.03.565-.05.4-.155.792-.236 1.188-.087.426-.19.85-.266 1.278-.048.266-.069.536-.119.802-.057.3-.157.59-.207.891-.031.187-.06.375-.06.565.001.179-.014.37.06.534.06.134.177.24.296.327.096.07.209.123.325.149.155.033.318.025.474 0a.967.967 0 0 0 .355-.12c.13-.08.24-.198.326-.326.084-.125.13-.273.177-.416.145-.435.228-.889.326-1.337.088-.404.157-.812.237-1.218.126-.644.241-1.29.384-1.931.045-.2.074-.404.148-.594.075-.19.236-.34.296-.535.06-.19.05-.396.06-.594.013-.277-.018-.555 0-.832.024-.399.096-.793.148-1.189.028-.218.047-.437.088-.653.024-.12.03-.25.09-.357a.294.294 0 0 1 .118-.119c.062-.03.147-.066.207-.03.026.017.028.059.03.09.004.091-.048.177-.06.267-.027.207-.02.416-.03.624-.009.198-.038.396-.029.594.01.21.05.418.089.624.04.22.123.432.148.654.043.384 0 .772 0 1.159 0 .524-.007 1.05 0 1.574.005.367-.07.746.03 1.1a.991.991 0 0 0 .236.415.827.827 0 0 0 .385.238c.125.03.264.015.385-.03a.841.841 0 0 0 .325-.237c.12-.136.197-.308.267-.476.123-.294.195-.609.266-.92a5.15 5.15 0 0 0 .118-.714c.016-.187.002-.376 0-.564-.005-.565-.058-1.13-.03-1.694.013-.249.07-.494.09-.742.017-.218.024-.436.03-.654.007-.347-.02-.694 0-1.04.014-.278.035-.558.088-.832a3.08 3.08 0 0 1 .118-.416c.137-.394.318-.771.474-1.158.19-.475.368-.954.562-1.426.181-.44.357-.88.563-1.308.218-.455.503-.876.71-1.337.208-.462.395-.937.533-1.426.084-.3.131-.612.177-.92.083-.552.139-1.108.178-1.665.04-.583.05-1.168.06-1.752.004-.307.054-.62 0-.921-.031-.167-.179-.476-.179-.476"/>
            <path d="M20.862 76.463s.07-.387.148-.565c.184-.42.518-.758.74-1.158.245-.442.45-.904.652-1.367a30 30 0 0 0 .887-2.258c.24-.703.39-1.434.622-2.14.295-.901.657-1.78.977-2.673.18-.504.332-1.02.532-1.515.266-.657.592-1.288.888-1.931.325-.704.672-1.398.977-2.11.328-.763.582-1.557.918-2.317.272-.616.595-1.207.888-1.813.229-.474.504-.93.68-1.426.127-.355.198-.728.267-1.099.07-.373.106-.752.148-1.129.048-.435.118-1.307.118-1.307"/>
            <path d="M30.186 52.695s.316-.518.414-.802a3.44 3.44 0 0 0 .178-.951c.015-.328-.114-.653-.09-.98.023-.286.159-.551.208-.832a6.637 6.637 0 0 0 .06-1.783c-.03-.28-.116-.552-.149-.832-.038-.325-.082-.654-.059-.98.024-.343.145-.673.207-1.01.1-.534.173-1.07.267-1.605.131-.754.27-1.506.414-2.258.181-.952.376-1.901.562-2.852.169-.861.365-1.718.503-2.585.101-.63.157-1.268.237-1.901l.148-1.159M72.462 32.205s.047.77.084 1.155c.061.632.132 1.264.23 1.89.12.762.289 1.514.44 2.27.122.61.26 1.216.377 1.827.151.797.267 1.6.418 2.395.11.583.234 1.163.356 1.744.109.519.279 1.027.335 1.555.04.376.013.756 0 1.134-.014.4-.045.8-.084 1.198-.033.337-.12.67-.126 1.008-.005.31.021.621.084.924.04.195.157.37.189.567.023.146-.002.295 0 .442.003.3-.008.603.02.903.02.212.05.424.105.63.067.253.187.488.272.736.053.152.11.304.147.462.075.324.104.657.146.987.034.266.014.54.084.798.115.424.352.804.544 1.198.218.447.47.877.69 1.323.3.61.587 1.227.859 1.85.309.707.572 1.434.879 2.142.26.6.547 1.19.816 1.786.331.733.692 1.455.984 2.205.35.902.611 1.836.92 2.753.27.799.578 1.585.817 2.394.09.305.13.623.23.925.097.295.23.577.356.861.14.318.288.632.44.946.074.155.159.305.23.462.114.254.201.521.313.777.118.27.236.54.377.798.126.232.295.44.419.673.072.135.156.27.188.42.034.157.002.322 0 .483-.003.343-.031.686-.021 1.03.016.519.073 1.037.126 1.554.057.562.098 1.127.209 1.68.087.435.2.867.356 1.282.153.407.382.782.565 1.177.238.514.458 1.037.69 1.554.139.309.29.611.419.925.13.317.212.654.356.966.101.219.269.405.356.63.056.147.051.314.104.462.063.177.205.322.251.504.045.177.008.365.021.547.02.274.07.545.084.819.02.378-.016.757 0 1.134.007.162.036.322.042.484.016.448-.018.896-.021 1.344-.003.35-.01.7 0 1.05.007.232-.007.468.042.694.05.227.177.43.25.651.066.193.097.397.168.588.046.124.09.252.168.357.095.127.214.244.356.316.089.045.193.06.293.063.127.002.269.005.376-.063.093-.06.13-.18.189-.274.06-.095.138-.185.167-.294.038-.142.002-.294 0-.44-.007-.52-.04-1.037-.042-1.555 0-.302.013-.603.021-.904l.021-.693c.007-.217-.027-.44.021-.651.027-.12.114-.218.147-.336a2.95 2.95 0 0 0 .083-.673 4.476 4.476 0 0 0-.042-.819c-.017-.114-.07-.221-.083-.336-.009-.07-.02-.143 0-.21.018-.064.047-.136.104-.168.03-.017.073-.014.105 0a.29.29 0 0 1 .126.126c.037.063.042.14.062.21.036.126.074.25.105.378.049.202.101.403.126.61.026.229.015.461.02.693.009.336-.004.673.021 1.008.017.211.038.423.084.63.035.158.091.31.147.462.075.207.186.4.25.61.11.355.17.725.231 1.092.055.327.069.66.126.987.06.354.141.703.23 1.05.086.34.202.671.293 1.01.067.25.09.515.188.755.068.166.148.335.272.463.092.094.21.17.335.21.1.032.21.029.314.02.128-.01.253-.048.377-.083.12-.035.253-.053.355-.126a.832.832 0 0 0 .314-.4c.052-.16-.014-.336-.02-.504-.008-.182.011-.367-.021-.546-.036-.196-.143-.373-.189-.567-.09-.379-.095-.773-.167-1.156-.069-.36-.183-.71-.251-1.071-.064-.334-.097-.672-.147-1.008-.034-.232-.084-.46-.105-.694-.023-.265 0-.533-.02-.798-.021-.26-.041-.524-.105-.777-.053-.21-.17-.401-.23-.61-.057-.192-.072-.395-.126-.588-.034-.121-.109-.232-.125-.357-.012-.09-.044-.208.02-.273.065-.065.182-.029.273-.021.057.005.123.005.167.042.101.084.126.232.167.357.067.204.086.42.126.63.065.343.093.694.188 1.03.047.166.133.32.189.483.056.166.121.33.146.504.015.104-.02.212 0 .315.04.207.143.397.23.589.112.244.272.466.377.714.14.332.229.684.335 1.03.088.285.188.568.251.86.053.25.056.507.105.757.06.312.166.613.23.924.061.299.076.607.146.904.033.135.057.277.126.399.083.146.194.286.335.378a1.022 1.022 0 0 0 1.025.021c.166-.1.28-.274.377-.441.093-.161.16-.342.188-.526.039-.242-.004-.49-.02-.735-.023-.33-.058-.66-.105-.987a19.268 19.268 0 0 0-.251-1.366c-.127-.579-.301-1.146-.44-1.722-.11-.461-.155-.94-.314-1.387-.094-.265-.257-.501-.377-.756a21.113 21.113 0 0 1-.376-.862 22.003 22.003 0 0 1-.46-1.176c-.063-.18-.148-.357-.168-.546a.485.485 0 0 1 .02-.252.422.422 0 0 1 .21-.21.333.333 0 0 1 .23 0c.118.04.214.135.293.23.163.195.256.44.356.673.155.36.258.74.377 1.113.066.21.094.433.188.63.107.223.294.398.419.61.119.202.22.415.314.63.117.268.222.542.314.82.106.324.167.662.272.987.13.405.276.805.44 1.197.139.336.3.662.46.988.08.163.122.356.25.483a.776.776 0 0 0 .336.168c.134.039.28.06.418.042a.871.871 0 0 0 .377-.147c.13-.091.234-.22.314-.357.086-.148.141-.315.167-.483.046-.291.01-.59-.02-.883a6.38 6.38 0 0 0-.168-.882c-.074-.292-.182-.574-.272-.861-.112-.357-.216-.717-.335-1.072-.112-.332-.254-.653-.356-.987-.084-.276-.125-.565-.21-.84-.088-.293-.202-.577-.313-.862-.158-.403-.347-.793-.502-1.197-.114-.298-.2-.606-.314-.904-.135-.348-.33-.673-.44-1.03-.052-.17-.071-.349-.104-.524-.045-.238-.092-.475-.126-.715-.037-.265-.034-.535-.084-.798-.029-.157-.09-.306-.125-.462a9.679 9.679 0 0 1-.147-.861c-.041-.328-.094-.658-.083-.988.01-.332.099-.658.146-.987.029-.203.058-.406.084-.61.022-.174.063-.525.063-.525"/>
            <path d="M89.122 76.868s.33.76.544 1.113c.31.514.628 1.042 1.067 1.45.338.314.751.547 1.172.735.438.196.912.3 1.381.4.51.107 1.03.164 1.549.21.334.029.67.034 1.005.041.167.004.502 0 .502 0M96.97 80.04s.225-.024.335 0c.164.036.321.114.46.21.162.113.277.282.419.42.247.242.511.467.753.715.21.216.441.42.607.672.093.141.124.316.21.462.13.225.28.442.46.63.13.137.29.241.44.358.274.215.523.476.836.63.286.14.61.189.921.252.262.053.528.111.795.105.234-.006.482-.02.691-.126.154-.078.283-.212.377-.357a.747.747 0 0 0 .125-.357.616.616 0 0 0-.083-.358c-.067-.105-.193-.157-.293-.23-.191-.14-.393-.264-.586-.4-.156-.11-.33-.199-.46-.336-.158-.164-.258-.374-.378-.567-.161-.261-.292-.541-.46-.798a5.426 5.426 0 0 0-.419-.568c-.141-.165-.312-.303-.46-.462-.246-.265-.482-.54-.712-.82-.18-.218-.378-.427-.523-.671-.125-.21-.17-.462-.293-.673-.146-.25-.34-.468-.523-.693a7.696 7.696 0 0 0-.44-.504c-.092-.096-.179-.204-.292-.273-.228-.14-.502-.185-.754-.273-.333-.117-.9-.315-1.004-.337-.105-.02-.695-.328-1.047-.483-.533-.234-1.072-.452-1.611-.672-.334-.136-.672-.261-1.005-.4-.196-.08-.414-.125-.586-.251-.112-.082-.187-.206-.272-.315-.127-.162-.256-.324-.356-.505a.956.956 0 0 1-.104-.252c-.04-.178.016-.368-.021-.546-.055-.258-.202-.488-.293-.735-.15-.403-.264-.818-.419-1.219-.127-.327-.312-.631-.419-.966-.082-.259-.104-.534-.167-.798a20.46 20.46 0 0 0-.356-1.324c-.13-.418-.311-.82-.44-1.24-.138-.456-.257-.919-.355-1.386a19.198 19.198 0 0 1-.251-1.533 24.542 24.542 0 0 1-.147-1.639c-.043-.741-.034-1.485-.062-2.227-.033-.848-.03-1.699-.126-2.542-.067-.587-.197-1.165-.314-1.744-.158-.787-.366-1.564-.523-2.352-.118-.593-.182-1.197-.314-1.786a13.184 13.184 0 0 0-.335-1.219c-.122-.37-.262-.735-.419-1.092-.144-.33-.313-.648-.48-.966-.275-.518-.616-1-.859-1.534-.265-.582-.424-1.208-.649-1.807-.188-.5-.433-.98-.586-1.491-.226-.761-.481-2.206-.481-2.332 0-.126-.223-1.653-.335-2.48-.153-1.134-.34-2.264-.46-3.402-.059-.56-.069-1.122-.126-1.681-.06-.59-.154-1.177-.23-1.765-.056-.434-.099-.87-.168-1.302-.129-.81-.344-1.605-.46-2.416a17.453 17.453 0 0 1-.146-1.513 16.431 16.431 0 0 1-.021-1.491c.017-.492.056-.984.125-1.471.11-.77.329-1.522.46-2.29.118-.683.215-1.37.294-2.059.082-.726.16-1.454.188-2.185.028-.741.007-1.485-.021-2.226a51.448 51.448 0 0 0-.147-2.227c-.088-1.087-.219-2.17-.313-3.257-.04-.447-.005-.906-.105-1.344a4.247 4.247 0 0 0-.419-1.071 4.77 4.77 0 0 0-.544-.757 5.616 5.616 0 0 0-.544-.567 14.649 14.649 0 0 0-1.549-1.218c-.361-.249-.726-.502-1.13-.673-.346-.146-.724-.2-1.088-.294-.723-.185-1.464-.303-2.177-.525"/>
        </g>
    </g>
</svg>
