<svg xmlns="http://www.w3.org/2000/svg" width="135" height="335" viewBox="0 0 135 335">
    <g fill="none" fill-rule="evenodd">
        <path fill="#F0DD00" d="M57.293 46.956c-.272-.577.271-1.3.271-2.055 0-.754-1.004-8.047-1.42-8.949-.418-.901-1.972-.315-3.024-1.165-1.052-.85-1.171-2.862-1.622-4.318-.452-1.456-.348-1.86-.657-3.038-.31-1.178-.745-1.593-.745-2.297 0-.704-.941-4.597-1.041-7.753-.1-3.156.073-4.105.595-6.34.523-2.235 1.248-2.633 2-3.652.753-1.02 4.697-4.826 7.156-5.712 2.46-.885 7.51-.735 8.862-.482 1.35.253 3.958.036 6.35.677 2.392.64 3.582 1.138 5.473 3.307 1.891 2.17 3.68 6.5 3.92 7.634.24 1.133-.292 2.49-.292 3.914s.502 3.627.635 5.666c.132 2.038-.223 3.163-.343 4.382-.12 1.219-.422 1.695-.422 3.213 0 1.517-.725 1.482-1.335 3.038-.61 1.556-2.921 1.233-3.328 2.595-.407 1.363-.82 7.396-.77 8.816.051 1.42 1.54 2.26 1.177 2.519-6.978 2.66-16.26 2.555-21.44 0z"/>
        <path fill="#F7EE7F" d="M57.397 46.905v-2.446l-.508-4.15-.444-3.593-.432-1.111c3.688 2.438 7.328 3.747 10.922 3.928 3.593.18 7.32-.758 11.178-2.817l-.408 2.964-.317 4.198-.054 1.915.779 1.112c-3.7 1.338-7.237 2.007-10.613 2.007-3.376 0-6.744-.67-10.103-2.007z"/>
        <g stroke="#333">
            <path stroke-linecap="round" stroke-width="1.036" d="M70.3 179.963s-.04.873-.052 1.31a144.185 144.185 0 0 0-.052 5.187c.018 1.643.037 3.287.157 4.926.157 2.139.465 4.264.734 6.392.273 2.151.578 4.298.892 6.444.266 1.819.593 3.628.839 5.45.263 1.951.524 3.905.682 5.868.125 1.568.15 3.143.21 4.715.086 2.323.231 4.645.21 6.969-.021 2.133-.16 4.264-.315 6.392-.093 1.26-.336 2.51-.368 3.772-.028 1.12.01 2.245.158 3.354.106.798.294 1.586.524 2.358.438 1.467 1.043 2.88 1.626 4.296.539 1.308 1.146 2.588 1.73 3.877.5 1.103 1.116 2.16 1.521 3.301.26.73.48 1.484.577 2.253.098.78.027 1.572 0 2.358-.044 1.277-.169 2.55-.262 3.825-.099 1.345-.167 2.693-.315 4.034-.095.86-.306 1.705-.367 2.567-.06.837-.068 1.68 0 2.515.061.759.25 1.501.367 2.253.11.716.16 1.442.315 2.149.265 1.209.7 2.375 1.048 3.562.334 1.135.69 2.264.997 3.406.285 1.06.56 2.123.786 3.196.25 1.18.41 2.377.63 3.563.35 1.89.792 3.762 1.1 5.659.216 1.321.33 2.657.525 3.982.096.648.279 1.285.315 1.938.02.35-.016.7-.053 1.048-.068.651-.199 1.295-.314 1.939a51.946 51.946 0 0 1-.42 2.148c-.156.703-.307 1.41-.524 2.096a13.36 13.36 0 0 1-.524 1.362c-.19.429-.44.829-.63 1.258-.196.445-.402.891-.524 1.362-.093.359-.162.73-.157 1.1.005.425.114.844.21 1.258.069.301.179.592.262.89.11.4.292.791.314 1.206.019.352-.167.694-.157 1.048.012.427.218.831.262 1.257.047.452.019.909 0 1.362-.009.21-.05.419-.052.629-.004.297.043.593.052.89.008.263-.042.528 0 .787.044.272.167.526.262.786.097.265.208.524.315.786.172.42.392.823.524 1.257.13.426.262 1.31.262 1.31"/>
            <path stroke-linecap="round" stroke-width="1.036" d="M85.98 310.06s.275 3.001.315 4.506a44.197 44.197 0 0 1-.053 3.197c-.042.927-.011 1.87-.21 2.777-.182.836-.583 1.61-.89 2.41-.237.614-.523 1.21-.735 1.834-.187.55-.325 1.114-.472 1.676-.132.504-.26 1.01-.367 1.52-.145.694-.306 1.389-.367 2.095-.026.296-.072.603 0 .891.081.326.292.607.472.89.14.222.27.462.472.63.36.3.811.487 1.258.628.91.287 1.88.366 2.832.42 1.013.057 2.041.063 3.042-.105.757-.128 1.512-.343 2.202-.681.518-.255 1.036-.562 1.416-.996.299-.34.488-.774.63-1.205.07-.218.006-.473.104-.681.09-.19.244-.356.42-.472.184-.121.426-.121.629-.21.438-.189.858-.421 1.258-.68.628-.407 1.182-.918 1.783-1.363.242-.178.529-.305.735-.524.225-.24.425-.524.524-.838.105-.334.088-.7.052-1.048-.042-.413-.168-.816-.314-1.205-.11-.292-.272-.563-.42-.838-.133-.249-.232-.524-.42-.734-.216-.242-.482-.46-.786-.576-.164-.063-.35-.027-.524-.053-.177-.026-.347-.115-.525-.104-.11.006-.314.104-.314.104"/>
            <path stroke-linecap="round" stroke-width="1.036" d="M97.832 321.168s-.248-.322-.42-.419c-.25-.142-.553-.174-.839-.21-.295-.036-.891 0-.891 0"/>
            <path stroke-linecap="round" stroke-width="1.036" d="M97.045 321.168s-.953-.46-1.363-.786c-.281-.223-.735-.786-.735-.786"/>
            <path stroke-linecap="round" stroke-width="1.036" d="M94.16 321.483s.535-1.1.735-1.677c.16-.46.313-.93.367-1.415.062-.555.021-1.122-.052-1.676-.09-.676-.293-1.333-.472-1.991-.125-.459-.321-.898-.42-1.363-.091-.43-.11-.872-.157-1.31-.06-.558-.16-1.115-.158-1.676.004-1.036.177-2.065.315-3.091.141-1.053.345-2.097.525-3.144.17-.996.314-1.998.524-2.987.255-1.197.61-2.37.891-3.563.353-1.497.69-2.998.997-4.506.4-1.967.765-3.941 1.101-5.92.27-1.586.438-3.188.734-4.768.254-1.354.63-2.682.892-4.035.282-1.46.586-2.92.734-4.4.154-1.548.164-3.109.157-4.664a49.948 49.948 0 0 0-.157-3.668 51.325 51.325 0 0 0-.315-2.777c-.198-1.488-.397-2.978-.682-4.453-.305-1.585-.777-3.134-1.1-4.716-.303-1.477-.445-2.985-.787-4.453-.199-.85-.542-1.664-.735-2.515a16.109 16.109 0 0 1-.367-2.253c-.073-.905-.032-1.817 0-2.725.035-.98.19-1.954.21-2.934.024-1.153-.075-2.305-.105-3.458-.02-.803-.031-1.607-.052-2.41-.03-1.17-.093-2.34-.105-3.51-.018-1.817 0-3.634.052-5.45.032-1.083.113-2.165.158-3.248.105-2.567.242-5.134.262-7.702.007-.926-.053-2.777-.053-2.777"/>
            <path stroke-linecap="round" stroke-width="1.036" d="M96.888 221.146s.794-4.997 1.206-7.493c.41-2.481.915-4.948 1.258-7.44.36-2.61.595-5.236.84-7.859.204-2.198.389-4.398.524-6.602.15-2.443.272-4.888.314-7.335.035-2.043.053-4.09-.052-6.13-.124-2.418-.442-4.822-.682-7.23-.2-2.01-.42-4.018-.629-6.026-.122-1.17-.286-2.337-.367-3.51-.107-1.552-.064-3.111-.157-4.664-.061-1.015-.097-2.036-.263-3.039-.155-.94-.455-1.85-.681-2.777-.35-1.432-.685-2.868-1.05-4.296-.218-.858-.497-1.701-.68-2.568-.093-.432-.16-.87-.21-1.31a19.413 19.413 0 0 1-.106-1.466c0-.21-.284-.942-.419-1.415-.145-.505-.349-.999-.42-1.52-.093-.692.009-1.397 0-2.095-.008-.752-.01-1.503-.052-2.253a57.72 57.72 0 0 0-.315-3.616c-.083-.701-.201-1.398-.314-2.095-.18-1.103-.394-2.2-.577-3.301-.203-1.221-.43-2.44-.577-3.668a57.204 57.204 0 0 1-.315-3.825c-.041-.802-.1-1.608-.052-2.41.06-.986.33-1.95.42-2.934.083-.923.044-1.853.104-2.777.099-1.505.337-3 .42-4.506.055-.994-.018-1.993.052-2.987.12-1.702.421-3.388.63-5.082.158-1.292.299-2.587.471-3.877.305-2.274.514-4.568.997-6.812.187-.87.47-1.717.734-2.567.18-.58.373-1.157.577-1.729.182-.51.433-.997.577-1.52.188-.683.294-1.39.367-2.095.054-.522-.03-1.054.052-1.572.089-.557.472-1.624.472-1.624"/>
            <path stroke-linecap="round" stroke-width="1.036" d="M94.528 97.755s.32 2.241.524 3.354c.366 1.984.895 3.936 1.259 5.92.268 1.46.332 2.959.682 4.402.117.483.326.939.472 1.414.248.815.52 1.627.681 2.463.177.914.276 1.846.315 2.777.024.576-.002 1.154-.053 1.729-.052.598-.227 1.182-.262 1.781-.032.558-.004 1.12.053 1.677.051.511.18 1.012.262 1.52.056.348.13.695.157 1.047.029.383-.056.773 0 1.153.106.722.4 1.403.63 2.096.193.582.314 1.202.629 1.729.336.562.902.954 1.31 1.467M99.562 130.398l.367 1.519c.14.576.272 1.155.42 1.73.166.648.286 1.312.524 1.938.39 1.022 1.036 1.93 1.468 2.934.324.751.557 1.538.84 2.305.38 1.032.759 2.065 1.153 3.092.512 1.332 1.083 2.641 1.573 3.982a125.554 125.554 0 0 1 1.888 5.606 95.568 95.568 0 0 1 1.154 3.982c.152.573.255 1.159.42 1.729.32 1.115.665 2.226 1.1 3.3.364.899.898 1.722 1.26 2.62.335.836.733 2.306.838 2.568.105.262.182.693.21 1.048.03.4-.028.804-.053 1.205-.054.892-.187 1.779-.21 2.672-.015.611 0 1.225.053 1.834.053.598.133 1.195.262 1.781.146.659.391 1.29.577 1.939.235.819.46 1.64.682 2.463.16.592.333 1.183.472 1.78.08.348.174.694.21 1.049.032.33.007.664 0 .995-.01.385-.017.77-.053 1.153-.029.307-.102.61-.13.917-.035.357-.023.717-.053 1.074-.031.36-.078.717-.131 1.074-.045.298-.124.591-.158.89-.019.166-.022.333-.026.499-.004.157-.013.315 0 .471.026.326.103.647.157.97.051.305.023.637.158.916.097.2.257.38.445.498.162.101.36.155.551.157a1 1 0 0 0 .498-.13c.16-.093.3-.234.393-.394.133-.227.164-.5.21-.76.056-.31.039-.63.079-.942.04-.308.112-.61.157-.917.041-.279.088-.558.105-.839.016-.252.02-.56.053-.812.026-.206.037-.354.104-.55.087-.252.203-.492.315-.733.09-.195.228-.37.288-.577.047-.16.044-.331.053-.498.011-.218-.027-.438 0-.655.004-.035-.003-.083.026-.104.12-.088.31-.035.446.026.146.066.28.192.34.34.037.09.006.193 0 .289-.012.228-.05.454-.078.68-.034.28-.087.558-.105.84-.017.27-.025.542 0 .811.03.328.13.645.184.97.06.365.112.732.157 1.1.062.505.112 1.012.157 1.52.031.34.018.685.079 1.021.04.215.136.416.183.629.049.215.077.435.105.655.034.26-.003.535.079.786a1.682 1.682 0 0 0 .865.97c.13.06.276.09.42.104.209.021.43.04.63-.026.13-.044.232-.15.34-.236.14-.113.312-.207.393-.367.068-.133.044-.296.053-.445a6.13 6.13 0 0 0 0-.865c-.018-.212-.081-.418-.105-.629-.033-.287-.034-.576-.053-.864-.016-.262-.003-.528-.052-.786-.032-.171-.124-.327-.157-.498-.041-.206-.037-.419-.053-.629-.02-.253-.052-.505-.052-.76 0-.253.031-.506.052-.76.023-.279.078-.557.079-.837 0-.193-.027-.386-.053-.577-.026-.193-.078-.383-.105-.576-.037-.27-.018-.547-.078-.812-.023-.1-.095-.187-.105-.288-.006-.062-.02-.143.026-.184.092-.08.245-.013.367 0 .125.013.264.008.367.079.12.083.195.227.236.367.035.117-.002.244 0 .366.005.219.022.437.026.655.004.201-.018.403 0 .603.018.194.059.387.105.576.063.258.14.512.236.76.097.251.257.477.341.733.095.288.103.6.184.891.091.33.264.636.34.97.087.376.091.768.132 1.152.038.367.065.734.104 1.1.032.29.06.578.105.865.036.22.084.437.131.655.04.184.031.39.132.55.125.2.332.355.55.445.236.098.51.122.76.079.22-.038.426-.153.604-.288.138-.105.239-.253.34-.393.12-.165.25-.331.315-.524.076-.225.066-.47.079-.707.025-.454 0-.909 0-1.363 0-.358.059-.72 0-1.074-.045-.264-.196-.5-.262-.76-.102-.394-.137-.804-.21-1.205-.042-.227-.158-.576-.131-.68.026-.106-.01-.545-.053-.813-.033-.205-.108-.4-.157-.602-.057-.235-.069-.483-.157-.708-.064-.16-.206-.282-.263-.445-.063-.183-.033-.388-.078-.576-.056-.234-.18-.448-.236-.682-.03-.12-.04-.244-.053-.366-.012-.114-.089-.246-.026-.34.03-.047.103-.044.157-.053.07-.011.146-.029.21 0 .096.043.163.142.21.236.076.15.078.33.105.497.026.165.014.336.052.498.04.172.13.33.184.498.062.198.09.406.157.602.072.207.18.4.262.603.093.225.181.452.263.681.104.294.21.588.288.89.105.414.162.838.236 1.258.075.427.127.858.21 1.284.053.272.105.546.183.812.08.268.159.539.289.786.084.16.2.304.314.445.097.12.187.254.315.34.14.096.307.15.472.184.18.038.371.067.55.026a.898.898 0 0 0 .341-.183c.103-.08.171-.196.263-.288.108-.11.27-.177.34-.315.061-.117.04-.261.053-.392.036-.349.07-.698.079-1.048.008-.35-.022-.699-.027-1.048-.002-.21.053-.426 0-.629-.04-.155-.178-.27-.236-.42a3.056 3.056 0 0 1-.157-.68c-.023-.165.005-.335-.026-.498-.036-.19-.15-.36-.184-.55-.053-.301.008-.613-.026-.917a3.385 3.385 0 0 0-.131-.681c-.05-.156-.155-.291-.21-.446-.109-.305-.138-.634-.236-.943-.088-.276-.232-.533-.314-.812-.098-.333-.106-.69-.21-1.022-.06-.19-.192-.355-.236-.55a2.164 2.164 0 0 1-.026-.576 2.49 2.49 0 0 1 .052-.393c.04-.187.12-.363.157-.55.046-.233.086-.47.08-.708-.005-.159-.064-.312-.08-.471-.028-.287 0-.577-.026-.865-.016-.175-.07-.347-.078-.524a2.228 2.228 0 0 1 .026-.497c.02-.117.064-.23.105-.34.091-.25.256-.475.314-.734.05-.222.005-.455.027-.682.021-.228.107-.451.104-.68-.001-.151-.078-.446-.078-.446"/>
            <path stroke-linecap="round" stroke-width="1.036" d="M115.006 192.433c.183 0 .367-.005.55 0 .158.005.348.123.472.027.07-.055.036-.175.053-.262.036-.192.092-.382.104-.577.01-.157.019-.32-.026-.471a.877.877 0 0 0-.21-.367.945.945 0 0 0-.314-.183c-.092-.039-.189-.082-.289-.079a.542.542 0 0 0-.236.079 1.252 1.252 0 0 0-.262.21c-.058.055-.12.111-.157.183a.825.825 0 0 0-.079.314c-.007.096.018.192.027.288.017.183.027.368.052.55.013.097-.023.226.052.288.068.056.175 0 .263 0zM119.961 194.87c.14.12.367.043.55.052.21.01.421.023.63 0 .16-.017.367.018.472-.105.091-.106.033-.279.026-.419-.01-.22-.03-.446-.105-.655a1.038 1.038 0 0 0-.183-.314 1.393 1.393 0 0 0-.341-.288.901.901 0 0 0-.315-.131.76.76 0 0 0-.393.026.915.915 0 0 0-.393.314.793.793 0 0 0-.131.34c-.031.19-.003.387.026.577.03.205-.001.468.157.603zM124.366 195.55c.103.109.296.047.446.053.323.015.65.018.97-.026.214-.03.5.016.63-.157.141-.189.024-.477-.027-.707a2.005 2.005 0 0 0-.288-.681.574.574 0 0 0-.184-.184.986.986 0 0 0-.524-.13c-.103.004-.196.062-.289.104a1.72 1.72 0 0 0-.288.157 1.338 1.338 0 0 0-.262.236.985.985 0 0 0-.158.262c-.046.116-.07.242-.078.367-.017.235-.112.536.052.707zM128.614 193.69c.11.093.277.085.42.106.172.025.349.036.524.026.159-.01.322-.024.471-.079.144-.053.326-.099.394-.236.074-.149-.017-.334-.053-.497-.035-.162-.07-.33-.157-.472a.864.864 0 0 0-.236-.236.911.911 0 0 0-.315-.157c-.102-.024-.21-.01-.314 0a2.253 2.253 0 0 0-.42.079c-.09.026-.178.062-.262.105-.101.052-.214.097-.288.183a.44.44 0 0 0-.105.236c-.013.124.04.248.078.367.067.2.1.44.263.576zM128.987 181.466s.07.544.111.816c.056.37.118.742.185 1.111.057.31.072.633.186.926.13.336.32.655.556.926.271.312.631.534.964.778.252.185.503.373.779.52.26.137.525.287.816.333.159.025.324-.003.482-.037.103-.023.216-.043.296-.112.076-.064.062-.049.122-.128a2.14 2.14 0 0 0 .212-.316.415.415 0 0 0 0-.26c-.026-.096-.096-.174-.148-.259-.294-.479-.766-.87-.927-1.408-.022-.07 0-.148 0-.222 0-.148.021-.298 0-.445-.019-.127-.09-.243-.112-.37-.038-.22-.019-.445-.037-.667-.028-.359-.048-.72-.11-1.074-.045-.251-.087-.507-.186-.741-.091-.215-.272-.382-.371-.593-.2-.424-.28-.895-.445-1.334-.09-.238-.22-.461-.297-.704-.053-.169-.06-.349-.11-.519-.08-.266-.234-.507-.298-.778-.057-.241-.015-.5-.074-.74a1.285 1.285 0 0 0-.148-.371c-.078-.127-.194-.226-.297-.333-.357-.372-.744-.714-1.112-1.075a93.154 93.154 0 0 1-1.669-1.667c-.54-.56-1.085-1.116-1.594-1.704-.363-.419-.698-.86-1.038-1.297-.315-.403-.64-.8-.927-1.223a9.893 9.893 0 0 1-.557-.926c-.152-.288-.318-.576-.408-.89-.106-.37-.096-.765-.148-1.148-.059-.432-.117-.865-.185-1.296-.068-.434-.134-.867-.223-1.297-.202-.983-.46-1.953-.704-2.927-.227-.904-.462-1.805-.705-2.704-.323-1.201-.707-2.386-1-3.594-.287-1.177-.51-2.368-.743-3.557-.144-.74-.312-1.476-.407-2.223-.087-.675-.11-1.358-.149-2.038-.035-.617-.048-1.235-.074-1.852-.047-1.1-.086-2.199-.148-3.297-.052-.915-.112-1.829-.186-2.742-.074-.915-.1-1.837-.26-2.742-.067-.389-.204-.764-.296-1.148-.12-.504-.271-1.004-.334-1.52-.06-.502.004-1.013-.037-1.518a22.336 22.336 0 0 0-.296-2.149 26.54 26.54 0 0 0-.52-2.334c-.23-.84-.536-1.657-.815-2.482-.314-.93-.6-1.869-.964-2.779-.333-.831-.752-1.626-1.113-2.445-.432-.983-.887-1.957-1.26-2.964a30.317 30.317 0 0 1-.964-3.038c-.305-1.195-.509-2.414-.705-3.631-.185-1.143-.274-2.3-.445-3.446-.142-.953-.36-1.896-.482-2.852-.11-.861-.135-1.73-.223-2.594-.107-1.064-.244-2.124-.37-3.186-.121-1.013-.198-2.032-.371-3.038-.135-.785-.388-1.548-.52-2.334-.126-.76-.237-1.527-.259-2.297-.019-.668.023-1.339.111-2 .11-.827.352-1.63.52-2.446.179-.875.382-1.747.519-2.63.168-1.081.291-2.17.37-3.26.057-.777.062-1.556.075-2.335.011-.716.039-1.433 0-2.149-.044-.794-.172-1.58-.26-2.37-.073-.655-.185-1.307-.222-1.964-.052-.913.08-1.832 0-2.742-.062-.7-.19-1.396-.371-2.075-.123-.456-.265-.913-.482-1.333-.18-.348-.423-.659-.668-.964-.41-.511-.868-.984-1.335-1.445-.497-.492-1.005-.978-1.557-1.408a7.33 7.33 0 0 0-1.112-.74c-.365-.19-.76-.315-1.15-.445-.56-.187-1.147-.29-1.706-.482a25.781 25.781 0 0 1-2.113-.852c-.904-.401-1.8-.826-2.67-1.297-1.165-.63-2.24-1.418-3.411-2.037-.831-.44-1.713-.776-2.559-1.186-1.084-.525-2.146-1.095-3.226-1.63-.862-.427-1.73-.842-2.595-1.26-.951-.459-1.93-.862-2.856-1.37-.715-.394-1.43-.799-2.076-1.297a8.465 8.465 0 0 1-1.335-1.26c-.189-.226-.315-.498-.482-.74-.31-.453-.964-1.335-.964-1.335"/>
            <path stroke-linecap="round" stroke-width="1.036" d="M77.668 46.238s-.185-.461-.223-.704c-.113-.732-.026-1.483 0-2.223.043-1.213.156-2.422.26-3.63.053-.62.11-1.237.185-1.853.074-.607.164-1.212.26-1.816.113-.718.242-1.433.37-2.149.131-.73.408-2.185.408-2.185"/>
            <path stroke-linecap="round" stroke-width="1.036" d="M78.113 36.16s.406-.554.63-.815c.21-.245.39-.536.667-.704.154-.093.35-.088.52-.148.266-.094.551-.165.778-.333.324-.24.56-.587.779-.926.28-.437.458-.933.667-1.408.237-.537.527-1.06.668-1.63.125-.506.105-1.037.148-1.556.029-.346.02-.695.074-1.038.089-.565.34-1.1.408-1.667.064-.527.01-1.062 0-1.593-.006-.31.04-.627-.037-.926-.076-.295-.408-.815-.408-.815M49.969 24.638s-.053.47-.038.704c.023.339.088.676.186 1 .136.45.393.856.556 1.297.158.425.306.855.408 1.297.112.487.141.989.222 1.482.08.483.128.973.26 1.445.139.497.348.973.556 1.445.212.48.347 1.024.705 1.408.264.283.643.443 1 .592.272.113.566.165.854.223.171.034.364-.007.519.074.193.101.318.303.445.481.137.194.334.63.334.63"/>
            <path stroke-linecap="round" stroke-width="1.036" d="M55.494 33.715s.368 1.254.519 1.89c.174.735.326 1.476.445 2.223.197 1.24.285 2.496.445 3.742.138 1.088.355 2.167.445 3.26.037.456.066.915.037 1.37-.016.238-.112.705-.112.705"/>
            <path stroke-linecap="round" stroke-width="1.036" d="M58.09 44.645s-.267.949-.446 1.408c-.148.38-.252.8-.519 1.111-.436.507-1.09.778-1.669 1.111-.632.364-1.31.644-1.965.964-.864.421-1.733.835-2.595 1.26-.695.341-1.372.717-2.077 1.037-1.155.525-2.346.97-3.523 1.445-.962.388-1.94.738-2.892 1.148-1.076.464-2.103 1.04-3.189 1.482-.724.295-1.47.533-2.213.778-.895.297-1.807.54-2.7.839-.758.254-1.536.465-2.256.812-.435.21-.846.47-1.232.76-.377.281-.706.621-1.049.943-.419.393-.851.775-1.232 1.205-.343.387-.688.782-.944 1.231-.233.409-.373.865-.525 1.31-.134.395-.247.798-.34 1.205a15.12 15.12 0 0 0-.263 1.467c-.056.443-.07.89-.105 1.336-.071.934-.13 1.87-.21 2.803-.046.551-.102 1.1-.157 1.65-.059.604-.149 1.204-.183 1.808-.042.75-.057 1.503-.026 2.253.023.561.09 1.12.157 1.677.079.649.18 1.294.288 1.939.118.7.273 1.395.394 2.095.105.61.23 1.218.288 1.834.052.557.056 1.118.053 1.677-.004.612-.05 1.223-.08 1.834-.031.681-.061 1.363-.104 2.043a72.459 72.459 0 0 1-.183 2.463c-.064.656-.189 1.307-.236 1.965-.05.67-.041 1.344-.053 2.017-.017.96-.008 1.921-.026 2.882-.017.917-.023 1.835-.079 2.75-.034.57-.09 1.137-.157 1.703-.101.859-.246 1.712-.367 2.567-.106.751-.185 1.506-.315 2.253a38.476 38.476 0 0 1-.577 2.751 38.282 38.282 0 0 1-.944 3.223c-.36 1.04-.826 2.041-1.232 3.065-.336.845-.688 1.685-.996 2.54a38.452 38.452 0 0 0-.603 1.835c-.264.867-.536 1.734-.735 2.62-.16.717-.263 1.446-.367 2.174a53.341 53.341 0 0 0-.262 2.279c-.105 1.072-.16 2.15-.262 3.222-.077.813-.203 1.622-.262 2.437-.082 1.124-.092 2.252-.131 3.38-.03.829-.063 1.658-.079 2.488-.023 1.179-.013 2.358-.026 3.537-.007.62.02 1.241-.026 1.86-.034.448-.12.89-.184 1.336-.075.524-.147 1.05-.236 1.572-.133.78-.284 1.556-.446 2.331-.202.973-.402 1.947-.655 2.908-.123.468-.297.92-.42 1.389-.111.424-.177.859-.288 1.283-.178.68-.414 1.342-.603 2.017-.158.565-.286 1.139-.446 1.703-.09.317-.223.621-.288.943-.067.327-.074.664-.105.996-.03.323-.057.646-.079.97-.01.165.023.338-.026.497-.055.176-.173.328-.288.471-.175.217-.405.383-.603.577-.372.363-.708.762-1.102 1.1-.37.317-.779.587-1.18.865-.798.553-1.566 1.169-2.438 1.598-.191.094-.408.125-.603.21-.38.164-.73.39-1.101.576-.347.172-.743.26-1.05.497-.215.168-.373.402-.524.63-.179.27-.318.565-.445.864-.191.45-.264.946-.472 1.388-.15.316-.364.596-.55.89-.19.3-.402.584-.578.892-.135.237-.228.497-.367.733-.102.173-.25.318-.34.498-.158.313-.246.658-.341.995-.066.233-.079.48-.158.708-.086.247-.27.455-.34.707-.027.093-.027.288-.027.288M133.386 185.543s-.382-.13-.499-.21c-.148-.1-.303-.202-.42-.34a1.105 1.105 0 0 1-.235-.419.785.785 0 0 1 0-.419c.018-.06.044-.14.105-.157.064-.02.183.078.183.078"/>
            <path stroke-linecap="round" stroke-width="1.036" d="M2.601 177.527c-.087-.01-.15.092-.21.157-.362.401-.956.861-.838 1.389.006.03.049.04.078.052a.69.69 0 0 0 .315.053.853.853 0 0 0 .42-.158c.15-.111.258-.277.34-.445.076-.154.127-.326.131-.498a.793.793 0 0 0-.078-.367c-.036-.072-.078-.174-.158-.183z"/>
            <path stroke-linecap="round" stroke-width="1.036" d="M1.448 179.073s-.174.23-.21.366a.74.74 0 0 0 0 .367.53.53 0 0 0 .157.288c.15.12.36.138.55.158.228.022.461.003.683-.053.296-.074.56-.244.839-.367.437-.191.92-.302 1.31-.576.198-.139.35-.335.499-.524.168-.213.312-.445.446-.681.208-.371.366-.769.55-1.153.105-.218.222-.431.315-.655.06-.145.08-.308.157-.445.088-.157.225-.281.34-.42.26-.308.54-.598.788-.916.13-.169.194-.399.367-.524.096-.07.223-.087.34-.105.07-.01.21 0 .21 0"/>
            <path stroke-linecap="round" stroke-width="1.036" d="M7.95 172.052s.45.71.603 1.1c.105.268.154.556.21.838.046.234.078.47.105.708.038.34.087.68.079 1.021a6.416 6.416 0 0 1-.132 1.022c-.066.354-.205.692-.262 1.048-.057.354-.07.715-.078 1.074-.01.402.08.807.026 1.205-.045.326-.19.63-.289.943-.127.403-.259.805-.393 1.205-.111.333-.2.674-.34.996-.112.254-.31.469-.394.733-.088.277-.077.576-.105.865-.036.375-.015.755-.079 1.126-.055.322-.176.629-.262.944-.098.357-.21.711-.288 1.074-.069.32-.126.643-.158.969-.026.27-.021.541-.026.812-.004.262-.005.524 0 .786.005.21-.028.426.026.629.044.162.146.304.236.445.078.12.141.264.263.34.143.09.33.084.498.105.2.026.404.06.603.027.166-.028.332-.089.472-.184.128-.087.226-.214.314-.34.164-.234.304-.49.394-.76.084-.252.082-.525.13-.786a31.455 31.455 0 0 1 .525-2.332c.126-.45.251-.9.42-1.336.142-.368.339-.713.498-1.074.091-.208.194-.412.262-.628.075-.24.108-.489.157-.734.094-.462.2-.922.263-1.388.03-.226-.068-.488.052-.682.054-.086.166-.124.262-.157.067-.023.147-.057.21-.026.046.022.06.083.079.131.034.091.056.19.052.288-.008.2-.102.385-.157.577-.084.289-.179.575-.262.864-.073.252-.14.507-.21.76-.044.157-.066.322-.131.471-.094.216-.28.385-.367.603-.09.224-.112.47-.158.707-.04.209-.084.418-.105.629-.026.27.001.543-.026.812a6.522 6.522 0 0 1-.183 1.074c-.097.352-.289.672-.394 1.022-.105.351-.169.714-.236 1.074-.074.4-.137.801-.183 1.205-.039.34-.07.68-.079 1.022-.008.323-.095.67.026.97.102.251.325.45.551.602.193.128.425.209.656.235.227.027.468.003.681-.078.17-.065.317-.186.446-.315a1.38 1.38 0 0 0 .315-.445c.086-.213.066-.455.105-.681.04-.236.08-.473.13-.707.047-.211.12-.416.158-.63.029-.163.023-.333.052-.497.125-.7.329-1.385.525-2.07.134-.467.28-.931.446-1.388.134-.372.326-.723.445-1.1.106-.334.175-.678.236-1.022.074-.416.107-.838.158-1.257.036-.297.056-.596.104-.891.035-.211-.003-.462.132-.629.066-.082.188-.097.288-.13.144-.05.293-.102.446-.106.142-.003.306-.006.42.079.108.082.162.232.183.367.031.21-.06.42-.105.628a7.288 7.288 0 0 1-.21.786c-.066.197-.189.375-.236.577-.057.247-.037.506-.052.76-.01.165-.03.331-.027.497.004.21.037.42.053.629.02.27.067.541.052.812-.013.257-.092.506-.13.76-.072.47-.106.945-.184 1.414-.065.387-.163.768-.236 1.153-.085.444-.176.888-.236 1.336-.026.191-.05.384-.053.577-.002.14-.01.284.027.419.035.132.103.256.183.366.065.09.141.179.236.236.126.076.282.081.42.131.106.039.203.109.314.131.129.026.263.01.394 0 .114-.009.235-.008.34-.052.162-.068.301-.186.42-.315a1.58 1.58 0 0 0 .315-.497c.092-.24.087-.507.13-.76.053-.297.093-.596.158-.89.095-.433.25-.851.34-1.284.06-.286.082-.578.132-.865.07-.395.196-.78.236-1.179.02-.2-.02-.403 0-.602.04-.382.147-.754.236-1.127.07-.299.193-.587.236-.89.054-.381.038-.77.026-1.153-.016-.508-.127-1.011-.131-1.52-.002-.254-.083-.544.053-.76.074-.119.236-.156.367-.21.125-.05.258-.09.393-.104.148-.015.318-.05.446.026.13.08.195.246.236.393.035.127.003.262 0 .393-.005.21-.059.422-.027.629.032.202.126.39.21.576.098.218.271.401.341.63.052.167.04.348.052.523.028.366.021.734.053 1.1.03.351.101.697.131 1.048.032.375.014.753.053 1.127.028.272.063.546.13.812.04.152.056.325.158.445.129.152.338.218.524.288.151.057.313.128.472.105.198-.028.375-.157.525-.288.122-.107.219-.246.288-.393.123-.26.142-.558.21-.838.082-.34.202-.674.236-1.022.028-.287-.013-.577-.026-.865-.02-.41-.03-.823-.079-1.23-.03-.247-.103-.488-.131-.734-.062-.548 0-1.106-.079-1.65-.037-.259-.127-.506-.183-.76-.068-.305-.145-.608-.184-.917a6.93 6.93 0 0 1-.052-.996c.005-.29.03-.58.078-.864.085-.497.246-.978.367-1.467.159-.638.306-1.278.472-1.913.232-.885.513-1.758.734-2.646.167-.668.296-1.345.446-2.017.078-.35.186-.693.236-1.048.063-.45.066-.908.079-1.362.022-.777-.02-1.555 0-2.332.008-.332.008-.666.052-.995.033-.248.092-.492.158-.734.102-.381.244-.751.367-1.126.182-.56.373-1.116.55-1.677.182-.574.344-1.155.525-1.729.126-.403.262-.804.393-1.205.323-.987.687-1.961.97-2.96.387-1.366.657-2.762.996-4.14.334-1.355.66-2.712 1.023-4.06.297-1.105.622-2.203.944-3.301.582-1.986 1.128-3.984 1.783-5.947.432-1.297.938-2.57 1.416-3.851.44-1.181.945-2.34 1.337-3.537.274-.835.5-1.687.708-2.54.12-.495.224-.994.314-1.494.105-.582.171-1.17.263-1.755.067-.429.105-.863.21-1.284.085-.349.283-.667.34-1.022.046-.284-.007-.576 0-.864.009-.367.021-.735.053-1.1.03-.351.09-.699.13-1.049.029-.235.087-.47.08-.707-.012-.354-.124-.698-.184-1.048-.045-.262-.08-.525-.131-.786-.054-.272-.142-.537-.184-.812a6.85 6.85 0 0 1-.078-.97c-.006-.56.045-1.119.104-1.676.087-.816.237-1.625.368-2.436.164-1.015.334-2.029.524-3.039.13-.692.31-1.374.42-2.07.194-1.232.28-2.48.419-3.72.114-1.021.228-2.043.34-3.065.097-.873.23-1.743.29-2.62.043-.636.052-1.912.052-1.912"/>
            <path stroke-linecap="round" stroke-width="1.036" d="M34.065 72.396s.286 1.274.42 1.913c.138.662.27 1.325.393 1.99.093.506.148 1.019.262 1.52.07.31.16.616.262.917.137.4.313.787.472 1.179.216.533.472 1.052.656 1.598.162.48.26.978.393 1.467.181.664.372 1.326.55 1.991.306 1.133.66 2.256.892 3.406.158.778.213 1.574.341 2.357.157.964.354 1.92.524 2.882.135.76.245 1.523.394 2.28.117.596.244 1.191.393 1.78.164.652.385 1.288.55 1.94.177.693.363 1.388.473 2.095.108.702.13 1.414.183 2.122.061.803.103 1.607.157 2.41.051.76.06 1.524.158 2.28.077.6.234 1.186.34 1.781.094.523.187 1.046.263 1.572.092.636.15 1.276.236 1.912.073.543.2 1.079.236 1.625.034.54-.019 1.082-.026 1.624-.01.698.012 1.398-.027 2.096-.024.446-.08.891-.13 1.336a67.276 67.276 0 0 1-.263 1.965c-.073.498-.163.994-.236 1.493a137.21 137.21 0 0 0-.498 3.72 83.84 83.84 0 0 0-.236 2.305c-.06.672-.114 1.344-.157 2.017-.044.672-.102 1.344-.105 2.018-.003.428.026.856.052 1.283.026.42.059.84.105 1.258.056.508.13 1.014.21 1.52.039.245.114.485.13.733.014.2-.025.602-.025.602"/>
            <path stroke-linecap="round" stroke-width="1.036" d="M41.852 137.68s-.088.615-.157.917a7.675 7.675 0 0 1-.21.734c-.13.39-.322.76-.445 1.153a15.188 15.188 0 0 0-.472 1.938c-.1.571-.117 1.154-.184 1.73-.065.559-.105 1.122-.21 1.676-.118.628-.318 1.239-.472 1.86-.152.619-.292 1.241-.445 1.86-.161.648-.333 1.292-.499 1.939-.183.716-.392 1.426-.55 2.148a32.357 32.357 0 0 0-.393 2.148c-.112.748-.177 1.502-.263 2.253-.107.943-.22 1.885-.314 2.83-.069.68-.12 1.362-.184 2.043-.084.9-.159 1.8-.262 2.698-.083.726-.17 1.453-.288 2.175-.162.983-.408 1.951-.577 2.934a50.968 50.968 0 0 0-.367 2.488 55.638 55.638 0 0 0-.341 3.563c-.056.986-.036 1.974-.053 2.96l-.026 1.572c-.018 1.075-.075 2.149-.052 3.223.018.9.103 1.799.157 2.698.042.699.098 1.397.131 2.096.076 1.588.076 3.18.157 4.768.045.874.115 1.747.184 2.62.063.804.142 1.606.21 2.41.117 1.397.19 2.798.34 4.191.134 1.244.322 2.482.499 3.72.107.752.225 1.503.34 2.253.216 1.398.429 2.796.656 4.192.177 1.084.37 2.165.55 3.249.16.96.348 1.916.473 2.881.07.548.113 1.1.157 1.65.054.681.098 1.362.131 2.044.04.838.062 1.677.079 2.515.019.952.026 1.904.026 2.856 0 .9-.011 1.799-.026 2.698a245.354 245.354 0 0 1-.079 3.222c-.037 1.214-.11 2.427-.131 3.642-.01.524-.018 1.048 0 1.572.03.883.182 1.761.184 2.646 0 .656-.064 1.311-.132 1.964a19.687 19.687 0 0 1-.262 1.86c-.135.673-.348 1.328-.524 1.991-.104.394-.217.784-.315 1.18a23.93 23.93 0 0 0-.262 1.152c-.166.851-.244 1.718-.42 2.567-.152.74-.388 1.463-.55 2.201-.16.73-.281 1.467-.42 2.2-.168.89-.498 2.542-.498 2.673 0 .13-.193 1.307-.262 1.965-.084.8-.131 1.606-.184 2.41-.073 1.134-.187 2.269-.183 3.405.002.727.105 1.45.131 2.175.028.794-.003 1.59.026 2.384.026.69.059 1.382.131 2.07.12 1.123.377 2.23.498 3.353.083.765.043 1.543.158 2.305.12.79.377 1.552.55 2.332.297 1.332.545 2.675.84 4.008.291 1.322.6 2.64.917 3.956.27 1.12.548 2.238.84 3.353.319 1.226.693 2.437.995 3.668.253 1.024.458 2.06.682 3.091.186.855.378 1.71.55 2.567.206 1.02.412 2.04.578 3.065.125.775.245 1.55.314 2.332.037.418.058.838.053 1.258a13.27 13.27 0 0 1-.079 1.178c-.071.693-.186 1.381-.288 2.07-.083.56-.18 1.117-.263 1.677-.074.505-.157 1.01-.21 1.52-.052.504-.104 1.01-.104 1.519 0 .253.028.507.052.76.02.21.016.426.079.628.085.272.258.509.393.76.162.3.337.591.498.89.108.2.315.603.315.603M41.44 318.918s-.09.324-.148.482a4.982 4.982 0 0 1-.26.592c-.109.207-.196.439-.37.593-.174.154-.423.194-.631.297-.337.166-.66.36-1.001.518-.291.136-.572.328-.89.37-.099.014-.197-.036-.297-.036-.211-.001-.433-.002-.63.074-.24.092-.46.253-.63.444-.103.116-.143.276-.223.408-.115.19-.273.356-.37.556-.138.28-.22.586-.297.889-.087.34-.174.686-.186 1.037-.012.348.01.705.111 1.038.101.333.226.69.482.926.188.172.485.168.705.296.365.214.66.53 1.001.778.375.272.76.527 1.15.778.317.205.636.406.964.593.206.118.63.334.63.334"/>
            <path stroke-linecap="round" stroke-width="1.036" d="M40.476 328.958s-.024.6.037.89c.077.363.245.703.408 1.037.213.438.41.903.742 1.26.296.318.69.536 1.075.74.539.287 1.113.52 1.706.667.627.157 1.281.204 1.928.223.668.02 1.337-.046 2.002-.111.708-.07 1.433-.09 2.114-.297.486-.148.984-.338 1.372-.667.277-.235.477-.56.63-.889.124-.266.2-.56.222-.852.026-.347-.07-.692-.11-1.037-.046-.384-.102-.766-.15-1.149-.038-.32-.088-.64-.11-.963-.04-.567.006-1.138-.037-1.704a7.696 7.696 0 0 0-.112-.853c-.114-.6-.285-1.188-.445-1.778-.104-.385-.192-.775-.333-1.148-.164-.435-.458-.816-.594-1.26-.214-.705-.271-1.452-.333-2.186-.06-.702-.037-2.112-.037-2.112"/>
            <path stroke-linecap="round" stroke-width="1.036" d="M52.268 327.032s.276-.764.482-1.112c.174-.295.458-.518.63-.815.194-.335.355-.697.445-1.074.075-.313.086-.642.074-.963-.009-.25-.075-.494-.111-.741-.025-.173-.025-.352-.074-.52-.059-.195-.26-.555-.26-.555"/>
            <path stroke-linecap="round" stroke-width="1.036" d="M53.157 323.327s.163-1.187.26-1.778c.09-.545.213-1.085.297-1.63.105-.69.119-1.393.26-2.075.098-.479.264-.941.407-1.408.106-.348.218-.693.334-1.038.095-.285.246-.555.296-.852.048-.28.042-.57 0-.852-.093-.638-.382-1.231-.556-1.852-.172-.615-.267-1.252-.482-1.853-.238-.666-.648-1.261-.89-1.926-.21-.578-.352-1.178-.482-1.779a18.572 18.572 0 0 1-.37-2.297c-.079-.898-.031-1.803-.038-2.704-.003-.593-.062-1.19 0-1.779.106-.992.433-1.948.63-2.926.225-1.11.434-2.221.631-3.335.29-1.64.538-3.286.816-4.927.121-.717.2-1.443.37-2.15.322-1.332.803-2.621 1.224-3.926.444-1.376 1.02-2.711 1.372-4.113.232-.923.375-1.87.482-2.816.123-1.081.12-2.173.186-3.26.046-.753.149-1.505.148-2.26a31.779 31.779 0 0 0-.26-3.816c-.12-.983-.367-1.948-.519-2.927-.114-.738-.252-1.476-.296-2.223-.052-.875.002-1.754.037-2.63.03-.755.048-1.512.148-2.26.115-.862.283-1.72.52-2.557.303-1.075.753-2.103 1.149-3.149.324-.856.66-1.707 1-2.556.473-1.177 1.022-2.325 1.447-3.52.329-.924.615-1.864.853-2.815.232-.929.45-1.865.556-2.816.1-.896.062-1.803.074-2.705.016-1.185-.007-2.37 0-3.556.013-1.989.062-3.977.074-5.965.012-1.914-.07-3.83 0-5.743.037-1.015.113-2.028.223-3.038.112-1.03.295-2.05.445-3.075.233-1.593.466-3.187.704-4.78.304-2.025.654-4.045.927-6.075.256-1.898.418-3.807.668-5.706.245-1.856.597-3.698.816-5.557.131-1.12.235-2.245.296-3.372.065-1.196.079-2.395.074-3.593a52.338 52.338 0 0 0-.074-2.63 85.92 85.92 0 0 0-.185-2.335"/>
            <path stroke-linecap="round" stroke-width="1.036" d="M54.307 182.43s1.353.268 2.04.296c.779.032 1.56-.06 2.335-.148 1.295-.146 2.59-.327 3.857-.63a21.994 21.994 0 0 0 3.152-1c.563-.229 1.124-.48 1.631-.815.27-.18.537-.378.742-.63.31-.382.532-.836.704-1.297.221-.592.316-1.227.408-1.852.165-1.115.197-2.246.26-3.372.078-1.394.112-2.79.148-4.186.02-.766.1-1.534.037-2.297-.022-.276-.09-.545-.148-.815-.032-.15-.111-.445-.111-.445M68.917 177.836s.157.524.26.778c.107.266.19.554.37.778.255.315.616.532.964.74.721.433 1.504.764 2.299 1.038.83.287 1.696.464 2.559.63 1.237.237 2.49.399 3.745.519.936.089 1.878.193 2.818.148.662-.032 1.965-.297 1.965-.297M69.658 166.462s.247-.856.297-1.297c.044-.393 0-1.186 0-1.186"/>
            <path stroke-width="1.036" d="M6.482 191.088c.12.173.388.168.591.221.153.04.312.05.468.074.221.034.48.224.665.098.118-.08.074-.277.098-.418.04-.227.075-.458.074-.689 0-.14-.017-.281-.05-.418-.021-.093-.032-.2-.098-.27-.043-.046-.114-.051-.172-.074-.13-.053-.254-.14-.394-.148-.169-.01-.332.07-.493.123-.118.04-.252.063-.344.148-.13.12-.187.301-.246.467-.055.15-.082.31-.099.468-.014.138-.08.303 0 .418zM9.659 193.425c.04.11.177.152.27.222.152.113.29.258.468.32.133.045.28.032.419.024.191-.01.389-.026.566-.098.12-.05.258-.108.32-.222.092-.165.045-.378.025-.566a2.571 2.571 0 0 0-.172-.664 1.57 1.57 0 0 0-.173-.32c-.05-.071-.1-.147-.172-.197-.058-.04-.132-.048-.197-.073-.083-.032-.158-.095-.246-.099a.776.776 0 0 0-.419.123c-.13.077-.238.193-.32.32-.1.155-.138.342-.197.517a4.39 4.39 0 0 0-.123.418c-.023.097-.085.202-.05.295zM14.854 193.499c.133.22.467.224.714.295.232.067.473.117.714.123.14.004.3.024.419-.049.05-.03.078-.092.098-.148.044-.116.043-.245.05-.369.014-.278.004-.559-.025-.836-.01-.091-.01-.188-.05-.27-.026-.059-.082-.099-.122-.148-.059-.073-.098-.166-.173-.222a.596.596 0 0 0-.246-.098.833.833 0 0 0-.295 0c-.146.025-.282.091-.419.147-.126.052-.273.076-.37.173-.082.083-.112.207-.147.32-.057.182-.073.376-.099.565-.023.172-.138.369-.049.517zM21.478 189.636c.132.111.345-.023.517-.024.271-.003.613.207.813.024.218-.2.051-.59.049-.885-.002-.23.054-.484-.05-.69a.64.64 0 0 0-.344-.295c-.108-.04-.23-.014-.345 0a.83.83 0 0 0-.295.074.798.798 0 0 0-.32.295c-.062.11-.059.245-.074.37-.022.179-.032.36-.025.54.008.199-.078.464.074.591z"/>
            <path stroke-width="1.034" d="M49.969 24.638l-.424-2.708-.384-2.116-.274-2.225.274-3.373.247-2.139.797-2.374 1.278-2.106 2.188-1.97 1.146-1.18 1.749-1.314 1.501-.87 2.584-.628 1.517-.078 2.22-.154h1.707l2.344.232h2.207l2.201.144 1.964.658 1.61.696 1.692 1.11 2.032 2.114 1.116 2.052.868 1.652.933 2.234.188 1.92-.188 1.898v1.951l.188 2.096.336 2.178-.103.956"/>
        </g>
    </g>
</svg>
