<svg xmlns="http://www.w3.org/2000/svg" width="162" height="401" viewBox="0 0 162 401">
    <g fill="none" fill-rule="evenodd">
        <path fill="#BCBC1C" d="M44.84 192.844c-.479 3.64-.718 5.874-.718 6.704 0 1.243-1.875 7.591-1.875 10.608 0 3.016-.191 17.085.552 22.286.744 5.202.432 17.133 2.671 23.416 2.24 6.283 1.4 7.64 1.4 12.8V287.5c0 1.632-.052 10.782-1.4 13.167-1.348 2.385-3.223 15.892-3.223 16.568 0 .675-.741 12.096 1.241 20.367 1.982 8.27 7.217 25.715 7.217 30.38 0 4.665-.81 7.415-.81 12.962s-4.354 3.27-5.619 4.622c-1.265 1.352-2.575 5.218-.69 6.347 1.884 1.13 4.187 2.018 4.806 3.036.62 1.019 1.415 3.296 1.864 3.385.45.09 3.296 2.31 8.096 1.465 4.8-.844 4.666-1.324 5.109-2.985.443-1.661-1.014-3.486-.446-5.258.568-1.772 1.873-1.957 1.873-4.104 0-2.146-.456-1.933-.228-4.083.228-2.149 1.634-4.13 1.634-6.972 0-2.842-1.5-6.144-2.39-7.998-.889-1.854-1.107-7.836-1.107-9.585 0-1.75 2.46-13.856 2.978-15.875.519-2.019 4.533-13.625 4.061-16.345-.472-2.72.54-5.872-1.11-13.182-1.1-4.873.656-12.042 5.267-21.507 1.687-2.718 2.306-7.437 1.855-14.158-.677-10.081 0-12.444 0-15.208 0-2.765 4.247-29.766 4.247-32.923 0-3.157.513-5.547.29-7.78-.222-2.233 0-4.402 0-5.107 0-.705 1.444-2.208 2.32-3.045 0-1.191.819 1.005 1.66 2.269.638 1.28-.177 11.751.338 13.663.514 1.912 1.047 12.912 2.433 18.912 1.386 6 1.754 16.576 1.754 20.13 0 3.556-.368 11.08-.743 15.85-.118 10.295 3.731 10.967 7.494 23.612-.927 14.732-2.204 15.097-.447 22.104 2.73 11.302 5.835 24.544 6.523 30.267 0 3.714-1.2 8.597-3.602 14.647-.306 1.626-.054 3.404.757 5.335.232 2.623-1.618 4.002 1.215 10.544.709 4.726-1.598 8.454 4.595 8.782 9.063.362 10.466-3.677 10.466-4.499 0-.822 5.593-3.23 6.247-4.592.654-1.362.515-4.055-1.573-5.142-2.088-1.086-2.088-.7-3.381-1.086-1.293-.386-2.176-.581-2.176-1.31 0-.729.6-1.954.6-3.229 0-1.274-1.736-5.432-1.736-7.283s1.62-12.486 2.68-15.66c1.06-3.174 3.255-15.914 3.255-16.911 0-.998 1.382-6.245 2.331-11.343.22-4.972.195-15.384-1.068-18.438-1.263-3.055-2.549-12.078-3.886-16.208-.492-4.397.427-7.316.427-7.887 0-.571-.393-14.68 0-21.159.394-6.478 3.097-21.945 3.46-24.505.361-2.56 2.575-24.104 1.287-30.391-1.288-6.287-1.677-14.788-2.114-17.312-.291-1.683-25.178-1.683-74.662 0z"/>
        <path fill="#DDDD8D" d="M44.84 192.844l37.864-1.262h22.462c8.817 0 13.596.42 14.335 1.262l1.649 19.035.22 4.356c-3.588 1.366-7.924 2.185-13.008 2.458-7.626.408-12.417-.253-16.12-.897-2.47-.43-5.138-1.236-8.006-2.42l-1.532-2.92c-.61 1.585-1.422 2.679-2.44 3.282-1.525.905-1.186 2.906-13.17 2.955-4.33.017-8.205-.207-14.35-.897-4.098-.46-7.642-1.494-10.633-3.103l.906-10.395 1.822-11.454z"/>
        <g stroke="#333">
            <path stroke-linecap="round" stroke-width="1.033" d="M84.37 215.376s-.05 1.045-.064 1.569c-.052 2.07-.085 4.142-.063 6.213.022 1.968.045 3.937.19 5.9.188 2.562.559 5.108.883 7.657.327 2.577.695 5.15 1.072 7.72.32 2.178.714 4.345 1.01 6.527.317 2.338.63 4.678.82 7.03.151 1.878.181 3.765.252 5.648.104 2.782.279 5.564.252 8.348-.024 2.555-.19 5.108-.378 7.657-.111 1.509-.404 3.006-.442 4.519-.034 1.34.011 2.688.19 4.016.128.956.353 1.9.63 2.825.528 1.757 1.254 3.45 1.956 5.146.648 1.568 1.379 3.1 2.082 4.645.602 1.321 1.342 2.586 1.83 3.954.311.875.577 1.777.693 2.698.118.935.032 1.884 0 2.825-.052 1.53-.203 3.055-.315 4.582-.119 1.611-.2 3.226-.379 4.832-.114 1.03-.368 2.043-.441 3.076a19.808 19.808 0 0 0 0 3.012c.073.909.301 1.798.441 2.699.133.857.192 1.726.379 2.573.319 1.449.842 2.845 1.261 4.268.401 1.36.83 2.712 1.2 4.08a71.59 71.59 0 0 1 .945 3.828c.3 1.414.493 2.848.757 4.268.422 2.263.953 4.507 1.325 6.779.26 1.582.397 3.183.631 4.77.115.775.335 1.539.379 2.322.023.418-.02.838-.064 1.255-.083.78-.24 1.55-.378 2.322-.155.86-.314 1.72-.505 2.573-.188.842-.37 1.688-.63 2.511a15.961 15.961 0 0 1-.632 1.632c-.227.513-.529.992-.757 1.506-.236.533-.483 1.068-.63 1.632-.113.43-.195.874-.19 1.318.007.509.138 1.01.253 1.506.083.362.216.71.315 1.067.134.48.352.947.379 1.444.022.422-.202.832-.19 1.255.015.513.263.996.316 1.506.056.541.023 1.089 0 1.632-.01.252-.06.501-.063.753-.005.357.052.711.063 1.067.01.314-.05.632 0 .942.053.326.2.63.315.941.117.318.25.629.379.942.206.503.471.986.63 1.506.157.51.316 1.569.316 1.569"/>
            <path stroke-linecap="round" stroke-width="1.033" d="M103.232 371.215s.33 3.595.378 5.398a52.717 52.717 0 0 1-.063 3.829c-.051 1.11-.014 2.24-.252 3.326-.22 1.002-.702 1.93-1.073 2.887-.284.736-.628 1.45-.883 2.197-.224.658-.39 1.335-.567 2.008-.159.604-.314 1.21-.442 1.82-.174.832-.368 1.664-.442 2.51-.03.355-.086.723 0 1.068.098.39.351.727.568 1.067.169.265.326.552.568.753.433.36.976.584 1.514.753 1.095.343 2.26.438 3.407.502 1.218.068 2.455.077 3.658-.125.912-.154 1.82-.41 2.65-.816.623-.305 1.246-.673 1.703-1.193.36-.408.587-.928.757-1.443.087-.262.009-.567.127-.816.107-.228.293-.426.504-.565.222-.146.513-.146.757-.251a10.448 10.448 0 0 0 1.514-.816c.756-.487 1.421-1.1 2.145-1.632.291-.214.636-.365.883-.628.272-.287.512-.627.631-1.004.126-.4.106-.838.063-1.255-.05-.495-.202-.978-.378-1.444-.132-.35-.327-.674-.505-1.004-.16-.297-.279-.627-.505-.878-.26-.29-.58-.551-.946-.69-.197-.076-.422-.032-.63-.064-.213-.031-.417-.138-.631-.125-.133.008-.379.125-.379.125"/>
            <path stroke-linecap="round" stroke-width="1.033" d="M117.49 384.521s-.299-.385-.506-.502c-.301-.17-.665-.209-1.009-.251-.355-.043-1.072 0-1.072 0"/>
            <path stroke-linecap="round" stroke-width="1.033" d="M116.543 384.521s-1.146-.55-1.64-.941c-.338-.267-.884-.942-.884-.942"/>
            <path stroke-linecap="round" stroke-width="1.033" d="M113.073 384.898s.643-1.318.883-2.009c.192-.551.377-1.114.442-1.694.075-.666.025-1.345-.063-2.009-.108-.81-.352-1.596-.568-2.385-.15-.549-.386-1.075-.505-1.631-.11-.516-.133-1.046-.189-1.57-.072-.668-.192-1.336-.19-2.008.005-1.24.214-2.473.38-3.703.17-1.261.415-2.511.63-3.766.205-1.193.378-2.393.631-3.577.306-1.435.735-2.84 1.073-4.268.424-1.794.83-3.592 1.198-5.398.482-2.356.92-4.721 1.325-7.092.324-1.899.527-3.818.883-5.711.305-1.622.757-3.213 1.073-4.833.34-1.75.705-3.5.883-5.272.186-1.854.198-3.723.189-5.586a59.577 59.577 0 0 0-.19-4.393 61.228 61.228 0 0 0-.378-3.327c-.238-1.783-.477-3.568-.82-5.335-.368-1.898-.935-3.754-1.325-5.648-.364-1.77-.533-3.577-.946-5.335-.239-1.019-.651-1.992-.883-3.013-.202-.889-.368-1.79-.442-2.699-.088-1.084-.039-2.176 0-3.263.042-1.174.228-2.34.253-3.515.028-1.381-.09-2.761-.127-4.142-.025-.963-.038-1.925-.063-2.887-.036-1.402-.112-2.803-.126-4.205-.022-2.176 0-4.353.063-6.528.038-1.298.136-2.594.19-3.891.127-3.075.292-6.15.315-9.226.008-1.11-.063-3.327-.063-3.327"/>
            <path stroke-linecap="round" stroke-width="1.033" d="M116.354 264.707s.955-5.985 1.45-8.975c.493-2.973 1.101-5.928 1.515-8.912.432-3.127.715-6.272 1.009-9.415.246-2.633.469-5.268.63-7.908.18-2.926.329-5.855.38-8.787.041-2.447.062-4.898-.064-7.343-.15-2.896-.532-5.775-.82-8.661-.24-2.407-.504-4.812-.757-7.218-.147-1.402-.344-2.799-.442-4.205-.128-1.859-.077-3.726-.189-5.586-.073-1.216-.116-2.438-.315-3.64-.187-1.127-.548-2.218-.82-3.327-.422-1.715-.824-3.435-1.262-5.146-.263-1.028-.599-2.038-.82-3.075a16.84 16.84 0 0 1-.252-1.57 23.157 23.157 0 0 1-.127-1.757c0-.25-.341-1.128-.504-1.694-.174-.606-.42-1.197-.505-1.82-.113-.83.01-1.674 0-2.511-.01-.9-.013-1.8-.063-2.699a68.852 68.852 0 0 0-.379-4.33c-.1-.84-.242-1.676-.378-2.511-.216-1.32-.474-2.634-.694-3.954-.244-1.463-.517-2.922-.694-4.393a68.237 68.237 0 0 1-.379-4.582c-.05-.961-.12-1.926-.063-2.887.072-1.182.398-2.336.505-3.515.1-1.105.054-2.22.126-3.326.119-1.804.405-3.594.505-5.398.066-1.19-.021-2.388.063-3.577.144-2.04.507-4.059.757-6.088.19-1.548.36-3.1.568-4.645.366-2.724.618-5.472 1.198-8.159.226-1.042.567-2.057.884-3.075.216-.696.448-1.386.693-2.072.22-.61.522-1.194.694-1.82.226-.819.354-1.665.442-2.51.065-.625-.036-1.263.063-1.883.107-.667.568-1.946.568-1.946"/>
            <path stroke-linecap="round" stroke-width="1.033" d="M113.515 116.9s.384 2.685.63 4.018c.44 2.376 1.076 4.715 1.515 7.092.322 1.749.399 3.544.82 5.272.14.579.393 1.125.568 1.694.298.976.625 1.949.82 2.95.213 1.096.332 2.212.378 3.327a15.93 15.93 0 0 1-.063 2.07c-.064.717-.274 1.417-.315 2.135-.039.669-.005 1.342.063 2.008.062.613.217 1.213.315 1.82.068.418.158.834.19 1.256.034.459-.068.925 0 1.38.127.865.48 1.682.756 2.51.233.698.378 1.442.757 2.072.405.674 1.086 1.143 1.578 1.757M119.571 156.002l.442 1.82c.167.69.327 1.383.504 2.071.2.777.344 1.573.631 2.322.469 1.225 1.246 2.312 1.766 3.515.39.9.67 1.843 1.01 2.762.457 1.236.913 2.473 1.388 3.703.615 1.596 1.303 3.164 1.892 4.77a149.953 149.953 0 0 1 2.271 6.715c.497 1.58.96 3.17 1.388 4.77.184.687.308 1.389.505 2.071.386 1.336.8 2.667 1.325 3.955.437 1.075 1.08 2.06 1.514 3.138.403 1 .883 2.761 1.01 3.075.125.314.218.83.251 1.255.038.48-.033.963-.063 1.444-.065 1.068-.225 2.13-.252 3.2-.018.733-.001 1.468.063 2.197.063.717.16 1.432.315 2.134.176.789.47 1.546.694 2.323.283.98.553 1.965.82 2.95.194.71.401 1.417.568 2.133.097.416.21.831.253 1.256.039.395.009.795 0 1.192-.01.46-.02.922-.063 1.38-.035.37-.123.731-.158 1.1-.041.427-.027.858-.063 1.286-.037.43-.094.86-.158 1.287-.053.357-.148.708-.19 1.067-.022.197-.025.397-.03.596-.005.188-.016.377 0 .565.03.39.124.774.189 1.16.061.367.026.765.189 1.1.116.24.309.454.536.595.195.122.433.186.662.189.207.001.42-.055.6-.157.193-.11.36-.28.473-.471.159-.272.197-.6.252-.91.067-.372.047-.755.095-1.13.047-.368.134-.73.19-1.098.049-.334.104-.668.125-1.004.02-.303.025-.672.063-.973.032-.247.046-.424.127-.66.103-.3.243-.589.378-.878.109-.233.275-.443.347-.69.056-.192.053-.397.063-.597.014-.26-.032-.524 0-.784.006-.043-.004-.1.032-.126.144-.105.372-.041.536.032a.81.81 0 0 1 .41.408c.044.106.006.23 0 .345-.016.273-.062.544-.095.816-.04.335-.105.667-.126 1.004-.02.324-.03.65 0 .973.037.392.156.772.22 1.161.074.438.136.878.19 1.318.075.605.134 1.213.19 1.82.036.408.02.821.094 1.224.047.257.163.498.22.753.06.259.093.522.127.785.04.312-.005.641.095.941.083.254.23.491.41.69.175.195.393.359.63.471.157.074.333.108.505.126.251.025.518.048.757-.032.158-.052.28-.178.41-.282.168-.135.376-.248.473-.44.082-.16.053-.354.064-.533.02-.344.028-.691 0-1.035-.022-.254-.098-.5-.127-.754-.039-.343-.04-.69-.063-1.035-.02-.314-.004-.633-.063-.942-.039-.204-.149-.391-.19-.596-.048-.247-.043-.502-.062-.753-.024-.303-.063-.606-.063-.91 0-.304.038-.607.063-.91.027-.335.094-.668.094-1.004 0-.231-.031-.462-.063-.69-.031-.232-.094-.46-.126-.691-.045-.323-.022-.655-.095-.973-.027-.12-.113-.223-.126-.345-.007-.074-.024-.171.032-.22.111-.096.295-.015.441 0 .15.016.318.01.442.094.144.1.235.273.284.44.041.14-.003.293 0 .439.005.262.026.523.031.785.005.24-.021.482 0 .721.022.233.07.464.127.69.076.31.169.614.283.91.117.302.309.573.41.88.115.344.124.717.221 1.066.11.396.318.762.41 1.162.104.451.11.92.158 1.38.046.44.079.88.126 1.318.038.346.071.693.126 1.036.043.263.1.524.158.784.049.221.037.468.158.66.151.239.4.425.662.533.284.116.613.146.915.094.264-.045.512-.183.725-.345.166-.126.288-.303.41-.47.144-.198.3-.397.379-.628.091-.27.079-.564.095-.848.03-.543 0-1.088 0-1.632 0-.428.07-.863 0-1.286-.054-.317-.235-.6-.316-.91-.122-.473-.164-.963-.252-1.444-.05-.272-.19-.69-.158-.816.032-.125-.011-.652-.063-.973-.04-.245-.13-.48-.19-.721-.068-.282-.082-.578-.188-.848-.077-.192-.248-.338-.316-.533-.076-.22-.04-.465-.095-.69-.067-.28-.215-.537-.283-.816-.035-.144-.047-.293-.064-.44-.015-.135-.107-.294-.031-.408.037-.055.124-.052.19-.062.082-.014.175-.035.252 0 .115.051.195.17.252.282.092.181.094.396.126.596.031.198.018.402.063.596.048.207.157.395.22.597.076.237.109.487.19.722.086.247.216.479.316.721.11.27.217.541.315.816.125.353.254.705.347 1.067.127.495.195 1.003.284 1.506.09.512.153 1.028.252 1.538.064.326.127.654.221.973.095.32.191.645.347.941.102.193.24.365.379.534.116.144.224.304.378.408.168.114.37.178.568.22.216.045.447.08.662.03.152-.033.288-.124.41-.219.123-.096.206-.235.316-.345.13-.131.324-.212.41-.377.073-.14.046-.313.063-.47.044-.418.084-.836.094-1.256.01-.418-.026-.836-.031-1.255-.003-.25.064-.51 0-.753-.049-.186-.214-.323-.284-.502-.101-.26-.15-.54-.19-.816-.027-.197.006-.4-.03-.596-.044-.228-.18-.431-.221-.66-.065-.36.009-.733-.032-1.098a4.04 4.04 0 0 0-.158-.815c-.06-.187-.186-.349-.252-.534-.131-.366-.166-.76-.284-1.13-.106-.331-.28-.639-.378-.973-.118-.4-.128-.826-.253-1.223-.072-.228-.23-.426-.284-.66-.051-.224-.041-.46-.031-.69a2.97 2.97 0 0 1 .063-.47c.047-.224.145-.435.19-.66.054-.278.102-.563.094-.847-.006-.19-.076-.375-.095-.565-.034-.343 0-.691-.031-1.035-.02-.211-.085-.417-.095-.628-.01-.199-.004-.4.032-.596.025-.14.076-.275.126-.408.11-.3.308-.568.378-.879.06-.265.006-.545.032-.816.026-.274.129-.54.126-.816-.002-.18-.095-.533-.095-.533"/>
            <path stroke-linecap="round" stroke-width="1.033" d="M138.15 230.313c.22 0 .441-.006.662 0 .19.005.418.147.568.031.084-.065.043-.209.063-.313.044-.23.111-.457.126-.69.012-.189.022-.385-.032-.566a1.05 1.05 0 0 0-.252-.439c-.103-.103-.244-.163-.378-.22-.11-.046-.228-.097-.347-.094a.653.653 0 0 0-.284.094 1.505 1.505 0 0 0-.316.251c-.07.067-.144.134-.189.22a.985.985 0 0 0-.095.377c-.009.115.021.23.032.345.02.22.033.44.063.659.016.116-.027.27.063.345.08.067.21 0 .316 0zM144.111 233.232c.169.143.44.052.662.062.253.012.507.028.758 0 .192-.02.441.021.567-.125.11-.128.04-.335.032-.502-.013-.265-.037-.535-.126-.785a1.242 1.242 0 0 0-.221-.376 1.674 1.674 0 0 0-.41-.346 1.086 1.086 0 0 0-.379-.157.919.919 0 0 0-.473.032 1.1 1.1 0 0 0-.473.376.947.947 0 0 0-.158.408c-.037.228-.002.463.032.69.037.247-.001.561.19.723zM149.41 234.047c.125.13.357.055.536.063.39.018.782.021 1.168-.031.257-.035.6.019.757-.188.17-.226.03-.572-.032-.848a2.396 2.396 0 0 0-.347-.816.689.689 0 0 0-.22-.22 1.19 1.19 0 0 0-.632-.156c-.122.006-.234.075-.347.125-.12.054-.239.113-.347.189a1.608 1.608 0 0 0-.315.282 1.18 1.18 0 0 0-.19.314c-.054.14-.083.29-.094.44-.02.282-.134.642.063.846zM154.52 231.82c.133.11.333.1.505.125.208.03.42.043.63.031a1.98 1.98 0 0 0 .568-.094c.173-.063.391-.119.474-.282.09-.18-.021-.401-.063-.597-.043-.194-.085-.396-.19-.564a1.037 1.037 0 0 0-.284-.283 1.098 1.098 0 0 0-.378-.188c-.123-.029-.253-.012-.379 0a2.72 2.72 0 0 0-.504.094 1.79 1.79 0 0 0-.316.126c-.122.062-.257.116-.347.22a.527.527 0 0 0-.126.282c-.015.149.048.297.095.439.08.24.12.529.315.69zM154.97 217.176s.083.652.133.976c.068.445.141.89.223 1.332.068.37.086.758.223 1.11.156.402.385.783.67 1.109.325.373.758.639 1.159.932.302.22.605.446.937.621.312.165.632.345.981.4.192.03.39-.003.58-.045.124-.027.26-.051.357-.133.091-.077.074-.059.147-.154.064-.083.214-.282.254-.379a.496.496 0 0 0 0-.31c-.03-.115-.115-.21-.178-.31-.354-.574-.921-1.043-1.115-1.687-.026-.085 0-.178 0-.267 0-.177.026-.357 0-.532-.023-.153-.107-.292-.134-.444-.046-.263-.023-.533-.045-.799-.034-.43-.059-.862-.134-1.287-.053-.3-.103-.607-.223-.887-.11-.257-.326-.458-.446-.71-.24-.508-.336-1.073-.535-1.598-.108-.286-.265-.552-.357-.843-.064-.202-.073-.419-.134-.622-.094-.319-.28-.608-.357-.932-.068-.29-.018-.598-.089-.887a1.535 1.535 0 0 0-.178-.444c-.094-.152-.233-.27-.357-.4-.43-.445-.896-.854-1.338-1.287-.675-.66-1.35-1.32-2.008-1.997-.65-.67-1.305-1.337-1.918-2.041-.436-.502-.84-1.03-1.249-1.553-.378-.484-.77-.958-1.115-1.465a11.84 11.84 0 0 1-.67-1.11c-.182-.345-.382-.69-.49-1.065-.128-.444-.116-.917-.178-1.375-.071-.519-.142-1.037-.223-1.554-.082-.519-.162-1.038-.268-1.553-.243-1.177-.554-2.34-.847-3.506a188.135 188.135 0 0 0-.848-3.24c-.39-1.438-.85-2.857-1.204-4.305-.345-1.41-.612-2.836-.893-4.26-.174-.886-.375-1.768-.49-2.663-.104-.81-.133-1.626-.179-2.44-.042-.74-.057-1.48-.089-2.22-.056-1.316-.104-2.634-.178-3.95-.062-1.095-.134-2.19-.223-3.284-.09-1.096-.122-2.2-.313-3.284-.082-.466-.246-.915-.357-1.376-.144-.604-.326-1.203-.401-1.82-.073-.601.005-1.214-.045-1.819a26.649 26.649 0 0 0-.356-2.574c-.17-.94-.37-1.875-.625-2.796-.278-1.006-.646-1.985-.981-2.973-.378-1.113-.722-2.238-1.16-3.329-.4-.996-.904-1.947-1.338-2.929-.52-1.177-1.068-2.344-1.517-3.55a36.204 36.204 0 0 1-1.16-3.64c-.366-1.43-.611-2.89-.847-4.349-.222-1.369-.33-2.755-.536-4.127-.17-1.142-.433-2.271-.58-3.417-.131-1.031-.162-2.073-.267-3.107-.13-1.274-.294-2.545-.446-3.816-.146-1.214-.239-2.435-.446-3.64-.163-.94-.467-1.854-.625-2.795-.153-.91-.286-1.83-.312-2.752a14.9 14.9 0 0 1 .134-2.397c.132-.989.423-1.95.624-2.929.216-1.048.46-2.093.625-3.15.202-1.295.35-2.6.446-3.906.068-.93.074-1.864.089-2.796.014-.858.047-1.717 0-2.574-.052-.951-.206-1.894-.312-2.84-.088-.785-.223-1.565-.268-2.353-.062-1.092.097-2.193 0-3.284a14.55 14.55 0 0 0-.446-2.485c-.147-.547-.32-1.094-.58-1.598-.215-.415-.509-.788-.803-1.153-.493-.613-1.045-1.179-1.606-1.731-.598-.59-1.209-1.172-1.873-1.687-.423-.327-.863-.642-1.339-.887-.438-.227-.914-.377-1.382-.533-.675-.224-1.38-.348-2.052-.577-.865-.294-1.708-.651-2.543-1.02a46.126 46.126 0 0 1-3.212-1.554c-1.402-.754-2.695-1.7-4.104-2.44-1-.527-2.06-.93-3.078-1.42-1.304-.63-2.582-1.313-3.88-1.954-1.037-.51-2.081-1.008-3.123-1.509-1.144-.55-2.322-1.032-3.435-1.642-.86-.47-1.72-.956-2.498-1.553a10.166 10.166 0 0 1-1.606-1.509c-.227-.27-.38-.596-.58-.887-.373-.542-1.16-1.598-1.16-1.598"/>
            <path stroke-linecap="round" stroke-width="1.033" d="M93.232 55.19s-.223-.553-.268-.844c-.136-.877-.032-1.776 0-2.663.052-1.452.188-2.901.312-4.35.064-.74.133-1.48.223-2.218.089-.727.198-1.451.313-2.175.136-.86.291-1.717.446-2.574.157-.874.49-2.618.49-2.618"/>
            <path stroke-linecap="round" stroke-width="1.033" d="M93.767 43.118s.49-.664.758-.977c.253-.294.47-.642.803-.843.185-.112.42-.105.625-.177.32-.114.664-.198.937-.4.39-.288.674-.703.936-1.11.338-.523.551-1.117.803-1.686.285-.643.634-1.27.803-1.952.15-.606.127-1.242.179-1.864.034-.414.024-.833.089-1.243.106-.677.408-1.317.49-1.997.077-.632.013-1.272 0-1.908-.007-.37.049-.751-.044-1.11-.091-.352-.49-.976-.49-.976M59.91 29.316s-.064.562-.045.843c.027.405.105.81.223 1.198.164.54.472 1.025.67 1.553.189.51.367 1.025.49 1.554.135.583.17 1.184.267 1.775.096.578.154 1.166.313 1.73.167.596.418 1.166.669 1.732.255.575.417 1.226.847 1.686.318.34.774.531 1.205.71.326.135.68.197 1.026.266.206.042.438-.008.624.09.233.12.384.362.536.576.165.232.401.754.401.754"/>
            <path stroke-linecap="round" stroke-width="1.033" d="M66.556 40.189s.443 1.502.625 2.263c.21.88.392 1.769.535 2.663.238 1.486.344 2.99.535 4.482.167 1.304.428 2.596.536 3.906.044.545.08 1.095.044 1.642-.018.284-.134.843-.134.843"/>
            <path stroke-linecap="round" stroke-width="1.033" d="M69.679 53.28s-.32 1.138-.536 1.687c-.178.457-.303.96-.624 1.332-.524.607-1.31.932-2.007 1.331-.761.436-1.576.77-2.365 1.154-1.04.505-2.084 1-3.122 1.509-.835.41-1.65.86-2.498 1.242-1.39.63-2.822 1.162-4.238 1.731-1.157.465-2.333.885-3.48 1.376-1.295.555-2.53 1.246-3.836 1.775-.871.353-1.77.638-2.663.933-1.076.354-2.173.645-3.249 1.004-.91.304-1.846.557-2.712.973a9.05 9.05 0 0 0-1.483.91c-.453.337-.849.744-1.261 1.13-.505.47-1.024.928-1.483 1.443-.413.464-.828.937-1.135 1.475-.28.49-.449 1.036-.631 1.569-.162.473-.298.956-.41 1.443-.134.58-.24 1.168-.316 1.758-.068.53-.085 1.067-.126 1.6-.086 1.12-.157 2.24-.252 3.358-.057.66-.124 1.318-.19 1.977-.071.722-.18 1.441-.22 2.165-.051.899-.069 1.8-.032 2.7.028.671.108 1.34.19 2.008.094.777.216 1.55.346 2.322.142.84.328 1.671.473 2.51.127.73.278 1.46.347 2.197.063.667.067 1.339.064 2.008-.005.733-.06 1.465-.095 2.197-.039.816-.075 1.633-.126 2.448a86.433 86.433 0 0 1-.221 2.95c-.077.786-.226 1.565-.284 2.353-.059.804-.049 1.611-.063 2.417-.02 1.15-.01 2.301-.032 3.452-.02 1.098-.028 2.198-.094 3.295-.041.681-.11 1.361-.19 2.04-.12 1.028-.295 2.05-.441 3.075-.128.9-.222 1.804-.379 2.699a45.918 45.918 0 0 1-.694 3.295 45.708 45.708 0 0 1-1.135 3.86c-.434 1.246-.994 2.445-1.483 3.671-.403 1.013-.827 2.019-1.198 3.044-.262.725-.5 1.46-.726 2.197-.317 1.04-.645 2.078-.883 3.138-.193.86-.317 1.733-.441 2.605-.13.907-.226 1.818-.316 2.73-.127 1.285-.193 2.575-.315 3.86-.093.974-.244 1.942-.316 2.918-.099 1.347-.11 2.699-.157 4.049-.036.993-.076 1.987-.095 2.98-.028 1.413-.016 2.825-.032 4.237-.008.743.025 1.488-.031 2.228-.04.537-.144 1.068-.22 1.6-.092.629-.178 1.258-.285 1.884-.16.934-.342 1.865-.536 2.793-.244 1.165-.484 2.332-.789 3.483-.148.56-.356 1.103-.504 1.663-.134.508-.214 1.03-.347 1.538-.214.813-.498 1.607-.726 2.416-.19.677-.343 1.364-.536 2.04-.108.379-.268.744-.347 1.13-.08.391-.089.794-.126 1.192-.036.387-.069.774-.095 1.161-.013.199.028.406-.031.597-.066.21-.208.393-.347.564-.21.26-.486.458-.726.69-.446.435-.85.914-1.324 1.319-.446.38-.938.703-1.42 1.035-.96.664-1.884 1.4-2.933 1.915-.23.112-.49.15-.726.25-.457.198-.879.47-1.325.691-.416.207-.893.312-1.261.596-.26.2-.45.481-.631.754a6.354 6.354 0 0 0-.536 1.035c-.23.539-.317 1.134-.568 1.663-.18.378-.438.714-.663 1.067-.227.358-.482.7-.694 1.067-.163.285-.274.597-.441.879-.123.207-.302.38-.41.596-.19.376-.296.788-.41 1.193-.079.278-.094.574-.19.847-.103.296-.326.545-.41.847-.031.112-.031.345-.031.345M160.26 222.06s-.459-.156-.598-.251c-.18-.122-.365-.243-.505-.408a1.322 1.322 0 0 1-.284-.502.937.937 0 0 1 0-.502c.022-.073.054-.167.126-.189.077-.022.221.094.221.094"/>
            <path stroke-linecap="round" stroke-width="1.033" d="M2.926 212.457c-.104-.011-.181.11-.252.188-.437.48-1.151 1.031-1.01 1.664.009.036.06.048.095.062a.834.834 0 0 0 .379.063c.179-.017.36-.082.505-.188.18-.134.31-.333.41-.534.09-.184.153-.39.157-.596a.947.947 0 0 0-.094-.44c-.043-.086-.093-.208-.19-.219z"/>
            <path stroke-linecap="round" stroke-width="1.033" d="M1.539 214.309s-.21.276-.253.439a.882.882 0 0 0 0 .44c.033.126.087.263.19.344.179.143.433.166.662.189.273.027.554.003.82-.063.356-.089.673-.293 1.01-.44.525-.229 1.107-.361 1.576-.69.238-.166.42-.401.6-.627.202-.255.376-.533.536-.816.251-.445.441-.921.662-1.381.126-.262.267-.517.379-.785.073-.174.097-.369.19-.533.105-.188.27-.337.41-.502.31-.37.648-.718.946-1.099.157-.201.234-.477.441-.627.116-.084.269-.105.41-.126a1.6 1.6 0 0 1 .252 0"/>
            <path stroke-linecap="round" stroke-width="1.033" d="M9.361 205.898s.542.852.726 1.318c.126.322.184.666.252 1.005.056.28.094.563.126.847.046.406.105.815.095 1.224-.01.41-.081.82-.158 1.224-.08.423-.247.829-.315 1.255a9.634 9.634 0 0 0-.095 1.287c-.012.48.098.966.031 1.443-.054.39-.227.754-.346 1.13-.154.482-.312.963-.474 1.443-.133.399-.241.808-.41 1.193-.133.304-.372.562-.473.878-.105.332-.093.69-.126 1.036-.043.449-.018.905-.095 1.35-.066.385-.212.752-.315 1.13-.118.428-.253.852-.347 1.286-.083.383-.151.77-.19 1.161-.03.323-.026.648-.03.973-.006.314-.007.627 0 .941.005.251-.035.51.03.753.054.195.175.365.285.534.093.144.17.317.315.408.173.108.397.1.6.125.24.03.486.07.725.032.2-.033.4-.106.568-.22.153-.104.271-.256.378-.408.197-.28.365-.586.473-.91.101-.302.1-.629.158-.941.086-.462.18-.923.284-1.381.107-.473.216-.946.347-1.412.15-.539.302-1.08.505-1.6.17-.442.408-.855.599-1.287.11-.25.234-.494.315-.754.09-.286.13-.585.19-.878.111-.553.24-1.104.315-1.663.036-.27-.081-.584.063-.816.064-.104.2-.149.315-.189.08-.027.177-.068.253-.031.055.027.073.1.094.157a.88.88 0 0 1 .063.345c-.01.238-.122.461-.189.69-.1.347-.214.69-.315 1.036-.088.302-.168.607-.253.91-.052.188-.08.386-.157.565-.113.258-.336.46-.442.722-.108.268-.134.563-.19.847-.048.25-.1.5-.125.753-.032.323 0 .65-.032.973a7.782 7.782 0 0 1-.22 1.287c-.117.421-.347.805-.474 1.224-.127.42-.203.854-.284 1.286-.089.479-.165.96-.22 1.444-.047.406-.085.815-.095 1.224-.01.387-.114.802.031 1.16.123.303.39.542.663.722.232.155.51.25.788.283.274.031.563.003.82-.094.205-.078.382-.223.537-.377.154-.154.296-.331.378-.533.104-.256.08-.545.126-.816.049-.283.097-.567.158-.848.055-.252.144-.498.19-.753.034-.196.027-.4.063-.596.15-.84.394-1.66.63-2.48.162-.559.337-1.115.537-1.662.162-.446.392-.866.536-1.318.126-.4.21-.812.284-1.224.089-.498.128-1.004.189-1.506.043-.356.068-.714.126-1.067.042-.254-.003-.553.158-.754.08-.098.227-.116.347-.157.174-.059.352-.12.536-.125.171-.004.368-.008.505.094.131.099.196.278.22.44.039.251-.072.504-.126.753a8.7 8.7 0 0 1-.252.941c-.08.236-.227.448-.284.69-.07.297-.044.607-.063.91-.012.2-.035.398-.031.597.003.252.044.502.063.753.024.324.08.648.063.973-.017.307-.112.605-.158.91-.085.563-.127 1.133-.22 1.694-.079.464-.196.92-.285 1.381-.102.532-.212 1.064-.284 1.6-.03.23-.06.46-.063.691-.002.168-.012.34.032.502.043.158.125.307.22.44.079.107.17.213.285.282.15.09.339.097.504.157.129.046.245.13.379.157.154.03.316.012.473 0 .138-.01.283-.01.41-.063.194-.081.362-.223.505-.377a1.89 1.89 0 0 0 .378-.596c.111-.287.105-.607.158-.91.062-.356.111-.714.19-1.067.114-.518.3-1.018.41-1.538.07-.341.096-.691.157-1.035.083-.473.236-.935.284-1.412.024-.24-.025-.483 0-.722.047-.457.177-.902.284-1.35.085-.358.232-.702.284-1.067.065-.455.046-.92.031-1.38-.02-.609-.152-1.212-.158-1.82-.002-.305-.099-.653.064-.91.09-.143.284-.187.441-.252.151-.061.31-.109.473-.125.178-.018.383-.061.536.031.158.095.235.295.284.471.043.151.004.314 0 .47-.005.252-.07.506-.031.754.037.242.151.467.252.69.118.26.326.48.41.753.062.201.048.418.063.628.033.439.026.88.063 1.318.037.42.122.835.158 1.255.039.449.017.902.063 1.35.034.326.076.654.158.973.047.182.067.39.19.533.155.182.406.26.63.345.182.068.376.153.568.126.237-.034.45-.188.63-.345.148-.129.265-.295.348-.471.147-.313.171-.669.252-1.004.098-.407.243-.808.284-1.224.034-.344-.015-.69-.032-1.036-.023-.492-.035-.986-.094-1.475-.036-.295-.124-.583-.158-.878-.074-.656 0-1.324-.095-1.977-.044-.31-.153-.606-.22-.91-.081-.365-.174-.728-.221-1.099a8.267 8.267 0 0 1-.063-1.192c.006-.347.036-.694.094-1.036.102-.595.296-1.171.442-1.757.19-.764.367-1.53.568-2.291.279-1.06.617-2.106.883-3.17.2-.8.356-1.61.536-2.416.094-.419.224-.83.284-1.255.076-.54.079-1.087.094-1.632.027-.93-.024-1.862 0-2.793.011-.398.011-.798.064-1.193.04-.296.11-.589.189-.878.123-.457.294-.9.441-1.35.22-.67.45-1.336.663-2.008.218-.688.413-1.383.63-2.071.153-.483.316-.963.474-1.444.388-1.182.826-2.35 1.167-3.546.466-1.635.79-3.307 1.198-4.958.402-1.624.795-3.25 1.23-4.864.358-1.324.75-2.639 1.136-3.954.7-2.38 1.358-4.772 2.145-7.124.52-1.554 1.129-3.078 1.703-4.613.53-1.414 1.137-2.802 1.61-4.236.328-1.001.6-2.021.85-3.044.146-.592.27-1.19.38-1.79.125-.697.205-1.402.315-2.102.08-.513.127-1.033.252-1.537.103-.418.34-.8.41-1.224.056-.34-.008-.69 0-1.036.01-.44.025-.88.063-1.318.037-.42.108-.836.158-1.255.033-.282.103-.563.094-.847-.013-.425-.148-.837-.22-1.256-.054-.313-.097-.629-.158-.941-.064-.326-.17-.644-.22-.973a8.172 8.172 0 0 1-.096-1.161c-.006-.67.055-1.341.127-2.008.104-.979.284-1.948.441-2.919.198-1.215.403-2.43.631-3.64.156-.829.373-1.646.505-2.48.233-1.476.337-2.97.504-4.455.138-1.224.275-2.448.41-3.672.117-1.046.275-2.088.347-3.138.053-.762.064-2.291.064-2.291"/>
            <path stroke-linecap="round" stroke-width="1.033" d="M40.778 86.524s.344 1.525.504 2.29c.166.794.325 1.589.473 2.385.113.606.178 1.22.316 1.82.085.372.191.739.315 1.099.165.48.377.942.568 1.412.26.64.567 1.26.789 1.914.194.575.313 1.172.473 1.758.217.796.447 1.588.662 2.385.367 1.357.792 2.702 1.073 4.08.19.932.256 1.885.41 2.824.189 1.154.425 2.3.63 3.452.162.909.295 1.824.474 2.73.14.714.294 1.427.473 2.134.197.78.463 1.542.662 2.322.213.831.436 1.663.568 2.51.13.84.156 1.694.22 2.542.074.962.125 1.925.19 2.887.061.91.071 1.826.19 2.73.093.719.281 1.422.41 2.134.112.627.223 1.254.315 1.883.11.762.18 1.529.284 2.291.087.65.241 1.292.283 1.946.042.647-.022 1.297-.031 1.945-.012.837.015 1.675-.032 2.511-.03.535-.095 1.068-.157 1.6-.092.787-.201 1.57-.316 2.354-.087.597-.196 1.191-.284 1.789a163.697 163.697 0 0 0-.599 4.456c-.109.919-.2 1.84-.284 2.761-.073.805-.137 1.61-.19 2.417-.052.805-.12 1.61-.125 2.416-.003.513.03 1.026.063 1.538.031.503.07 1.005.126 1.506.068.609.156 1.215.252 1.82.047.294.138.582.158.879.016.24-.031.722-.031.722"/>
            <path stroke-linecap="round" stroke-width="1.033" d="M50.146 164.726s-.107.736-.19 1.098c-.068.297-.155.59-.252.879-.158.468-.388.91-.536 1.38-.24.761-.43 1.538-.568 2.323-.12.684-.14 1.382-.22 2.071-.079.67-.127 1.346-.253 2.009-.143.753-.383 1.484-.568 2.228-.183.741-.351 1.487-.536 2.228-.193.775-.4 1.548-.6 2.322-.22.858-.471 1.708-.662 2.573a38.61 38.61 0 0 0-.473 2.574c-.134.895-.212 1.798-.315 2.698-.13 1.13-.265 2.259-.379 3.39-.082.815-.144 1.632-.22 2.447-.102 1.078-.192 2.157-.316 3.233-.1.87-.204 1.74-.347 2.604-.195 1.178-.49 2.338-.694 3.515-.17.99-.32 1.984-.442 2.981-.173 1.419-.328 2.841-.41 4.268-.067 1.18-.042 2.364-.063 3.546l-.031 1.883c-.021 1.287-.09 2.573-.063 3.86.022 1.079.124 2.155.189 3.232.05.837.117 1.673.158 2.51.09 1.903.09 3.81.189 5.712.054 1.047.138 2.093.22 3.138.077.963.172 1.925.253 2.887.141 1.674.23 3.352.41 5.021.161 1.49.387 2.973.6 4.456.128.901.27 1.8.41 2.7.258 1.674.514 3.348.788 5.02.212 1.299.445 2.594.662 3.892.193 1.15.418 2.295.568 3.452.085.656.137 1.317.19 1.977.065.815.118 1.63.157 2.447.048 1.004.074 2.008.095 3.013.023 1.14.032 2.28.031 3.42 0 1.078-.013 2.155-.031 3.233a292.647 292.647 0 0 1-.095 3.86c-.044 1.454-.131 2.907-.158 4.362a35.594 35.594 0 0 0 0 1.883c.037 1.058.22 2.11.221 3.17.001.785-.076 1.57-.157 2.353a23.488 23.488 0 0 1-.316 2.228c-.163.806-.42 1.59-.63 2.385-.126.47-.262.939-.38 1.412-.113.458-.224.917-.315 1.38-.2 1.02-.293 2.059-.504 3.076-.184.887-.467 1.752-.663 2.636-.193.874-.338 1.757-.504 2.636-.202 1.067-.6 3.044-.6 3.201 0 .157-.232 1.567-.315 2.354-.101.96-.158 1.924-.22 2.887-.09 1.359-.226 2.718-.222 4.08.003.87.127 1.735.158 2.604.034.951-.004 1.904.031 2.856.031.827.07 1.655.158 2.479.143 1.346.453 2.67.6 4.017.1.917.05 1.849.189 2.761.143.946.453 1.86.662 2.793.357 1.596.656 3.205 1.01 4.802.35 1.583.722 3.162 1.104 4.738.324 1.342.659 2.681 1.009 4.017.385 1.468.835 2.92 1.198 4.393.304 1.228.55 2.468.82 3.703.224 1.025.455 2.048.663 3.076.247 1.22.495 2.442.694 3.671.15.928.296 1.857.378 2.793.045.5.07 1.004.064 1.507-.007.471-.047.942-.095 1.412-.086.83-.224 1.653-.347 2.479-.1.67-.216 1.338-.315 2.008-.09.606-.19 1.211-.253 1.82-.063.605-.126 1.212-.126 1.82 0 .305.034.608.063.91.025.252.02.512.095.754.102.326.31.609.473.91.194.359.405.708.6 1.067.129.238.378.722.378.722M49.65 381.826s-.108.388-.179.577c-.09.242-.19.481-.312.71-.13.247-.236.525-.446.71-.209.184-.508.232-.758.355-.406.2-.795.43-1.205.621-.35.163-.687.392-1.07.444-.12.016-.237-.044-.357-.044-.255-.001-.52-.002-.759.088-.289.11-.552.303-.758.533-.124.138-.171.33-.268.488-.138.228-.328.426-.446.666-.165.336-.264.702-.357 1.065-.104.408-.208.822-.223 1.243-.014.416.013.843.134 1.242.121.4.272.827.58 1.11.226.206.583.2.848.355.439.255.793.634 1.204.932.45.325.915.631 1.383.932.381.245.766.486 1.16.71.248.141.758.4.758.4"/>
            <path stroke-linecap="round" stroke-width="1.033" d="M48.49 393.853s-.03.717.044 1.065c.093.435.295.842.491 1.242.257.525.493 1.082.892 1.51.357.38.831.642 1.294.887.649.343 1.34.622 2.052.799.755.187 1.542.243 2.32.266.803.024 1.608-.055 2.408-.133.852-.083 1.724-.107 2.543-.355.585-.178 1.184-.405 1.65-.799.334-.281.574-.67.759-1.065.149-.319.241-.67.268-1.02.03-.416-.085-.83-.134-1.243-.055-.46-.122-.917-.179-1.376-.047-.385-.107-.768-.134-1.154-.046-.68.008-1.363-.044-2.042a9.182 9.182 0 0 0-.134-1.02c-.137-.72-.343-1.424-.535-2.13-.125-.462-.232-.93-.402-1.376-.197-.52-.55-.977-.713-1.51-.259-.844-.327-1.738-.402-2.618-.071-.84-.045-2.53-.045-2.53"/>
            <path stroke-linecap="round" stroke-width="1.033" d="M62.675 391.545s.333-.915.58-1.331c.21-.355.551-.62.758-.977.234-.402.427-.835.536-1.287.09-.375.103-.768.089-1.154-.01-.299-.09-.591-.134-.887-.03-.207-.03-.421-.09-.622-.07-.234-.311-.665-.311-.665"/>
            <path stroke-linecap="round" stroke-width="1.033" d="M63.746 387.107s.195-1.422.312-2.13c.108-.653.256-1.3.357-1.953.127-.825.143-1.668.312-2.485.119-.574.32-1.127.49-1.687.129-.416.264-.83.402-1.242.115-.342.297-.666.357-1.021.057-.336.05-.684 0-1.02-.113-.765-.46-1.476-.669-2.22-.207-.736-.321-1.5-.58-2.219-.287-.798-.78-1.511-1.07-2.308-.253-.691-.425-1.41-.58-2.13-.197-.908-.365-1.826-.446-2.751-.094-1.076-.038-2.16-.045-3.24-.005-.71-.075-1.424 0-2.13.127-1.19.52-2.335.758-3.506.27-1.329.521-2.66.759-3.995.35-1.963.647-3.936.981-5.902.146-.859.241-1.728.446-2.574.387-1.597.966-3.141 1.472-4.704.534-1.648 1.228-3.248 1.65-4.927.28-1.106.451-2.24.58-3.373.148-1.295.144-2.603.224-3.905.055-.903.18-1.803.178-2.707-.002-1.527-.126-3.055-.312-4.571-.145-1.178-.442-2.333-.625-3.506-.138-.885-.303-1.77-.357-2.663-.062-1.049.003-2.101.045-3.151.036-.904.058-1.81.178-2.707.14-1.033.34-2.06.625-3.062.365-1.289.907-2.52 1.383-3.773.39-1.025.794-2.045 1.204-3.062.568-1.41 1.228-2.785 1.74-4.216a36.1 36.1 0 0 0 1.026-3.373c.279-1.112.541-2.234.67-3.373.12-1.073.073-2.16.088-3.24.02-1.42-.009-2.84 0-4.26.015-2.382.075-4.763.09-7.145.014-2.293-.085-4.588 0-6.88.044-1.215.135-2.43.267-3.638.135-1.234.355-2.456.535-3.684.28-1.909.56-3.817.848-5.725.366-2.427.786-4.846 1.115-7.278.308-2.273.502-4.56.803-6.835.295-2.223.72-4.43.981-6.657.159-1.342.284-2.689.357-4.038.078-1.433.095-2.87.09-4.305a62.427 62.427 0 0 0-.09-3.151c-.05-.934-.223-2.796-.223-2.796"/>
            <path stroke-linecap="round" stroke-width="1.033" d="M65.129 218.33s1.627.322 2.453.355c.938.038 1.878-.073 2.81-.178 1.557-.175 3.116-.391 4.64-.754a26.54 26.54 0 0 0 3.791-1.198c.678-.274 1.353-.575 1.963-.977.326-.214.646-.453.892-.754.373-.458.64-1.001.848-1.553.266-.71.38-1.47.49-2.22.199-1.335.237-2.69.313-4.038.094-1.67.135-3.343.178-5.015.024-.917.12-1.837.045-2.751-.027-.33-.109-.653-.179-.977a15.76 15.76 0 0 0-.134-.532M82.704 212.827s.19.628.312.932c.13.319.23.664.447.932.306.377.741.638 1.16.887.867.518 1.809.914 2.765 1.243.999.344 2.04.556 3.078.754 1.489.285 2.996.478 4.505.622 1.127.107 2.26.232 3.39.177.797-.038 2.365-.355 2.365-.355M83.596 199.202s.297-1.025.357-1.553c.054-.47 0-1.42 0-1.42"/>
            <path stroke-width="1.033" d="M7.595 228.701c.144.207.466.201.71.265.185.049.376.06.564.089.266.04.577.268.8.118.142-.097.09-.332.118-.501.047-.273.09-.549.089-.825-.001-.169-.02-.338-.06-.501-.026-.112-.038-.241-.118-.325-.052-.054-.137-.06-.207-.088-.157-.063-.306-.167-.474-.177-.203-.011-.4.083-.593.147-.142.048-.304.076-.414.177-.156.143-.225.362-.297.56-.065.18-.098.37-.118.56-.017.166-.096.364 0 .501zM11.416 231.501c.05.13.214.182.326.265.182.136.348.31.563.383.16.055.336.04.504.03.23-.013.468-.031.68-.118.145-.059.31-.13.386-.265.11-.198.053-.453.03-.678a3.07 3.07 0 0 0-.208-.796 1.878 1.878 0 0 0-.207-.383c-.06-.086-.121-.176-.207-.236-.07-.048-.159-.058-.237-.088-.1-.038-.19-.113-.297-.118a.937.937 0 0 0-.503.147 1.206 1.206 0 0 0-.385.383c-.121.186-.167.41-.237.62a5.242 5.242 0 0 0-.148.5c-.027.117-.102.242-.06.354zM17.667 231.59c.16.264.561.267.859.353.279.08.568.14.859.147.169.005.36.03.503-.058.061-.037.094-.111.119-.177.053-.14.051-.294.06-.442a6.41 6.41 0 0 0-.03-1.002c-.012-.11-.013-.225-.06-.325-.032-.07-.1-.117-.148-.176-.07-.088-.117-.198-.207-.266a.72.72 0 0 0-.296-.118 1.006 1.006 0 0 0-.356 0c-.175.03-.339.11-.503.177-.152.062-.33.091-.445.207-.1.1-.135.248-.178.383-.068.219-.087.45-.118.678-.028.205-.167.44-.06.618zM25.635 226.962c.16.133.415-.027.622-.029.326-.003.738.249.978.03.262-.24.062-.707.06-1.062-.003-.275.065-.578-.06-.825a.77.77 0 0 0-.415-.353c-.13-.048-.277-.017-.415 0-.12.014-.248.03-.355.088a.958.958 0 0 0-.385.354c-.074.13-.07.293-.089.442a4.03 4.03 0 0 0-.03.648c.01.238-.093.554.09.707z"/>
            <path stroke-width="1.031" d="M59.91 29.316l-.51-3.245-.462-2.534-.33-2.665.33-4.041.297-2.562.96-2.844 1.536-2.523 2.633-2.359 1.378-1.414 2.104-1.574 1.806-1.042 3.108-.752 1.826-.094 2.67-.184h2.054l2.82.278h2.654l2.649.172 2.362.788 1.937.834 2.035 1.33 2.445 2.532 1.342 2.458 1.045 1.98 1.123 2.675.226 2.301-.226 2.273v2.337l.226 2.51.404 2.609-.124 1.145"/>
        </g>
    </g>
</svg>
