<svg xmlns="http://www.w3.org/2000/svg" width="135" height="334" viewBox="0 0 135 334">
    <g fill="none" fill-rule="evenodd">
        <path fill="#BCBC1C" d="M37.441 160.71c-.397 3.03-.596 4.89-.596 5.58 0 1.036-1.559 6.32-1.559 8.832 0 2.511-.158 14.224.46 18.554.618 4.33.358 14.262 2.22 19.493 1.861 5.23 1.164 6.361 1.164 10.657v15.685c0 1.36-.043 8.977-1.164 10.962-1.121 1.985-2.68 13.23-2.68 13.792 0 .563-.615 10.07 1.032 16.956 1.648 6.886 6 21.408 6 25.292 0 3.883-.674 6.173-.674 10.79 0 4.618-3.62 2.723-4.67 3.849-1.052 1.125-2.142 4.343-.575 5.283 1.567.94 3.481 1.68 3.996 2.528.514.848 1.176 2.744 1.55 2.818.373.074 2.739 1.923 6.73 1.22 3.99-.704 3.877-1.103 4.246-2.486.368-1.383-.843-2.902-.371-4.377.472-1.475 1.557-1.63 1.557-3.416 0-1.787-.379-1.61-.19-3.4.19-1.789 1.358-3.438 1.358-5.804s-1.247-5.115-1.986-6.658c-.74-1.544-.92-6.524-.92-7.98 0-1.457 2.045-11.535 2.475-13.216.431-1.68 3.768-11.343 3.376-13.607-.392-2.265.45-4.888-.922-10.974-.915-4.057.544-10.025 4.377-17.905 1.403-2.262 1.917-6.19 1.542-11.786-.562-8.393 0-10.36 0-12.661s3.53-24.78 3.53-27.408.427-4.618.242-6.477c-.185-1.86 0-3.665 0-4.252 0-.586 1.2-1.838 1.928-2.535 0-.991.68.837 1.38 1.889.53 1.066-.147 9.783.281 11.375.428 1.591.87 10.749 2.022 15.744 1.153 4.995 1.458 13.8 1.458 16.759 0 2.96-.305 9.224-.617 13.195-.098 8.57 3.102 9.13 6.23 19.656-.772 12.265-1.833 12.569-.372 18.402 2.269 9.409 4.85 20.433 5.422 25.197 0 3.093-.998 7.157-2.994 12.194-.254 1.354-.045 2.834.629 4.441.193 2.184-1.345 3.332 1.01 8.778.59 3.934-1.329 7.038 3.82 7.311 7.533.302 8.7-3.06 8.7-3.745 0-.684 4.649-2.69 5.192-3.823.544-1.134.429-3.376-1.307-4.28-1.736-.905-1.736-.583-2.81-.905-1.076-.321-1.81-.484-1.81-1.09 0-.607.5-1.627.5-2.688 0-1.061-1.444-4.523-1.444-6.064 0-1.541 1.347-10.394 2.228-13.037.88-2.642 2.706-13.248 2.706-14.078 0-.83 1.148-5.2 1.937-9.443.183-4.14.163-12.808-.887-15.35-1.05-2.543-2.12-10.055-3.23-13.493-.41-3.66.355-6.09.355-6.566s-.328-12.22 0-17.614c.327-5.394 2.574-18.27 2.875-20.4.3-2.132 2.14-20.068 1.07-25.302-1.07-5.234-1.394-12.31-1.757-14.412-.242-1.401-20.93-1.401-62.063 0z"/>
        <path fill="#DDDD8D" d="M37.441 160.71l31.476-1.05h18.67c7.33 0 11.303.35 11.917 1.05l1.37 15.847.183 3.627c-2.982 1.136-6.586 1.818-10.812 2.045-6.34.34-10.322-.21-13.4-.746-2.053-.358-4.27-1.03-6.655-2.015l-1.273-2.43c-.507 1.319-1.183 2.23-2.028 2.732-1.268.753-.987 2.419-10.948 2.46-3.6.014-6.82-.173-11.93-.747-3.405-.383-6.351-1.244-8.837-2.583l.753-8.654 1.514-9.536z"/>
        <g stroke="#333">
            <path stroke-linecap="round" stroke-width="1.033" d="M70.3 179.468s-.04.87-.052 1.306a143.388 143.388 0 0 0-.052 5.173c.018 1.638.037 3.277.157 4.911.157 2.133.465 4.253.734 6.375.273 2.145.578 4.286.892 6.426.266 1.814.593 3.618.839 5.434.263 1.947.524 3.895.682 5.852.125 1.564.15 3.135.21 4.703.086 2.316.231 4.632.21 6.95-.021 2.126-.16 4.252-.315 6.374-.093 1.256-.336 2.502-.368 3.762-.028 1.115.01 2.238.158 3.344.106.795.294 1.582.524 2.35.438 1.464 1.043 2.873 1.626 4.285.539 1.305 1.146 2.581 1.73 3.867.5 1.1 1.116 2.153 1.521 3.292.26.728.48 1.48.577 2.246.098.778.027 1.568 0 2.352-.044 1.273-.169 2.543-.262 3.814-.099 1.341-.167 2.686-.315 4.023-.095.857-.306 1.7-.367 2.56-.06.834-.068 1.675 0 2.508.061.757.25 1.497.367 2.247.11.713.16 1.437.315 2.142.265 1.206.7 2.369 1.048 3.553.334 1.132.69 2.258.997 3.397.285 1.056.56 2.116.786 3.187.25 1.177.41 2.37.63 3.553.35 1.884.792 3.752 1.1 5.643.216 1.318.33 2.65.525 3.97.096.647.279 1.282.315 1.934.02.348-.016.698-.053 1.045-.068.65-.199 1.29-.314 1.933a51.675 51.675 0 0 1-.42 2.143c-.156.7-.307 1.405-.524 2.09a13.3 13.3 0 0 1-.524 1.358c-.19.428-.44.827-.63 1.254-.196.444-.402.89-.524 1.359a4.182 4.182 0 0 0-.157 1.097c.005.424.114.84.21 1.254.069.3.179.59.262.888.11.399.292.788.314 1.202.019.352-.167.693-.157 1.045.012.427.218.83.262 1.254.047.45.019.906 0 1.358-.009.21-.05.418-.052.627-.004.297.043.592.052.889.008.26-.042.525 0 .783.044.272.167.526.262.784.097.264.208.523.315.784.172.42.392.82.524 1.254.13.425.262 1.306.262 1.306"/>
            <path stroke-linecap="round" stroke-width="1.033" d="M85.98 309.204s.275 2.993.315 4.494a43.952 43.952 0 0 1-.053 3.187c-.042.925-.011 1.865-.21 2.77-.182.834-.583 1.606-.89 2.403-.237.613-.523 1.207-.735 1.829-.187.548-.325 1.111-.472 1.672-.132.502-.26 1.006-.367 1.515-.145.692-.306 1.385-.367 2.09-.026.295-.072.6 0 .888.081.325.292.605.472.888.14.221.27.46.472.627.36.3.811.487 1.258.627.91.286 1.88.365 2.832.418 1.013.057 2.041.064 3.042-.104.757-.128 1.512-.342 2.202-.68.518-.253 1.036-.56 1.416-.992.299-.34.488-.773.63-1.202.07-.218.006-.472.104-.68.09-.189.244-.354.42-.47.184-.12.426-.12.629-.208a8.68 8.68 0 0 0 1.258-.68c.628-.405 1.182-.915 1.783-1.358.242-.178.529-.304.735-.523.225-.24.425-.522.524-.836.105-.332.088-.698.052-1.045-.042-.411-.168-.814-.314-1.201-.11-.292-.272-.562-.42-.836-.133-.248-.232-.522-.42-.732-.216-.242-.482-.459-.786-.575-.164-.062-.35-.026-.524-.052-.177-.026-.347-.115-.525-.104-.11.006-.314.104-.314.104"/>
            <path stroke-linecap="round" stroke-width="1.033" d="M97.832 320.281s-.248-.32-.42-.418c-.25-.141-.553-.174-.839-.209-.295-.036-.891 0-.891 0"/>
            <path stroke-linecap="round" stroke-width="1.033" d="M97.045 320.281s-.953-.458-1.363-.783c-.281-.223-.735-.784-.735-.784"/>
            <path stroke-linecap="round" stroke-width="1.033" d="M94.16 320.595s.535-1.097.735-1.672c.16-.46.313-.928.367-1.41.062-.555.021-1.12-.052-1.673-.09-.674-.293-1.33-.472-1.985-.125-.458-.321-.895-.42-1.359-.091-.429-.11-.87-.157-1.306-.06-.557-.16-1.112-.158-1.672.004-1.033.177-2.06.315-3.083.141-1.05.345-2.09.525-3.135.17-.993.314-1.992.524-2.978.255-1.194.61-2.365.891-3.553.353-1.493.69-2.99.997-4.494.4-1.961.765-3.93 1.101-5.904.27-1.58.438-3.178.734-4.755.254-1.35.63-2.675.892-4.023.282-1.456.586-2.913.734-4.389.154-1.543.164-3.1.157-4.65a49.672 49.672 0 0 0-.157-3.658 51.046 51.046 0 0 0-.315-2.769c-.198-1.484-.397-2.97-.682-4.441-.305-1.58-.777-3.126-1.1-4.703-.303-1.472-.445-2.977-.787-4.44-.199-.849-.542-1.66-.735-2.509-.168-.74-.305-1.49-.367-2.247-.073-.902-.032-1.812 0-2.717.035-.977.19-1.948.21-2.926.024-1.15-.075-2.298-.105-3.448-.02-.801-.031-1.603-.052-2.404-.03-1.167-.093-2.333-.105-3.5-.018-1.812 0-3.624.052-5.434.032-1.081.113-2.16.158-3.24.105-2.56.242-5.119.262-7.68.007-.924-.053-2.77-.053-2.77"/>
            <path stroke-linecap="round" stroke-width="1.033" d="M96.888 220.536s.794-4.983 1.206-7.472c.41-2.474.915-4.934 1.258-7.42.36-2.602.595-5.22.84-7.837.204-2.192.389-4.386.524-6.583.15-2.436.272-4.875.314-7.315.035-2.038.053-4.078-.052-6.113-.124-2.411-.442-4.809-.682-7.21-.2-2.005-.42-4.007-.629-6.01-.122-1.167-.286-2.33-.367-3.5-.107-1.548-.064-3.102-.157-4.65-.061-1.013-.097-2.03-.263-3.031-.155-.938-.455-1.846-.681-2.77-.35-1.427-.685-2.86-1.05-4.284-.218-.856-.497-1.696-.68-2.56a14.038 14.038 0 0 1-.21-1.306 19.307 19.307 0 0 1-.106-1.463c0-.21-.284-.94-.419-1.411-.145-.504-.349-.996-.42-1.515-.093-.69.009-1.394 0-2.09-.008-.75-.01-1.5-.052-2.247a57.404 57.404 0 0 0-.315-3.605c-.083-.7-.201-1.395-.314-2.09-.18-1.1-.394-2.193-.577-3.292-.203-1.218-.43-2.432-.577-3.658a56.891 56.891 0 0 1-.315-3.814c-.041-.8-.1-1.603-.052-2.403.06-.984.33-1.945.42-2.926.083-.92.044-1.848.104-2.77.099-1.5.337-2.991.42-4.493.055-.992-.018-1.988.052-2.978.12-1.698.421-3.379.63-5.069.158-1.288.299-2.58.471-3.866.305-2.268.514-4.555.997-6.793.187-.867.47-1.712.734-2.56.18-.579.373-1.153.577-1.724.182-.509.433-.994.577-1.515.188-.682.294-1.387.367-2.09.054-.52-.03-1.052.052-1.568.089-.555.472-1.62.472-1.62"/>
            <path stroke-linecap="round" stroke-width="1.033" d="M94.528 97.487s.32 2.235.524 3.344c.366 1.98.895 3.926 1.259 5.905.268 1.456.332 2.95.682 4.389.117.481.326.936.472 1.41.248.813.52 1.622.681 2.456.177.912.276 1.841.315 2.77.024.574-.002 1.15-.053 1.724-.052.596-.227 1.179-.262 1.776-.032.557-.004 1.117.053 1.672.051.51.18 1.01.262 1.515.056.348.13.694.157 1.045.029.382-.056.77 0 1.15.106.72.4 1.4.63 2.09.193.58.314 1.2.629 1.724.336.561.902.952 1.31 1.463M99.562 130.04l.367 1.514c.14.575.272 1.152.42 1.725.166.646.286 1.309.524 1.933.39 1.019 1.036 1.924 1.468 2.926.324.749.557 1.534.84 2.299.38 1.029.759 2.059 1.153 3.083.512 1.328 1.083 2.634 1.573 3.97a124.966 124.966 0 0 1 1.888 5.591 95.1 95.1 0 0 1 1.154 3.971c.152.572.255 1.156.42 1.725.32 1.111.665 2.22 1.1 3.291.364.896.898 1.716 1.26 2.613.335.833.733 2.299.838 2.56.105.261.182.69.21 1.045.03.4-.028.802-.053 1.202-.054.89-.187 1.774-.21 2.665-.015.61 0 1.22.053 1.828.053.597.133 1.192.262 1.777.146.656.391 1.287.577 1.933.235.817.46 1.636.682 2.456.16.591.333 1.18.472 1.776.08.346.174.692.21 1.045.032.33.007.662 0 .993-.01.384-.017.768-.053 1.15-.029.306-.102.608-.13.914-.035.356-.023.715-.053 1.071-.031.359-.078.715-.131 1.071-.045.298-.124.59-.158.889-.019.164-.022.33-.026.496-.004.157-.013.314 0 .47.026.325.103.645.157.967.051.305.023.636.158.914.097.2.257.379.445.496.162.101.36.155.551.157.172.002.35-.045.498-.13.16-.092.3-.233.393-.392.133-.227.164-.5.21-.758.056-.31.039-.628.079-.94.04-.307.112-.609.157-.915.041-.278.088-.555.105-.836.016-.252.02-.56.053-.81.026-.205.037-.352.104-.548.087-.251.203-.491.315-.732.09-.194.228-.369.288-.574.047-.16.044-.33.053-.497.011-.217-.027-.437 0-.653.004-.036-.003-.083.026-.104.12-.088.31-.035.446.026.146.065.28.191.34.34.037.088.006.191 0 .287-.012.227-.05.453-.078.679-.034.279-.087.556-.105.836-.017.27-.025.541 0 .81.03.326.13.643.184.966.06.365.112.73.157 1.098.062.504.112 1.01.157 1.515.031.34.018.684.079 1.019.04.214.136.414.183.627.049.215.077.434.105.653.034.26-.003.534.079.784a1.682 1.682 0 0 0 .865.967c.13.06.276.09.42.104.209.021.43.04.63-.026.13-.044.232-.15.34-.235.14-.113.312-.207.393-.366.068-.133.044-.296.053-.444a6.096 6.096 0 0 0 0-.862c-.018-.212-.081-.417-.105-.627-.033-.287-.034-.575-.053-.863-.016-.26-.003-.526-.052-.783-.032-.17-.124-.326-.157-.497-.041-.206-.037-.418-.053-.627-.02-.252-.052-.504-.052-.757 0-.254.031-.506.052-.758.023-.279.078-.556.079-.836 0-.192-.027-.384-.053-.575-.026-.193-.078-.382-.105-.574-.037-.27-.018-.546-.078-.81-.023-.1-.095-.186-.105-.288-.006-.061-.02-.142.026-.183.092-.08.245-.012.367 0 .125.014.264.008.367.079a.67.67 0 0 1 .236.366c.035.116-.002.243 0 .365.005.218.022.436.026.653.004.2-.018.402 0 .601.018.194.059.386.105.575.063.257.14.51.236.758.097.25.257.476.341.731.095.287.103.597.184.888.091.33.264.634.34.967.087.376.091.766.132 1.15.038.365.065.731.104 1.097.032.288.06.576.105.862.036.22.084.436.131.653.04.184.031.39.132.549.125.199.332.354.55.444.236.097.51.121.76.078a1.43 1.43 0 0 0 .604-.287c.138-.105.239-.252.34-.392.12-.165.25-.33.315-.523.076-.224.066-.469.079-.705.025-.452 0-.906 0-1.358 0-.358.059-.72 0-1.072-.045-.263-.196-.499-.262-.757-.102-.394-.137-.802-.21-1.202-.042-.227-.158-.575-.131-.68.026-.104-.01-.542-.053-.81-.033-.203-.108-.399-.157-.6-.057-.234-.069-.481-.157-.705-.064-.16-.206-.282-.263-.444-.063-.183-.033-.387-.078-.575-.056-.233-.18-.447-.236-.68-.03-.12-.04-.243-.053-.365-.012-.113-.089-.245-.026-.34.03-.046.103-.043.157-.052.07-.011.146-.029.21 0 .096.043.163.141.21.235.076.151.078.33.105.496.026.165.014.335.052.497.04.172.13.328.184.496.062.198.09.405.157.601.072.206.18.399.262.6.093.225.181.451.263.68.104.294.21.587.288.888.105.413.162.836.236 1.254.075.426.127.856.21 1.28.053.272.105.545.183.81.08.267.159.538.289.784.084.16.2.303.314.444.097.12.187.253.315.34.14.095.307.148.472.183.18.038.371.066.55.026a.899.899 0 0 0 .341-.183c.103-.08.171-.195.263-.287.108-.11.27-.177.34-.314.061-.117.04-.26.053-.392.036-.347.07-.696.079-1.045.008-.348-.022-.696-.027-1.045-.002-.209.053-.425 0-.627-.04-.154-.178-.269-.236-.418a3.04 3.04 0 0 1-.157-.679c-.023-.164.005-.334-.026-.496-.036-.19-.15-.36-.184-.549-.053-.3.008-.611-.026-.914-.025-.23-.06-.46-.131-.68-.05-.155-.155-.29-.21-.444-.109-.304-.138-.632-.236-.94-.088-.276-.232-.532-.314-.81-.098-.333-.106-.688-.21-1.019-.06-.19-.192-.355-.236-.549a2.152 2.152 0 0 1-.026-.574c.006-.132.025-.263.052-.392.04-.186.12-.362.157-.549.046-.232.086-.469.08-.705-.005-.16-.064-.312-.08-.47-.028-.287 0-.576-.026-.863-.016-.175-.07-.346-.078-.522a2.215 2.215 0 0 1 .026-.496c.02-.117.064-.229.105-.34.091-.25.256-.473.314-.732.05-.22.005-.453.027-.679.021-.228.107-.45.104-.68-.001-.15-.078-.443-.078-.443"/>
            <path stroke-linecap="round" stroke-width="1.033" d="M115.006 191.903c.183 0 .367-.005.55 0 .158.005.348.122.472.026.07-.054.036-.174.053-.261.036-.191.092-.38.104-.575.01-.156.019-.32-.026-.47a.874.874 0 0 0-.21-.366.945.945 0 0 0-.314-.183c-.092-.038-.189-.08-.289-.078a.543.543 0 0 0-.236.078 1.252 1.252 0 0 0-.262.21c-.058.055-.12.11-.157.182a.82.82 0 0 0-.079.314c-.007.096.018.191.027.287.017.183.027.367.052.549.013.096-.023.225.052.287.068.056.175 0 .263 0zM119.961 194.333c.14.119.367.043.55.052.21.01.421.023.63 0 .16-.017.367.018.472-.104.091-.107.033-.279.026-.418-.01-.22-.03-.446-.105-.654a1.034 1.034 0 0 0-.183-.313 1.392 1.392 0 0 0-.341-.287.902.902 0 0 0-.315-.131.763.763 0 0 0-.393.026.915.915 0 0 0-.393.314.79.79 0 0 0-.131.34c-.031.188-.003.384.026.574.03.205-.001.467.157.6zM124.366 195.012c.103.108.296.046.446.052.323.015.65.018.97-.026.214-.029.5.016.63-.157.141-.188.024-.475-.027-.705a1.996 1.996 0 0 0-.288-.68.573.573 0 0 0-.184-.182.988.988 0 0 0-.524-.13c-.103.005-.196.062-.289.104a1.72 1.72 0 0 0-.288.157 1.337 1.337 0 0 0-.262.235.982.982 0 0 0-.158.26c-.046.117-.07.242-.078.367-.017.235-.112.535.052.705zM128.614 193.157c.11.092.277.084.42.105.172.025.349.036.524.026.159-.01.322-.024.471-.079.144-.052.326-.098.394-.235.074-.149-.017-.334-.053-.496-.035-.162-.07-.33-.157-.47a.863.863 0 0 0-.236-.236.912.912 0 0 0-.315-.156c-.102-.024-.21-.01-.314 0a2.258 2.258 0 0 0-.42.078c-.09.026-.178.062-.262.105-.101.051-.214.096-.288.182a.44.44 0 0 0-.105.236c-.013.124.04.247.078.365.067.2.1.44.263.575zM128.987 180.967s.07.542.111.812c.056.37.118.74.185 1.109.057.309.072.63.186.923.13.335.32.653.556.924.271.31.631.532.964.776.252.184.503.371.779.517.26.137.525.287.816.333.159.025.324-.003.482-.037.103-.023.216-.043.296-.111.076-.064.062-.05.122-.128.053-.07.179-.235.212-.315a.413.413 0 0 0 0-.26c-.026-.095-.096-.173-.148-.258-.294-.477-.766-.867-.927-1.404-.022-.07 0-.147 0-.221 0-.148.021-.297 0-.444-.019-.127-.09-.242-.112-.37-.038-.218-.019-.443-.037-.664-.028-.358-.048-.718-.11-1.072-.045-.25-.087-.505-.186-.739-.091-.213-.272-.38-.371-.59-.2-.423-.28-.893-.445-1.33-.09-.238-.22-.46-.297-.703-.053-.168-.06-.348-.11-.517-.08-.265-.234-.506-.298-.776-.057-.24-.015-.498-.074-.739a1.28 1.28 0 0 0-.148-.37c-.078-.125-.194-.225-.297-.332-.357-.37-.744-.71-1.112-1.071-.561-.55-1.122-1.1-1.669-1.663-.54-.557-1.085-1.113-1.594-1.7-.363-.417-.698-.857-1.038-1.292-.315-.403-.64-.797-.927-1.22a9.86 9.86 0 0 1-.557-.923c-.152-.288-.318-.574-.408-.887-.106-.37-.096-.764-.148-1.145-.059-.432-.117-.863-.185-1.293-.068-.433-.134-.865-.223-1.294-.202-.98-.46-1.948-.704-2.918-.227-.902-.462-1.8-.705-2.697-.323-1.198-.707-2.38-1-3.584-.287-1.174-.51-2.362-.743-3.547-.144-.737-.312-1.472-.407-2.217-.087-.674-.11-1.354-.149-2.032-.035-.615-.048-1.232-.074-1.847-.047-1.096-.086-2.193-.148-3.288-.052-.912-.112-1.824-.186-2.734-.074-.913-.1-1.833-.26-2.735-.067-.388-.204-.761-.296-1.145-.12-.503-.271-1.001-.334-1.515-.06-.501.004-1.011-.037-1.514a22.216 22.216 0 0 0-.296-2.143 26.403 26.403 0 0 0-.52-2.328c-.23-.837-.536-1.652-.815-2.475-.314-.927-.6-1.864-.964-2.771-.333-.83-.752-1.621-1.113-2.439-.432-.98-.887-1.952-1.26-2.956a30.173 30.173 0 0 1-.964-3.03c-.305-1.19-.509-2.406-.705-3.62-.185-1.14-.274-2.294-.445-3.436-.142-.951-.36-1.89-.482-2.845-.11-.858-.135-1.725-.223-2.586-.107-1.06-.244-2.119-.37-3.177-.121-1.01-.198-2.027-.371-3.03-.135-.783-.388-1.544-.52-2.328-.126-.757-.237-1.522-.259-2.29-.019-.666.023-1.335.111-1.995.11-.824.352-1.625.52-2.439.179-.873.382-1.742.519-2.623.168-1.078.291-2.163.37-3.251.057-.774.062-1.552.075-2.328.011-.714.039-1.43 0-2.143-.044-.791-.172-1.576-.26-2.364-.073-.653-.185-1.303-.222-1.958-.052-.91.08-1.827 0-2.735a12.13 12.13 0 0 0-.371-2.069c-.123-.455-.265-.91-.482-1.33-.18-.346-.423-.656-.668-.96-.41-.51-.868-.981-1.335-1.441-.497-.49-1.005-.975-1.557-1.404a7.332 7.332 0 0 0-1.112-.739c-.365-.189-.76-.314-1.15-.443-.56-.187-1.147-.29-1.706-.48a25.823 25.823 0 0 1-2.113-.85c-.904-.4-1.8-.825-2.67-1.294-1.165-.627-2.24-1.414-3.411-2.032-.831-.438-1.713-.773-2.559-1.182-1.084-.523-2.146-1.092-3.226-1.625-.862-.426-1.73-.84-2.595-1.257-.951-.457-1.93-.86-2.856-1.367-.715-.392-1.43-.796-2.076-1.293a8.455 8.455 0 0 1-1.335-1.256c-.189-.226-.315-.497-.482-.739-.31-.451-.964-1.33-.964-1.33"/>
            <path stroke-linecap="round" stroke-width="1.033" d="M77.668 46.112s-.185-.459-.223-.702c-.113-.73-.026-1.478 0-2.216.043-1.21.156-2.415.26-3.621.053-.617.11-1.233.185-1.847.074-.606.164-1.209.26-1.81.113-.717.242-1.43.37-2.144.131-.727.408-2.18.408-2.18"/>
            <path stroke-linecap="round" stroke-width="1.033" d="M78.113 36.063s.406-.553.63-.813c.21-.245.39-.535.667-.702.154-.093.35-.087.52-.148.266-.094.551-.164.778-.332.324-.24.56-.585.779-.924.28-.436.458-.93.667-1.404.237-.535.527-1.057.668-1.625.125-.505.105-1.034.148-1.552.029-.345.02-.693.074-1.035.089-.563.34-1.096.408-1.662.064-.526.01-1.06 0-1.589-.006-.308.04-.625-.037-.923-.076-.294-.408-.813-.408-.813M49.969 24.573s-.053.468-.038.702c.023.337.088.674.186.997.136.45.393.854.556 1.293.158.424.306.853.408 1.294.112.485.141.986.222 1.477.08.482.128.971.26 1.441.139.496.348.97.556 1.441.212.479.347 1.021.705 1.404.264.283.643.443 1 .591.272.113.566.164.854.222.171.034.364-.007.519.074.193.101.318.302.445.48.137.193.334.628.334.628"/>
            <path stroke-linecap="round" stroke-width="1.033" d="M55.494 33.625s.368 1.25.519 1.884c.174.733.326 1.472.445 2.217.197 1.237.285 2.489.445 3.731.138 1.085.355 2.161.445 3.251.037.455.066.913.037 1.368-.016.236-.112.701-.112.701"/>
            <path stroke-linecap="round" stroke-width="1.033" d="M58.09 44.524s-.267.946-.446 1.404c-.148.38-.252.799-.519 1.108-.436.505-1.09.776-1.669 1.108-.632.363-1.31.642-1.965.961-.864.42-1.733.833-2.595 1.256-.695.341-1.372.716-2.077 1.035-1.155.523-2.346.967-3.523 1.44-.962.388-1.94.737-2.892 1.146-1.076.462-2.103 1.037-3.189 1.478-.724.294-1.47.531-2.213.776-.895.295-1.807.537-2.7.836-.758.253-1.536.464-2.256.81a7.52 7.52 0 0 0-1.232.758c-.377.28-.706.62-1.049.94-.419.392-.851.773-1.232 1.202-.343.386-.688.78-.944 1.228-.233.407-.373.862-.525 1.306-.134.394-.247.796-.34 1.202a15.04 15.04 0 0 0-.263 1.463c-.056.442-.07.888-.105 1.332-.071.932-.13 1.864-.21 2.795-.046.55-.102 1.098-.157 1.646-.059.601-.149 1.2-.183 1.803a23.04 23.04 0 0 0-.026 2.247c.023.559.09 1.116.157 1.672.079.646.18 1.29.288 1.933.118.699.273 1.391.394 2.09.105.608.23 1.214.288 1.829.052.555.056 1.114.053 1.672-.004.61-.05 1.219-.08 1.828-.031.68-.061 1.36-.104 2.038-.052.82-.104 1.639-.183 2.456-.064.655-.189 1.303-.236 1.96-.05.668-.041 1.34-.053 2.01-.017.959-.008 1.917-.026 2.875-.017.914-.023 1.83-.079 2.743-.034.567-.09 1.133-.157 1.698-.101.856-.246 1.707-.367 2.56-.106.749-.185 1.502-.315 2.247-.16.92-.349 1.837-.577 2.743a38.095 38.095 0 0 1-.944 3.213c-.36 1.038-.826 2.036-1.232 3.057-.336.843-.688 1.68-.996 2.534a38.27 38.27 0 0 0-.603 1.829c-.264.865-.536 1.73-.735 2.612-.16.716-.263 1.443-.367 2.169a53.052 53.052 0 0 0-.262 2.273c-.105 1.07-.16 2.143-.262 3.213-.077.81-.203 1.617-.262 2.43-.082 1.12-.092 2.246-.131 3.37-.03.827-.063 1.654-.079 2.482-.023 1.175-.013 2.35-.026 3.527-.007.618.02 1.238-.026 1.854-.034.447-.12.889-.184 1.333-.075.523-.147 1.046-.236 1.567a64.97 64.97 0 0 1-.446 2.325c-.202.97-.402 1.942-.655 2.9-.123.466-.297.919-.42 1.385-.111.423-.177.857-.288 1.28-.178.677-.414 1.338-.603 2.012-.158.563-.286 1.135-.446 1.698-.09.315-.223.619-.288.94-.067.326-.074.662-.105.993-.03.322-.057.644-.079.967-.01.165.023.338-.026.496-.055.175-.173.327-.288.47-.175.216-.405.381-.603.575-.372.362-.708.76-1.102 1.097-.37.317-.779.585-1.18.862-.798.553-1.566 1.166-2.438 1.594-.191.094-.408.125-.603.209-.38.164-.73.39-1.101.575-.347.172-.743.26-1.05.496-.215.167-.373.4-.524.627-.179.27-.318.565-.445.862-.191.449-.264.944-.472 1.385-.15.315-.364.594-.55.888-.19.298-.402.582-.578.888-.135.237-.228.497-.367.732-.102.173-.25.317-.34.496-.158.313-.246.656-.341.993-.066.232-.079.478-.158.705-.086.247-.27.454-.34.706-.027.092-.027.287-.027.287M133.386 185.032s-.382-.13-.499-.209c-.148-.101-.303-.202-.42-.34a1.101 1.101 0 0 1-.235-.417.781.781 0 0 1 0-.418c.018-.06.044-.14.105-.157.064-.019.183.078.183.078"/>
            <path stroke-linecap="round" stroke-width="1.033" d="M2.601 177.038c-.087-.01-.15.092-.21.157-.362.4-.956.858-.838 1.384.006.031.049.041.078.053a.692.692 0 0 0 .315.052.854.854 0 0 0 .42-.157 1.2 1.2 0 0 0 .34-.444c.076-.154.127-.325.131-.496a.789.789 0 0 0-.078-.366c-.036-.072-.078-.174-.158-.183z"/>
            <path stroke-linecap="round" stroke-width="1.033" d="M1.448 178.58s-.174.23-.21.365a.735.735 0 0 0 0 .366c.027.106.072.22.157.287.15.12.36.138.55.157.228.023.461.003.683-.052.296-.074.56-.244.839-.366.437-.191.92-.301 1.31-.575.198-.138.35-.334.499-.522.168-.212.312-.444.446-.68.208-.37.366-.766.55-1.149.105-.218.222-.43.315-.653.06-.145.08-.307.157-.444.088-.157.225-.28.34-.418.26-.308.54-.597.788-.915.13-.168.194-.397.367-.522.096-.07.223-.087.34-.105.07-.01.21 0 .21 0"/>
            <path stroke-linecap="round" stroke-width="1.033" d="M7.95 171.578s.45.709.603 1.097c.105.268.154.554.21.836.046.233.078.47.105.706.038.338.087.678.079 1.018a6.381 6.381 0 0 1-.132 1.02c-.066.352-.205.69-.262 1.044-.057.354-.07.713-.078 1.071-.01.4.08.805.026 1.202-.045.325-.19.628-.289.94-.127.402-.259.803-.393 1.202-.111.332-.2.672-.34.993-.112.254-.31.468-.394.732-.088.276-.077.574-.105.862-.036.373-.015.753-.079 1.123-.055.32-.176.627-.262.94-.098.357-.21.71-.288 1.072-.069.319-.126.641-.158.966-.026.27-.021.54-.026.81-.004.261-.005.523 0 .784.005.21-.028.425.026.627.044.162.146.303.236.444.078.12.141.264.263.34.143.09.33.083.498.104.2.025.404.059.603.026a1.19 1.19 0 0 0 .472-.183 1.3 1.3 0 0 0 .314-.34c.164-.232.304-.487.394-.757.084-.251.082-.523.13-.784a31.292 31.292 0 0 1 .525-2.325c.126-.448.251-.898.42-1.332.142-.367.339-.71.498-1.071.091-.207.194-.411.262-.627.075-.238.108-.487.157-.732.094-.46.2-.919.263-1.384.03-.225-.068-.486.052-.68.054-.086.166-.123.262-.156.067-.023.147-.057.21-.026.046.022.06.083.079.13.034.091.056.19.052.288-.008.198-.102.384-.157.574-.084.289-.179.574-.262.863-.073.251-.14.505-.21.757-.044.157-.066.321-.131.47-.094.216-.28.384-.367.601-.09.224-.112.47-.158.706-.04.208-.084.416-.105.627-.026.268.001.54-.026.81-.036.36-.087.721-.183 1.07-.097.352-.289.671-.394 1.02-.105.35-.169.711-.236 1.07-.074.399-.137.8-.183 1.202-.039.339-.07.679-.079 1.02-.008.321-.095.667.026.966.102.251.325.45.551.6.193.13.425.21.656.236.227.026.468.003.681-.078.17-.065.317-.186.446-.314s.247-.276.315-.444c.086-.213.066-.454.105-.68.04-.235.08-.471.13-.705.047-.21.12-.415.158-.627.029-.164.023-.332.052-.496.125-.699.329-1.382.525-2.064.134-.466.28-.929.446-1.385.134-.37.326-.72.445-1.097.106-.332.175-.676.236-1.019.074-.415.107-.836.158-1.254.036-.296.056-.594.104-.888.035-.21-.003-.46.132-.627.066-.082.188-.097.288-.13.144-.05.293-.102.446-.105.142-.003.306-.007.42.078.108.082.162.231.183.366.031.21-.06.42-.105.627a7.252 7.252 0 0 1-.21.784c-.066.196-.189.373-.236.575-.057.246-.037.504-.052.757-.01.166-.03.33-.027.497.004.21.037.417.053.627.02.27.067.54.052.81-.013.255-.092.504-.13.757-.072.469-.106.943-.184 1.41-.065.387-.163.766-.236 1.15-.085.443-.176.886-.236 1.333-.026.19-.05.382-.053.574-.002.14-.01.284.027.418.035.132.103.256.183.366.065.09.141.178.236.235.126.076.282.081.42.13.106.04.203.11.314.132.129.025.263.01.394 0 .114-.01.235-.008.34-.053a1.25 1.25 0 0 0 .42-.313c.133-.144.244-.314.315-.497.092-.239.087-.505.13-.757.053-.296.093-.595.158-.889.095-.43.25-.847.34-1.28.06-.284.082-.576.132-.862.07-.393.196-.778.236-1.175.02-.2-.02-.402 0-.601.04-.38.147-.751.236-1.124.07-.298.193-.585.236-.888.054-.38.038-.766.026-1.15-.016-.506-.127-1.008-.131-1.515-.002-.253-.083-.543.053-.757.074-.12.236-.156.367-.21.125-.05.258-.09.393-.104.148-.015.318-.05.446.026.13.08.195.245.236.392.035.126.003.261 0 .392-.005.21-.059.42-.027.627.032.202.126.389.21.575.098.217.271.4.341.627.052.167.04.348.052.522.028.366.021.733.053 1.098.03.35.101.695.131 1.045.032.373.014.75.053 1.123.028.272.063.545.13.81.04.152.056.324.158.444.129.152.338.217.524.287.151.057.313.128.472.105.198-.028.375-.156.525-.288.122-.106.219-.245.288-.391.123-.26.142-.557.21-.836.082-.34.202-.672.236-1.02.028-.285-.013-.574-.026-.861-.02-.41-.03-.821-.079-1.228-.03-.246-.103-.486-.131-.732-.062-.546 0-1.102-.079-1.646-.037-.257-.127-.504-.183-.757-.068-.304-.145-.606-.184-.915a6.892 6.892 0 0 1-.052-.992 5.78 5.78 0 0 1 .078-.863c.085-.495.246-.975.367-1.462.159-.636.306-1.274.472-1.908.232-.883.513-1.753.734-2.638.167-.667.296-1.342.446-2.012.078-.348.186-.691.236-1.045.063-.45.066-.905.079-1.358.022-.775-.02-1.55 0-2.325.008-.332.008-.665.052-.993.033-.247.092-.49.158-.732.102-.38.244-.749.367-1.123.182-.558.373-1.113.55-1.672.182-.573.344-1.151.525-1.724.126-.402.262-.802.393-1.202.323-.984.687-1.956.97-2.952.387-1.362.657-2.754.996-4.128.334-1.352.66-2.705 1.023-4.05.297-1.101.622-2.196.944-3.291.582-1.98 1.128-3.973 1.783-5.93.432-1.294.938-2.563 1.416-3.84.44-1.179.945-2.333 1.337-3.528.274-.833.5-1.682.708-2.534.12-.493.224-.99.314-1.489.105-.58.171-1.168.263-1.75.067-.428.105-.86.21-1.28.085-.348.283-.666.34-1.02.046-.283-.007-.574 0-.861.009-.367.021-.733.053-1.098.03-.35.09-.696.13-1.045.029-.235.087-.469.08-.705-.012-.354-.124-.697-.184-1.045-.045-.261-.08-.524-.131-.784-.054-.271-.142-.536-.184-.81a6.813 6.813 0 0 1-.078-.966c-.006-.559.045-1.117.104-1.672.087-.815.237-1.621.368-2.43.164-1.012.334-2.023.524-3.03.13-.69.31-1.371.42-2.064.194-1.23.28-2.473.419-3.71.114-1.019.228-2.038.34-3.057.097-.87.23-1.738.29-2.612.043-.635.052-1.907.052-1.907"/>
            <path stroke-linecap="round" stroke-width="1.033" d="M34.065 72.198s.286 1.27.42 1.908c.138.66.27 1.322.393 1.985.093.504.148 1.016.262 1.515.07.31.16.615.262.915.137.399.313.784.472 1.175.216.532.472 1.05.656 1.594.162.478.26.976.393 1.463.181.662.372 1.322.55 1.985.306 1.13.66 2.25.892 3.397.158.776.213 1.57.341 2.35.157.962.354 1.916.524 2.875.135.757.245 1.518.394 2.273.117.595.244 1.188.393 1.776.164.65.385 1.284.55 1.933.177.692.363 1.385.473 2.09.108.7.13 1.41.183 2.116.061.801.103 1.603.157 2.404.051.758.06 1.52.158 2.273.077.598.234 1.183.34 1.776.094.522.187 1.044.263 1.568.092.634.15 1.272.236 1.907.073.54.2 1.075.236 1.62.034.539-.019 1.08-.026 1.62-.01.696.012 1.394-.027 2.09-.024.445-.08.888-.13 1.332a66.913 66.913 0 0 1-.263 1.96c-.073.496-.163.991-.236 1.488-.18 1.235-.351 2.471-.498 3.71-.09.765-.167 1.532-.236 2.299-.06.67-.114 1.34-.157 2.012-.044.67-.102 1.34-.105 2.011-.003.427.026.854.052 1.28.026.419.059.837.105 1.254.056.507.13 1.012.21 1.516.039.244.114.484.13.731.014.2-.025.601-.025.601"/>
            <path stroke-linecap="round" stroke-width="1.033" d="M41.852 137.302s-.088.613-.157.914a7.637 7.637 0 0 1-.21.732c-.13.39-.322.757-.445 1.15-.2.632-.358 1.28-.472 1.933-.1.569-.117 1.15-.184 1.724-.065.558-.105 1.12-.21 1.672-.118.627-.318 1.235-.472 1.855-.152.617-.292 1.237-.445 1.855-.161.645-.333 1.288-.499 1.933-.183.714-.392 1.422-.55 2.142-.156.71-.286 1.424-.393 2.142-.112.746-.177 1.498-.263 2.247-.107.94-.22 1.88-.314 2.822-.069.678-.12 1.358-.184 2.037-.084.898-.159 1.796-.262 2.691a44.87 44.87 0 0 1-.288 2.169c-.162.98-.408 1.946-.577 2.926a50.695 50.695 0 0 0-.367 2.481 55.335 55.335 0 0 0-.341 3.553c-.056.983-.036 1.968-.053 2.953l-.026 1.567c-.018 1.071-.075 2.142-.052 3.213.018.899.103 1.794.157 2.691.042.697.098 1.393.131 2.09.076 1.584.076 3.171.157 4.755.045.872.115 1.742.184 2.613.063.801.142 1.602.21 2.403.117 1.393.19 2.79.34 4.18.134 1.24.322 2.475.499 3.71.107.75.225 1.498.34 2.246.216 1.394.429 2.789.656 4.18.177 1.081.37 2.16.55 3.24.16.957.348 1.911.473 2.874.07.546.113 1.096.157 1.646.054.678.098 1.358.131 2.037.04.836.062 1.672.079 2.508.019.95.026 1.899.026 2.848 0 .897-.011 1.794-.026 2.69a243.998 243.998 0 0 1-.079 3.214c-.037 1.21-.11 2.42-.131 3.632-.01.522-.018 1.045 0 1.567.03.881.182 1.757.184 2.639 0 .654-.064 1.308-.132 1.96a19.581 19.581 0 0 1-.262 1.854c-.135.67-.348 1.324-.524 1.985-.104.393-.217.782-.315 1.176-.094.382-.187.764-.262 1.15-.166.848-.244 1.713-.42 2.56-.152.738-.388 1.458-.55 2.194-.16.728-.281 1.463-.42 2.195-.168.888-.498 2.534-.498 2.665 0 .13-.193 1.304-.262 1.959-.084.8-.131 1.602-.184 2.403-.073 1.132-.187 2.263-.183 3.397.002.724.105 1.444.131 2.168.028.792-.003 1.586.026 2.377.026.69.059 1.379.131 2.064.12 1.121.377 2.224.498 3.344.083.764.043 1.54.158 2.3.12.787.377 1.547.55 2.324.297 1.33.545 2.668.84 3.998.291 1.318.6 2.632.917 3.944.27 1.118.548 2.233.84 3.344.319 1.223.693 2.431.995 3.658.253 1.022.458 2.055.682 3.083.186.853.378 1.704.55 2.56.206 1.016.412 2.033.578 3.057.125.772.245 1.546.314 2.325.037.416.058.835.053 1.254-.006.392-.039.785-.079 1.175-.071.691-.186 1.377-.288 2.064-.083.558-.18 1.114-.263 1.672-.074.505-.157 1.008-.21 1.515-.052.504-.104 1.01-.104 1.516 0 .253.028.505.052.757.02.21.016.426.079.627.085.272.258.508.393.758.162.299.337.59.498.888.108.199.315.601.315.601M41.44 318.037s-.09.324-.148.48a4.96 4.96 0 0 1-.26.592c-.109.205-.196.437-.37.591-.174.154-.423.193-.631.296-.337.166-.66.358-1.001.517-.291.135-.572.326-.89.37-.099.013-.197-.037-.297-.038-.211 0-.433-.001-.63.074-.24.092-.46.252-.63.444-.103.115-.143.274-.223.406-.115.19-.273.355-.37.554-.138.28-.22.585-.297.887-.087.34-.174.684-.186 1.034-.012.347.01.703.111 1.035.101.332.226.688.482.924.188.172.485.167.705.295.365.213.66.528 1.001.776.375.271.76.526 1.15.776.317.204.636.404.964.591.206.118.63.333.63.333"/>
            <path stroke-linecap="round" stroke-width="1.033" d="M40.476 328.05s-.024.597.037.887c.077.362.245.701.408 1.034.213.437.41.9.742 1.256.296.318.69.536 1.075.74.539.285 1.113.517 1.706.664.627.156 1.281.203 1.928.222.668.02 1.337-.046 2.002-.11.708-.07 1.433-.09 2.114-.297.486-.147.984-.337 1.372-.665.277-.234.477-.558.63-.886.124-.266.2-.558.222-.85.026-.346-.07-.69-.11-1.035-.046-.382-.102-.763-.15-1.145-.038-.32-.088-.639-.11-.96-.04-.566.006-1.135-.037-1.7a7.655 7.655 0 0 0-.112-.85c-.114-.598-.285-1.185-.445-1.773-.104-.384-.192-.774-.333-1.146-.164-.432-.458-.813-.594-1.256-.214-.703-.271-1.447-.333-2.18-.06-.7-.037-2.105-.037-2.105"/>
            <path stroke-linecap="round" stroke-width="1.033" d="M52.268 326.129s.276-.762.482-1.109c.174-.295.458-.516.63-.813.194-.334.355-.695.445-1.071.075-.312.086-.64.074-.96-.009-.25-.075-.493-.111-.74-.025-.172-.025-.35-.074-.517-.059-.195-.26-.554-.26-.554"/>
            <path stroke-linecap="round" stroke-width="1.033" d="M53.157 322.434s.163-1.184.26-1.773c.09-.544.213-1.082.297-1.626.105-.687.119-1.388.26-2.069.098-.477.264-.938.407-1.404.106-.346.218-.691.334-1.034.095-.285.246-.555.296-.85.048-.28.042-.57 0-.85-.093-.636-.382-1.228-.556-1.847-.172-.613-.267-1.249-.482-1.848-.238-.664-.648-1.258-.89-1.92-.21-.576-.352-1.176-.482-1.774a18.473 18.473 0 0 1-.37-2.291c-.079-.896-.031-1.798-.038-2.697-.003-.591-.062-1.186 0-1.773.106-.99.433-1.944.63-2.92.225-1.105.434-2.214.631-3.324.29-1.635.538-3.277.816-4.914.121-.715.2-1.438.37-2.143.322-1.33.803-2.615 1.224-3.916.444-1.372 1.02-2.704 1.372-4.101.232-.922.375-1.865.482-2.808.123-1.079.12-2.168.186-3.252.046-.751.149-1.5.148-2.253a31.604 31.604 0 0 0-.26-3.806c-.12-.98-.367-1.942-.519-2.919-.114-.736-.252-1.472-.296-2.216-.052-.873.002-1.75.037-2.624.03-.752.048-1.507.148-2.253.115-.86.283-1.715.52-2.55.303-1.072.753-2.098 1.149-3.14.324-.854.66-1.702 1-2.55.473-1.173 1.022-2.318 1.447-3.51.329-.92.615-1.858.853-2.807.232-.926.45-1.86.556-2.808.1-.894.062-1.798.074-2.697.016-1.182-.007-2.365 0-3.547.013-1.983.062-3.966.074-5.948.012-1.91-.07-3.82 0-5.727.037-1.012.113-2.023.223-3.03.112-1.026.295-2.044.445-3.066.233-1.59.466-3.178.704-4.766.304-2.02.654-4.035.927-6.06.256-1.892.418-3.796.668-5.69.245-1.85.597-3.687.816-5.541.131-1.118.235-2.239.296-3.362.065-1.193.079-2.39.074-3.584a52.049 52.049 0 0 0-.074-2.623 85.448 85.448 0 0 0-.185-2.328"/>
            <path stroke-linecap="round" stroke-width="1.033" d="M54.307 181.927s1.353.268 2.04.296c.779.031 1.56-.06 2.335-.148 1.295-.146 2.59-.326 3.857-.628a22.038 22.038 0 0 0 3.152-.998c.563-.228 1.124-.478 1.631-.813.27-.178.537-.377.742-.628.31-.38.532-.833.704-1.293.221-.59.316-1.223.408-1.847.165-1.112.197-2.24.26-3.362.078-1.39.112-2.783.148-4.175.02-.764.1-1.53.037-2.29-.022-.275-.09-.544-.148-.814-.032-.149-.111-.443-.111-.443M68.917 177.346s.157.523.26.776c.107.265.19.553.37.776.255.314.616.53.964.738.721.431 1.504.761 2.299 1.035.83.286 1.696.463 2.559.628a40.19 40.19 0 0 0 3.745.517c.936.09 1.878.194 2.818.148.662-.032 1.965-.295 1.965-.295M69.658 166.003s.247-.853.297-1.293c.044-.391 0-1.182 0-1.182"/>
            <path stroke-width="1.033" d="M6.482 190.561c.12.173.388.168.591.221.153.04.312.05.468.074.221.033.48.223.665.098.118-.08.074-.276.098-.417.04-.227.075-.457.074-.687 0-.14-.017-.281-.05-.417-.021-.093-.032-.2-.098-.27-.043-.046-.114-.05-.172-.074-.13-.052-.254-.14-.394-.147-.169-.01-.332.069-.493.123-.118.04-.252.062-.344.147-.13.119-.187.3-.246.466-.055.15-.082.308-.099.466-.014.138-.08.303 0 .417zM9.659 192.892c.04.109.177.151.27.22.152.114.29.259.468.32.133.045.28.032.419.024.191-.01.389-.025.566-.098.12-.049.258-.107.32-.22.092-.165.045-.378.025-.565a2.558 2.558 0 0 0-.172-.662 1.564 1.564 0 0 0-.173-.32c-.05-.07-.1-.146-.172-.196-.058-.04-.132-.048-.197-.073-.083-.032-.158-.094-.246-.098a.778.778 0 0 0-.419.122c-.13.077-.238.193-.32.32-.1.154-.138.34-.197.515-.047.137-.09.275-.123.417-.023.097-.085.201-.05.294zM14.854 192.966c.133.22.467.223.714.294.232.067.473.116.714.123.14.004.3.024.419-.05.05-.03.078-.091.098-.146.044-.116.043-.245.05-.368a5.345 5.345 0 0 0-.025-.835c-.01-.09-.01-.187-.05-.27-.026-.057-.082-.097-.122-.147-.059-.072-.098-.165-.173-.22a.597.597 0 0 0-.246-.099.835.835 0 0 0-.295 0c-.146.025-.282.092-.419.148-.126.05-.273.075-.37.171-.082.083-.112.207-.147.32-.057.181-.073.374-.099.564-.023.17-.138.367-.049.515zM21.478 189.114c.132.11.345-.023.517-.025.271-.002.613.207.813.025.218-.2.051-.589.049-.884-.002-.23.054-.482-.05-.687a.64.64 0 0 0-.344-.294c-.108-.04-.23-.014-.345 0a.833.833 0 0 0-.295.074.797.797 0 0 0-.32.294c-.062.11-.059.244-.074.368a3.36 3.36 0 0 0-.025.54c.008.198-.078.461.074.589z"/>
            <path stroke-width="1.031" d="M49.969 24.573l-.424-2.701-.384-2.11-.274-2.219.274-3.364.247-2.132.797-2.368 1.278-2.1 2.188-1.964 1.146-1.178 1.749-1.31 1.501-.867 2.584-.626 1.517-.079 2.22-.153h1.707l2.344.232h2.207l2.201.143 1.964.656 1.61.694 1.692 1.107 2.032 2.108 1.116 2.046.868 1.648.933 2.227.188 1.916-.188 1.893v1.945l.188 2.09.336 2.172-.103.953"/>
        </g>
    </g>
</svg>
