<svg xmlns="http://www.w3.org/2000/svg" width="162" height="402" viewBox="0 0 162 402">
    <g fill="none" fill-rule="evenodd">
        <path fill="#F2AD00" d="M68.436 56.286c-10.347 5.837-17.425 9.212-21.232 10.126-3.808.913-3.808 16.624 0 47.132l1.698 9.305c.403 3.994.604 6.478.604 7.452 0 1.46 1.483 6.605 1.483 8.588 0 1.984-2.087 16.661-2.087 17.688 0 1.027.037 6.996.32 9.19.284 2.192-.32 5.186-1.509 10.054-1.189 4.868-3.38 13.153-3.38 17.354 0 4.201 73.235 3.19 74.466 0-.06-3.995.647-4.832-.31-8.465-.956-3.633-2.601-8.341-4.213-21.495-1.613-13.154-2.747-14.155-2.747-21.13 0-4.65.575-12.006 1.725-22.067 3.28-31.37 3.28-49.239 0-53.607-3.499-1.926-18.365-7.348-20.105-10.57-1.16-2.149-9.397-2-24.713.445z"/>
        <g stroke="#333">
            <path stroke-linecap="round" stroke-width="1.036" d="M84.37 215.971s-.05 1.049-.064 1.573a172.935 172.935 0 0 0-.063 6.231c.022 1.973.045 3.949.19 5.916.188 2.57.559 5.123.883 7.679.327 2.584.695 5.163 1.072 7.74.32 2.185.714 4.359 1.01 6.546.317 2.345.63 4.691.82 7.05.151 1.883.181 3.775.252 5.664.104 2.79.279 5.579.252 8.37-.024 2.563-.19 5.123-.378 7.679-.111 1.513-.404 3.014-.442 4.531-.034 1.344.011 2.696.19 4.028.128.959.353 1.906.63 2.832.528 1.763 1.254 3.46 1.956 5.161.648 1.572 1.379 3.11 2.082 4.657.602 1.326 1.342 2.594 1.83 3.965.311.878.577 1.783.693 2.707.118.936.032 1.888 0 2.832-.052 1.534-.203 3.063-.315 4.594-.119 1.616-.2 3.236-.379 4.846-.114 1.033-.368 2.049-.441 3.084a19.918 19.918 0 0 0 0 3.021c.073.911.301 1.803.441 2.707.133.859.192 1.73.379 2.58.319 1.453.842 2.853 1.261 4.28.401 1.363.83 2.719 1.2 4.09.342 1.273.673 2.55.945 3.84.3 1.417.493 2.855.757 4.28.422 2.27.953 4.519 1.325 6.797.26 1.587.397 3.192.631 4.783.115.778.335 1.544.379 2.329.023.42-.02.84-.064 1.258-.083.782-.24 1.555-.378 2.33a62.314 62.314 0 0 1-.505 2.58c-.188.844-.37 1.692-.63 2.517a16.033 16.033 0 0 1-.632 1.636c-.227.515-.529.996-.757 1.51-.236.536-.483 1.072-.63 1.637-.113.43-.195.877-.19 1.322.007.51.138 1.013.253 1.51.083.363.216.712.315 1.07.134.48.352.95.379 1.448.022.424-.202.835-.19 1.259.015.514.263.999.316 1.51.056.543.023 1.092 0 1.636-.01.253-.06.503-.063.756-.005.357.052.713.063 1.07.01.314-.05.633 0 .944.053.327.2.632.315.944.117.318.25.63.379.944.206.505.471.989.63 1.51.157.512.316 1.574.316 1.574"/>
            <path stroke-linecap="round" stroke-width="1.036" d="M103.232 372.244s.33 3.604.378 5.412a53.01 53.01 0 0 1-.063 3.84c-.051 1.113-.014 2.246-.252 3.335-.22 1.005-.702 1.935-1.073 2.895-.284.738-.628 1.454-.883 2.203-.224.66-.39 1.34-.567 2.014a37.147 37.147 0 0 0-.442 1.825c-.174.834-.368 1.67-.442 2.518-.03.355-.086.724 0 1.07.098.391.351.729.568 1.07.169.265.326.553.568.755.433.36.976.586 1.514.755 1.095.344 2.26.44 3.407.504 1.218.068 2.455.076 3.658-.126.912-.154 1.82-.412 2.65-.818.623-.306 1.246-.675 1.703-1.196.36-.41.587-.93.757-1.448.087-.262.009-.568.127-.818.107-.229.293-.427.504-.566.222-.146.513-.147.757-.252a10.439 10.439 0 0 0 1.514-.818c.756-.488 1.421-1.103 2.145-1.637.291-.214.636-.366.883-.629.272-.288.512-.63.631-1.007.126-.4.106-.84.063-1.259-.05-.496-.202-.98-.378-1.447-.132-.352-.327-.676-.505-1.007-.16-.299-.279-.63-.505-.881-.26-.292-.58-.553-.946-.693-.197-.075-.422-.031-.63-.063-.213-.031-.417-.139-.631-.126-.133.009-.379.126-.379.126"/>
            <path stroke-linecap="round" stroke-width="1.036" d="M117.49 385.586s-.299-.386-.506-.503c-.301-.17-.665-.21-1.009-.252-.355-.043-1.072 0-1.072 0"/>
            <path stroke-linecap="round" stroke-width="1.036" d="M116.543 385.586s-1.146-.552-1.64-.944c-.338-.267-.884-.944-.884-.944"/>
            <path stroke-linecap="round" stroke-width="1.036" d="M113.073 385.964s.643-1.321.883-2.014c.192-.553.377-1.118.442-1.7.075-.667.025-1.347-.063-2.013-.108-.812-.352-1.601-.568-2.392-.15-.55-.386-1.078-.505-1.636-.11-.517-.133-1.048-.189-1.574-.072-.67-.192-1.34-.19-2.014.005-1.244.214-2.48.38-3.713.17-1.265.415-2.518.63-3.776.205-1.197.378-2.4.631-3.587.306-1.439.735-2.849 1.073-4.28.424-1.799.83-3.602 1.198-5.413.482-2.363.92-4.734 1.325-7.112.324-1.904.527-3.828.883-5.727.305-1.626.757-3.222 1.073-4.846.34-1.754.705-3.51.883-5.287.186-1.859.198-3.733.189-5.601a59.908 59.908 0 0 0-.19-4.406 61.562 61.562 0 0 0-.378-3.335c-.238-1.789-.477-3.579-.82-5.35-.368-1.904-.935-3.765-1.325-5.664-.364-1.774-.533-3.587-.946-5.35-.239-1.022-.651-1.998-.883-3.021-.202-.892-.368-1.795-.442-2.706-.088-1.088-.039-2.183 0-3.273.042-1.177.228-2.347.253-3.525.028-1.385-.09-2.769-.127-4.153-.025-.965-.038-1.93-.063-2.896-.036-1.405-.112-2.81-.126-4.216-.022-2.182 0-4.365.063-6.546.038-1.301.136-2.6.19-3.902.127-3.083.292-6.166.315-9.252.008-1.112-.063-3.335-.063-3.335"/>
            <path stroke-linecap="round" stroke-width="1.036" d="M116.354 265.44s.955-6.002 1.45-9c.493-2.981 1.101-5.944 1.515-8.937.432-3.136.715-6.29 1.009-9.441.246-2.64.469-5.283.63-7.93.18-2.934.329-5.872.38-8.811.041-2.455.062-4.913-.064-7.364-.15-2.904-.532-5.792-.82-8.685-.24-2.414-.504-4.825-.757-7.238-.147-1.406-.344-2.807-.442-4.217-.128-1.864-.077-3.736-.189-5.601-.073-1.22-.116-2.446-.315-3.65-.187-1.13-.548-2.224-.82-3.336-.422-1.72-.824-3.445-1.262-5.161-.263-1.03-.599-2.044-.82-3.084a16.93 16.93 0 0 1-.252-1.573 23.285 23.285 0 0 1-.127-1.763c0-.251-.341-1.131-.504-1.699-.174-.607-.42-1.2-.505-1.825-.113-.832.01-1.679 0-2.518-.01-.902-.013-1.805-.063-2.706a69.23 69.23 0 0 0-.379-4.343c-.1-.842-.242-1.68-.378-2.517-.216-1.324-.474-2.642-.694-3.965-.244-1.467-.517-2.93-.694-4.406a68.613 68.613 0 0 1-.379-4.594c-.05-.964-.12-1.932-.063-2.895.072-1.185.398-2.343.505-3.525.1-1.108.054-2.225.126-3.335.119-1.809.405-3.604.505-5.413.066-1.194-.021-2.394.063-3.587.144-2.046.507-4.07.757-6.105.19-1.553.36-3.108.568-4.658.366-2.732.618-5.487 1.198-8.181.226-1.046.567-2.063.884-3.084.216-.698.448-1.39.693-2.077.22-.613.522-1.198.694-1.825.226-.822.354-1.67.442-2.518.065-.626-.036-1.266.063-1.888.107-.669.568-1.951.568-1.951"/>
            <path stroke-linecap="round" stroke-width="1.036" d="M113.515 117.223s.384 2.691.63 4.028c.44 2.383 1.076 4.728 1.515 7.112.322 1.754.399 3.553.82 5.286.14.58.393 1.128.568 1.7.298.978.625 1.953.82 2.958a22.37 22.37 0 0 1 .378 3.335c.029.692-.002 1.387-.063 2.077-.064.718-.274 1.42-.315 2.14-.039.67-.005 1.346.063 2.014.062.614.217 1.216.315 1.825.068.42.158.836.19 1.259.034.46-.068.928 0 1.385.127.866.48 1.685.756 2.517.233.7.378 1.445.757 2.077.405.676 1.086 1.146 1.578 1.762M119.571 156.433l.442 1.825c.167.692.327 1.387.504 2.077.2.779.344 1.577.631 2.328.469 1.228 1.246 2.318 1.766 3.525.39.902.67 1.847 1.01 2.769.457 1.24.913 2.48 1.388 3.713.615 1.6 1.303 3.173 1.892 4.784a150.658 150.658 0 0 1 2.271 6.734c.497 1.584.96 3.179 1.388 4.783.184.688.308 1.392.505 2.077.386 1.339.8 2.674 1.325 3.965.437 1.078 1.08 2.067 1.514 3.147.403 1.003.883 2.77 1.01 3.084.125.314.218.832.251 1.258.038.482-.033.966-.063 1.448-.065 1.071-.225 2.137-.252 3.21-.018.734-.001 1.47.063 2.203.063.718.16 1.436.315 2.14.176.79.47 1.55.694 2.328.283.984.553 1.97.82 2.958.194.712.401 1.421.568 2.14.097.417.21.833.253 1.259.039.396.009.797 0 1.196-.01.462-.02.924-.063 1.384-.035.37-.123.732-.158 1.102-.041.428-.027.86-.063 1.29-.037.432-.094.862-.158 1.29-.053.358-.148.71-.19 1.07-.022.198-.025.398-.03.598-.005.189-.016.378 0 .566.03.392.124.777.189 1.165.061.367.026.766.189 1.101.116.24.309.456.536.598.195.122.433.186.662.189.207.002.42-.055.6-.158.193-.11.36-.28.473-.472.159-.272.197-.602.252-.912.067-.373.047-.757.095-1.133.047-.37.134-.733.19-1.101.049-.335.104-.67.125-1.007.02-.304.025-.674.063-.976.032-.247.046-.425.127-.66.103-.303.243-.592.378-.882.109-.234.275-.445.347-.692.056-.193.053-.398.063-.598.014-.262-.032-.527 0-.787.006-.043-.004-.1.032-.126.144-.106.372-.042.536.032.176.079.336.23.41.409.044.106.006.23 0 .346-.016.274-.062.546-.095.818-.04.336-.105.67-.126 1.007-.02.325-.03.652 0 .976.037.393.156.774.22 1.164.074.439.136.88.19 1.322.075.607.134 1.216.19 1.825.036.408.02.823.094 1.227.047.258.163.5.22.755.06.26.093.524.127.787.04.314-.005.644.095.944.083.255.23.493.41.692.175.196.393.36.63.472.157.075.333.109.505.126.251.026.518.049.757-.031.158-.053.28-.18.41-.283.168-.135.376-.249.473-.44.082-.161.053-.357.064-.536.02-.345.028-.693 0-1.038-.022-.255-.098-.502-.127-.756-.039-.344-.04-.692-.063-1.038-.02-.315-.004-.634-.063-.944-.039-.205-.149-.393-.19-.598-.048-.248-.043-.503-.062-.755-.024-.304-.063-.608-.063-.913 0-.305.038-.608.063-.912.027-.336.094-.67.094-1.007 0-.232-.031-.463-.063-.693-.031-.232-.094-.46-.126-.692-.045-.324-.022-.657-.095-.976-.027-.12-.113-.224-.126-.346-.007-.073-.024-.171.032-.22.111-.096.295-.015.441 0 .15.016.318.01.442.094.144.1.235.274.284.441.041.14-.003.294 0 .44.005.263.026.525.031.787.005.241-.021.484 0 .724.022.234.07.465.127.692.076.31.169.616.283.913.117.302.309.574.41.881.115.346.124.72.221 1.07.11.396.318.763.41 1.164.104.453.11.923.158 1.385.046.44.079.882.126 1.322.038.346.071.694.126 1.038.043.264.1.526.158.787.049.221.037.469.158.66.151.24.4.427.662.536.284.116.613.146.915.094.264-.046.512-.184.725-.346.166-.126.288-.304.41-.472.144-.198.3-.398.379-.63.091-.27.079-.565.095-.85.03-.544 0-1.09 0-1.636 0-.43.07-.866 0-1.29-.054-.317-.235-.6-.316-.912-.122-.475-.164-.966-.252-1.448-.05-.273-.19-.692-.158-.818s-.011-.654-.063-.976c-.04-.246-.13-.481-.19-.723-.068-.282-.082-.58-.188-.85-.077-.193-.248-.34-.316-.535-.076-.22-.04-.466-.095-.692-.067-.281-.215-.538-.283-.818-.035-.145-.047-.294-.064-.441-.015-.136-.107-.295-.031-.41.037-.054.124-.051.19-.062.082-.013.175-.034.252 0 .115.052.195.17.252.283.092.182.094.397.126.598.031.198.018.403.063.598.048.207.157.395.22.598.076.238.109.488.19.724.086.248.216.48.316.723.11.27.217.543.315.819.125.353.254.706.347 1.07.127.496.195 1.005.284 1.51.09.513.153 1.03.252 1.542.064.327.127.656.221.976.095.321.191.647.347.944.102.193.24.365.379.535.116.144.224.304.378.409.168.114.37.178.568.22.216.046.447.08.662.031a1.08 1.08 0 0 0 .41-.22c.123-.096.206-.235.316-.346.13-.132.324-.213.41-.378.073-.14.046-.314.063-.472.044-.418.084-.838.094-1.258.01-.42-.026-.84-.031-1.26-.003-.25.064-.51 0-.754-.049-.187-.214-.324-.284-.504a3.666 3.666 0 0 1-.19-.818c-.027-.198.006-.402-.03-.598-.044-.228-.18-.432-.221-.66-.065-.363.009-.737-.032-1.102a4.06 4.06 0 0 0-.158-.818c-.06-.188-.186-.35-.252-.535-.131-.367-.166-.762-.284-1.133-.106-.333-.28-.641-.378-.976-.118-.4-.128-.829-.253-1.227-.072-.229-.23-.427-.284-.66-.051-.226-.041-.462-.031-.693.007-.159.03-.317.063-.472.047-.225.145-.436.19-.661.054-.28.102-.565.094-.85-.006-.191-.076-.376-.095-.566-.034-.345 0-.694-.031-1.039-.02-.21-.085-.417-.095-.629-.01-.2-.004-.401.032-.598.025-.14.076-.275.126-.409.11-.3.308-.57.378-.881.06-.266.006-.547.032-.818.026-.275.129-.543.126-.818-.002-.182-.095-.535-.095-.535"/>
            <path stroke-linecap="round" stroke-width="1.036" d="M138.15 230.95c.22 0 .441-.006.662 0 .19.005.418.147.568.031.084-.065.043-.21.063-.314.044-.23.111-.458.126-.693.012-.188.022-.385-.032-.566a1.053 1.053 0 0 0-.252-.44c-.103-.104-.244-.164-.378-.22-.11-.047-.228-.098-.347-.095a.652.652 0 0 0-.284.094 1.506 1.506 0 0 0-.316.252c-.07.067-.144.134-.189.22a.99.99 0 0 0-.095.378c-.009.115.021.23.032.346.02.22.033.442.063.66.016.117-.027.272.063.347.08.067.21 0 .316 0zM144.111 233.877c.169.143.44.052.662.063.253.012.507.027.758 0 .192-.022.441.02.567-.126.11-.128.04-.336.032-.504-.013-.265-.037-.536-.126-.786a1.246 1.246 0 0 0-.221-.378 1.675 1.675 0 0 0-.41-.346 1.085 1.085 0 0 0-.379-.158.916.916 0 0 0-.473.032 1.1 1.1 0 0 0-.473.377.952.952 0 0 0-.158.41c-.037.228-.002.463.032.692.037.246-.001.562.19.724zM149.41 234.695c.125.13.357.055.536.063.39.017.782.021 1.168-.032.257-.035.6.019.757-.188.17-.227.03-.573-.032-.85a2.406 2.406 0 0 0-.347-.818.69.69 0 0 0-.22-.22 1.187 1.187 0 0 0-.632-.158c-.122.006-.234.075-.347.126a2.07 2.07 0 0 0-.347.189 1.61 1.61 0 0 0-.315.283c-.078.094-.144.2-.19.315a1.48 1.48 0 0 0-.094.44c-.02.284-.134.645.063.85zM154.52 232.46c.133.111.333.101.505.126.208.031.42.044.63.032.192-.011.388-.028.568-.095.173-.063.391-.119.474-.283.09-.18-.021-.402-.063-.598-.043-.194-.085-.397-.19-.566a1.039 1.039 0 0 0-.284-.283 1.097 1.097 0 0 0-.378-.19c-.123-.028-.253-.01-.379 0-.17.017-.34.048-.504.095a1.787 1.787 0 0 0-.316.126c-.122.062-.257.117-.347.22a.53.53 0 0 0-.126.284c-.015.149.048.298.095.44.08.24.12.53.315.693zM154.97 217.777s.083.653.133.979c.068.446.141.89.223 1.335.068.372.086.76.223 1.112.156.404.385.787.67 1.113.325.374.758.64 1.159.934.302.222.605.448.937.623.312.166.632.346.981.401.192.03.39-.003.58-.045.124-.027.26-.05.357-.133.091-.077.074-.06.147-.154.064-.084.214-.283.254-.38a.498.498 0 0 0 0-.312c-.03-.115-.115-.21-.178-.311-.354-.575-.921-1.045-1.115-1.691-.026-.085 0-.178 0-.267 0-.178.026-.358 0-.534-.023-.154-.107-.293-.134-.445-.046-.264-.023-.535-.045-.801-.034-.432-.059-.865-.134-1.291-.053-.301-.103-.609-.223-.89-.11-.258-.326-.459-.446-.712-.24-.51-.336-1.075-.535-1.602-.108-.286-.265-.554-.357-.846-.064-.202-.073-.42-.134-.623-.094-.32-.28-.61-.357-.934-.068-.29-.018-.6-.089-.89a1.542 1.542 0 0 0-.178-.445c-.094-.152-.233-.272-.357-.401-.43-.447-.896-.857-1.338-1.29-.675-.662-1.35-1.325-2.008-2.003-.65-.672-1.305-1.341-1.918-2.047-.436-.503-.84-1.033-1.249-1.558-.378-.485-.77-.96-1.115-1.469a11.88 11.88 0 0 1-.67-1.112c-.182-.347-.382-.692-.49-1.068-.128-.446-.116-.92-.178-1.38-.071-.52-.142-1.04-.223-1.557-.082-.52-.162-1.042-.268-1.558-.243-1.18-.554-2.347-.847-3.516a189.083 189.083 0 0 0-.848-3.249c-.39-1.442-.85-2.865-1.204-4.316-.345-1.414-.612-2.845-.893-4.273-.174-.888-.375-1.772-.49-2.67-.104-.811-.133-1.63-.179-2.448-.042-.74-.057-1.483-.089-2.225-.056-1.32-.104-2.641-.178-3.96a133.375 133.375 0 0 0-.223-3.294c-.09-1.099-.122-2.207-.313-3.293-.082-.468-.246-.918-.357-1.38-.144-.605-.326-1.206-.401-1.824-.073-.604.005-1.218-.045-1.825a26.793 26.793 0 0 0-.356-2.581c-.17-.942-.37-1.88-.625-2.804-.278-1.009-.646-1.99-.981-2.982-.378-1.115-.722-2.244-1.16-3.337-.4-.999-.904-1.953-1.338-2.937-.52-1.18-1.068-2.351-1.517-3.56a36.377 36.377 0 0 1-1.16-3.65c-.366-1.435-.611-2.9-.847-4.361-.222-1.374-.33-2.763-.536-4.14-.17-1.145-.433-2.277-.58-3.426-.131-1.034-.162-2.078-.267-3.115-.13-1.278-.294-2.552-.446-3.827-.146-1.217-.239-2.442-.446-3.65-.163-.943-.467-1.86-.625-2.803-.153-.913-.286-1.834-.312-2.76-.023-.802.028-1.607.134-2.403.132-.992.423-1.956.624-2.937.216-1.052.46-2.099.625-3.16.202-1.298.35-2.606.446-3.916.068-.933.074-1.869.089-2.804.014-.86.047-1.722 0-2.58-.052-.954-.206-1.9-.312-2.849-.088-.786-.223-1.569-.268-2.359-.062-1.096.097-2.2 0-3.293a14.628 14.628 0 0 0-.446-2.492c-.147-.549-.32-1.098-.58-1.602-.215-.417-.509-.791-.803-1.157-.493-.615-1.045-1.182-1.606-1.736-.598-.591-1.209-1.175-1.873-1.691-.423-.329-.863-.644-1.339-.89-.438-.227-.914-.378-1.382-.534-.675-.225-1.38-.35-2.052-.579-.865-.295-1.708-.653-2.543-1.023a46.071 46.071 0 0 1-3.212-1.558c-1.402-.756-2.695-1.704-4.104-2.448-1-.527-2.06-.932-3.078-1.424-1.304-.63-2.582-1.316-3.88-1.958-1.037-.513-2.081-1.01-3.123-1.513-1.144-.551-2.322-1.035-3.435-1.647-.86-.472-1.72-.958-2.498-1.557a10.177 10.177 0 0 1-1.606-1.513c-.227-.272-.38-.599-.58-.89-.373-.544-1.16-1.602-1.16-1.602"/>
            <path stroke-linecap="round" stroke-width="1.036" d="M93.232 55.34s-.223-.554-.268-.846c-.136-.88-.032-1.78 0-2.67.052-1.457.188-2.91.312-4.361.064-.743.133-1.486.223-2.226.089-.728.198-1.455.313-2.18.136-.863.291-1.722.446-2.581.157-.877.49-2.626.49-2.626"/>
            <path stroke-linecap="round" stroke-width="1.036" d="M93.767 43.235s.49-.666.758-.98c.253-.294.47-.643.803-.845.185-.112.42-.106.625-.178.32-.113.664-.198.937-.4.39-.29.674-.705.936-1.113.338-.525.551-1.12.803-1.691.285-.645.634-1.274.803-1.958.15-.608.127-1.246.179-1.87.034-.414.024-.834.089-1.245.106-.68.408-1.32.49-2.003.077-.633.013-1.276 0-1.914-.007-.37.049-.753-.044-1.112-.091-.354-.49-.98-.49-.98M59.91 29.394s-.064.564-.045.846c.027.406.105.812.223 1.201.164.541.472 1.028.67 1.558.189.51.367 1.027.49 1.558.135.584.17 1.188.267 1.78.096.58.154 1.17.313 1.735.167.597.418 1.169.669 1.736.255.577.417 1.23.847 1.691.318.34.774.533 1.205.712.326.136.68.198 1.026.267.206.042.438-.008.624.09.233.121.384.364.536.578.165.233.401.756.401.756"/>
            <path stroke-linecap="round" stroke-width="1.036" d="M66.556 40.298s.443 1.506.625 2.27c.21.882.392 1.773.535 2.67.238 1.49.344 2.998.535 4.494.167 1.307.428 2.603.536 3.917.044.547.08 1.098.044 1.646-.018.285-.134.846-.134.846"/>
            <path stroke-linecap="round" stroke-width="1.036" d="M69.679 53.426s-.32 1.14-.536 1.691c-.178.458-.303.963-.624 1.335-.524.609-1.31.935-2.007 1.335-.761.437-1.576.773-2.365 1.157-1.04.507-2.084 1.003-3.122 1.514-.835.41-1.65.861-2.498 1.246-1.39.63-2.822 1.165-4.238 1.735-1.157.467-2.333.887-3.48 1.38-1.295.557-2.53 1.25-3.836 1.78-.871.354-1.77.64-2.663.935-1.076.356-2.173.647-3.249 1.007-.91.305-1.846.559-2.712.975a9.046 9.046 0 0 0-1.483.913c-.453.338-.849.747-1.261 1.133-.505.472-1.024.931-1.483 1.447-.413.465-.828.94-1.135 1.48-.28.49-.449 1.038-.631 1.573-.162.475-.298.959-.41 1.447-.134.582-.24 1.17-.316 1.763-.068.532-.085 1.07-.126 1.605-.086 1.122-.157 2.245-.252 3.367-.057.661-.124 1.322-.19 1.982-.071.724-.18 1.445-.22 2.172-.051.9-.069 1.804-.032 2.706.028.674.108 1.344.19 2.014.094.779.216 1.555.346 2.328.142.842.328 1.677.473 2.518.127.732.278 1.463.347 2.203.063.668.067 1.342.064 2.014-.005.735-.06 1.468-.095 2.203-.039.818-.075 1.636-.126 2.454a86.91 86.91 0 0 1-.221 2.958c-.077.789-.226 1.57-.284 2.36-.059.806-.049 1.616-.063 2.423-.02 1.154-.01 2.308-.032 3.462-.02 1.102-.028 2.204-.094 3.304-.041.684-.11 1.366-.19 2.046-.12 1.03-.295 2.055-.441 3.083-.128.902-.222 1.81-.379 2.707a46.157 46.157 0 0 1-.694 3.304 45.932 45.932 0 0 1-1.135 3.87c-.434 1.25-.994 2.453-1.483 3.682-.403 1.016-.827 2.025-1.198 3.053a46.14 46.14 0 0 0-.726 2.203c-.317 1.042-.645 2.083-.883 3.147-.193.861-.317 1.737-.441 2.611-.13.91-.226 1.824-.316 2.738-.127 1.288-.193 2.582-.315 3.87-.093.978-.244 1.949-.316 2.927-.099 1.35-.11 2.706-.157 4.06-.036.996-.076 1.993-.095 2.99-.028 1.415-.016 2.832-.032 4.248-.008.744.025 1.491-.031 2.234-.04.538-.144 1.07-.22 1.605-.092.63-.178 1.26-.285 1.888-.16.937-.342 1.87-.536 2.8-.244 1.169-.484 2.34-.789 3.494-.148.561-.356 1.106-.504 1.667-.134.51-.214 1.033-.347 1.542-.214.816-.498 1.612-.726 2.423-.19.68-.343 1.368-.536 2.046-.108.38-.268.746-.347 1.133-.08.393-.089.796-.126 1.196-.036.387-.069.775-.095 1.164-.013.199.028.407-.031.598-.066.211-.208.394-.347.566-.21.26-.486.46-.726.693-.446.435-.85.916-1.324 1.321-.446.381-.938.705-1.42 1.039-.96.665-1.884 1.404-2.933 1.92-.23.112-.49.15-.726.251-.457.198-.879.47-1.325.692-.416.208-.893.314-1.261.598-.26.201-.45.482-.631.755-.216.325-.384.68-.536 1.039-.23.54-.317 1.137-.568 1.668-.18.379-.438.715-.663 1.07-.227.359-.482.7-.694 1.07-.163.285-.274.598-.441.88-.123.209-.302.383-.41.599-.19.376-.296.79-.41 1.195-.079.28-.094.576-.19.85-.103.297-.326.547-.41.85-.031.111-.031.346-.031.346M160.26 222.674s-.459-.156-.598-.252c-.18-.122-.365-.244-.505-.409a1.327 1.327 0 0 1-.284-.504.942.942 0 0 1 0-.503c.022-.072.054-.167.126-.189.077-.023.221.095.221.095"/>
            <path stroke-linecap="round" stroke-width="1.036" d="M2.926 213.044c-.104-.011-.181.111-.252.19-.437.48-1.151 1.033-1.01 1.667.009.037.06.05.095.063a.831.831 0 0 0 .379.063c.179-.017.36-.082.505-.189.18-.134.31-.333.41-.535.09-.185.153-.392.157-.598a.951.951 0 0 0-.094-.44c-.043-.087-.093-.21-.19-.22z"/>
            <path stroke-linecap="round" stroke-width="1.036" d="M1.539 214.901s-.21.277-.253.44a.887.887 0 0 0 0 .441c.033.128.087.264.19.346.179.143.433.166.662.19.273.027.554.003.82-.064.356-.089.673-.293 1.01-.44.525-.23 1.107-.363 1.576-.693.238-.166.42-.402.6-.629.202-.256.376-.534.536-.818.251-.446.441-.924.662-1.385.126-.262.267-.518.379-.787.073-.174.097-.37.19-.535.105-.188.27-.337.41-.503.31-.371.648-.72.946-1.101.157-.203.234-.48.441-.63.116-.084.269-.104.41-.126.083-.012.252 0 .252 0"/>
            <path stroke-linecap="round" stroke-width="1.036" d="M9.361 206.468s.542.853.726 1.321c.126.322.184.668.252 1.007.056.281.094.565.126.85.046.408.105.817.095 1.227-.01.412-.081.822-.158 1.227-.08.425-.247.832-.315 1.26-.069.425-.084.858-.095 1.29-.012.482.098.969.031 1.447-.054.391-.227.756-.346 1.133-.154.484-.312.966-.474 1.447-.133.4-.241.81-.41 1.196-.133.306-.372.564-.473.881-.105.333-.093.692-.126 1.039-.043.45-.018.907-.095 1.353-.066.386-.212.755-.315 1.133-.118.43-.253.855-.347 1.29-.083.384-.151.773-.19 1.164-.03.324-.026.65-.03.976-.006.314-.007.63 0 .944.005.252-.035.512.03.755.054.195.175.365.285.535.093.145.17.318.315.41.173.108.397.1.6.125.24.03.486.07.725.031.2-.033.4-.106.568-.22.153-.104.271-.257.378-.409a3.57 3.57 0 0 0 .473-.912c.101-.303.1-.63.158-.945.086-.463.18-.925.284-1.384.107-.474.216-.948.347-1.416.15-.54.302-1.082.505-1.605.17-.442.408-.856.599-1.29.11-.25.234-.495.315-.756.09-.286.13-.586.19-.88.111-.555.24-1.108.315-1.669.036-.27-.081-.585.063-.818.064-.104.2-.149.315-.189.08-.027.177-.068.253-.031.055.027.073.1.094.157.042.11.069.23.063.347-.01.238-.122.462-.189.692-.1.347-.214.69-.315 1.038-.088.303-.168.609-.253.913-.052.189-.08.386-.157.566-.113.26-.336.462-.442.724-.108.27-.134.565-.19.85-.048.25-.1.501-.125.755-.032.324 0 .652-.032.975-.044.435-.105.87-.22 1.29-.117.423-.347.808-.474 1.228-.127.422-.203.857-.284 1.29-.089.48-.165.963-.22 1.448a13.8 13.8 0 0 0-.095 1.227c-.01.388-.114.804.031 1.164.123.303.39.543.663.724.232.155.51.251.788.283.274.032.563.004.82-.094.205-.078.382-.223.537-.378.154-.154.296-.332.378-.535.104-.256.08-.546.126-.818.049-.284.097-.568.158-.85.055-.253.144-.5.19-.755.034-.197.027-.4.063-.598.15-.841.394-1.664.63-2.486.162-.56.337-1.119.537-1.667.162-.447.392-.869.536-1.322.126-.4.21-.814.284-1.227.089-.5.128-1.007.189-1.51.043-.357.068-.716.126-1.07.042-.255-.003-.555.158-.756.08-.1.227-.117.347-.157.174-.06.352-.122.536-.126.171-.004.368-.008.505.094.131.099.196.278.22.44.039.253-.072.506-.126.756a8.744 8.744 0 0 1-.252.944c-.08.236-.227.45-.284.692-.07.297-.044.608-.063.913-.012.2-.035.398-.031.598.003.252.044.503.063.755.024.325.08.65.063.976-.017.308-.112.607-.158.912-.085.565-.127 1.136-.22 1.7-.079.464-.196.921-.285 1.384-.102.534-.212 1.066-.284 1.605-.03.23-.06.46-.063.692-.002.168-.012.341.032.504.043.158.125.307.22.44.079.109.17.214.285.284.15.09.339.097.504.157.129.046.245.13.379.157.154.031.316.012.473 0 .138-.01.283-.01.41-.063.194-.081.362-.223.505-.377.16-.174.293-.378.378-.598.111-.288.105-.609.158-.913.062-.357.111-.716.19-1.07.114-.52.3-1.021.41-1.542.07-.343.096-.693.157-1.038.083-.474.236-.937.284-1.416.024-.24-.025-.484 0-.724.047-.458.177-.905.284-1.353.085-.36.232-.705.284-1.07.065-.457.046-.923.031-1.385-.02-.61-.152-1.214-.158-1.825-.002-.305-.099-.654.064-.913.09-.143.284-.187.441-.251.151-.062.31-.11.473-.126.178-.018.383-.061.536.031.158.095.235.295.284.472.043.152.004.315 0 .472-.005.252-.07.507-.031.756.037.242.151.468.252.692.118.261.326.481.41.755.062.202.048.42.063.63.033.44.026.882.063 1.321.037.421.122.838.158 1.259.039.45.017.904.063 1.353.034.328.076.656.158.976.047.183.067.39.19.535.155.182.406.261.63.346.182.068.376.153.568.126.237-.034.45-.189.63-.347.148-.128.265-.295.348-.472.147-.313.171-.67.252-1.007.098-.408.243-.81.284-1.227.034-.345-.015-.692-.032-1.038-.023-.494-.035-.989-.094-1.48-.036-.296-.124-.584-.158-.88-.074-.658 0-1.328-.095-1.983-.044-.31-.153-.607-.22-.913-.081-.365-.174-.73-.221-1.101a8.313 8.313 0 0 1-.063-1.196 6.97 6.97 0 0 1 .094-1.038c.102-.597.296-1.175.442-1.762.19-.766.367-1.535.568-2.298.279-1.063.617-2.111.883-3.178.2-.803.356-1.616.536-2.423.094-.42.224-.833.284-1.259.076-.54.079-1.09.094-1.636.027-.933-.024-1.868 0-2.8.011-.4.011-.801.064-1.197.04-.297.11-.59.189-.88.123-.459.294-.903.441-1.354.22-.672.45-1.34.663-2.014.218-.69.413-1.387.63-2.077.153-.484.316-.965.474-1.447.388-1.186.826-2.356 1.167-3.556.466-1.64.79-3.317 1.198-4.972.402-1.628.795-3.259 1.23-4.878.358-1.328.75-2.646 1.136-3.965.7-2.386 1.358-4.785 2.145-7.143.52-1.559 1.129-3.087 1.703-4.626.53-1.419 1.137-2.81 1.61-4.249.328-1.003.6-2.026.85-3.052.146-.594.27-1.192.38-1.794.125-.699.205-1.406.315-2.108.08-.515.127-1.036.252-1.542.103-.419.34-.802.41-1.227.056-.342-.008-.693 0-1.039.01-.44.025-.882.063-1.321.037-.422.108-.84.158-1.26.033-.282.103-.564.094-.849-.013-.426-.148-.839-.22-1.259-.054-.314-.097-.63-.158-.944-.064-.327-.17-.646-.22-.975a8.217 8.217 0 0 1-.096-1.164c-.006-.673.055-1.346.127-2.014.104-.981.284-1.953.441-2.927.198-1.219.403-2.437.631-3.65.156-.831.373-1.651.505-2.486.233-1.481.337-2.98.504-4.469.138-1.227.275-2.454.41-3.682.117-1.049.275-2.094.347-3.147.053-.764.064-2.297.064-2.297"/>
            <path stroke-linecap="round" stroke-width="1.036" d="M40.778 86.761s.344 1.53.504 2.297c.166.796.325 1.593.473 2.392.113.607.178 1.223.316 1.825.085.372.191.74.315 1.102.165.48.377.944.568 1.416.26.64.567 1.264.789 1.92.194.575.313 1.175.473 1.761.217.799.447 1.593.662 2.392.367 1.361.792 2.71 1.073 4.091.19.935.256 1.89.41 2.832.189 1.158.425 2.307.63 3.462.162.912.295 1.829.474 2.737.14.717.294 1.432.473 2.14.197.783.463 1.547.662 2.329.213.834.436 1.667.568 2.517.13.843.156 1.699.22 2.55.074.964.125 1.93.19 2.895.061.912.071 1.83.19 2.737.093.72.281 1.425.41 2.14.112.628.223 1.257.315 1.888.11.764.18 1.533.284 2.297.087.652.241 1.296.283 1.952.042.649-.022 1.3-.031 1.95-.012.84.015 1.68-.032 2.518-.03.537-.095 1.071-.157 1.605-.092.788-.201 1.575-.316 2.36-.087.6-.196 1.195-.284 1.794a164.584 164.584 0 0 0-.599 4.468c-.109.922-.2 1.845-.284 2.77a97.017 97.017 0 0 0-.19 2.423c-.052.807-.12 1.614-.125 2.423-.003.514.03 1.028.063 1.542.031.504.07 1.008.126 1.51.068.61.156 1.219.252 1.825.047.295.138.584.158.881.016.241-.031.724-.031.724"/>
            <path stroke-linecap="round" stroke-width="1.036" d="M50.146 165.18s-.107.739-.19 1.102a9.208 9.208 0 0 1-.252.881c-.158.47-.388.913-.536 1.385-.24.762-.43 1.542-.568 2.329-.12.685-.14 1.385-.22 2.077-.079.672-.127 1.349-.253 2.013-.143.756-.383 1.489-.568 2.235-.183.743-.351 1.49-.536 2.234-.193.778-.4 1.552-.6 2.329-.22.86-.471 1.713-.662 2.58a38.815 38.815 0 0 0-.473 2.58c-.134.899-.212 1.804-.315 2.707-.13 1.132-.265 2.264-.379 3.398-.082.818-.144 1.637-.22 2.455-.102 1.08-.192 2.163-.316 3.241-.1.873-.204 1.746-.347 2.612-.195 1.182-.49 2.345-.694 3.525-.17.992-.32 1.99-.442 2.99-.173 1.422-.328 2.848-.41 4.279-.067 1.183-.042 2.37-.063 3.556l-.031 1.888c-.021 1.29-.09 2.58-.063 3.87.022 1.083.124 2.162.189 3.242.05.84.117 1.677.158 2.517.09 1.908.09 3.82.189 5.728.054 1.05.138 2.098.22 3.146.077.966.172 1.93.253 2.896.141 1.677.23 3.36.41 5.034.161 1.495.387 2.981.6 4.469.128.903.27 1.805.41 2.706.258 1.68.514 3.359.788 5.035.212 1.302.445 2.601.662 3.902.193 1.154.418 2.302.568 3.462.085.658.137 1.32.19 1.982.065.818.118 1.636.157 2.455.048 1.006.074 2.014.095 3.021.023 1.143.032 2.287.031 3.43 0 1.08-.013 2.161-.031 3.241-.022 1.29-.056 2.58-.095 3.87-.044 1.46-.131 2.916-.158 4.375-.01.63-.021 1.26 0 1.888.037 1.062.22 2.117.221 3.179.001.788-.076 1.575-.157 2.36a23.615 23.615 0 0 1-.316 2.234c-.163.808-.42 1.595-.63 2.392-.126.472-.262.941-.38 1.416-.113.46-.224.92-.315 1.384-.2 1.023-.293 2.064-.504 3.084-.184.89-.467 1.756-.663 2.644-.193.876-.338 1.761-.504 2.643-.202 1.07-.6 3.052-.6 3.21 0 .157-.232 1.57-.315 2.36-.101.962-.158 1.93-.22 2.895-.09 1.363-.226 2.725-.222 4.09.003.873.127 1.741.158 2.613.034.954-.004 1.91.031 2.863.031.83.07 1.66.158 2.486.143 1.35.453 2.679.6 4.028.1.92.05 1.855.189 2.77.143.948.453 1.864.662 2.8.357 1.6.656 3.214 1.01 4.815.35 1.588.722 3.171 1.104 4.752.324 1.345.659 2.688 1.009 4.028.385 1.472.835 2.928 1.198 4.405.304 1.231.55 2.475.82 3.714.224 1.027.455 2.053.663 3.083.247 1.225.495 2.45.694 3.682.15.93.296 1.863.378 2.801.045.502.07 1.007.064 1.51-.007.474-.047.946-.095 1.417-.086.832-.224 1.658-.347 2.486-.1.672-.216 1.341-.315 2.014-.09.607-.19 1.214-.253 1.825-.063.606-.126 1.215-.126 1.825 0 .305.034.609.063.913.025.252.02.512.095.755.102.327.31.61.473.912.194.36.405.71.6 1.07.129.24.378.724.378.724M49.65 382.884s-.108.389-.179.578a5.98 5.98 0 0 1-.312.712c-.13.248-.236.526-.446.712-.209.185-.508.233-.758.356-.406.2-.795.433-1.205.623-.35.163-.687.393-1.07.445-.12.016-.237-.044-.357-.044-.255-.001-.52-.002-.759.089-.289.11-.552.303-.758.534-.124.139-.171.33-.268.49-.138.228-.328.427-.446.667-.165.337-.264.704-.357 1.068-.104.409-.208.824-.223 1.246-.014.418.013.846.134 1.246.121.4.272.83.58 1.113.226.207.583.201.848.356.439.256.793.636 1.204.934.45.327.915.634 1.383.935.381.246.766.487 1.16.712.248.142.758.4.758.4"/>
            <path stroke-linecap="round" stroke-width="1.036" d="M48.49 394.944s-.03.72.044 1.068c.093.437.295.845.491 1.246.257.526.493 1.085.892 1.513.357.383.831.645 1.294.89.649.344 1.34.624 2.052.801.755.188 1.542.244 2.32.267.803.024 1.608-.055 2.408-.133.852-.083 1.724-.107 2.543-.356.585-.178 1.184-.406 1.65-.801.334-.282.574-.673.759-1.068.149-.32.241-.672.268-1.024.03-.416-.085-.831-.134-1.246-.055-.46-.122-.92-.179-1.38-.047-.385-.107-.77-.134-1.157-.046-.68.008-1.366-.044-2.047a9.232 9.232 0 0 0-.134-1.023c-.137-.722-.343-1.428-.535-2.137-.125-.462-.232-.931-.402-1.38-.197-.52-.55-.979-.713-1.512-.259-.847-.327-1.744-.402-2.626-.071-.843-.045-2.537-.045-2.537"/>
            <path stroke-linecap="round" stroke-width="1.036" d="M62.675 392.63s.333-.918.58-1.335c.21-.355.551-.623.758-.98.234-.402.427-.837.536-1.29.09-.376.103-.77.089-1.157-.01-.3-.09-.593-.134-.89-.03-.208-.03-.422-.09-.623-.07-.236-.311-.668-.311-.668"/>
            <path stroke-linecap="round" stroke-width="1.036" d="M63.746 388.18s.195-1.427.312-2.137c.108-.654.256-1.302.357-1.958.127-.827.143-1.672.312-2.492.119-.575.32-1.13.49-1.691.129-.417.264-.832.402-1.246.115-.343.297-.668.357-1.024.057-.336.05-.686 0-1.023-.113-.767-.46-1.48-.669-2.226-.207-.738-.321-1.503-.58-2.225-.287-.8-.78-1.515-1.07-2.314-.253-.693-.425-1.415-.58-2.136-.197-.91-.365-1.831-.446-2.76-.094-1.078-.038-2.165-.045-3.248-.005-.712-.075-1.428 0-2.136.127-1.192.52-2.34.758-3.516.27-1.332.521-2.667.759-4.005.35-1.97.647-3.947.981-5.92.146-.86.241-1.731.446-2.58.387-1.601.966-3.15 1.472-4.718.534-1.652 1.228-3.256 1.65-4.94.28-1.109.451-2.245.58-3.382.148-1.299.144-2.611.224-3.916.055-.905.18-1.808.178-2.715-.002-1.531-.126-3.063-.312-4.584-.145-1.181-.442-2.34-.625-3.515-.138-.888-.303-1.774-.357-2.67-.062-1.052.003-2.108.045-3.16.036-.906.058-1.816.178-2.715.14-1.035.34-2.065.625-3.07.365-1.292.907-2.528 1.383-3.783.39-1.029.794-2.051 1.204-3.071.568-1.414 1.228-2.793 1.74-4.228.396-1.11.74-2.24 1.026-3.382.279-1.115.541-2.24.67-3.382.12-1.077.073-2.166.088-3.25.02-1.423-.009-2.847 0-4.272.015-2.388.075-4.776.09-7.165.014-2.299-.085-4.6 0-6.898.044-1.218.135-2.436.267-3.649.135-1.237.355-2.463.535-3.694.28-1.914.56-3.828.848-5.74.366-2.434.786-4.86 1.115-7.299.308-2.28.502-4.573.803-6.854.295-2.23.72-4.441.981-6.675.159-1.346.284-2.697.357-4.05.078-1.437.095-2.877.09-4.317a62.774 62.774 0 0 0-.09-3.16c-.05-.936-.223-2.803-.223-2.803"/>
            <path stroke-linecap="round" stroke-width="1.036" d="M65.129 218.934s1.627.322 2.453.356c.938.038 1.878-.073 2.81-.178 1.557-.176 3.116-.393 4.64-.757a26.488 26.488 0 0 0 3.791-1.202c.678-.274 1.353-.576 1.963-.979.326-.214.646-.454.892-.756.373-.459.64-1.004.848-1.558.266-.711.38-1.474.49-2.225.199-1.34.237-2.698.313-4.05.094-1.674.135-3.352.178-5.029.024-.92.12-1.842.045-2.759-.027-.33-.109-.655-.179-.979a15.84 15.84 0 0 0-.134-.534M82.704 213.415s.19.63.312.935c.13.32.23.666.447.934.306.379.741.64 1.16.89.867.52 1.809.917 2.765 1.246.999.345 2.04.558 3.078.757a48.29 48.29 0 0 0 4.505.623c1.127.107 2.26.233 3.39.178.797-.039 2.365-.356 2.365-.356M83.596 199.753s.297-1.029.357-1.558c.054-.472 0-1.424 0-1.424"/>
            <path stroke-width="1.036" d="M7.595 229.334c.144.207.466.201.71.266.185.048.376.06.564.088.266.041.577.27.8.119.142-.097.09-.333.118-.503.047-.273.09-.55.089-.827-.001-.169-.02-.339-.06-.503-.026-.112-.038-.241-.118-.325-.052-.054-.137-.06-.207-.088-.157-.063-.306-.168-.474-.178-.203-.011-.4.083-.593.148-.142.048-.304.075-.414.177-.156.144-.225.363-.297.562-.065.18-.098.371-.118.561-.017.167-.096.365 0 .503zM11.416 232.141c.05.131.214.182.326.266.182.136.348.311.563.384.16.055.336.04.504.03.23-.013.468-.031.68-.118.145-.06.31-.13.386-.266.11-.199.053-.454.03-.68a3.085 3.085 0 0 0-.208-.798 1.885 1.885 0 0 0-.207-.384c-.06-.086-.121-.177-.207-.236-.07-.048-.159-.059-.237-.09-.1-.037-.19-.112-.297-.117a.935.935 0 0 0-.503.147 1.208 1.208 0 0 0-.385.385c-.121.186-.167.41-.237.62a5.268 5.268 0 0 0-.148.503c-.027.117-.102.242-.06.354zM17.667 232.23c.16.265.561.269.859.355.279.08.568.14.859.147.169.005.36.03.503-.059.061-.037.094-.11.119-.177.053-.14.051-.294.06-.443a6.446 6.446 0 0 0-.03-1.005c-.012-.11-.013-.225-.06-.325-.032-.07-.1-.118-.148-.178-.07-.087-.117-.198-.207-.266a.718.718 0 0 0-.296-.118 1.003 1.003 0 0 0-.356 0c-.175.03-.339.11-.503.178-.152.061-.33.09-.445.206-.1.1-.135.25-.178.385-.068.22-.087.451-.118.68-.028.205-.167.442-.06.62zM25.635 227.59c.16.133.415-.028.622-.03.326-.002.738.25.978.03.262-.24.062-.709.06-1.064-.003-.276.065-.58-.06-.827a.77.77 0 0 0-.415-.355c-.13-.048-.277-.017-.415 0a1 1 0 0 0-.355.089.96.96 0 0 0-.385.354c-.074.132-.07.294-.089.444a4.052 4.052 0 0 0-.03.65c.01.238-.093.556.09.71z"/>
            <path stroke-width="1.034" d="M59.91 29.394l-.51-3.253-.462-2.541-.33-2.673.33-4.052.297-2.569.96-2.852 1.536-2.53 2.633-2.365 1.378-1.419 2.104-1.578 1.806-1.045 3.108-.754 1.826-.094 2.67-.185h2.054l2.82.28h2.654l2.649.172 2.362.79 1.937.836 2.035 1.334 2.445 2.538L97.554 9.9l1.045 1.985 1.123 2.683.226 2.308-.226 2.28v2.343l.226 2.517.404 2.616-.124 1.148"/>
        </g>
    </g>
</svg>
