<svg xmlns="http://www.w3.org/2000/svg" width="65" height="100" viewBox="0 0 65 100">
    <g fill="none" fill-rule="evenodd">
        <path fill="#F2AD00" d="M23.819 1.296C17.028 5.17 12.383 7.41 9.884 8.016c-2.5.607-2.5 11.034 0 31.283l1.115 6.176c.264 2.651.396 4.3.396 4.946 0 .97.973 4.384.973 5.7 0 1.317-1.37 11.059-1.37 11.74 0 .682.024 4.643.21 6.099.187 1.456-.21 3.442-.99 6.673C9.438 83.865 8 89.363 8 92.152c0 2.788 48.064 2.118 48.871 0-.039-2.652.425-3.207-.203-5.619-.627-2.41-1.707-5.536-2.765-14.267-1.058-8.73-1.803-9.394-1.803-14.024 0-3.086.377-7.968 1.132-14.646 2.153-20.82 2.153-32.68 0-35.58C50.936 6.738 41.18 3.14 40.038 1c-.762-1.426-6.168-1.327-16.22.296z"/>
        <g stroke="#333" stroke-linecap="round">
            <path stroke-width=".686" d="M58 96c-.093-.937-.218-1.871-.28-2.811-.08-1.243-.048-2.491-.119-3.734-.046-.813-.074-1.63-.2-2.434-.117-.753-.346-1.482-.518-2.224-.267-1.146-.52-2.296-.798-3.44-.166-.687-.378-1.363-.518-2.056-.07-.347-.121-.697-.16-1.05-.043-.39-.08-1.006-.08-1.174 0-.168-.216-.754-.319-1.133-.11-.404-.265-.8-.319-1.217-.071-.554.006-1.119 0-1.678-.006-.602-.008-1.204-.04-1.804a48.605 48.605 0 0 0-.24-2.895c-.062-.562-.152-1.12-.238-1.679-.137-.883-.3-1.76-.44-2.643-.153-.978-.326-1.953-.438-2.937a48.177 48.177 0 0 1-.24-3.063c-.031-.643-.076-1.288-.04-1.93.046-.79.252-1.562.32-2.35.063-.739.034-1.483.08-2.224.075-1.205.255-2.402.319-3.608.042-.796-.014-1.596.04-2.392.09-1.363.32-2.713.478-4.07.121-1.034.228-2.071.36-3.104.231-1.822.39-3.658.757-5.455.143-.697.358-1.375.559-2.056.136-.465.283-.926.438-1.384.139-.41.33-.799.44-1.217a10.87 10.87 0 0 0 .278-1.679c.042-.417-.022-.844.04-1.258.068-.446.36-1.301.36-1.301"/>
            <path stroke-width=".661" d="M64.587 24.81c-.033-.609-.13-1.212-.198-1.817-.056-.502-.141-1.001-.17-1.505-.04-.7.062-1.404 0-2.101a9.376 9.376 0 0 0-.283-1.59c-.093-.35-.202-.7-.368-1.023-.137-.266-.323-.504-.51-.738a13.12 13.12 0 0 0-1.019-1.107c-.38-.378-.768-.75-1.19-1.08a5.596 5.596 0 0 0-.849-.567c-.278-.145-.58-.241-.878-.34-.427-.144-.875-.224-1.302-.37a19.646 19.646 0 0 1-1.614-.653 29.18 29.18 0 0 1-2.039-.994c-.89-.482-1.71-1.087-2.605-1.562-.634-.336-1.308-.594-1.954-.908-.828-.403-1.639-.84-2.463-1.25-.658-.327-1.32-.645-1.982-.965-.726-.352-1.474-.66-2.18-1.05-.546-.302-1.093-.612-1.586-.994a6.474 6.474 0 0 1-1.02-.966c-.144-.173-.24-.381-.368-.568-.237-.346-.736-1.022-.736-1.022M25.314 1.782s-.204.728-.34 1.08c-.114.291-.193.613-.397.851-.332.388-.831.597-1.274.852-.483.278-1 .493-1.5.738-.66.323-1.324.64-1.983.965-.53.262-1.047.55-1.585.796-.883.402-1.792.743-2.69 1.107-.735.297-1.481.566-2.209.88-.822.355-1.606.797-2.435 1.136-.553.226-1.123.408-1.69.596-.684.227-1.38.413-2.063.643-.578.194-1.172.356-1.722.622-.332.16-.646.36-.94.582-.288.216-.54.477-.801.723-.32.301-.65.594-.942.924-.261.296-.525.6-.72.943-.178.314-.285.663-.4 1.004a9.45 9.45 0 0 0-.261.924c-.085.371-.152.747-.2 1.124-.044.34-.054.683-.08 1.024-.055.716-.1 1.433-.16 2.149-.036.422-.08.843-.12 1.264-.046.462-.115.922-.14 1.386"/>
            <path stroke-width=".686" d="M6 22s.234 1.008.343 1.513c.113.524.221 1.05.322 1.575.076.4.12.806.214 1.203.058.245.13.487.215.725.112.317.256.622.386.933.176.422.385.833.536 1.264.132.38.213.774.321 1.16.148.527.304 1.05.45 1.576.25.897.54 1.785.73 2.695.129.616.174 1.245.278 1.865.13.763.29 1.52.43 2.28.11.6.2 1.205.321 1.803.096.473.2.943.322 1.41.134.515.314 1.019.45 1.534.144.549.296 1.098.386 1.658.089.555.106 1.119.15 1.679.05.635.085 1.271.129 1.907.041.601.048 1.206.128 1.803.064.474.192.939.28 1.41.076.413.151.827.214 1.243.075.503.123 1.01.193 1.513.06.43.164.853.192 1.285.029.428-.015.857-.02 1.286-.01.552.01 1.106-.022 1.658-.02.353-.066.705-.108 1.057-.062.52-.136 1.037-.214 1.554-.06.395-.133.787-.193 1.182-.148.98-.287 1.96-.407 2.943a64.243 64.243 0 0 0-.193 1.824c-.05.532-.093 1.064-.13 1.596-.035.532-.082 1.063-.085 1.596-.002.339.021.678.043 1.016a20.014 20.014 0 0 0 .257 2.197c.032.194.094.384.108.58.01.159-.022.477-.022.477M13 74s-.075.484-.133.722a5.73 5.73 0 0 1-.177.577c-.11.307-.272.598-.376.907-.168.5-.302 1.01-.398 1.526-.084.45-.099.908-.155 1.36-.055.441-.089.885-.177 1.32-.1.495-.269.976-.398 1.464-.129.487-.247.977-.376 1.464-.136.51-.28 1.017-.42 1.526-.156.564-.332 1.122-.465 1.69-.132.56-.241 1.125-.332 1.691-.094.589-.15 1.182-.221 1.774-.09.742-.186 1.483-.266 2.226-.058.536-.101 1.073-.155 1.609-.07.708-.134 1.417-.22 2.123-.071.572-.144 1.144-.244 1.712-.137.774-.344 1.536-.487 2.309M34.29 97s.328-.69.393-1.045c.06-.316 0-.955 0-.955"/>
        </g>
    </g>
</svg>
