<svg xmlns="http://www.w3.org/2000/svg" width="52" height="101" viewBox="0 0 52 101">
    <g fill="none" fill-rule="evenodd">
        <path fill="#FBBA00" d="M16.688 2.547C13.85 3.36 8.722 8.144 5.972 8.144c-.554 5.27-.895 19.95-.895 21.236 0 .857.17 1.606.51 2.247l-.51 8.37c.34 3.988.51 6.617.51 7.886 0 1.904.385 2.35.385 7.202s-1.81 7.818-1.81 13.125v3.292c0 .555-.652 3.454-1.953 8.697 12.394 10.813 18.965 16.734 19.713 17.764 1.123 1.544 2.42 1.716 3.433 2.054 1.013.339 3.322-1.786 3.458-2.054 2.753-1.28 9.28-7.202 19.582-17.764-1.3-4.614-1.95-7.856-1.95-9.727 0-2.805-.359-4.305-.777-7.852-.417-3.547-.975-3.96-.975-7.028 0-3.067.975-8.329.975-12.453 0-4.125-.776-12.758 0-14.42.777-1.662.613-19.278 0-20.047-.612-.769-9.665-4.78-11.154-6.125-2.466 1.813-14.315 2.228-17.826 0z"/>
        <path stroke="#333" stroke-width=".648" d="M18.31 1.156c-.166.352-.315.717-.533 1.04a5.622 5.622 0 0 1-.799.92c-.445.422-.943.786-1.45 1.13-.795.539-1.653.978-2.486 1.456-.737.422-1.463.863-2.22 1.247-.619.314-1.264.573-1.894.862-.643.295-1.28.601-1.924.891-.452.203-.914.382-1.362.594-.41.195-.79.459-1.213.624"/>
        <path stroke="#333" stroke-width=".673" d="M4.87 28s.402.822.532 1.264c.12.408.198.835.224 1.264.032.523-.054 1.048-.084 1.572-.035.616-.08 1.232-.112 1.85-.044.82-.072 1.643-.112 2.465-.026.535-.07 1.068-.084 1.603-.014.514 0 1.028 0 1.541 0 .401-.007.802 0 1.203.009.596.05 1.191.056 1.787.006.679-.052 1.357-.028 2.035.015.443.07.884.112 1.325.051.556.122 1.109.168 1.665.035.42.064.842.084 1.264.031.646.016 1.296.056 1.942.03.484.091.966.14 1.448.045.432.113.862.14 1.295.03.461.05.925.029 1.387-.023.486-.104.967-.168 1.449-.1.742-.222 1.48-.337 2.22-.118.76-.25 1.519-.364 2.28-.13.872-.253 1.746-.365 2.62-.071.555-.14 1.11-.196 1.665-.088.852-.187 1.703-.224 2.559-.017.37-.007.74 0 1.11.004.287.023.575.028.862.004.288.023.577 0 .864a5.202 5.202 0 0 1-.113.678c-.106.49-.297.956-.392 1.448-.09.467-.097.948-.168 1.418-.108.704-.256 1.4-.393 2.097-.143.73-.313 1.455-.449 2.188-.155.84-.262 1.69-.42 2.528-.11.578-.267 1.145-.365 1.726a27.06 27.06 0 0 0-.252 2.004c-.088.952-.126 1.91-.168 2.866a64.089 64.089 0 0 0-.056 1.88c-.009.566.027 1.132 0 1.696-.033.681-.118 1.358-.196 2.034-.113.97-.274 1.93-.393 2.898M51 97c-.102-.864-.28-1.718-.413-2.578-.11-.707-.208-1.414-.322-2.12-.05-.314-.136-.623-.16-.94-.044-.552.014-1.107.022-1.66.007-.488.036-.976.023-1.464a48.63 48.63 0 0 0-.275-4.043c-.062-.556-.161-1.108-.253-1.66-.07-.424-.14-.848-.23-1.268-.3-1.408-.713-2.792-1.033-4.195-.174-.763-.326-1.53-.483-2.295-.196-.953-.361-1.912-.574-2.862-.111-.498-.272-.986-.367-1.486a4.054 4.054 0 0 1-.07-.503c0-.087.017-.655.024-.983.009-.452.042-.904.023-1.355-.02-.439-.092-.874-.138-1.31-.076-.715-.14-1.43-.23-2.142-.1-.803-.205-1.606-.344-2.404-.11-.63-.368-1.77-.39-1.88-.024-.108-.23-1.59-.368-2.381-.083-.475-.206-.944-.276-1.42a14.37 14.37 0 0 1-.115-1.137c-.031-.465-.064-.932-.046-1.398.022-.556.117-1.108.184-1.66.063-.526.158-1.048.207-1.574.053-.589.057-1.18.091-1.77.028-.46.051-.918.092-1.377.062-.686.192-1.366.23-2.054.029-.516-.007-1.034 0-1.551.008-.583.045-1.165.046-1.748 0-.343-.047-.686-.023-1.027.013-.191.019-.39.092-.568.02-.05.076-.081.092-.131.08-.251.008-.525 0-.787-.03-1.021-.136-2.039-.184-3.06-.052-1.106-.082-2.213-.115-3.32-.028-.955-.114-1.91-.069-2.863.013-.257.041-.513.092-.765.066-.326.131-.66.276-.961.149-.311.399-.568.597-.853.269-.385.597-.74.804-1.158.201-.406.413-1.289.413-1.289"/>
        <path stroke="#333" stroke-width=".648" d="M49.983 10.646c-.723-.185-1.464-.303-2.177-.525-.613-.191-1.209-.44-1.8-.693-.567-.245-1.113-.538-1.674-.799-.819-.38-1.66-.713-2.47-1.113a65.71 65.71 0 0 1-4.29-2.31c-.657-.389-1.287-.822-1.925-1.24-.337-.221-1.005-.673-1.005-.673"/>
        <path stroke="#333" stroke-width=".648" d="M36.086 4.49s-.493-.235-.711-.398c-.281-.21-.535-.46-.754-.736a3.072 3.072 0 0 1-.355-.588 8.43 8.43 0 0 1-.503-1.386C33.666 1.03 33.554.31 33.554.31"/>
        <path stroke="#333" stroke-width=".673" d="M22 98s1.866 1.979 2.966 2c1.11.021 3.034-1.905 3.034-1.905"/>
    </g>
</svg>
