<svg xmlns="http://www.w3.org/2000/svg" width="100" height="16" viewBox="0 0 100 16">
    <g fill="#FFF" fill-rule="nonzero">
        <path d="M8.22 15.08H0V.28h8.22V3.6h-4.6v2.3h4.46v3.32H3.62v2.54h4.6v3.32zm16.48 0h-4.1l-.72-2.14h-5.14l-.78 2.14H9.9L15.84.28h2.98l5.88 14.8zm-5.82-5.14L17.36 4.9l-.06-.02-1.52 5.06h3.1zM36.26 4.6h-3.74c-.16-1.06-.6-1.44-1.34-1.44-.7 0-1.3.5-1.3 1.16 0 .88.8 1.28 2.42 1.98 3.26 1.4 4.08 2.58 4.08 4.52 0 2.86-1.96 4.54-5.16 4.54-3.22 0-5.34-1.68-5.34-4.86v-.32h3.76c.02 1.22.62 2.02 1.56 2.02.78 0 1.42-.62 1.42-1.42 0-1.18-1.64-1.7-2.98-2.24-2.42-.98-3.52-2.26-3.52-4.18 0-2.52 2.44-4.36 5.16-4.36.98 0 1.84.22 2.62.62 1.58.82 2.34 2 2.36 3.98zm6.2 10.48h-3.78V.28h3.78v14.8zM52.44 6.94h-2.08c-.1-.8-.56-1.34-1.42-1.34-.8 0-1.3.54-1.3 1.18 0 .94.96 1.22 2.06 1.56 1.56.48 3 1.42 3 3.48 0 2.14-1.56 3.54-3.72 3.54-2 0-3.92-1.36-3.92-3.92h2.08c.1 1.34.78 2.02 1.88 2.02.96 0 1.6-.62 1.6-1.52 0-.76-.58-1.26-1.88-1.68-2.72-.86-3.18-2.04-3.18-3.3 0-1.96 1.66-3.26 3.48-3.26 1.84 0 3.34 1.28 3.4 3.24zm10.78 4.48h2.32c-.88 2.5-3 3.94-5.46 3.94-3.18 0-5.68-2.56-5.68-5.72 0-3.34 2.42-5.94 5.66-5.94 2.52 0 4.82 1.58 5.48 3.98h-2.3c-.62-1.3-1.62-2.08-3.12-2.08-2.18 0-3.64 1.66-3.64 3.92 0 2.2 1.5 3.94 3.6 3.94 1.42 0 2.56-.76 3.14-2.04zm16.18-1.8c-.04 2.96-2.52 5.74-6.06 5.74-3.12 0-5.9-2.66-5.9-5.78 0-3.38 2.66-5.88 6.06-5.88 3.06 0 5.94 2.4 5.9 5.92zm-2.08-.12c0-2.16-1.74-3.9-3.92-3.9-2.08 0-3.88 1.76-3.88 3.92 0 2.1 1.74 3.94 3.84 3.94a3.93 3.93 0 0 0 3.96-3.96zm6.78 5.58h-2.08V4h1.94v1H84c.5-.74 1.36-1.22 2.82-1.3v2.14C85.02 5.9 84.1 7 84.1 8.86v6.22zm6.18-6.24h7.16c-.16-1.88-1.82-3.24-3.6-3.24-1.7 0-3.4 1.34-3.56 3.24zm9.18 1.6h-9.18c.48 1.84 1.94 3.02 3.64 3.02 1.3 0 2.52-.68 3.16-1.86h2.08c-.86 2.28-2.94 3.76-5.32 3.76-3.12 0-5.64-2.76-5.64-5.72 0-3.5 2.64-5.94 5.58-5.94 3.26 0 5.74 2.52 5.74 5.7 0 .34 0 .66-.06 1.04z"/>
    </g>
</svg>
