<svg xmlns="http://www.w3.org/2000/svg" width="135" height="325" viewBox="0 0 135 325">
    <g fill="none" fill-rule="evenodd">
        <path fill="#00A590" d="M96.384 62.908l4.162 1.06 3.415 2.442 1.387 1.71.647 1.93.42 5.4.202 4.11v2.363l-.41 3.937-.63 3.291-.23 2.158v2.478l.23 3.16.63 2.876.41 2.315v1.092l.239 3.223.659 3.567.41 3.3.553 2.226.74 2.39 1.514 3.448 1.445 2.823.604 2.805.89 4.118.473 2.859.087 2.679v2.8l.4 3.153 1.19 4.709.79 2.899 1.328 3.324v.893l.592 1.06 1.929.873 3.375 1.418 3.094 1.322 1.227 1.547.629 1.385 1.488 1.813 1.747 2.192 1.14 1.3.947.664-.642 1.17-1.894.027-1.894-.818-1.113-1.044-1.421-2.02-1.477-1.471-.212 2.192.212 2.78.49 3.069 1.338 3.615.662 1.926.854 2.657.667 2.735.374 1.846-.64 1.283-1.645-.394-1.264-3.135-.836-2.948-1.084-1.803-.988-2.62h-.615l-.341.453.341 1.7.856 2.026.747 1.968.578 2.302.506 3.632.206 1.426-.712.843-1.566-.323-.32-.873-.89-3.866-.905-3.4-.775-2.297-.244-1.212-.36-.98-.587.326.314 1.866.273 2.298.604 2.56.236 2.057.23 1.924-.23 1.077h-1.113l-.9-.68-.68-2.814-.308-2.242-.577-1.882-.436-2.889v-1.601c-.331-.67-.533-.985-.606-.946-.073.04-.073.463 0 1.272l-.498 1.866v3.227l.117 2.345-.693.85-1.015-.396-.48-1.35-.351-1.449v-6.06l-.247-1.607-.372-.98-.604-1.333-2.042-4.55-.916-2.75-.328-2.554-.022-3.231-2.252-4.374-2.043-6.295-3.468-8.714-3.522-7.827-.373-1.62-.373-1.874-.454-1.104v-2.018l-.444-1.698.444-4.871-.956-3.93-1.454-8.268-.577-6.638-.384-7.157v-4.587l1.588-2.396.827-2.262.956-20.279zM39.586 62.908l-4.198 1.06-3.444 2.442-1.4 1.71-1.076 1.644-.278 5.493-.368 3.919v2.688l.855 3.996.215 3.222.653 2.227v2.478l-.653 3.142-.628 2.66v3.641l-.584 3.16-.46 3.616-.646 3.077-.187 2.463-.747 2.39-1.527 3.448-1.798 2.592-.644 2.841-.852 4.136-.476 2.89-.062 2.796-.1 2.655-.247 3.224-1.193 4.654-.875 2.852-1.056 2.59-.341 1.622-.438 1.176-1.73.967-3.404 1.418-3.122 1.322-1.238 1.547-.634 1.385-1.912 1.521-1.35 2.484-1.151 1.3L1 168.398l1.182.791 1.91.027 1.911-.818 1.123-1.044 1.434-2.02.872-.988.41 1.709.208 2.78-.86 2.022-.985 4.662-.915 1.781-.614 2.802-.977 2.62-.472 1.958 1.046 1.286 1.452-.527 1.05-3.052 1.275-2.898.703-2.044 1.386-2.38h.62l.345.454-.798 1.6-.74 1.897-.813 2.023-.49 2.402-.938 3.585.516 1.547.719.843 1.22-.401.36-.86.62-4.154 1.512-3.046.782-2.298.247-1.212.363-.98.592.326-.592 1.75-.454 2.268-.156 2.706-.62 2.057-.593 2.256.975.745h1.123l.712-.745.683-2.749.368-2.242.433-2.028.73-2.743v-1.601c.335-.67.538-.985.612-.946.074.04.074.463 0 1.272v1.866l.097.832v2.395l.167 2.334.82.861.62-.508.638-1.269.33-1.418-.08-2.639.354-3.421.248-1.607.375-.98.61-1.333 2.06-4.55.924-2.75.33-2.554.023-3.231 2.03-4.584 1.792-6.323 4.008-8.476 3.553-7.827.376-1.62.377-1.874.457-1.104v-2.018l.448-1.698-.448-4.871.964-3.93 1.468-8.268.582-6.638.387-7.157v-4.587l-1.602-2.396-.835-2.262-.964-20.279z"/>
        <g stroke="#333">
            <path stroke-width="1.037" d="M58.435 43.567s.09 1.227.114 1.842c.03.73.039 1.459.039 2.188 0 .768.004 1.537-.039 2.303-.015.27-.009.545-.076.807-.08.31-.245.592-.381.882-.215.455-.406.927-.687 1.344-.293.435-.65.829-1.03 1.19-.572.545-1.215 1.015-1.868 1.458-1.025.697-2.13 1.264-3.203 1.881-.949.546-1.885 1.116-2.86 1.613-.798.405-1.629.739-2.441 1.113-.828.38-1.648.777-2.479 1.151-.582.263-1.178.494-1.754.768-.53.252-1.018.592-1.564.806-.798.314-1.653.457-2.478.691-.802.227-1.628.383-2.403.69-.518.207-1.003.49-1.487.769-.496.285-1.003.562-1.45.92-.393.317-.73.699-1.067 1.076-.339.379-.687.756-.954 1.19a6.259 6.259 0 0 0-.61 1.343c-.157.484-.237.992-.305 1.497-.101.75-.115 1.51-.152 2.265-.04.78-.04 1.561-.077 2.341a62.65 62.65 0 0 1-.152 2.495c-.05.565-.159 1.124-.19 1.69-.037.638-.036 1.28 0 1.919.031.578.12 1.152.19 1.727.128 1.05.275 2.099.42 3.148.086.627.159 1.256.266 1.88.13.76.33 1.506.458 2.265.079.471.165.943.19 1.42.028.512.003 1.025-.038 1.536-.045.579-.14 1.153-.228 1.727a96.746 96.746 0 0 1-.534 3.071c-.108.577-.253 1.147-.343 1.727-.086.547-.138 1.1-.191 1.65-.078.806-.108 1.615-.19 2.42-.094.897-.22 1.792-.344 2.686-.164 1.18-.368 2.353-.534 3.532-.137.97-.209 1.952-.381 2.917-.111.62-.255 1.235-.42 1.842-.154.57-.345 1.13-.534 1.69-.217.643-.427 1.29-.686 1.919a26.321 26.321 0 0 1-1.03 2.188c-.2.38-.45.732-.648 1.113a22.338 22.338 0 0 0-.725 1.574c-.15.353-.303.708-.42 1.074-.143.453-.242.918-.342 1.382-.134.623-.22 1.256-.344 1.881-.142.719-.306 1.433-.457 2.15-.14.665-.3 1.326-.42 1.996-.061.343-.11.69-.152 1.036a36.46 36.46 0 0 0-.19 1.996 44.306 44.306 0 0 0-.077 2.111c-.01.525.01 1.05 0 1.574-.013.615-.025 1.23-.076 1.843a14.479 14.479 0 0 1-.191 1.497c-.087.454-.231.895-.343 1.343-.208.83-.393 1.667-.61 2.495a77.995 77.995 0 0 1-.992 3.532c-.255.814-.509 1.631-.839 2.418-.188.448-.511.839-.648 1.305-.098.333-.027.7-.115 1.036-.098.377-.225.763-.457 1.075a1.858 1.858 0 0 1-.649.538c-.573.289-1.269.231-1.868.46-.51.195-.964.517-1.45.768-.606.313-1.207.641-1.83.921a14.8 14.8 0 0 1-1.449.576c-.337.11-.73.078-1.03.269-.167.107-.251.309-.38.46-.2.234-.422.449-.611.691-.276.355-.532.727-.763 1.113-.184.31-.297.66-.496.96-.22.333-.513.61-.762.921-.182.228-.326.488-.534.691-.124.121-.288.194-.42.307a1.03 1.03 0 0 0-.152.154c-.125.164-.198.362-.305.537-.12.196-.263.379-.382.576-.15.25-.241.537-.42.768-.18.236-.428.413-.647.614-.2.183-.397.37-.61.537-.232.18-.494.319-.725.5-.107.083-.235.152-.305.268a.758.758 0 0 0-.115.46c.016.143.1.275.191.384.122.148.292.25.458.346.227.131.467.255.724.307.2.04.408.021.61 0 .31-.032.617-.104.916-.192a6.349 6.349 0 0 0 1.106-.422c.31-.16.612-.347.877-.576.232-.201.403-.463.61-.69.188-.208.424-.377.572-.615.094-.151.107-.342.19-.499.052-.097.123-.182.191-.269.24-.306.495-.6.763-.883.255-.268.51-.538.8-.767.29-.23.407-.318.65-.384.17-.047.357-.029.533 0 .238.039.468.126.686.23.259.123.725.46.725.46M12.673 164.826s1.538-.223 2.288-.422c.898-.239 1.763-.36 2.631-.691.72-.275 1.526-.64 2.136-1.113.568-.44.931-1.107 1.296-1.728.348-.591.84-1.88.84-1.88"/>
            <path stroke-width="1.037" d="M9.47 164.48s0 .49.038.73c.061.392.233.76.305 1.151.067.367.112.74.114 1.114.002.41-.05.822-.114 1.228-.1.622-.26 1.233-.42 1.842-.068.259-.19.504-.229.768-.035.24.023.487 0 .73a4.79 4.79 0 0 1-.152.806c-.09.328-.221.642-.343.96-.12.31-.26.612-.382.92-.171.433-.333.87-.496 1.306-.128.344-.227.702-.38 1.036-.099.213-.258.396-.344.614-.078.196-.11.408-.153.614-.048.242-.053.491-.114.73-.084.329-.228.64-.343.96-.139.384-.283.766-.42 1.15-.117.332-.24.662-.343.999-.058.19-.108.382-.153.576-.075.33-.14.663-.19.998-.053.356-.115.714-.115 1.074 0 .232-.01.476.077.691.078.195.234.35.381.5.16.161.318.353.534.422.218.069.473.047.686-.039.201-.08.355-.256.496-.422.223-.262.382-.574.534-.883.231-.468.404-.964.572-1.459.192-.567.312-1.157.496-1.727.162-.504.316-1.014.534-1.497.108-.24.252-.462.381-.69.138-.245.305-.474.42-.73.115-.258.169-.54.266-.806.153-.415.332-.819.496-1.229.154-.383.215-.818.458-1.151.107-.147.258-.264.42-.346a.564.564 0 0 1 .304-.076.455.455 0 0 1 .305.153c.073.093.074.228.077.346.004.155-.029.312-.077.46-.079.245-.241.455-.343.691-.102.238-.18.486-.267.73-.142.395-.247.806-.42 1.19-.107.24-.265.454-.38.69-.142.288-.281.579-.382.883-.157.474-.233.972-.343 1.459-.159.702-.303 1.408-.458 2.111-.087.397-.192.79-.267 1.19-.094.509-.182 1.02-.228 1.535a7.616 7.616 0 0 0-.039 1.152c.015.246.03.499.115.73.067.183.164.364.305.498.136.13.321.199.496.27.22.088.45.224.686.191.192-.027.344-.186.496-.307.14-.112.299-.223.381-.384.142-.277.095-.615.153-.921.08-.424.137-.855.267-1.267.058-.186.185-.347.228-.537.055-.237.007-.488.039-.73.047-.363.134-.72.228-1.074.14-.52.311-1.03.496-1.536.138-.377.267-.76.458-1.113.118-.218.325-.384.42-.614.053-.132.052-.281.076-.422.027-.166.044-.334.076-.5.063-.322.17-.636.229-.959.053-.292.054-.592.114-.883.084-.404.2-.803.343-1.19.064-.171.081-.392.23-.499a.377.377 0 0 1 .342-.038c.092.037.157.136.19.23.049.132.02.283 0 .422-.038.277-.15.538-.228.806-.086.295-.197.584-.267.883a6.11 6.11 0 0 0-.114.691c-.045.395-.053.793-.076 1.19-.015.243-.008.488-.039.73-.064.517-.2 1.024-.305 1.535-.112.55-.245 1.097-.343 1.65-.06.344-.088.694-.152 1.037-.074.387-.202.763-.267 1.151-.04.241-.077.485-.077.73.001.231-.018.48.077.69.077.174.228.31.381.423.124.091.27.16.42.192.198.043.409.033.61 0 .158-.026.32-.069.457-.154.168-.104.309-.257.42-.422.108-.161.167-.352.229-.537.186-.563.293-1.149.419-1.728.114-.522.202-1.05.305-1.573.163-.833.311-1.668.496-2.496.057-.257.094-.522.19-.767.097-.245.304-.44.382-.691.076-.246.063-.511.076-.768.018-.358-.022-.717 0-1.075.032-.514.124-1.024.19-1.535.037-.282.062-.566.115-.845.03-.155.037-.322.115-.46a.38.38 0 0 1 .152-.154c.08-.04.19-.086.267-.038.034.021.036.075.038.115.006.118-.06.229-.076.346-.035.266-.025.537-.038.806-.013.256-.05.511-.038.767.012.271.065.54.114.806.052.284.159.558.19.845.056.496 0 .998 0 1.497 0 .678-.008 1.356 0 2.034.007.474-.088.965.039 1.42.055.2.162.39.305.538.135.14.307.261.496.307.16.04.34.02.496-.038.162-.06.304-.177.419-.307.155-.176.253-.398.343-.615.16-.38.252-.787.343-1.19a6.67 6.67 0 0 0 .153-.92c.02-.243.002-.487 0-.73-.007-.73-.075-1.46-.038-2.188.016-.322.088-.639.114-.96.023-.28.032-.562.038-.844.01-.448-.023-.896 0-1.344.02-.36.046-.72.115-1.074.035-.183.092-.362.152-.538.176-.51.41-.997.61-1.497.246-.613.474-1.232.725-1.842.233-.567.46-1.137.725-1.69.28-.587.648-1.132.915-1.727.268-.597.51-1.21.686-1.842.11-.389.17-.79.23-1.19.105-.713.178-1.43.228-2.15.053-.753.064-1.51.076-2.264.007-.397.07-.8 0-1.19-.039-.215-.229-.615-.229-.615"/>
            <path stroke-width="1.037" d="M26.592 159.222s.09-.5.19-.73c.237-.542.668-.979.954-1.497.315-.57.58-1.167.84-1.765.414-.959.807-1.928 1.143-2.918.309-.907.503-1.852.801-2.763.38-1.165.846-2.3 1.258-3.455.233-.651.428-1.316.687-1.958.342-.848.761-1.663 1.144-2.495.418-.909.865-1.805 1.258-2.725.422-.986.75-2.012 1.183-2.994.35-.795.766-1.56 1.144-2.342.295-.612.65-1.2.877-1.842.162-.459.254-.941.343-1.42.09-.482.137-.972.19-1.459.063-.562.153-1.689.153-1.689"/>
            <path stroke-width="1.037" d="M38.605 128.514s.408-.669.534-1.037c.134-.394.209-.812.228-1.228.02-.424-.147-.844-.114-1.267.028-.368.203-.711.267-1.075a8.598 8.598 0 0 0 .076-2.303c-.038-.362-.148-.713-.19-1.075-.05-.42-.107-.844-.077-1.266.032-.443.186-.869.267-1.305.128-.689.223-1.383.343-2.073.17-.974.35-1.946.534-2.917.234-1.23.485-2.457.725-3.685.217-1.113.47-2.22.648-3.34.13-.815.202-1.638.305-2.457l.19-1.497"/>
            <path stroke-width="1.037" d="M41.922 86.98s.548 1.024.725 1.574c.164.509.27 1.041.305 1.574.043.652-.074 1.306-.114 1.958-.048.768-.108 1.535-.153 2.303-.06 1.023-.098 2.047-.152 3.07-.036.666-.096 1.33-.115 1.997-.018.64 0 1.28 0 1.92 0 .498-.008.997 0 1.496.013.743.07 1.484.076 2.227.008.844-.07 1.689-.038 2.533.022.552.097 1.1.153 1.65.07.692.165 1.381.229 2.073.048.524.087 1.049.114 1.574.042.806.021 1.614.076 2.418.042.604.124 1.204.191 1.805.06.537.153 1.072.19 1.612.04.574.069 1.152.039 1.727-.032.605-.141 1.204-.229 1.804-.135.924-.301 1.843-.458 2.764-.16.947-.34 1.892-.495 2.84a147.638 147.638 0 0 0-.496 3.263c-.097.69-.19 1.38-.267 2.073-.12 1.06-.254 2.12-.305 3.186-.022.46-.008.921 0 1.382.006.358.032.716.038 1.075.007.358.032.718 0 1.074a5.978 5.978 0 0 1-.153.845c-.145.61-.404 1.19-.533 1.804-.123.58-.132 1.18-.23 1.766-.145.876-.347 1.742-.533 2.61-.195.91-.425 1.813-.61 2.725-.212 1.045-.357 2.103-.572 3.148-.149.72-.363 1.426-.496 2.15-.152.825-.26 1.66-.343 2.494-.12 1.187-.172 2.38-.23 3.57-.037.78-.063 1.561-.075 2.342-.012.703.036 1.408 0 2.111-.045.848-.16 1.691-.267 2.533-.153 1.207-.373 2.404-.534 3.609-.185 1.38-.383 2.758-.496 4.145-.12 1.468-.151 2.942-.19 4.415-.034 1.24-.039 2.482-.039 3.723 0 1.241.028 2.482.038 3.723.016 1.804-.013 3.61.038 5.413.044 1.51.158 3.02.23 4.53.054 1.15.072 2.304.152 3.454.037.538.099 1.075.152 1.612.12 1.203.247 2.406.382 3.608.168 1.498.327 2.998.534 4.491.19 1.373.393 2.745.648 4.108.154.823.399 1.63.534 2.456.074.458.1.922.152 1.382.038.333.1.663.115.998.017.422-.032.844-.038 1.267-.013.806.026 1.612 0 2.418-.032.974-.12 1.945-.191 2.917-.07.948-.165 1.893-.229 2.84-.047.691-.11 1.382-.114 2.074-.004.589.054 1.177.076 1.765.03.794.054 1.587.076 2.38.015.525.069 1.05.038 1.574-.02.361-.088.719-.152 1.075a38.815 38.815 0 0 1-.534 2.418c-.265 1.07-.595 2.121-.877 3.186a166.753 166.753 0 0 0-1.64 6.756c-.23 1.059-.493 2.113-.648 3.186-.063.432-.082.87-.115 1.305a98.575 98.575 0 0 0-.19 3.11 59.207 59.207 0 0 0-.077 3.147c.006.563.041 1.126.077 1.689.05.781.094 1.564.19 2.341.096.773.273 1.533.382 2.303.154 1.097.263 2.2.381 3.302.11 1.035.16 2.078.305 3.109.186 1.327.507 2.631.725 3.953.214 1.302.348 2.616.572 3.916.088.514.192 1.026.305 1.535.139.63.303 1.254.457 1.881.277 1.127.616 2.24.84 3.378.153.786.257 1.583.343 2.38.076.714.12 1.432.152 2.15.028.613.05 1.228.038 1.842-.012.64-.114 1.92-.114 1.92"/>
            <path stroke-width="1.037" d="M39.33 295.682s-.304.863-.42 1.305c-.113.43-.143.879-.267 1.305-.1.342-.262.662-.382.998-.122.343-.252.684-.343 1.036-.104.404-.19.814-.229 1.229-.034.369-.037.744 0 1.113.032.312.112.618.191.921.064.247.18.479.229.73.031.163.032.332.038.498.012.307 0 .922 0 .922"/>
            <path stroke-width="1.037" d="M39.634 303.244s-.466 1.047-.762 1.535c-.247.406-.573.758-.84 1.152-.254.375-.554.73-.724 1.151-.117.29-.144.611-.19.921-.061.407-.073.82-.115 1.229-.024.23.007.474-.076.69-.102.266-.323.467-.496.692-.122.157-.287.284-.381.46-.146.27-.134.606-.267.883-.136.28-.346.52-.534.768-.23.303-.465.605-.725.883-.333.355-.714.662-1.068.998-.32.304-.624.626-.953.92-.21.188-.468.323-.648.538a2.75 2.75 0 0 0-.458.806c-.09.245-.102.512-.152.768-.051.256-.151.507-.153.768-.001.208.069.41.114.614.055.245.154.48.191.73.049.328-.09.69.038.997.108.26.353.441.572.614.184.145.392.264.61.346.244.09.505.128.763.153.14.014.42 0 .42 0"/>
            <path stroke-width="1.037" d="M34.372 317.676s-.231.238-.305.384c-.109.213-.147.456-.191.691-.045.24-.054.486-.076.73-.03.306-.08.613-.077.92.003.387.024.778.115 1.152.049.201.105.41.229.576.087.117.21.212.343.269.165.07.354.069.534.077.216.009.648-.039.648-.039"/>
            <path stroke-width="1.037" d="M36.889 317.907s-.134.393-.23.575c-.085.164-.232.292-.304.461-.068.157-.072.334-.115.5-.046.18-.073.368-.152.537-.067.14-.211.238-.267.383-.037.097-.012.208-.038.307-.051.189-.127.372-.23.538-.061.1-.187.158-.228.269-.075.204-.056.442 0 .652a.915.915 0 0 0 .267.46c.166.142.399.18.61.231.212.052.431.064.648.077.19.011.382.008.572 0 .153-.007.458-.039.458-.039"/>
            <path stroke-width="1.037" d="M39.177 318.214s-.25.346-.344.537c-.083.17-.121.36-.19.538a6.35 6.35 0 0 1-.23.537c-.078.159-.2.296-.266.46-.06.147-.075.308-.114.461-.05.193-.09.387-.153.576-.065.196-.182.375-.229.576a1.16 1.16 0 0 0-.038.46c.037.209.124.421.267.576.178.193.433.318.686.384.173.045.357.012.534 0 .384-.026.765-.088 1.144-.153.244-.043.49-.08.725-.154.158-.05.327-.09.458-.192a.676.676 0 0 0 .228-.307c.025-.073 0-.23 0-.23"/>
            <path stroke-width="1.037" d="M43.372 317.638s-.284.477-.458.691c-.25.308-.58.544-.84.844-.166.194-.35.382-.457.615-.098.214-.105.46-.152.69-.055.268-.167.533-.153.807.014.266.143.515.229.767.057.169.092.351.19.5.156.232.375.425.61.575.324.206.69.367 1.069.422.442.065.894-.04 1.334-.115.31-.052.616-.134.916-.23.299-.096.606-.185.877-.346.17-.101.325-.235.457-.383.184-.206.378-.426.458-.691.055-.184-.011-.385 0-.576.013-.219.034-.438.076-.653.037-.182.153-.537.153-.537"/>
            <path stroke-width="1.037" d="M47.528 321.361s.398-.15.572-.268c.246-.168.483-.367.649-.614.197-.296.293-.653.38-.998.096-.376.128-.766.153-1.152.03-.434.074-.876 0-1.305-.07-.415-.264-.8-.419-1.19-.14-.351-.25-.721-.458-1.036a3 3 0 0 0-.572-.615c-.14-.119-.457-.307-.457-.307M48.138 314.414s.096-.792.115-1.19c.011-.243-.037-.49 0-.73.038-.252.172-.48.229-.729.1-.441.13-.895.19-1.343.055-.41.116-.818.153-1.229.02-.23-.01-.465.038-.69.06-.282.263-.522.305-.807.028-.19-.032-.383-.038-.576-.007-.217-.015-.435 0-.652.025-.361.127-.714.152-1.075.013-.179-.013-.359 0-.537.039-.504.13-1.003.23-1.497.133-.66.37-1.297.495-1.958.075-.393.186-.791.153-1.19-.026-.306-.186-.586-.267-.883-.098-.356-.147-.726-.267-1.075-.183-.53-.469-1.018-.687-1.535-.107-.254-.305-.768-.305-.768"/>
            <path stroke-width="1.037" d="M49.13 300.365s-.214-1.07-.267-1.613c-.04-.407-.032-.818-.038-1.228-.006-.396.044-.796 0-1.19-.039-.34-.158-.664-.229-.998a44.705 44.705 0 0 1-.267-1.343c-.084-.46-.19-.917-.229-1.382-.03-.37.03-.743 0-1.113-.05-.646-.268-1.273-.305-1.92-.034-.588.036-1.178.076-1.765.056-.808.084-1.622.23-2.419.164-.9.477-1.767.724-2.648.236-.846.506-1.683.724-2.534.186-.724.355-1.453.496-2.188.123-.636.191-1.281.305-1.919.16-.899.307-1.802.534-2.687.22-.858.5-1.7.801-2.533.286-.793.66-1.551.953-2.342.446-1.202.87-2.413 1.22-3.646.198-.696.406-1.394.496-2.112.079-.622.059-1.254.039-1.88-.025-.758-.119-1.511-.191-2.265-.09-.948-.242-1.89-.305-2.84-.066-.997-.035-1.997-.076-2.995-.019-.448-.07-.895-.077-1.343-.007-.487.025-.973.038-1.459.012-.422-.035-.85.039-1.267.049-.278.153-.546.266-.806.264-.603.621-1.16.954-1.727.426-.728.915-1.418 1.335-2.15.338-.59.656-1.191.953-1.804.384-.793.72-1.608 1.068-2.418.339-.79.71-1.568.991-2.38.279-.803.532-1.62.687-2.457.124-.67.159-1.354.19-2.034.045-.946.05-1.895 0-2.84-.044-.836-.222-1.66-.267-2.496-.042-.792 0-1.586 0-2.38 0-.818.004-1.637 0-2.456-.006-1.37-.055-2.738-.038-4.107.014-1.101.064-2.202.115-3.301.02-.449.032-.898.076-1.344.072-.733.19-1.46.305-2.188.148-.937.346-1.865.496-2.802.155-.97.24-1.951.42-2.917.135-.736.363-1.452.495-2.188.221-1.233.262-2.494.496-3.724.187-.984.508-1.938.724-2.917.23-1.043.447-2.091.61-3.148.17-1.094.273-2.198.382-3.3.121-1.227.254-2.454.305-3.686.053-1.29.01-2.584 0-3.877-.007-.819-.002-1.638-.038-2.456-.11-2.524-.545-7.56-.545-7.56M86.47 300.29s-.032-.943 0-1.412c.027-.4.135-.793.162-1.194.03-.452-.052-.908 0-1.357.068-.586.312-1.138.404-1.72.119-.748.11-1.512.19-2.265.085-.795.262-1.581.306-2.38a15.41 15.41 0 0 0-.038-2.188c-.078-.89-.263-1.768-.42-2.648-.114-.642-.228-1.286-.381-1.92-.228-.944-.557-1.861-.8-2.802-.212-.814-.411-1.631-.573-2.456-.186-.954-.254-1.93-.457-2.88a31.341 31.341 0 0 0-.801-2.955c-.403-1.26-.915-2.482-1.373-3.723-.203-.55-.422-1.095-.61-1.65a28.52 28.52 0 0 1-.649-2.112 21.032 21.032 0 0 1-.495-2.457 7.644 7.644 0 0 1-.074-1.238c.029-.857.236-1.699.324-2.552a54.15 54.15 0 0 0 .19-2.388c.07-1.175.111-2.352.133-3.529.015-.796.033-1.593 0-2.388-.018-.436-.006-.88-.108-1.303-.1-.418-.305-.804-.485-1.194-.18-.39-.39-.763-.593-1.14-.473-.876-.992-1.726-1.456-2.606-.476-.9-.948-1.805-1.364-2.735-.393-.88-.722-1.787-1.067-2.687-.289-.752-.615-1.491-.84-2.265-.221-.766-.417-1.547-.495-2.342-.103-1.044.008-2.098.038-3.147.048-1.652.2-3.3.229-4.952.022-1.215-.026-2.43-.038-3.646-.014-1.408-.05-2.815-.038-4.223.004-.473.056-.947.038-1.42-.033-.861-.162-1.716-.267-2.572-.066-.539-.16-1.074-.229-1.612-.157-1.226-.245-2.461-.42-3.685-.159-1.118-.39-2.225-.572-3.34-.174-1.073-.288-2.157-.495-3.224-.276-1.42-.688-2.809-.992-4.222-.293-1.364-.595-2.728-.8-4.108-.128-.852-.185-1.713-.268-2.571-.11-1.138-.249-2.275-.305-3.417-.071-1.457-.042-2.917-.038-4.376.003-.844-.007-1.69.038-2.533.133-2.471.682-7.393.682-7.393"/>
            <path stroke-width="1.037" d="M53.734 248.339s-2.092 1.728-3.02 2.714c-.95 1.01-2.59 3.257-2.59 3.257M81.347 248.556s1.753 2.733 2.588 4.125c.707 1.18 2.05 3.583 2.05 3.583M86.605 296.164s-.358.636-.486.977c-.111.297-.152.618-.242.923-.098.329-.227.647-.324.977a11.3 11.3 0 0 0-.243.95 4.915 4.915 0 0 0-.107.733c-.009.172.003.345.027.515.028.203.084.4.134.597.106.42.258.827.351 1.249.085.385.09.786.189 1.167.046.177.157.336.188.516.035.196.005.398 0 .597-.004.19-.052.382-.027.57.024.17.131.32.162.489.035.187.038.38.027.57-.01.173-.09.341-.08.515.018.347.224.66.269 1.005.027.206-.02.417 0 .624.023.238.083.472.135.706.056.254.157.5.189.76.031.26-.044.528 0 .787.036.217.173.408.215.624.06.302.036.615.054.923.018.307.03.615.054.923.014.18.081.597.081.597M88.25 313.426s-.418.394-.62.597c-.185.186-.39.356-.54.57-.15.216-.24.468-.35.706-.182.393-.397.777-.513 1.194a4.281 4.281 0 0 0-.135.978c-.012.307.032.615.054.922.023.308.016.622.081.923.086.394.194.797.405 1.14.15.245.356.463.593.625.16.109.54.217.54.217"/>
            <path stroke-width="1.037" d="M87.63 320.103s.148.337.188.516c.044.195.012.402.054.597.046.216.118.428.216.624.122.245.256.496.458.68.228.205.525.32.81.433.423.168.872.27 1.32.353a6.38 6.38 0 0 0 1.025.109c.288.006.585.02.863-.055.31-.084.637-.203.863-.434.19-.193.26-.477.35-.733.118-.333.222-.678.243-1.031a2.64 2.64 0 0 0-.08-.733 2.544 2.544 0 0 0-.216-.624c-.12-.23-.3-.42-.459-.624-.165-.213-.323-.434-.512-.625-.24-.24-.567-.388-.782-.651-.156-.191-.35-.652-.35-.652M93.697 322.465s.295.33.485.434c.27.147.587.195.89.244.32.053.647.042.97.055.36.014.743.156 1.08.027a.916.916 0 0 0 .458-.434c.058-.114.045-.253.054-.38.015-.217.05-.44 0-.652-.042-.177-.188-.315-.243-.488-.036-.114-.036-.236-.054-.353-.018-.118-.024-.238-.054-.353a2.492 2.492 0 0 0-.162-.434c-.053-.114-.136-.212-.188-.326-.069-.148-.104-.31-.162-.462-.06-.155-.1-.32-.189-.461-.078-.124-.235-.192-.297-.326-.057-.124-.054-.407-.054-.407M97.58 322.926s.486-.009.728-.027c.316-.024.648.005.944-.109.174-.067.325-.192.458-.325.11-.11.223-.232.27-.38.05-.155.028-.328 0-.489a1.428 1.428 0 0 0-.189-.516c-.048-.075-.139-.115-.189-.19a1.225 1.225 0 0 1-.162-.38c-.022-.088-.005-.183-.027-.27-.028-.115-.083-.22-.134-.327-.04-.083-.112-.154-.135-.244-.027-.105.013-.218 0-.326a1.258 1.258 0 0 0-.081-.325c-.04-.098-.109-.181-.162-.272-.063-.108-.149-.206-.189-.325a1.033 1.033 0 0 1-.027-.218"/>
            <path stroke-width="1.037" d="M99.791 322.383s.378.082.485.082c.108 0 .347-.055.513-.109.168-.055.346-.107.485-.217a.8.8 0 0 0 .27-.353c.058-.171-.01-.362 0-.543.022-.436.137-.866.135-1.302-.003-.31-.078-.615-.108-.923-.022-.226.029-.468-.054-.679-.043-.108-.136-.188-.216-.271-.058-.06-.189-.163-.189-.163"/>
            <path stroke-width="1.037" d="M101.598 321.732s.467.07.7.054c.266-.017.54-.054.783-.163.223-.1.435-.246.593-.434.156-.185.262-.417.324-.651.043-.167.022-.344.027-.516.003-.145-.02-.29 0-.434.027-.205.12-.396.161-.597.05-.242.123-.487.108-.733-.012-.206-.104-.4-.162-.597-.068-.237-.128-.476-.215-.706a4.314 4.314 0 0 0-.297-.652 3.08 3.08 0 0 0-.297-.407 4.186 4.186 0 0 0-.485-.515c-.182-.157-.409-.254-.593-.408a5.154 5.154 0 0 1-.54-.542c-.153-.173-.269-.379-.43-.543-.172-.174-.39-.295-.567-.462a4.58 4.58 0 0 1-.35-.38c-.171-.2-.348-.4-.486-.624-.12-.196-.206-.413-.297-.624-.138-.32-.209-.672-.377-.977-.131-.238-.345-.42-.486-.652-.15-.249-.242-.53-.377-.787-.126-.24-.272-.47-.405-.706-.136-.243-.267-.49-.404-.732a96.46 96.46 0 0 0-.485-.842"/>
            <path stroke-width="1.037" d="M98.389 309.464s-.081-.397-.108-.598c-.041-.306-.029-.618-.081-.922-.049-.286-.095-.58-.216-.842-.111-.241-.305-.434-.458-.651-.153-.217-.304-.436-.459-.652-.195-.273-.435-.517-.593-.814-.099-.187-.216-.597-.216-.597"/>
            <path stroke-width="1.037" d="M97.148 305.854s-.05-.343-.054-.516c-.006-.3.01-.6.054-.896.04-.267.103-.531.19-.787.078-.234.236-.439.296-.679.087-.352.085-.722.08-1.085a6.877 6.877 0 0 0-.107-1.086c-.051-.294-.1-.594-.216-.869-.08-.186-.239-.33-.324-.515-.165-.361-.25-.755-.35-1.14a9.637 9.637 0 0 1-.162-.76 21.401 21.401 0 0 1-.243-1.764 20.828 20.828 0 0 1-.054-1.249 42.572 42.572 0 0 1 .216-3.203c.062-.59.132-1.178.216-1.764.07-.5.143-.999.243-1.493.143-.712.485-2.008.512-2.117.027-.109.336-1.227.485-1.846.187-.774.373-1.55.513-2.334.116-.656.162-1.324.27-1.981.084-.519.208-1.03.296-1.548.225-1.325.419-2.656.593-3.99.094-.713.168-1.428.243-2.144.087-.831.162-1.664.243-2.497.072-.75.097-1.508.215-2.253.11-.695.353-1.366.459-2.063.098-.646.106-1.303.162-1.954.06-.706.176-1.408.188-2.117.013-.68-.077-1.357-.108-2.036-.021-.47-.038-.94-.054-1.411-.021-.651-.005-1.304-.054-1.954a32.957 32.957 0 0 0-.296-2.47c-.09-.6-.21-1.195-.324-1.792a93.228 93.228 0 0 0-.35-1.764c-.103-.49-.204-.98-.324-1.466-.236-.956-.525-1.899-.782-2.85-.164-.605-.35-1.205-.485-1.818-.135-.61-.164-1.242-.324-1.846-.143-.539-.415-1.037-.566-1.574-.12-.427-.155-.875-.27-1.303-.059-.22-.172-.427-.216-.651-.078-.4-.063-.814-.08-1.222-.02-.452-.027-.904-.027-1.357 0-.47.012-.94.027-1.411.02-.643.027-1.819.08-1.927.054-.109-.015-.815-.026-1.222-.015-.534-.028-1.068-.054-1.601-.048-.951-.147-1.899-.19-2.85-.034-.796-.014-1.593-.053-2.389-.041-.833-.15-1.663-.189-2.497-.023-.479-.022-.959-.027-1.438-.004-.462-.053-.926 0-1.385.054-.47.226-.92.324-1.384.12-.567.223-1.138.323-1.71.157-.893.298-1.79.432-2.687a98.35 98.35 0 0 0 .404-2.931c.129-1.084.201-2.173.324-3.257.144-1.278.348-2.549.485-3.828.132-1.228.324-3.582.324-3.691 0-.109.058-1.773.08-2.66.022-.832.034-1.665.055-2.497.031-1.258.07-2.515.107-3.773.053-1.8.146-3.6.162-5.401.014-1.502-.012-3.004-.054-4.506a82.973 82.973 0 0 0-.108-2.443c-.102-1.775-.18-3.553-.377-5.32-.12-1.073-.328-2.134-.485-3.202-.13-.878-.244-1.757-.378-2.633-.06-.39-.16-.774-.189-1.167-.05-.686.018-1.376.027-2.063.009-.606.042-1.213.027-1.819a63.862 63.862 0 0 0-.323-5.021c-.072-.691-.189-1.377-.297-2.063-.083-.526-.164-1.052-.27-1.574-.353-1.749-.837-3.468-1.213-5.212-.204-.946-.382-1.899-.566-2.85-.23-1.184-.425-2.375-.675-3.555-.13-.618-.318-1.224-.431-1.846a5.312 5.312 0 0 1-.08-.624c0-.109.018-.814.026-1.222.01-.56.05-1.122.027-1.682-.023-.546-.107-1.086-.162-1.629-.089-.887-.165-1.775-.27-2.66a64.887 64.887 0 0 0-.404-2.986c-.13-.782-.431-2.198-.458-2.334-.027-.136-.27-1.975-.432-2.958-.097-.59-.24-1.172-.323-1.765-.065-.468-.105-.94-.135-1.411-.037-.578-.075-1.158-.054-1.737.025-.691.137-1.376.216-2.063.074-.652.186-1.3.242-1.954.064-.731.067-1.466.108-2.199.032-.57.06-1.14.108-1.71.072-.852.225-1.697.27-2.551.034-.642-.008-1.285 0-1.927.009-.724.052-1.448.054-2.172 0-.425-.055-.851-.027-1.275.015-.238.022-.484.108-.706.023-.061.089-.1.107-.163.094-.312.01-.652 0-.977-.035-1.268-.158-2.533-.215-3.8-.062-1.375-.097-2.75-.135-4.126-.033-1.185-.134-2.371-.08-3.555.014-.319.047-.637.107-.95.077-.406.154-.82.324-1.195.174-.386.468-.705.7-1.058.316-.48.701-.919.944-1.439.237-.505.486-1.601.486-1.601"/>
            <path stroke-width="1.037" d="M93.077 102.04s.06.997.107 1.493c.08.817.17 1.633.297 2.443.154.983.372 1.955.566 2.931.157.789.336 1.572.486 2.362.195 1.028.345 2.065.539 3.094.142.753.302 1.503.458 2.253.14.67.36 1.327.432 2.008.051.486.017.978 0 1.466a25.104 25.104 0 0 1-.108 1.547c-.042.436-.154.866-.162 1.303-.006.4.027.803.108 1.194.052.252.202.48.243.733.03.188-.002.38 0 .57.004.39-.01.78.027 1.167.025.274.064.549.135.815.086.326.24.63.35.95.068.197.142.393.189.597.096.419.135.849.189 1.275.043.343.017.698.108 1.032.148.547.453 1.038.7 1.547.282.578.607 1.133.89 1.71.387.787.756 1.584 1.106 2.389.398.914.737 1.853 1.133 2.768.335.776.704 1.537 1.051 2.307.427.948.891 1.88 1.268 2.85.452 1.165.787 2.372 1.186 3.556.348 1.032.745 2.049 1.052 3.094.115.394.169.805.296 1.194.126.382.298.746.459 1.113.18.411.372.817.566 1.222.096.2.206.394.297.597.148.329.26.673.404 1.004.152.348.304.698.486 1.031.162.3.38.568.539.869.093.175.201.349.243.543.043.203.002.416 0 .624-.005.444-.04.887-.027 1.33.02.671.093 1.34.161 2.009.075.725.127 1.456.27 2.171.112.562.258 1.12.458 1.656.198.526.493 1.01.729 1.52.306.665.59 1.34.89 2.008.178.399.373.79.539 1.195.167.41.272.846.458 1.248.13.283.347.523.459.814.073.19.066.405.134.597.082.23.264.417.324.652.058.228.01.47.027.706.025.353.09.704.108 1.058.025.488-.021.978 0 1.466.009.209.046.415.054.624.02.579-.023 1.158-.027 1.737-.004.453-.014.905 0 1.357.009.3-.01.604.054.896.064.294.228.556.323.842.084.25.124.513.216.76.06.159.114.325.216.46.122.165.276.316.458.408a.882.882 0 0 0 .378.081c.164.004.347.008.485-.08.12-.078.167-.233.243-.354.077-.123.178-.239.216-.38.048-.183.002-.38 0-.57-.01-.67-.053-1.339-.054-2.008-.001-.39.016-.778.027-1.167.008-.299.017-.598.027-.896.008-.28-.035-.568.027-.842.034-.154.147-.281.188-.434.077-.281.098-.577.108-.868a5.8 5.8 0 0 0-.054-1.059c-.022-.148-.09-.286-.108-.434-.01-.09-.024-.185 0-.272.024-.082.061-.175.135-.217.04-.022.094-.017.135 0 .07.03.123.097.162.163.048.081.055.18.08.271.047.163.096.325.136.489.062.26.13.521.161.787.035.297.02.597.027.896.011.434-.005.87.027 1.303.021.273.049.547.108.814.046.204.118.4.189.597.097.267.24.516.324.787.14.46.216.938.296 1.412.071.422.09.853.162 1.275.079.457.183.909.297 1.357.11.439.26.867.377 1.303.087.324.116.667.243.977.087.214.19.432.35.598.119.122.27.219.432.271.128.042.27.038.404.027.166-.013.326-.062.486-.108.155-.045.326-.068.458-.163.177-.128.337-.308.405-.516.066-.207-.019-.434-.027-.651-.01-.236.014-.474-.027-.706-.046-.253-.184-.482-.243-.733-.115-.49-.123-.999-.216-1.493-.088-.465-.235-.918-.323-1.384-.082-.431-.125-.869-.19-1.303-.043-.299-.108-.595-.134-.896-.03-.342 0-.688-.027-1.031-.027-.337-.052-.677-.135-1.004-.068-.272-.218-.518-.296-.787-.073-.249-.092-.511-.162-.76-.044-.157-.14-.3-.162-.462-.015-.117-.056-.27.027-.353.083-.083.234-.037.35-.027.074.007.159.007.216.054.13.108.163.3.216.462.086.263.11.542.162.814.084.443.12.897.242 1.33.061.215.172.413.243.624.073.215.157.428.189.652.019.134-.025.274 0 .407.05.267.184.513.297.76.144.316.35.602.485.923.18.43.294.884.431 1.33.114.369.243.735.324 1.113.068.321.072.654.135.977.077.403.214.792.296 1.194.08.386.098.784.189 1.167.042.176.073.36.162.516.107.19.25.37.431.488a1.2 1.2 0 0 0 .594.19c.248.012.514-.034.728-.162.213-.13.36-.354.485-.57.12-.208.205-.442.243-.679.05-.313-.006-.634-.027-.95a16.791 16.791 0 0 0-.135-1.276 24.956 24.956 0 0 0-.324-1.764c-.163-.748-.387-1.481-.566-2.226-.143-.595-.2-1.214-.405-1.791-.121-.343-.331-.647-.485-.977-.17-.367-.33-.739-.485-1.113a28.475 28.475 0 0 1-.594-1.52c-.08-.232-.189-.461-.215-.706-.012-.108-.019-.227.027-.325a.544.544 0 0 1 .27-.272.429.429 0 0 1 .296 0c.151.053.275.175.378.299.209.251.329.567.458.868.2.465.332.957.485 1.439.086.27.121.559.243.814.137.287.378.513.54.787.153.262.282.537.404.815.151.345.287.7.404 1.058.138.42.217.856.35 1.276.168.523.357 1.04.567 1.547.18.433.387.855.593 1.276.104.21.158.46.324.624.115.113.277.172.431.217.174.05.36.079.54.054a1.12 1.12 0 0 0 .485-.19c.167-.117.302-.284.405-.461.11-.19.181-.407.215-.624.059-.376.013-.762-.027-1.14a8.264 8.264 0 0 0-.215-1.14c-.095-.378-.235-.742-.35-1.113-.145-.461-.279-.926-.432-1.384-.144-.429-.328-.844-.459-1.276-.108-.357-.16-.73-.27-1.086-.115-.377-.26-.745-.404-1.113-.203-.52-.448-1.025-.647-1.547-.147-.384-.256-.783-.405-1.167-.173-.45-.424-.87-.566-1.33-.068-.22-.092-.452-.135-.679-.057-.306-.118-.613-.161-.922-.048-.343-.045-.692-.108-1.032-.038-.203-.118-.395-.162-.597-.08-.367-.142-.74-.189-1.113-.054-.423-.121-.849-.108-1.275.014-.43.128-.85.189-1.276.037-.262.074-.525.108-.787.029-.226.08-.679.08-.679"/>
            <path stroke-width="1.037" d="M114.541 159.745s.426.983.701 1.439c.4.663.81 1.346 1.376 1.873.435.405.967.706 1.51.95.563.253 1.175.388 1.78.515.656.14 1.326.213 1.995.272.43.038.862.045 1.294.054.216.005.647 0 .647 0M124.653 163.844s.291-.03.432 0c.212.046.414.147.593.271.209.146.357.365.54.543.318.312.659.603.97.923.272.28.569.542.782.869.12.182.16.408.27.597.169.29.362.57.593.814.168.177.375.311.566.461.355.279.675.616 1.079.815.368.181.784.244 1.186.325.338.069.68.145 1.025.137.301-.008.62-.027.89-.164a1.31 1.31 0 0 0 .485-.461.967.967 0 0 0 .162-.462.797.797 0 0 0-.108-.461c-.086-.136-.248-.204-.377-.299-.246-.18-.506-.34-.755-.515-.2-.142-.424-.257-.594-.435-.202-.211-.33-.483-.485-.732-.208-.338-.377-.7-.593-1.032a7.01 7.01 0 0 0-.54-.733c-.182-.213-.402-.391-.593-.597-.317-.342-.62-.697-.917-1.058-.232-.284-.487-.553-.674-.869-.16-.271-.218-.596-.377-.868-.189-.324-.44-.606-.674-.896a9.935 9.935 0 0 0-.567-.652c-.12-.124-.23-.262-.377-.352-.294-.18-.646-.24-.971-.353-.43-.15-1.16-.407-1.294-.435-.135-.027-.895-.424-1.349-.624-.686-.302-1.381-.585-2.076-.868-.43-.176-.865-.338-1.294-.516-.253-.105-.534-.163-.755-.326-.144-.106-.24-.266-.35-.407-.164-.21-.331-.419-.46-.651a1.237 1.237 0 0 1-.134-.326c-.05-.23.022-.476-.027-.706-.07-.333-.26-.63-.378-.95-.192-.52-.339-1.057-.539-1.574-.163-.423-.402-.816-.54-1.249-.105-.334-.134-.69-.215-1.031a26.493 26.493 0 0 0-.458-1.71c-.168-.54-.402-1.06-.567-1.601-.179-.59-.332-1.188-.458-1.792a24.867 24.867 0 0 1-.324-1.981 31.793 31.793 0 0 1-.188-2.117c-.057-.958-.044-1.919-.081-2.877-.043-1.096-.038-2.196-.162-3.285-.086-.758-.255-1.505-.405-2.253-.204-1.017-.472-2.021-.674-3.04-.152-.765-.233-1.545-.404-2.307a17.07 17.07 0 0 0-.432-1.574 15.63 15.63 0 0 0-.539-1.411c-.187-.426-.404-.838-.62-1.249-.353-.669-.793-1.292-1.106-1.981-.341-.752-.546-1.56-.836-2.335-.242-.646-.559-1.265-.755-1.927-.291-.982-.62-2.85-.62-3.012 0-.163-.287-2.136-.431-3.203-.198-1.466-.44-2.926-.594-4.397-.075-.722-.088-1.45-.161-2.172-.078-.762-.199-1.52-.297-2.28-.072-.56-.127-1.124-.216-1.683-.166-1.046-.443-2.072-.593-3.12a22.61 22.61 0 0 1-.189-1.955 21.287 21.287 0 0 1-.027-1.927c.023-.636.072-1.271.162-1.9.142-.996.424-1.967.593-2.959.151-.882.276-1.77.378-2.66.107-.938.206-1.879.242-2.823.037-.958.01-1.918-.027-2.877-.035-.96-.11-1.919-.188-2.877-.114-1.404-.283-2.803-.405-4.207-.05-.579-.006-1.171-.135-1.737a5.496 5.496 0 0 0-.539-1.384c-.191-.353-.445-.67-.701-.977a7.247 7.247 0 0 0-.701-.733 18.882 18.882 0 0 0-1.996-1.575c-.465-.32-.936-.648-1.456-.868-.446-.19-.933-.26-1.402-.38-.932-.239-1.886-.392-2.804-.679-.791-.247-1.558-.567-2.32-.895-.731-.316-1.434-.696-2.157-1.032-1.055-.49-2.138-.922-3.182-1.438a84.59 84.59 0 0 1-5.528-2.986c-.846-.501-1.658-1.06-2.48-1.601-.434-.286-1.295-.869-1.295-.869"/>
            <path stroke-width="1.037" d="M80.996 55.898s-.636-.305-.917-.516a5.305 5.305 0 0 1-.97-.95 3.972 3.972 0 0 1-.46-.76 10.91 10.91 0 0 1-.646-1.791c-.125-.453-.27-1.384-.27-1.384"/>
            <path stroke-width="1.037" d="M77.544 54.215s-.127-1.302-.108-1.954c.017-.555.132-1.103.19-1.656.049-.479.083-.96.134-1.438.136-1.269.326-2.531.458-3.8.096-.922.121-1.85.243-2.769.121-.91.283-1.818.486-2.714.142-.631.353-1.245.512-1.873.126-.495.25-.991.35-1.493.011-.054.027-.162.027-.162"/>
            <path stroke-width="1.037" d="M79.108 36.926s.221-.413.405-.543c.1-.071.23-.09.35-.109.25-.038.506.034.755 0a3.58 3.58 0 0 0 .971-.271c.292-.13.58-.293.81-.516.25-.244.42-.563.592-.869.268-.475.48-.982.675-1.492.107-.284.205-.573.27-.869.075-.348.052-.712.134-1.059.075-.317.215-.615.324-.922.143-.408.33-.802.431-1.222.145-.603.246-1.225.243-1.846-.002-.32-.173-1.295-.173-1.295M57.215 37.306l-.115-.648s-.437-.412-.686-.576a.55.55 0 0 0-.153-.077c-.172-.048-.359-.002-.534-.038-.224-.047-.456-.105-.648-.23-.294-.193-.517-.484-.725-.768a6.548 6.548 0 0 1-.762-1.382c-.126-.308-.186-.638-.267-.96a26.855 26.855 0 0 1-.305-1.343c-.089-.446-.14-.898-.23-1.344-.055-.283-.15-.559-.19-.844-.093-.66-.158-1.331-.114-1.996.022-.338.124-.666.19-.998.05-.244.153-.73.153-.73M63.801 174.353s2.417 1.868 3.842 1.888c1.44.02 3.93-1.799 3.93-1.799"/>
            <path stroke-width="1.035" d="M52.966 25.913l-.494-3.183-.293-2.002V18.69l.293-1.695.494-1.67.533-1.896.662-1.688.625-1.68.903-1.771 1.284-2.123 1.386-1.639 1.372-1.382 1.256-.804 1.399-.599 1.437-.46 1.286-.21h1.438L67.643 1h1.727l1.437.074 1.75.21 1.381.46 1.511.6 1.158.418 1.315.539 1.2.827 1.47 1.169 1.016.87 1.383 1.599.65 1.077.671 1.22.519 1.438.438.918.339 1.659.139 1.814-.139 1.925-.339 2.421-.201 2.492-.237 2.62v.908M57.215 37.306l1.373 6.868"/>
        </g>
    </g>
</svg>
