<svg xmlns="http://www.w3.org/2000/svg" width="135" height="324" viewBox="0 0 135 324">
    <g fill="none" fill-rule="evenodd">
        <path fill="#F0DD00" d="M56.595 54.18c1.993-2.33 2.42-7.602 1.733-10.008-.457-1.605-.915-4.202-1.373-7.793-1.214-.61-2.004-.916-2.371-.916-.55 0-1.824-3.147-1.824-4.14 0-.992-.381-2.99-.19-5.892.19-2.902-.65-5.267-.65-6.66 0-1.39 3.633-12.233 5.722-13.229 2.089-.996-.349-3.651 9.742-4.404 5.179-.387 10.36 1.057 14.224 5.1.77.806 1.646 2.34 2.629 4.603 1.286 2.966 1.703 5.405 1.25 7.318-.452 1.913-.87 4.517-1.25 7.811.438.516.548 1.56.329 3.131-.22 1.572-.54 2.312-.96 2.222.11.684.11 1.233 0 1.649-.11.415-.4.974-.874 1.675-1.339 1.371-2.4 2.002-3.182 1.894-.479-.066-.118.474-.185 1.033-.03.236-.201.619-.516 1.147-.593 2.82-.89 5.033-.89 6.64 0 2.41-1.542 5.44.417 8.82 1.96 3.38-23.774 2.33-21.781 0z"/>
        <path fill="#F7EE7F" d="M57.293 36.98c2.742 4.784 6.31 7.164 10.707 7.141 4.396-.023 8.359-2.444 11.887-7.261l-1.348 6.06-1.026 8.394c-.081 2.002-.081 3.063 0 3.186.08.122.27-.654.568-2.327l.633 2.06-.4 1.41-5.231 1.143-9.574-.212-5.75-.932-1.372-1.007c.803-.966 1.334-1.693 1.592-2.183.259-.49.488-1.2.687-2.133v-6.11l-1.373-7.229z"/>
        <g stroke="#333">
            <path stroke-width="1.034" d="M58.435 43.516s.09 1.224.114 1.837c.03.726.039 1.454.039 2.18 0 .766.004 1.532-.039 2.296-.015.269-.009.543-.076.804-.08.31-.245.59-.381.88-.215.453-.406.923-.687 1.339-.293.434-.65.826-1.03 1.186-.572.543-1.215 1.011-1.868 1.454-1.025.694-2.13 1.26-3.203 1.875-.949.544-1.885 1.112-2.86 1.607-.798.404-1.629.737-2.441 1.11-.828.379-1.648.774-2.479 1.147-.582.262-1.178.492-1.754.765-.53.252-1.018.59-1.564.804-.798.312-1.653.456-2.478.689-.802.226-1.628.381-2.403.688-.518.206-1.003.488-1.487.765-.496.285-1.003.56-1.45.919-.393.315-.73.695-1.067 1.071-.339.378-.687.754-.954 1.186a6.229 6.229 0 0 0-.61 1.34c-.157.482-.237.988-.305 1.491-.101.748-.115 1.505-.152 2.258-.04.777-.04 1.556-.077 2.334-.039.83-.08 1.66-.152 2.487-.05.562-.159 1.12-.19 1.683a17.171 17.171 0 0 0 0 1.913c.031.577.12 1.149.19 1.722.128 1.047.275 2.092.42 3.137.086.626.159 1.253.266 1.875.13.757.33 1.5.458 2.258.079.47.165.94.19 1.415.028.51.003 1.022-.038 1.53-.045.578-.14 1.15-.228 1.722a96.148 96.148 0 0 1-.534 3.061c-.108.576-.253 1.144-.343 1.722-.086.545-.138 1.096-.191 1.645-.078.803-.108 1.61-.19 2.41-.094.896-.22 1.788-.344 2.679-.164 1.175-.368 2.345-.534 3.52-.137.968-.209 1.946-.381 2.908a21.34 21.34 0 0 1-.42 1.836c-.154.568-.345 1.126-.534 1.684-.217.642-.427 1.287-.686 1.913-.308.743-.655 1.47-1.03 2.18-.2.38-.45.73-.648 1.11-.266.511-.499 1.04-.725 1.57-.15.352-.303.705-.42 1.07-.143.451-.242.915-.342 1.378-.134.62-.22 1.251-.344 1.875-.142.716-.306 1.428-.457 2.142-.14.663-.3 1.323-.42 1.99-.061.342-.11.687-.152 1.033-.08.661-.147 1.325-.19 1.99a44.02 44.02 0 0 0-.077 2.104c-.01.523.01 1.046 0 1.568-.013.613-.025 1.227-.076 1.837-.043.5-.097 1-.191 1.492-.087.453-.231.892-.343 1.34-.208.827-.393 1.66-.61 2.486a77.546 77.546 0 0 1-.992 3.52c-.255.812-.509 1.627-.839 2.41-.188.447-.511.837-.648 1.302-.098.332-.027.698-.115 1.033-.098.375-.225.76-.457 1.071-.168.225-.398.41-.649.536-.573.288-1.269.23-1.868.459-.51.194-.964.515-1.45.765-.606.312-1.207.64-1.83.918-.474.213-.955.413-1.449.574-.337.11-.73.078-1.03.268-.167.107-.251.308-.38.46-.2.232-.422.446-.611.688-.276.353-.532.724-.763 1.11-.184.307-.297.657-.496.956-.22.332-.513.608-.762.918-.182.227-.326.487-.534.689-.124.12-.288.193-.42.306a1.027 1.027 0 0 0-.152.153c-.125.163-.198.36-.305.536-.12.195-.263.377-.382.574-.15.248-.241.535-.42.765-.18.235-.428.412-.647.612-.2.182-.397.37-.61.536-.232.18-.494.317-.725.497-.107.083-.235.152-.305.268a.754.754 0 0 0-.115.459c.016.142.1.273.191.383.122.147.292.249.458.344.227.13.467.254.724.306.2.04.408.021.61 0a5.16 5.16 0 0 0 .916-.191c.378-.111.754-.242 1.106-.421.31-.159.612-.345.877-.574.232-.2.403-.462.61-.689.188-.206.424-.375.572-.612.094-.15.107-.34.19-.497.052-.097.123-.182.191-.268.24-.305.495-.6.763-.88.255-.267.51-.537.8-.765.29-.229.407-.317.65-.383.17-.047.357-.029.533 0 .238.039.468.126.686.23.259.122.725.459.725.459M12.673 164.383s1.538-.222 2.288-.421c.898-.238 1.763-.358 2.631-.689.72-.273 1.526-.638 2.136-1.11.568-.438.931-1.102 1.296-1.721.348-.59.84-1.875.84-1.875"/>
            <path stroke-width="1.034" d="M9.47 164.039s0 .487.038.727c.061.39.233.758.305 1.147.067.366.112.738.114 1.11.002.41-.05.82-.114 1.224-.1.62-.26 1.23-.42 1.837-.068.257-.19.502-.229.765-.035.24.023.486 0 .727-.025.271-.08.54-.152.803-.09.327-.221.641-.343.957-.12.31-.26.61-.382.918-.171.431-.333.867-.496 1.301-.128.344-.227.7-.38 1.033-.099.213-.258.395-.344.612-.078.196-.11.406-.153.613-.048.24-.053.489-.114.727-.084.328-.228.638-.343.956-.139.383-.283.764-.42 1.148-.117.33-.24.66-.343.995-.058.189-.108.38-.153.574-.075.329-.14.66-.19.994-.053.356-.115.713-.115 1.072 0 .23-.01.474.077.688.078.194.234.35.381.498.16.161.318.352.534.42.218.07.473.047.686-.038.201-.08.355-.255.496-.42.223-.261.382-.573.534-.88.231-.467.404-.961.572-1.454.192-.566.312-1.154.496-1.722.162-.503.316-1.011.534-1.492.108-.24.252-.46.381-.69.138-.243.305-.47.42-.726.115-.257.169-.539.266-.803.153-.414.332-.816.496-1.225.154-.382.215-.815.458-1.148.107-.146.258-.263.42-.344a.566.566 0 0 1 .304-.077.455.455 0 0 1 .305.153c.073.093.074.227.077.345a1.38 1.38 0 0 1-.077.459c-.079.244-.241.453-.343.689-.102.237-.18.484-.267.727-.142.394-.247.803-.42 1.186-.107.24-.265.453-.38.688-.142.287-.281.577-.382.88-.157.473-.233.969-.343 1.454-.159.7-.303 1.404-.458 2.105-.087.395-.192.787-.267 1.186a16.465 16.465 0 0 0-.228 1.53 7.567 7.567 0 0 0-.039 1.148c.015.245.03.497.115.727.067.183.164.364.305.497.136.13.321.198.496.268.22.09.45.225.686.192.192-.028.344-.186.496-.307.14-.111.299-.222.381-.382.142-.276.095-.614.153-.918.08-.423.137-.853.267-1.263.058-.185.185-.346.228-.536.055-.236.007-.486.039-.727.047-.362.134-.718.228-1.07.14-.519.311-1.028.496-1.531.138-.376.267-.758.458-1.11.118-.218.325-.383.42-.612.053-.132.052-.28.076-.421.027-.165.044-.333.076-.497.063-.322.17-.634.229-.957.053-.29.054-.59.114-.88.084-.403.2-.8.343-1.186.064-.171.081-.39.23-.497a.378.378 0 0 1 .342-.039c.092.037.157.136.19.23.049.132.02.282 0 .42-.038.277-.15.537-.228.804-.086.294-.197.582-.267.88a6.073 6.073 0 0 0-.114.689c-.045.394-.053.79-.076 1.186-.015.242-.008.486-.039.727-.064.516-.2 1.02-.305 1.53-.112.55-.245 1.094-.343 1.646-.06.342-.088.69-.152 1.033-.074.386-.202.76-.267 1.148-.04.24-.077.483-.077.727.001.23-.018.478.077.688.077.173.228.31.381.421.124.09.27.159.42.191.198.044.409.033.61 0 .158-.025.32-.068.457-.153.168-.104.309-.256.42-.42.108-.161.167-.352.229-.536.186-.56.293-1.145.419-1.722.114-.52.202-1.046.305-1.569.163-.829.311-1.662.496-2.487.057-.256.094-.52.19-.765.097-.244.304-.438.382-.689.076-.244.063-.509.076-.765.018-.356-.022-.715 0-1.071.032-.513.124-1.02.19-1.53.037-.281.062-.564.115-.842.03-.155.037-.322.115-.46a.379.379 0 0 1 .152-.152c.08-.04.19-.086.267-.039.034.022.036.075.038.115.006.118-.06.228-.076.344-.035.266-.025.536-.038.804-.013.255-.05.51-.038.765.012.27.065.538.114.804.052.283.159.555.19.841.056.495 0 .995 0 1.493 0 .676-.008 1.352 0 2.027.007.472-.088.961.039 1.416.055.198.162.388.305.536.135.14.307.26.496.306.16.039.34.019.496-.038.162-.06.304-.177.419-.307.155-.174.253-.396.343-.612.16-.38.252-.784.343-1.186.07-.302.127-.609.153-.918.02-.242.002-.485 0-.727-.007-.727-.075-1.455-.038-2.18.016-.322.088-.637.114-.957.023-.28.032-.561.038-.842.01-.446-.023-.894 0-1.34a7.79 7.79 0 0 1 .115-1.07c.035-.183.092-.36.152-.536.176-.508.41-.994.61-1.492.246-.611.474-1.229.725-1.837.233-.565.46-1.133.725-1.684.28-.586.648-1.129.915-1.721.268-.596.51-1.208.686-1.837.11-.387.17-.788.23-1.186.105-.71.178-1.426.228-2.142.053-.752.064-1.505.076-2.258.007-.395.07-.797 0-1.186-.039-.214-.229-.612-.229-.612"/>
            <path stroke-width="1.034" d="M26.592 158.797s.09-.498.19-.727c.237-.541.668-.976.954-1.492.315-.569.58-1.164.84-1.76.414-.956.807-1.922 1.143-2.908.309-.905.503-1.846.801-2.755.38-1.161.846-2.293 1.258-3.443.233-.65.428-1.313.687-1.952.342-.846.761-1.658 1.144-2.487.418-.906.865-1.8 1.258-2.716.422-.983.75-2.006 1.183-2.985.35-.792.766-1.554 1.144-2.334.295-.61.65-1.197.877-1.836.162-.458.254-.938.343-1.416.09-.48.137-.968.19-1.454.063-.56.153-1.683.153-1.683"/>
            <path stroke-width="1.034" d="M38.605 128.188s.408-.666.534-1.033c.134-.393.209-.81.228-1.224.02-.423-.147-.842-.114-1.263.028-.367.203-.709.267-1.071a8.543 8.543 0 0 0 .076-2.296c-.038-.36-.148-.711-.19-1.071-.05-.419-.107-.842-.077-1.263.032-.442.186-.866.267-1.3.128-.687.223-1.38.343-2.067.17-.97.35-1.94.534-2.908.234-1.226.485-2.448.725-3.673.217-1.11.47-2.212.648-3.329.13-.812.202-1.632.305-2.448l.19-1.492"/>
            <path stroke-width="1.034" d="M41.922 86.79s.548 1.02.725 1.568c.164.507.27 1.037.305 1.569.043.65-.074 1.3-.114 1.951-.048.766-.108 1.53-.153 2.296-.06 1.02-.098 2.04-.152 3.06-.036.664-.096 1.326-.115 1.99-.018.638 0 1.276 0 1.913 0 .498-.008.995 0 1.493.013.74.07 1.479.076 2.219.008.842-.07 1.684-.038 2.525.022.55.097 1.097.153 1.645.07.69.165 1.376.229 2.066.048.522.087 1.045.114 1.569.042.803.021 1.608.076 2.41.042.602.124 1.2.191 1.799.06.536.153 1.069.19 1.607.04.572.069 1.148.039 1.721-.032.604-.141 1.2-.229 1.799-.135.92-.301 1.837-.458 2.754-.16.945-.34 1.886-.495 2.832a146.717 146.717 0 0 0-.496 3.252c-.097.688-.19 1.376-.267 2.066-.12 1.057-.254 2.114-.305 3.176-.022.458-.008.918 0 1.377.006.357.032.714.038 1.071.007.357.032.716 0 1.072a5.941 5.941 0 0 1-.153.842c-.145.608-.404 1.186-.533 1.798-.123.578-.132 1.176-.23 1.76-.145.873-.347 1.736-.533 2.602-.195.907-.425 1.807-.61 2.716-.212 1.042-.357 2.096-.572 3.137-.149.718-.363 1.422-.496 2.143-.152.823-.26 1.654-.343 2.487-.12 1.183-.172 2.371-.23 3.558a72.616 72.616 0 0 0-.075 2.334c-.012.702.036 1.404 0 2.105-.045.845-.16 1.685-.267 2.525-.153 1.202-.373 2.395-.534 3.596-.185 1.375-.383 2.75-.496 4.133-.12 1.463-.151 2.932-.19 4.4a138.384 138.384 0 0 0-.039 3.71c0 1.238.028 2.475.038 3.712.016 1.798-.013 3.597.038 5.395.044 1.506.158 3.01.23 4.515.054 1.148.072 2.297.152 3.443.037.537.099 1.072.152 1.607.12 1.2.247 2.399.382 3.597.168 1.493.327 2.988.534 4.476.19 1.369.393 2.737.648 4.094.154.821.399 1.625.534 2.449.074.456.1.918.152 1.377.038.332.1.662.115.995.017.42-.032.842-.038 1.263-.013.803.026 1.607 0 2.41-.032.971-.12 1.94-.191 2.908-.07.944-.165 1.887-.229 2.831-.047.689-.11 1.377-.114 2.067-.004.587.054 1.173.076 1.76.03.79.054 1.58.076 2.372.015.523.069 1.046.038 1.568-.02.36-.088.717-.152 1.072-.147.81-.335 1.612-.534 2.41-.265 1.066-.595 2.114-.877 3.176a165.774 165.774 0 0 0-1.64 6.734c-.23 1.055-.493 2.106-.648 3.175-.063.431-.082.867-.115 1.301a97.941 97.941 0 0 0-.19 3.1 58.824 58.824 0 0 0-.077 3.137c.006.562.041 1.123.077 1.683.05.78.094 1.56.19 2.334.096.77.273 1.528.382 2.296.154 1.093.263 2.193.381 3.29.11 1.033.16 2.072.305 3.1.186 1.322.507 2.623.725 3.94.214 1.298.348 2.608.572 3.903.088.513.192 1.023.305 1.53.139.629.303 1.25.457 1.875.277 1.123.616 2.232.84 3.367.153.784.257 1.578.343 2.372.076.712.12 1.428.152 2.143a28.1 28.1 0 0 1 .038 1.837c-.012.638-.114 1.913-.114 1.913"/>
            <path stroke-width="1.034" d="M39.33 294.815s-.304.86-.42 1.3c-.113.429-.143.877-.267 1.302-.1.34-.262.66-.382.994-.122.342-.252.682-.343 1.033-.104.402-.19.811-.229 1.225a5.721 5.721 0 0 0 0 1.11c.032.31.112.615.191.918.064.245.18.477.229.727.031.163.032.33.038.497.012.306 0 .918 0 .918"/>
            <path stroke-width="1.034" d="M39.634 302.352s-.466 1.044-.762 1.53c-.247.406-.573.757-.84 1.149-.254.374-.554.728-.724 1.147-.117.29-.144.61-.19.919-.061.405-.073.816-.115 1.224-.024.23.007.473-.076.689-.102.264-.323.465-.496.688-.122.158-.287.284-.381.46-.146.27-.134.604-.267.88-.136.28-.346.517-.534.765-.23.303-.465.603-.725.88-.333.354-.714.66-1.068.995-.32.303-.624.624-.953.918-.21.186-.468.32-.648.535a2.74 2.74 0 0 0-.458.804c-.09.244-.102.51-.152.765-.051.255-.151.505-.153.765-.001.208.069.41.114.613.055.244.154.479.191.727.049.328-.09.688.038.994.108.258.353.44.572.612.184.145.392.263.61.345.244.09.505.127.763.153.14.014.42 0 .42 0"/>
            <path stroke-width="1.034" d="M34.372 316.738s-.231.238-.305.383c-.109.212-.147.455-.191.689-.045.24-.054.484-.076.727-.03.305-.08.61-.077.918.003.384.024.774.115 1.148.049.2.105.41.229.574.087.116.21.21.343.268.165.07.354.069.534.076.216.009.648-.038.648-.038"/>
            <path stroke-width="1.034" d="M36.889 316.968s-.134.392-.23.574c-.085.163-.232.29-.304.459-.068.156-.072.333-.115.497-.046.18-.073.368-.152.536-.067.14-.211.237-.267.383-.037.096-.012.207-.038.306-.051.187-.127.37-.23.535-.061.1-.187.158-.228.268-.075.204-.056.441 0 .65a.912.912 0 0 0 .267.46c.166.14.399.178.61.23.212.05.431.063.648.076.19.011.382.008.572 0 .153-.007.458-.038.458-.038"/>
            <path stroke-width="1.034" d="M39.177 317.274s-.25.345-.344.536c-.083.17-.121.359-.19.535-.071.181-.142.363-.23.536-.078.158-.2.295-.266.46-.06.145-.075.306-.114.458-.05.192-.09.386-.153.574-.065.196-.182.374-.229.574-.035.15-.065.308-.038.46.037.207.124.419.267.573.178.192.433.317.686.383.173.045.357.012.534 0 .384-.026.765-.088 1.144-.153.244-.042.49-.08.725-.153.158-.05.327-.09.458-.192a.674.674 0 0 0 .228-.306c.025-.072 0-.23 0-.23"/>
            <path stroke-width="1.034" d="M43.372 316.7s-.284.475-.458.689c-.25.307-.58.542-.84.842-.166.192-.35.38-.457.612-.098.213-.105.458-.152.688-.055.267-.167.532-.153.804.014.266.143.513.229.765.057.168.092.35.19.498.156.232.375.424.61.573.324.206.69.366 1.069.421.442.065.894-.04 1.334-.114.31-.052.616-.134.916-.23.299-.096.606-.184.877-.344.17-.102.325-.235.457-.383.184-.205.378-.425.458-.689.055-.183-.011-.383 0-.574.013-.217.034-.436.076-.65.037-.182.153-.536.153-.536"/>
            <path stroke-width="1.034" d="M47.528 320.411s.398-.149.572-.267c.246-.167.483-.365.649-.613.197-.294.293-.65.38-.994.096-.374.128-.763.153-1.148.03-.433.074-.874 0-1.301-.07-.413-.264-.796-.419-1.186-.14-.35-.25-.72-.458-1.033a2.994 2.994 0 0 0-.572-.612 4.508 4.508 0 0 0-.457-.306M48.138 313.486s.096-.79.115-1.186c.011-.242-.037-.487 0-.727.038-.251.172-.479.229-.727.1-.44.13-.892.19-1.339.055-.408.116-.815.153-1.224.02-.23-.01-.464.038-.689.06-.28.263-.52.305-.803.028-.19-.032-.383-.038-.574-.007-.217-.015-.435 0-.65.025-.36.127-.712.152-1.072.013-.178-.013-.358 0-.536.039-.502.13-.999.23-1.492.133-.658.37-1.292.495-1.951.075-.392.186-.79.153-1.186-.026-.306-.186-.585-.267-.88-.098-.355-.147-.724-.267-1.072-.183-.528-.469-1.015-.687-1.53-.107-.253-.305-.765-.305-.765"/>
            <path stroke-width="1.034" d="M49.13 299.483s-.214-1.067-.267-1.607c-.04-.407-.032-.816-.038-1.225-.006-.395.044-.793 0-1.186-.039-.338-.158-.662-.229-.995a44.432 44.432 0 0 1-.267-1.339c-.084-.457-.19-.913-.229-1.377-.03-.369.03-.74 0-1.11-.05-.643-.268-1.268-.305-1.913-.034-.586.036-1.174.076-1.76.056-.805.084-1.616.23-2.41.164-.898.477-1.762.724-2.64.236-.843.506-1.677.724-2.525.186-.722.355-1.45.496-2.181.123-.634.191-1.278.305-1.913.16-.896.307-1.797.534-2.679.22-.855.5-1.695.801-2.525.286-.79.66-1.546.953-2.334.446-1.198.87-2.405 1.22-3.635.198-.693.406-1.389.496-2.104.079-.62.059-1.25.039-1.875-.025-.754-.119-1.505-.191-2.257-.09-.945-.242-1.884-.305-2.831-.066-.993-.035-1.99-.076-2.985-.019-.446-.07-.892-.077-1.339-.007-.485.025-.97.038-1.454.012-.42-.035-.848.039-1.262.049-.278.153-.545.266-.804.264-.6.621-1.156.954-1.722.426-.725.915-1.413 1.335-2.142.338-.588.656-1.188.953-1.799.384-.79.72-1.603 1.068-2.41.339-.787.71-1.563.991-2.372.279-.8.532-1.615.687-2.449.124-.667.159-1.35.19-2.028.045-.942.05-1.889 0-2.831-.044-.833-.222-1.654-.267-2.487-.042-.79 0-1.581 0-2.372 0-.816.004-1.633 0-2.449-.006-1.365-.055-2.73-.038-4.094.014-1.097.064-2.194.115-3.29.02-.447.032-.894.076-1.34.072-.73.19-1.455.305-2.18.148-.934.346-1.86.496-2.793.155-.967.24-1.945.42-2.908.135-.733.363-1.447.495-2.181.221-1.228.262-2.485.496-3.711.187-.982.508-1.933.724-2.908.23-1.04.447-2.085.61-3.138.17-1.09.273-2.191.382-3.29.121-1.223.254-2.446.305-3.673.053-1.287.01-2.576 0-3.865-.007-.816-.002-1.633-.038-2.448-.11-2.516-.545-7.535-.545-7.535M86.47 299.408s-.032-.94 0-1.407c.027-.4.135-.791.162-1.19.03-.45-.052-.905 0-1.353.068-.584.312-1.135.404-1.714.119-.746.11-1.507.19-2.258.085-.793.262-1.576.306-2.372.04-.726.025-1.457-.038-2.18-.078-.889-.263-1.764-.42-2.641-.114-.64-.228-1.281-.381-1.913-.228-.941-.557-1.856-.8-2.793a41.55 41.55 0 0 1-.573-2.449c-.186-.95-.254-1.922-.457-2.87a31.16 31.16 0 0 0-.801-2.945c-.403-1.257-.915-2.475-1.373-3.712-.203-.548-.422-1.091-.61-1.645a28.36 28.36 0 0 1-.649-2.104 20.904 20.904 0 0 1-.495-2.45 7.595 7.595 0 0 1-.074-1.234c.029-.854.236-1.693.324-2.543.082-.792.144-1.586.19-2.38.07-1.172.111-2.345.133-3.518.015-.793.033-1.588 0-2.38-.018-.434-.006-.877-.108-1.3-.1-.416-.305-.8-.485-1.19-.18-.387-.39-.76-.593-1.136-.473-.873-.992-1.72-1.456-2.597-.476-.898-.948-1.8-1.364-2.726-.393-.877-.722-1.782-1.067-2.679-.289-.749-.615-1.486-.84-2.257-.221-.764-.417-1.542-.495-2.334-.103-1.04.008-2.092.038-3.137.048-1.647.2-3.29.229-4.936.022-1.212-.026-2.423-.038-3.635-.014-1.403-.05-2.806-.038-4.209.004-.472.056-.944.038-1.415-.033-.859-.162-1.711-.267-2.564-.066-.537-.16-1.07-.229-1.607-.157-1.222-.245-2.453-.42-3.673-.159-1.114-.39-2.217-.572-3.328-.174-1.07-.288-2.15-.495-3.214-.276-1.415-.688-2.8-.992-4.21-.293-1.358-.595-2.718-.8-4.093-.128-.85-.185-1.708-.268-2.564-.11-1.134-.249-2.266-.305-3.405-.071-1.452-.042-2.908-.038-4.362.003-.841-.007-1.684.038-2.525.133-2.463.682-7.369.682-7.369"/>
            <path stroke-width="1.034" d="M53.734 247.625s-2.092 1.723-3.02 2.706c-.95 1.006-2.59 3.246-2.59 3.246M81.347 247.841s1.753 2.725 2.588 4.113c.707 1.176 2.05 3.571 2.05 3.571M86.605 295.295s-.358.635-.486.974c-.111.297-.152.616-.242.92-.098.328-.227.646-.324.974-.092.313-.178.628-.243.947a4.884 4.884 0 0 0-.107.73c-.009.172.003.345.027.515.028.201.084.398.134.595.106.418.258.823.351 1.244.085.384.09.784.189 1.164.046.176.157.334.188.514.035.195.005.397 0 .595-.004.19-.052.38-.027.568.024.17.131.319.162.487a2.4 2.4 0 0 1 .027.568c-.01.173-.09.341-.08.514.018.345.224.659.269 1.001.027.206-.02.416 0 .622.023.238.083.47.135.704.056.254.157.5.189.757.031.26-.044.527 0 .785.036.217.173.407.215.622.06.301.036.613.054.92.018.307.03.614.054.92.014.18.081.595.081.595M88.25 312.502s-.418.392-.62.595c-.185.185-.39.354-.54.568-.15.215-.24.466-.35.704-.182.392-.397.774-.513 1.19a4.254 4.254 0 0 0-.135.974c-.012.307.032.614.054.92.023.307.016.62.081.92.086.393.194.794.405 1.136.15.244.356.462.593.623.16.108.54.216.54.216"/>
            <path stroke-width="1.034" d="M87.63 319.158s.148.335.188.514c.044.194.012.4.054.595.046.214.118.426.216.622.122.244.256.494.458.676.228.205.525.321.81.433a7.11 7.11 0 0 0 1.32.352 6.4 6.4 0 0 0 1.025.108c.288.006.585.021.863-.054.31-.084.637-.203.863-.433.19-.192.26-.476.35-.73.118-.332.222-.677.243-1.028a2.623 2.623 0 0 0-.08-.73 2.53 2.53 0 0 0-.216-.623c-.12-.228-.3-.42-.459-.622-.165-.212-.323-.432-.512-.623-.24-.24-.567-.387-.782-.649-.156-.19-.35-.65-.35-.65M93.697 321.511s.295.33.485.433c.27.147.587.194.89.244.32.052.647.04.97.054.36.014.743.156 1.08.027a.915.915 0 0 0 .458-.433c.058-.113.045-.252.054-.379.015-.216.05-.438 0-.65-.042-.176-.188-.313-.243-.486-.036-.113-.036-.235-.054-.352-.018-.117-.024-.237-.054-.351a2.479 2.479 0 0 0-.162-.433c-.053-.114-.136-.211-.188-.325-.069-.148-.104-.308-.162-.46-.06-.155-.1-.32-.189-.46-.078-.124-.235-.192-.297-.325-.057-.123-.054-.405-.054-.405M97.58 321.971s.486-.008.728-.027c.316-.024.648.005.944-.108.174-.067.325-.192.458-.325.11-.11.223-.23.27-.378.05-.155.028-.328 0-.487a1.42 1.42 0 0 0-.189-.515c-.048-.075-.139-.115-.189-.189a1.219 1.219 0 0 1-.162-.379c-.022-.087-.005-.182-.027-.27-.028-.114-.083-.22-.134-.325-.04-.083-.112-.153-.135-.243-.027-.105.013-.218 0-.325a1.25 1.25 0 0 0-.081-.325c-.04-.097-.109-.18-.162-.27-.063-.108-.149-.206-.189-.325-.023-.069-.027-.216-.027-.216"/>
            <path stroke-width="1.034" d="M99.791 321.43s.378.081.485.081c.108 0 .347-.054.513-.108.168-.055.346-.107.485-.216a.797.797 0 0 0 .27-.352c.058-.17-.01-.361 0-.541.022-.435.137-.864.135-1.299-.003-.309-.078-.612-.108-.92-.022-.225.029-.466-.054-.676-.043-.107-.136-.188-.216-.27a2.5 2.5 0 0 0-.189-.163"/>
            <path stroke-width="1.034" d="M101.598 320.78s.467.07.7.055c.266-.017.54-.054.783-.162.223-.1.435-.246.593-.433.156-.185.262-.416.324-.65.043-.165.022-.342.027-.514.003-.144-.02-.29 0-.432.027-.204.12-.394.161-.596.05-.24.123-.484.108-.73-.012-.205-.104-.398-.162-.595-.068-.236-.128-.475-.215-.704a4.293 4.293 0 0 0-.297-.65 3.071 3.071 0 0 0-.297-.405 4.178 4.178 0 0 0-.485-.514c-.182-.156-.409-.253-.593-.406a5.146 5.146 0 0 1-.54-.54c-.153-.173-.269-.378-.43-.542-.172-.173-.39-.294-.567-.46a4.57 4.57 0 0 1-.35-.379c-.171-.2-.348-.398-.486-.622-.12-.195-.206-.411-.297-.622-.138-.32-.209-.67-.377-.974-.131-.237-.345-.418-.486-.65-.15-.248-.242-.527-.377-.784-.126-.24-.272-.468-.405-.703-.136-.243-.267-.489-.404-.73-.16-.282-.485-.84-.485-.84"/>
            <path stroke-width="1.034" d="M98.389 308.552s-.081-.395-.108-.595c-.041-.305-.029-.617-.081-.92-.049-.284-.095-.577-.216-.839-.111-.24-.305-.433-.458-.649-.153-.216-.304-.434-.459-.65-.195-.271-.435-.515-.593-.81-.099-.187-.216-.596-.216-.596"/>
            <path stroke-width="1.034" d="M97.148 304.954s-.05-.342-.054-.514c-.006-.298.01-.598.054-.893.04-.266.103-.53.19-.785.078-.233.236-.437.296-.676.087-.35.085-.72.08-1.082a6.833 6.833 0 0 0-.107-1.082c-.051-.293-.1-.593-.216-.866-.08-.186-.239-.33-.324-.514-.165-.36-.25-.753-.35-1.136a9.579 9.579 0 0 1-.162-.758c-.102-.583-.19-1.17-.243-1.758a20.694 20.694 0 0 1-.054-1.245 42.3 42.3 0 0 1 .216-3.192c.062-.588.132-1.174.216-1.759.07-.498.143-.995.243-1.488.143-.71.485-2.002.512-2.11.027-.108.336-1.224.485-1.84.187-.772.373-1.545.513-2.327.116-.654.162-1.319.27-1.975.084-.516.208-1.026.296-1.542.225-1.321.419-2.648.593-3.977.094-.71.168-1.424.243-2.137.087-.83.162-1.66.243-2.49.072-.748.097-1.502.215-2.245.11-.693.353-1.362.459-2.056.098-.644.106-1.299.162-1.948.06-.703.176-1.404.188-2.11.013-.677-.077-1.353-.108-2.03-.021-.468-.038-.937-.054-1.406-.021-.65-.005-1.3-.054-1.948a32.75 32.75 0 0 0-.296-2.462c-.09-.598-.21-1.191-.324-1.786a92.663 92.663 0 0 0-.35-1.758c-.103-.488-.204-.977-.324-1.461-.236-.953-.525-1.893-.782-2.84-.164-.604-.35-1.203-.485-1.813-.135-.608-.164-1.238-.324-1.84-.143-.538-.415-1.034-.566-1.57-.12-.425-.155-.871-.27-1.298-.059-.22-.172-.425-.216-.65-.078-.398-.063-.81-.08-1.217-.02-.45-.027-.901-.027-1.352 0-.47.012-.938.027-1.407.02-.64.027-1.813.08-1.921.054-.108-.015-.812-.026-1.218-.015-.532-.028-1.064-.054-1.596-.048-.948-.147-1.892-.19-2.84-.034-.794-.014-1.589-.053-2.381-.041-.831-.15-1.658-.189-2.49-.023-.477-.022-.955-.027-1.433-.004-.46-.053-.923 0-1.38.054-.47.226-.918.324-1.38.12-.566.223-1.135.323-1.704.157-.891.298-1.784.432-2.679.145-.972.288-1.945.404-2.922.129-1.08.201-2.166.324-3.246.144-1.274.348-2.54.485-3.815.132-1.224.324-3.571.324-3.68 0-.108.058-1.767.08-2.65.022-.83.034-1.66.055-2.49.031-1.253.07-2.507.107-3.76.053-1.795.146-3.589.162-5.384.014-1.497-.012-2.995-.054-4.491a82.438 82.438 0 0 0-.108-2.435c-.102-1.77-.18-3.542-.377-5.303-.12-1.07-.328-2.128-.485-3.192-.13-.875-.244-1.751-.378-2.625-.06-.388-.16-.771-.189-1.163-.05-.684.018-1.37.027-2.056.009-.604.042-1.209.027-1.813a63.452 63.452 0 0 0-.323-5.005c-.072-.689-.189-1.372-.297-2.056-.083-.524-.164-1.05-.27-1.57-.353-1.742-.837-3.456-1.213-5.194-.204-.943-.382-1.893-.566-2.84-.23-1.18-.425-2.368-.675-3.545-.13-.616-.318-1.22-.431-1.84a5.279 5.279 0 0 1-.08-.622c0-.108.018-.811.026-1.217.01-.56.05-1.119.027-1.677-.023-.544-.107-1.083-.162-1.624-.089-.884-.165-1.769-.27-2.651a64.479 64.479 0 0 0-.404-2.976c-.13-.78-.431-2.191-.458-2.327-.027-.135-.27-1.969-.432-2.949-.097-.588-.24-1.168-.323-1.758a18.735 18.735 0 0 1-.135-1.407c-.037-.576-.075-1.155-.054-1.732.025-.688.137-1.371.216-2.056.074-.65.186-1.296.242-1.948.064-.728.067-1.46.108-2.191.032-.569.06-1.137.108-1.705.072-.849.225-1.691.27-2.543.034-.64-.008-1.28 0-1.92.009-.722.052-1.443.054-2.165 0-.424-.055-.848-.027-1.272.015-.236.022-.482.108-.703.023-.06.089-.1.107-.162.094-.311.01-.65 0-.974-.035-1.264-.158-2.525-.215-3.788-.062-1.37-.097-2.741-.135-4.112-.033-1.181-.134-2.364-.08-3.544.014-.318.047-.635.107-.947.077-.404.154-.816.324-1.19.174-.385.468-.704.7-1.056.316-.477.701-.915.944-1.434.237-.503.486-1.596.486-1.596"/>
            <path stroke-width="1.034" d="M93.077 101.8s.06.994.107 1.489c.08.813.17 1.627.297 2.434.154.98.372 1.95.566 2.922.157.786.336 1.567.486 2.354.195 1.025.345 2.059.539 3.084.142.75.302 1.498.458 2.246.14.668.36 1.323.432 2.002.051.484.017.974 0 1.46-.018.516-.058 1.03-.108 1.543-.042.434-.154.862-.162 1.299-.006.398.027.8.108 1.19.052.251.202.477.243.73.03.187-.002.38 0 .569.004.387-.01.777.027 1.163.025.273.064.547.135.812.086.325.24.628.35.947.068.196.142.392.189.595.096.417.135.846.189 1.271.043.342.017.696.108 1.028.148.545.453 1.035.7 1.542.282.577.607 1.13.89 1.705.387.785.756 1.579 1.106 2.38.398.912.737 1.848 1.133 2.76.335.774.704 1.532 1.051 2.3.427.945.891 1.874 1.268 2.84.452 1.161.787 2.365 1.186 3.545.348 1.029.745 2.042 1.052 3.084.115.392.169.802.296 1.19.126.38.298.743.459 1.11.18.41.372.814.566 1.217.096.2.206.393.297.595.148.328.26.672.404 1.001.152.348.304.696.486 1.028.162.299.38.566.539.866.093.175.201.348.243.541.043.203.002.415 0 .623-.005.442-.04.883-.027 1.325.02.67.093 1.336.161 2.002.075.724.127 1.452.27 2.165.112.56.258 1.116.458 1.65.198.525.493 1.006.729 1.515.306.663.59 1.336.89 2.002.178.398.373.787.539 1.19.167.41.272.844.458 1.245.13.282.347.522.459.812.073.19.066.403.134.595.082.228.264.415.324.65.058.226.01.469.027.703.025.352.09.702.108 1.055.025.486-.021.974 0 1.46.009.209.046.415.054.623.02.577-.023 1.154-.027 1.731-.004.451-.014.902 0 1.353.009.298-.01.602.054.893.064.293.228.554.323.839.084.249.124.511.216.757.06.159.114.325.216.46.122.164.276.314.458.406a.885.885 0 0 0 .378.081c.164.004.347.007.485-.081.12-.076.167-.231.243-.352.077-.123.178-.238.216-.379.048-.183.002-.378 0-.568-.01-.667-.053-1.334-.054-2.002-.001-.388.016-.775.027-1.163.008-.298.017-.595.027-.893.008-.28-.035-.566.027-.839.034-.153.147-.28.188-.432.077-.28.098-.576.108-.866a5.762 5.762 0 0 0-.054-1.055c-.022-.147-.09-.286-.108-.433-.01-.09-.024-.184 0-.27.024-.083.061-.176.135-.217.04-.022.094-.017.135 0 .07.03.123.096.162.162.048.081.055.18.08.27.047.163.096.324.136.488.062.26.13.519.161.784.035.296.02.595.027.893.011.433-.005.867.027 1.299.021.272.049.545.108.811.046.203.118.4.189.596.097.265.24.514.324.784.14.458.216.934.296 1.407.071.421.09.85.162 1.272.079.454.183.905.297 1.352.11.437.26.864.377 1.299.087.323.116.664.243.974.087.213.19.43.35.595.119.122.27.218.432.27.128.042.27.038.404.028.166-.013.326-.063.486-.109.155-.044.326-.067.458-.162.177-.127.337-.306.405-.514.066-.206-.019-.433-.027-.65-.01-.234.014-.472-.027-.703-.046-.252-.184-.48-.243-.73-.115-.488-.123-.996-.216-1.488-.088-.464-.235-.916-.323-1.38-.082-.43-.125-.866-.19-1.299-.043-.297-.108-.593-.134-.892-.03-.342 0-.687-.027-1.028-.027-.336-.052-.675-.135-1.001-.068-.272-.218-.517-.296-.785-.073-.248-.092-.509-.162-.758-.044-.156-.14-.298-.162-.46-.015-.116-.056-.268.027-.351.083-.083.234-.037.35-.027.074.006.159.006.216.054.13.107.163.299.216.46.086.262.11.54.162.811.084.442.12.894.242 1.326.061.214.172.412.243.622.073.214.157.426.189.65.019.134-.025.273 0 .406.05.266.184.51.297.757.144.315.35.6.485.92.18.428.294.881.431 1.326.114.368.243.732.324 1.109.068.32.072.652.135.974.077.401.214.79.296 1.19.08.385.098.781.189 1.163.042.175.073.358.162.515.107.188.25.368.431.487.174.113.386.18.594.189.248.011.514-.034.728-.162.213-.129.36-.353.485-.569.12-.207.205-.44.243-.676.05-.312-.006-.632-.027-.947-.029-.425-.074-.85-.135-1.271a24.802 24.802 0 0 0-.324-1.759c-.163-.745-.387-1.476-.566-2.218-.143-.594-.2-1.211-.405-1.786-.121-.342-.331-.645-.485-.974-.17-.366-.33-.736-.485-1.11a28.328 28.328 0 0 1-.594-1.514c-.08-.232-.189-.46-.215-.704-.012-.108-.019-.226.027-.324a.543.543 0 0 1 .27-.27.43.43 0 0 1 .296 0c.151.052.275.173.378.297.209.25.329.565.458.865.2.464.332.953.485 1.434.086.27.121.557.243.812.137.286.378.511.54.785.153.26.282.534.404.811.151.345.287.697.404 1.055.138.418.217.853.35 1.272.168.521.357 1.036.567 1.542.18.432.387.852.593 1.272.104.21.158.458.324.622.115.113.277.171.431.216.174.05.36.079.54.054.172-.023.343-.09.485-.19.167-.116.302-.282.405-.459.11-.19.181-.405.215-.622.059-.375.013-.76-.027-1.137a8.213 8.213 0 0 0-.215-1.136c-.095-.376-.235-.74-.35-1.11-.145-.459-.279-.922-.432-1.379-.144-.427-.328-.84-.459-1.271-.108-.356-.16-.727-.27-1.083-.115-.376-.26-.742-.404-1.109-.203-.519-.448-1.021-.647-1.542-.147-.383-.256-.78-.405-1.163-.173-.449-.424-.867-.566-1.326-.068-.22-.092-.45-.135-.676-.057-.306-.118-.612-.161-.92-.048-.341-.045-.69-.108-1.028-.038-.202-.118-.395-.162-.596a12.46 12.46 0 0 1-.189-1.109c-.054-.422-.121-.846-.108-1.271.014-.429.128-.848.189-1.272.037-.261.074-.523.108-.784.029-.226.08-.677.08-.677"/>
            <path stroke-width="1.034" d="M114.541 159.319s.426.979.701 1.434c.4.66.81 1.34 1.376 1.866.435.405.967.705 1.51.947.563.253 1.175.387 1.78.514.656.139 1.326.212 1.995.27.43.039.862.046 1.294.055.216.004.647 0 .647 0M124.653 163.404s.291-.03.432 0c.212.046.414.146.593.27.209.146.357.364.54.542.318.31.659.6.97.92.272.278.569.54.782.865.12.182.16.407.27.595.169.29.362.57.593.812.168.176.375.31.566.46.355.277.675.613 1.079.812.368.18.784.243 1.186.324.338.068.68.144 1.025.136.301-.008.62-.026.89-.163.198-.1.364-.273.485-.46a.962.962 0 0 0 .162-.46.792.792 0 0 0-.108-.46c-.086-.135-.248-.202-.377-.297-.246-.18-.506-.339-.755-.514-.2-.141-.424-.256-.594-.433-.202-.211-.33-.482-.485-.73-.208-.337-.377-.698-.593-1.029a6.988 6.988 0 0 0-.54-.73c-.182-.213-.402-.39-.593-.595-.317-.341-.62-.696-.917-1.055-.232-.283-.487-.552-.674-.866-.16-.27-.218-.594-.377-.866-.189-.322-.44-.603-.674-.893a9.912 9.912 0 0 0-.567-.65c-.12-.123-.23-.261-.377-.35-.294-.18-.646-.24-.971-.353-.43-.15-1.16-.405-1.294-.432-.135-.027-.895-.424-1.349-.623-.686-.301-1.381-.583-2.076-.865-.43-.175-.865-.337-1.294-.514-.253-.105-.534-.163-.755-.325-.144-.106-.24-.265-.35-.406-.164-.209-.331-.417-.46-.65a1.23 1.23 0 0 1-.134-.324c-.05-.229.022-.474-.027-.703-.07-.333-.26-.629-.378-.947-.192-.519-.339-1.054-.539-1.57-.163-.42-.402-.813-.54-1.244-.105-.334-.134-.687-.215-1.028a26.339 26.339 0 0 0-.458-1.704c-.168-.54-.402-1.057-.567-1.597a20.67 20.67 0 0 1-.458-1.785 24.713 24.713 0 0 1-.324-1.975 31.59 31.59 0 0 1-.188-2.11c-.057-.955-.044-1.913-.081-2.868-.043-1.092-.038-2.188-.162-3.274-.086-.756-.255-1.5-.405-2.245-.204-1.015-.472-2.016-.674-3.03-.152-.764-.233-1.54-.404-2.3a16.972 16.972 0 0 0-.432-1.57 15.547 15.547 0 0 0-.539-1.406c-.187-.425-.404-.835-.62-1.245-.353-.667-.793-1.288-1.106-1.975-.341-.75-.546-1.555-.836-2.326-.242-.644-.559-1.262-.755-1.921-.291-.98-.62-2.841-.62-3.003 0-.163-.287-2.129-.431-3.193-.198-1.46-.44-2.916-.594-4.383-.075-.72-.088-1.444-.161-2.164-.078-.76-.199-1.515-.297-2.273-.072-.559-.127-1.12-.216-1.677-.166-1.043-.443-2.066-.593-3.111a22.466 22.466 0 0 1-.189-1.948 21.15 21.15 0 0 1-.027-1.921c.023-.633.072-1.267.162-1.894.142-.993.424-1.96.593-2.949.151-.88.276-1.764.378-2.651.107-.936.206-1.873.242-2.814.037-.955.01-1.912-.027-2.868a66.223 66.223 0 0 0-.188-2.868c-.114-1.4-.283-2.794-.405-4.193-.05-.577-.006-1.167-.135-1.731a5.467 5.467 0 0 0-.539-1.38c-.191-.352-.445-.667-.701-.974a7.234 7.234 0 0 0-.701-.73 18.873 18.873 0 0 0-1.996-1.57c-.465-.32-.936-.646-1.456-.866-.446-.188-.933-.258-1.402-.378-.932-.239-1.886-.39-2.804-.677-.791-.246-1.558-.565-2.32-.893-.731-.314-1.434-.693-2.157-1.028-1.055-.489-2.138-.918-3.182-1.434a84.679 84.679 0 0 1-5.528-2.976c-.846-.499-1.658-1.056-2.48-1.596a164.17 164.17 0 0 1-1.295-.866"/>
            <path stroke-width="1.034" d="M80.996 55.808s-.636-.305-.917-.514a5.297 5.297 0 0 1-.97-.947 3.956 3.956 0 0 1-.46-.758 10.853 10.853 0 0 1-.646-1.785c-.125-.452-.27-1.38-.27-1.38"/>
            <path stroke-width="1.034" d="M77.544 54.13s-.127-1.298-.108-1.948c.017-.553.132-1.1.19-1.65.049-.478.083-.957.134-1.434.136-1.264.326-2.523.458-3.788.096-.918.121-1.844.243-2.76.121-.907.283-1.811.486-2.705.142-.629.353-1.241.512-1.866.126-.494.25-.989.35-1.488.011-.054.027-.163.027-.163"/>
            <path stroke-width="1.034" d="M79.108 36.896s.221-.411.405-.54c.1-.071.23-.09.35-.109.25-.037.506.034.755 0a3.59 3.59 0 0 0 .971-.27c.292-.13.58-.292.81-.514.25-.243.42-.561.592-.866.268-.475.48-.98.675-1.488.107-.283.205-.57.27-.866.075-.346.052-.71.134-1.055.075-.316.215-.613.324-.92.143-.406.33-.799.431-1.217.145-.602.246-1.222.243-1.84-.002-.319-.173-1.291-.173-1.291M57.215 37.275l-.115-.646s-.437-.41-.686-.574a.551.551 0 0 0-.153-.076c-.172-.047-.359-.002-.534-.038-.224-.047-.456-.105-.648-.23-.294-.191-.517-.482-.725-.765a6.52 6.52 0 0 1-.762-1.378c-.126-.306-.186-.635-.267-.956-.113-.444-.216-.89-.305-1.34-.089-.443-.14-.894-.23-1.338-.055-.283-.15-.557-.19-.842-.093-.658-.158-1.327-.114-1.99.022-.337.124-.663.19-.995l.153-.726M63.801 173.879s2.417 1.862 3.842 1.882c1.44.02 3.93-1.793 3.93-1.793"/>
            <path stroke-width="1.032" d="M52.966 25.92l-.494-3.173-.293-1.996v-2.03l.293-1.69.494-1.664.533-1.89.662-1.683.625-1.673.903-1.767 1.284-2.116 1.386-1.633 1.372-1.378 1.256-.8 1.399-.598 1.437-.459 1.286-.209h1.438l1.096-.074h1.727l1.437.074 1.75.21 1.381.458 1.511.597 1.158.417 1.315.537 1.2.825 1.47 1.165 1.016.868 1.383 1.593.65 1.073.671 1.217.519 1.433.438.915.339 1.654.139 1.808-.139 1.919-.339 2.413-.201 2.484-.237 2.61v.906M57.215 37.275l1.373 6.846"/>
        </g>
    </g>
</svg>
