<svg xmlns="http://www.w3.org/2000/svg" width="167" height="401" viewBox="0 0 167 401">
    <g fill="none" fill-rule="evenodd">
        <path fill="#BCBC1C" d="M48.055 187.046c-.94 1.347-3.233 29.307-3.73 33.105 0 3.678.224 21.445.94 31.16.716 9.716 2.34 10.777 2.75 18.903.41 8.126-.959 13.714-.959 16.598 0 2.885.526 4.184.526 5.682 0 1.498-4.752 18.549-5.257 20.753-.164.718-.009 3.183-.066 4.484-.119 2.695-.274 4.87.066 7.55.337 2.649 1.19 8.521 2.559 17.618.88 5.305 1.605 9.332 2.172 12.082.85 4.124 1.378 10.115 1 11.535-.38 1.42-1.623 2.493-1.623 4.591 0 2.098 1.108 4.408 1.108 5.514 0 1.105-1 .834-1.335 2.367-.335 1.534-.284 2.332-.94 3.88-.657 1.547-.521.648-1.722 2.338-1.2 1.69-.366 1.136-1.927 2.797-1.56 1.662-2.677 1.624-3.266 2.882-.588 1.258-.479 2.448 0 4.1.48 1.652 1.167 1.779 1.83 2.208.664.429.465-.314 1.436-.097.972.217.493.438 1.927.848 1.435.41 2.095.352 2.889.528.793.176.074.462 1.581.462 1.508 0 1.686-.48 3.022-.462 1.335.018.237.71 2.668.54 2.43-.17 3.607-.367 3.966-.54.359-.173.43-1.196 1.272-1.98.843-.785 1.32-.3 1.826-1.507a3.71 3.71 0 0 0 .209-.686c.148-.716.287-1.09-.209-3.414-.495-2.324-1.275-1.915-1.275-3.544 0-1.63.967-4.48 1.275-7.048.308-2.568-.09-3.015.212-5.337.3-2.32 1.103-1.816 1.046-4.368-.057-2.551-.65-2.739-1.258-5.087-.607-2.347-.847-2.31-1.258-4.643-.411-2.334-.463-3.629-.437-4.975.026-1.346 2.247-8.49 2.953-12.015.707-3.524-.151-4.485.948-7.442 1.1-2.957 3.57-9.041 4.252-12.08.682-3.038-.332-16.473-.332-18.316s5.83-10.264 7.061-14.467c1.232-4.203.19-1.627.276-10.57.087-8.943-.086-14.938 0-17.896.087-2.958 1.768-7.799 2.857-13.828 1.088-6.029 1.122-4.076 1.863-12.315.741-8.24.756-14.118.756-16.803 0-2.685-1.512-5.202-.756-5.202s2.47 2.801 4.824 2.745c2.355-.056 4.824-2.745 4.824-2.274 0 .471-.61 6.76-.794 11.997-.185 5.238.61 7.663.794 10.794.185 3.131.79 2.406 2.2 11.167 1.41 8.76 2.022 8.157 2.46 17.795.44 9.638-.566 18.755-.566 20.736 0 1.982 2.59 8.901 4.188 12.604 1.598 3.702 3.198 3.702 3.848 6.02.65 2.318-.65 11.198-.65 14.775 0 3.576 2.18 7.461 4.323 16.101 2.144 8.64 3.591 12.102 4.033 17.572.441 5.47-1.24 8.815-1.7 11.346-.458 2.531-1.222 1.747-1.222 4.78 0 3.033.481 1.278 1.223 6.2.742 4.922 1.27 7.153 1.223 10.034-.047 2.88-1.581 3.4-1.473 5.348.11 1.947.027 1.108 1.949 3.161 1.922 2.053 2.134 2.756 4.061 3.258 1.928.503 3.087-1.164 3.968-1.164.882 0 2.578 1.164 4.415 1.164 1.224 0 2.23-.388 3.016-1.164.296-.074.987-.325 2.071-.751 1.628-.64 2.632-.262 3.25-1.343.617-1.08.617-3.161 0-4.345-.618-1.185-5.5-5.19-6.83-7.431-1.329-2.242-1.507-4.818-1.507-6.625v-6.342c0-1.204-1.922-5.114-1.64-9.026.281-3.912 4.938-24.559 4.656-29.948.517-4.889 1.37-6.702 1.37-11.92 0-5.22-3.373-21.321-4.888-25.292-1.031-4.31-.857-20.472-.857-24.707 1.322-4.81 2.92-17.848 3.73-29.251.809-11.404.44-16.574 0-23.269-2.199-11.867-2.222-30.648-3.73-30.648-.76 0-20.989 23.166-35.706 30.074-10.879-6.904-35.292-30.743-35.759-30.074z"/>
        <g stroke="#333">
            <path stroke-width="1.037" d="M72.15 53.714s.112 1.52.142 2.282c.036.903.048 1.806.048 2.71 0 .95.005 1.902-.048 2.852-.018.334-.011.674-.094.998-.099.385-.303.734-.473 1.093-.265.564-.502 1.148-.85 1.664a8.99 8.99 0 0 1-1.275 1.474c-.71.675-1.506 1.256-2.315 1.806-1.27.862-2.64 1.565-3.969 2.33-1.175.675-2.335 1.382-3.543 1.996-.987.502-2.017.915-3.023 1.378-1.025.472-2.042.963-3.071 1.427-.72.325-1.459.61-2.173.95-.656.312-1.261.733-1.937.999-.99.388-2.048.566-3.07.855-.994.281-2.017.475-2.977.856-.642.255-1.243.606-1.842.95-.615.354-1.243.697-1.796 1.141-.487.392-.906.865-1.322 1.331-.42.47-.852.937-1.181 1.474a7.75 7.75 0 0 0-.756 1.664c-.195.6-.294 1.229-.378 1.854-.126.928-.142 1.868-.19 2.804-.047.966-.048 1.934-.094 2.9a77.56 77.56 0 0 1-.189 3.09c-.06.699-.196 1.39-.236 2.091a21.396 21.396 0 0 0 0 2.377c.04.717.15 1.427.236 2.14.159 1.3.341 2.599.52 3.897.107.777.198 1.557.33 2.33.162.94.41 1.864.568 2.804.098.584.204 1.168.236 1.759.034.633.003 1.27-.047 1.901-.057.718-.175 1.429-.284 2.14a119.773 119.773 0 0 1-.661 3.802c-.133.715-.313 1.421-.425 2.14-.107.677-.17 1.361-.237 2.044-.097.996-.133 1.998-.236 2.994-.115 1.113-.27 2.22-.425 3.328-.204 1.46-.456 2.913-.661 4.373-.17 1.203-.26 2.418-.473 3.613a26.578 26.578 0 0 1-.52 2.282c-.191.705-.428 1.398-.66 2.091-.27.798-.53 1.6-.851 2.377a32.591 32.591 0 0 1-1.276 2.71c-.247.47-.558.906-.803 1.378a27.66 27.66 0 0 0-.898 1.95c-.186.437-.375.876-.52 1.33-.177.56-.3 1.137-.424 1.711-.166.772-.272 1.555-.426 2.33-.176.89-.379 1.774-.566 2.662-.175.823-.372 1.643-.52 2.472-.076.425-.137.854-.19 1.283-.099.822-.181 1.646-.235 2.472a54.85 54.85 0 0 0-.095 2.614c-.012.65.014 1.3 0 1.95-.015.76-.03 1.523-.094 2.281-.053.62-.12 1.242-.236 1.854-.108.562-.287 1.108-.426 1.664-.257 1.028-.486 2.064-.756 3.09-.384 1.464-.775 2.928-1.228 4.373-.316 1.008-.63 2.02-1.04 2.995-.232.555-.633 1.038-.802 1.616-.121.413-.033.867-.142 1.283-.122.467-.28.945-.567 1.331-.208.28-.493.51-.803.666-.71.358-1.572.287-2.315.57-.632.242-1.193.64-1.795.951-.752.388-1.496.794-2.268 1.14-.587.265-1.183.514-1.795.714-.418.137-.904.096-1.275.333-.208.132-.312.383-.473.57-.247.29-.522.556-.756.856-.342.439-.659.9-.945 1.378-.228.383-.368.817-.614 1.189-.272.412-.636.755-.945 1.14-.225.282-.403.605-.66.856-.155.15-.358.24-.52.38a1.275 1.275 0 0 0-.19.19c-.154.204-.244.449-.377.666-.15.243-.326.469-.473.713-.186.31-.3.665-.52.951-.225.292-.53.512-.803.76-.248.227-.491.46-.756.666-.286.224-.61.395-.897.618-.132.103-.29.189-.378.333a.939.939 0 0 0-.142.57c.02.176.124.34.236.476.152.182.362.31.567.427.282.163.58.316.898.38.247.05.505.027.756 0 .384-.04.763-.128 1.134-.237.468-.138.934-.3 1.37-.523.385-.197.759-.429 1.086-.713.288-.249.5-.574.756-.856.233-.256.525-.466.709-.76.116-.187.132-.424.236-.618.064-.12.152-.226.236-.333.297-.379.613-.744.945-1.093.315-.332.633-.667.992-.95.359-.285.503-.394.803-.476.213-.059.444-.036.662 0 .294.048.58.156.85.285.32.152.897.57.897.57M15.46 203.88s1.906-.276 2.835-.522c1.112-.296 2.184-.446 3.26-.856.89-.34 1.89-.793 2.645-1.378.703-.546 1.154-1.37 1.606-2.14.431-.732 1.04-2.329 1.04-2.329"/>
            <path stroke-width="1.037" d="M11.492 203.453s0 .605.047.903c.076.486.29.942.378 1.426.083.454.14.917.142 1.379a9.36 9.36 0 0 1-.142 1.52c-.123.771-.321 1.528-.52 2.282-.084.32-.235.624-.283.951-.043.298.028.604 0 .903a5.93 5.93 0 0 1-.189.999c-.11.406-.274.796-.425 1.188-.148.384-.32.758-.473 1.14-.212.537-.412 1.077-.614 1.617-.16.427-.282.87-.472 1.284-.122.264-.318.49-.425.76-.096.243-.137.505-.19.76-.06.3-.066.609-.141.904-.104.408-.282.793-.425 1.188-.172.476-.35.95-.52 1.426-.145.411-.298.82-.425 1.236-.072.236-.134.474-.189.713a16.46 16.46 0 0 0-.236 1.236c-.066.442-.143.885-.142 1.331 0 .287-.012.59.095.856.096.241.29.433.472.618.197.2.394.438.661.523.271.086.587.058.85-.048.25-.1.44-.318.615-.523.275-.324.472-.71.661-1.093.287-.58.501-1.194.709-1.806.238-.703.387-1.433.614-2.14.2-.624.392-1.255.661-1.853.134-.297.313-.572.473-.856.17-.303.377-.586.52-.903.143-.32.21-.67.33-.998.189-.514.411-1.014.614-1.522.19-.474.266-1.013.567-1.426.133-.181.32-.326.52-.427.116-.06.249-.11.378-.096.14.016.291.079.378.19.09.116.09.282.094.428.006.193-.035.388-.094.57-.098.304-.3.564-.425.857-.127.294-.223.601-.331.903-.176.49-.307.998-.52 1.473-.133.298-.329.563-.472.856a8.733 8.733 0 0 0-.473 1.093c-.194.587-.288 1.203-.425 1.807-.196.87-.375 1.743-.567 2.614-.108.492-.238.979-.33 1.474-.118.63-.226 1.263-.284 1.901a9.428 9.428 0 0 0-.047 1.426c.019.304.037.618.142.903.083.227.203.452.378.618.169.161.398.246.614.333.273.11.559.28.85.238.238-.034.426-.23.614-.38.175-.14.37-.277.473-.476.175-.343.117-.762.189-1.14.098-.526.17-1.06.33-1.57.073-.23.23-.43.284-.665.068-.293.008-.604.047-.903.06-.45.166-.893.283-1.331.172-.644.385-1.276.615-1.901.17-.467.33-.942.567-1.379.145-.27.403-.476.52-.76.066-.164.064-.349.094-.524.034-.205.054-.413.094-.617.078-.4.21-.788.284-1.189.066-.361.067-.733.141-1.093.104-.5.248-.995.425-1.474.08-.212.101-.485.284-.618a.467.467 0 0 1 .425-.047c.114.046.194.169.236.285.06.164.024.35 0 .523-.047.343-.186.666-.283.998-.107.365-.244.722-.33 1.093a7.565 7.565 0 0 0-.143.856c-.056.489-.065.982-.094 1.474-.018.3-.01.604-.047.903-.08.641-.25 1.268-.378 1.901-.139.682-.304 1.359-.425 2.044-.076.426-.109.859-.19 1.284-.09.48-.25.945-.33 1.426-.05.298-.095.6-.095.903.001.287-.022.594.095.856.096.214.283.384.472.523.154.112.334.197.52.237.246.054.507.04.756 0a1.54 1.54 0 0 0 .567-.19 1.78 1.78 0 0 0 .52-.523c.134-.2.207-.436.283-.665.231-.697.363-1.422.52-2.14.14-.646.25-1.299.378-1.948.202-1.03.385-2.065.614-3.09.07-.319.117-.647.236-.95.119-.304.375-.545.472-.857.095-.304.079-.632.095-.95.022-.443-.028-.888 0-1.331.04-.638.154-1.268.236-1.902.045-.349.076-.7.142-1.046.037-.192.046-.4.141-.57a.47.47 0 0 1 .19-.19c.099-.05.235-.107.33-.048.042.027.045.093.047.143.008.146-.075.283-.094.428-.044.33-.031.665-.047.998-.016.317-.062.634-.048.95.016.337.081.668.142.999.065.352.197.69.236 1.046.069.614 0 1.236 0 1.854 0 .84-.011 1.68 0 2.52.008.586-.11 1.193.048 1.758.068.246.2.482.378.665.167.174.38.324.614.38.2.05.421.025.614-.047.2-.074.377-.22.52-.38.192-.217.313-.492.425-.76.196-.472.312-.976.425-1.474.085-.376.157-.757.189-1.141.024-.3.002-.602 0-.903-.008-.904-.093-1.808-.047-2.71.02-.398.109-.79.141-1.188.029-.348.04-.697.048-1.046.012-.555-.03-1.11 0-1.664.023-.445.056-.893.141-1.33.044-.227.114-.448.19-.666.217-.631.507-1.235.755-1.854.304-.759.587-1.526.898-2.282.288-.702.57-1.407.897-2.092.349-.728.803-1.402 1.134-2.139.332-.74.631-1.5.85-2.281.135-.482.21-.98.284-1.474.132-.883.221-1.772.283-2.662.066-.933.08-1.87.095-2.805.008-.49.087-.99 0-1.473-.048-.267-.284-.76-.284-.76"/>
            <path stroke-width="1.037" d="M32.704 196.94s.111-.618.236-.903c.293-.672.826-1.212 1.18-1.854.391-.706.72-1.446 1.04-2.186.514-1.187 1-2.388 1.417-3.613.383-1.124.624-2.294.993-3.423.471-1.443 1.047-2.849 1.559-4.278.288-.806.53-1.63.85-2.424.424-1.051.943-2.06 1.417-3.09.518-1.126 1.071-2.236 1.56-3.375.522-1.222.927-2.492 1.464-3.708.434-.985.95-1.93 1.417-2.9.366-.758.805-1.487 1.086-2.281.202-.569.315-1.166.426-1.76.11-.596.17-1.202.236-1.806.077-.695.189-2.091.189-2.091"/>
            <path stroke-width="1.037" d="M47.585 158.912s.505-.828.661-1.284c.167-.488.26-1.006.284-1.521.024-.525-.182-1.045-.142-1.569.035-.456.252-.88.33-1.33a10.644 10.644 0 0 0 .094-2.852c-.046-.45-.182-.884-.235-1.332-.062-.52-.132-1.046-.095-1.569.04-.548.231-1.075.331-1.616.158-.853.276-1.712.425-2.567.21-1.206.433-2.41.662-3.613.289-1.523.6-3.041.897-4.563.27-1.378.583-2.749.803-4.136.16-1.009.25-2.028.378-3.042l.237-1.854"/>
            <path stroke-width="1.037" d="M51.695 107.478s.678 1.267.897 1.949c.203.63.334 1.288.378 1.949.054.807-.09 1.616-.141 2.424-.06.95-.134 1.9-.19 2.852-.073 1.267-.12 2.536-.188 3.803-.044.824-.118 1.647-.142 2.472-.023.792 0 1.584 0 2.377 0 .618-.01 1.236 0 1.854.016.919.086 1.837.095 2.757.01 1.045-.088 2.092-.048 3.137.027.684.12 1.363.19 2.044.086.856.204 1.71.283 2.567.059.649.108 1.298.141 1.949.052.997.027 1.998.095 2.995.051.747.153 1.49.236 2.234.075.666.19 1.328.236 1.996.05.712.085 1.427.048 2.14-.04.75-.175 1.49-.284 2.234-.167 1.144-.373 2.282-.567 3.422-.2 1.174-.422 2.343-.614 3.518-.22 1.344-.425 2.691-.614 4.04-.12.855-.235 1.71-.33 2.567-.148 1.313-.316 2.626-.379 3.946-.027.57-.01 1.14 0 1.711.008.444.04.887.048 1.331.008.444.04.89 0 1.331a7.4 7.4 0 0 1-.19 1.046c-.179.756-.5 1.474-.66 2.234-.153.72-.163 1.462-.284 2.187-.181 1.085-.431 2.157-.662 3.232-.241 1.128-.526 2.245-.756 3.375-.262 1.295-.442 2.605-.708 3.898-.184.892-.45 1.767-.614 2.662a38.369 38.369 0 0 0-.425 3.09c-.148 1.47-.213 2.946-.284 4.421a90.48 90.48 0 0 0-.094 2.9c-.015.871.045 1.744 0 2.614-.056 1.05-.199 2.094-.331 3.138-.19 1.493-.462 2.976-.662 4.468-.228 1.708-.474 3.416-.614 5.134-.147 1.818-.187 3.643-.236 5.467a172.43 172.43 0 0 0-.047 4.61c0 1.538.034 3.074.047 4.612.02 2.234-.017 4.469.047 6.702.054 1.871.195 3.74.284 5.61.067 1.425.09 2.854.189 4.278.046.666.122 1.33.189 1.996.15 1.49.305 2.98.472 4.468.209 1.856.406 3.713.662 5.562.235 1.7.486 3.4.803 5.087.19 1.02.494 2.018.661 3.042.093.566.125 1.14.189 1.711.046.412.124.822.142 1.236.022.523-.04 1.046-.047 1.569-.015.998.032 1.997 0 2.995-.04 1.206-.149 2.409-.237 3.612-.085 1.174-.203 2.344-.283 3.518-.058.855-.137 1.71-.142 2.567-.004.73.067 1.457.095 2.187.037.982.066 1.964.094 2.947.018.65.085 1.3.047 1.949-.026.447-.109.89-.189 1.33a48.054 48.054 0 0 1-.661 2.996c-.328 1.324-.737 2.626-1.087 3.945a206.448 206.448 0 0 0-2.031 8.366c-.285 1.312-.61 2.617-.803 3.946-.078.535-.102 1.077-.142 1.616a122.034 122.034 0 0 0-.236 3.85c-.056 1.299-.108 2.599-.095 3.898.008.698.05 1.395.095 2.092.061.968.117 1.937.236 2.9.118.956.338 1.897.473 2.852.19 1.358.326 2.724.472 4.088.137 1.282.199 2.573.378 3.85.23 1.644.628 3.26.898 4.897.265 1.611.43 3.239.708 4.848.11.637.239 1.27.378 1.902.173.78.376 1.553.567 2.329.343 1.395.763 2.773 1.04 4.183.19.974.318 1.96.425 2.947.095.885.148 1.774.188 2.662.035.76.063 1.521.048 2.282-.016.794-.142 2.377-.142 2.377"/>
            <path stroke-width="1.037" d="M48.482 365.93s-.376 1.07-.52 1.617c-.139.532-.176 1.088-.33 1.616-.123.424-.324.82-.472 1.236-.152.425-.313.847-.426 1.284a9.7 9.7 0 0 0-.283 1.52 7.128 7.128 0 0 0 0 1.38c.04.386.139.764.236 1.14.08.306.224.593.284.903.039.203.04.412.047.618.014.38 0 1.141 0 1.141"/>
            <path stroke-width="1.037" d="M48.86 375.295s-.577 1.297-.944 1.902c-.306.503-.71.939-1.04 1.426-.315.465-.687.904-.897 1.426-.145.36-.18.757-.237 1.14-.075.504-.09 1.015-.141 1.522-.03.285.008.588-.095.856-.126.328-.4.577-.614.855-.15.196-.356.353-.472.57-.18.336-.165.752-.331 1.094-.168.348-.429.643-.661.95-.285.377-.576.75-.898 1.094-.413.44-.885.82-1.323 1.236-.397.377-.773.776-1.18 1.14-.26.233-.58.4-.804.666-.246.293-.433.64-.567.999-.113.302-.126.633-.189.95-.063.317-.187.628-.189.951-.002.258.086.509.142.76.068.304.19.596.236.904.06.408-.11.855.047 1.236.133.32.437.546.709.76.227.18.485.327.756.428.301.113.625.159.945.19.172.018.52 0 .52 0"/>
            <path stroke-width="1.037" d="M42.341 393.169s-.286.295-.378.475c-.134.264-.181.565-.236.856-.056.297-.066.602-.095.903-.035.38-.097.76-.094 1.141.003.478.029.962.142 1.426.06.249.13.509.283.713.108.144.26.262.425.333.205.087.44.086.662.095.268.011.803-.048.803-.048"/>
            <path stroke-width="1.037" d="M45.459 393.454s-.165.487-.284.713c-.105.202-.287.36-.377.57-.084.195-.09.414-.142.619-.057.223-.09.457-.19.665-.082.175-.26.295-.33.475-.045.12-.014.257-.047.38-.063.234-.157.461-.284.666-.076.124-.233.196-.283.333-.093.253-.07.548 0 .808.057.213.163.429.33.57.206.175.495.222.757.286.262.064.534.079.803.095.235.014.472.01.708 0 .19-.008.567-.048.567-.048"/>
            <path stroke-width="1.037" d="M48.293 393.834s-.309.43-.425.666c-.103.211-.15.446-.236.665-.088.225-.176.45-.283.666-.099.197-.249.366-.331.57-.074.182-.093.381-.142.57-.061.239-.112.48-.189.714-.08.243-.225.464-.283.713-.044.186-.08.382-.047.57.045.259.153.521.33.713.221.239.537.394.85.476.214.055.442.014.662 0 .476-.032.947-.11 1.417-.19.302-.053.606-.1.898-.19.195-.062.405-.112.567-.238a.837.837 0 0 0 .283-.38c.03-.09 0-.286 0-.286"/>
            <path stroke-width="1.037" d="M53.49 393.121s-.35.59-.567.856c-.31.381-.718.673-1.04 1.046-.206.24-.434.472-.566.76-.121.266-.13.57-.189.856-.068.332-.206.66-.189.998.017.33.177.638.283.951.071.209.114.435.237.618.193.288.464.527.756.713.4.255.854.454 1.322.523.548.08 1.108-.051 1.654-.143a8.102 8.102 0 0 0 1.134-.285c.37-.119.751-.229 1.086-.428.212-.126.403-.291.567-.475.228-.255.468-.528.567-.856.068-.227-.014-.475 0-.713.016-.27.042-.542.094-.808.045-.226.19-.665.19-.665"/>
            <path stroke-width="1.037" d="M58.64 397.732s.492-.185.708-.332c.304-.208.598-.454.803-.761.245-.366.364-.808.473-1.236.117-.465.157-.947.189-1.426.035-.538.09-1.085 0-1.616-.088-.514-.328-.99-.52-1.474-.172-.435-.31-.893-.567-1.283-.19-.29-.445-.536-.709-.76-.173-.149-.567-.381-.567-.381M59.395 389.128s.118-.98.142-1.473c.015-.301-.046-.606 0-.903.048-.312.214-.596.284-.904.123-.546.162-1.108.236-1.663.067-.507.143-1.013.189-1.522.025-.284-.012-.576.047-.855.074-.348.325-.646.378-.998.035-.236-.04-.475-.047-.713-.01-.27-.02-.54 0-.809.031-.447.157-.884.189-1.33.015-.222-.017-.445 0-.666.047-.624.159-1.241.283-1.854.166-.817.459-1.605.614-2.424.093-.487.23-.98.19-1.474-.032-.38-.23-.726-.332-1.093-.12-.441-.181-.9-.33-1.331-.227-.657-.58-1.262-.85-1.902-.133-.314-.379-.95-.379-.95"/>
            <path stroke-width="1.037" d="M60.624 371.73s-.265-1.325-.331-1.996c-.05-.505-.04-1.014-.047-1.521-.008-.492.055-.986 0-1.474-.048-.42-.195-.823-.284-1.236a55.346 55.346 0 0 1-.33-1.664c-.104-.569-.237-1.135-.284-1.711-.038-.458.036-.92 0-1.379-.063-.8-.332-1.575-.378-2.376-.042-.729.045-1.46.095-2.187.069-1 .103-2.009.283-2.995.204-1.115.592-2.188.898-3.28.293-1.047.627-2.083.897-3.137.23-.897.44-1.8.614-2.71.152-.787.237-1.587.378-2.377.2-1.113.38-2.232.662-3.327.272-1.063.62-2.106.992-3.137.354-.982.818-1.921 1.18-2.9.552-1.488 1.079-2.989 1.513-4.516.244-.861.502-1.726.614-2.615.097-.77.072-1.553.047-2.329-.03-.938-.147-1.87-.236-2.804-.113-1.174-.3-2.341-.378-3.518-.082-1.234-.044-2.473-.095-3.708-.022-.555-.086-1.108-.094-1.664-.01-.602.03-1.204.047-1.806.015-.523-.044-1.054.047-1.569.061-.345.19-.677.331-.998.327-.747.77-1.436 1.181-2.14.528-.9 1.134-1.755 1.654-2.661.419-.73.813-1.476 1.18-2.234.476-.982.893-1.992 1.323-2.995.42-.978.88-1.941 1.229-2.947.345-.995.658-2.007.85-3.043.154-.829.197-1.676.236-2.519a35.198 35.198 0 0 0 0-3.518c-.055-1.034-.275-2.055-.33-3.09-.053-.98 0-1.964 0-2.947 0-1.014.004-2.028 0-3.042-.009-1.696-.07-3.391-.048-5.086.018-1.364.08-2.726.142-4.088.025-.555.04-1.111.095-1.664.088-.908.235-1.81.378-2.71.183-1.16.428-2.31.614-3.47.192-1.201.298-2.416.52-3.613.168-.91.45-1.798.613-2.71.274-1.525.325-3.087.615-4.61.232-1.22.63-2.401.897-3.613.286-1.292.554-2.59.756-3.898.21-1.355.337-2.723.473-4.088.15-1.519.314-3.038.377-4.563.067-1.6.013-3.201 0-4.802-.008-1.014-.002-2.029-.047-3.042-.137-3.126-.675-9.361-.675-9.361M106.88 371.637s-.038-1.167 0-1.748c.034-.496.168-.982.201-1.479.038-.559-.064-1.124 0-1.68.084-.725.387-1.41.501-2.13.147-.927.137-1.872.236-2.805.105-.985.324-1.958.378-2.947.05-.902.032-1.81-.047-2.71-.096-1.102-.325-2.19-.52-3.28-.142-.795-.282-1.591-.472-2.376-.283-1.17-.69-2.306-.992-3.47a51.749 51.749 0 0 1-.709-3.043c-.23-1.18-.314-2.389-.567-3.565a38.802 38.802 0 0 0-.992-3.66c-.498-1.561-1.133-3.075-1.7-4.611-.252-.682-.524-1.356-.756-2.044-.292-.864-.579-1.731-.803-2.615-.255-1.002-.481-2.016-.615-3.042a9.463 9.463 0 0 1-.09-1.534c.035-1.061.291-2.103.4-3.16.102-.983.179-1.97.237-2.957.085-1.456.137-2.913.164-4.37.019-.986.04-1.973 0-2.958-.022-.54-.008-1.089-.133-1.614-.124-.517-.378-.996-.602-1.479-.222-.481-.483-.944-.735-1.411-.585-1.085-1.228-2.137-1.804-3.227-.589-1.115-1.173-2.235-1.688-3.387-.487-1.09-.895-2.214-1.323-3.328-.357-.93-.762-1.847-1.04-2.805-.274-.948-.517-1.916-.614-2.9-.127-1.292.01-2.598.048-3.897.06-2.046.247-4.086.283-6.132.027-1.505-.032-3.01-.047-4.516-.017-1.743-.063-3.486-.047-5.23.005-.586.07-1.172.047-1.758-.04-1.067-.2-2.126-.33-3.185-.083-.667-.199-1.33-.284-1.996-.194-1.519-.304-3.048-.52-4.564-.197-1.385-.484-2.755-.709-4.136-.216-1.329-.357-2.67-.614-3.993-.34-1.757-.852-3.478-1.228-5.229-.363-1.688-.737-3.377-.992-5.086-.157-1.055-.228-2.122-.33-3.185-.137-1.41-.31-2.816-.379-4.23-.088-1.805-.052-3.613-.047-5.42.004-1.045-.009-2.093.047-3.137.164-3.06.845-9.155.845-9.155"/>
            <path stroke-width="1.037" d="M66.327 307.302s-2.592 2.14-3.742 3.36c-1.176 1.25-3.206 4.034-3.206 4.034M100.534 307.57s2.173 3.385 3.207 5.11c.876 1.461 2.538 4.437 2.538 4.437M107.048 366.528s-.443.788-.602 1.21c-.138.368-.188.765-.3 1.143-.121.407-.282.802-.401 1.21-.114.388-.221.78-.3 1.176-.06.3-.12.602-.134.908-.01.213.004.427.033.638.035.25.105.495.167.74.132.519.32 1.023.434 1.546.105.477.11.973.234 1.445.058.22.194.416.234.64.043.242.005.492 0 .739-.005.235-.065.472-.033.705.029.211.161.397.2.606.043.231.046.47.033.705-.011.216-.111.424-.1.639.023.429.278.818.334 1.244.034.255-.024.516 0 .773.028.295.104.584.167.874.07.316.195.62.234.94.04.323-.054.655 0 .976.045.269.214.505.267.773.075.374.045.762.067 1.143.022.38.037.762.067 1.142.018.225.1.74.1.74M109.085 387.906s-.518.487-.768.74c-.228.23-.482.44-.668.705-.186.267-.298.579-.434.874-.225.487-.491.962-.635 1.479a5.3 5.3 0 0 0-.167 1.21c-.015.381.04.762.067 1.143.028.381.019.77.1 1.143.106.488.24.986.501 1.411.186.304.441.574.735.774.199.135.668.268.668.268"/>
            <path stroke-width="1.037" d="M108.317 396.174s.184.418.234.64c.054.24.015.497.067.739.057.266.145.529.267.773.151.302.317.614.568.84.282.255.65.398 1.002.538.525.208 1.082.334 1.637.437.418.077.844.125 1.27.134.356.008.723.026 1.068-.067.385-.104.79-.252 1.07-.538.233-.239.322-.59.433-.907.146-.413.275-.84.301-1.278.019-.303-.033-.61-.1-.907a3.15 3.15 0 0 0-.267-.773c-.149-.284-.372-.52-.568-.773-.205-.264-.4-.537-.635-.774-.296-.298-.703-.48-.969-.806-.193-.236-.434-.807-.434-.807M115.833 399.099s.366.41.602.538c.334.182.726.24 1.102.302.396.065.801.051 1.203.067.445.018.92.194 1.336.034.243-.093.448-.306.568-.538.072-.14.055-.312.066-.47.02-.269.062-.545 0-.807-.051-.22-.232-.39-.3-.605-.045-.14-.045-.291-.067-.437-.022-.146-.03-.294-.067-.437a3.086 3.086 0 0 0-.2-.538c-.067-.14-.17-.262-.234-.403-.084-.184-.129-.383-.2-.572-.074-.192-.125-.397-.234-.571-.098-.154-.291-.238-.368-.403-.071-.154-.067-.505-.067-.505M120.644 399.67s.602-.01.902-.033c.39-.03.802.006 1.169-.135.216-.083.403-.239.568-.403.135-.136.275-.287.334-.47.06-.193.035-.407 0-.606a1.768 1.768 0 0 0-.234-.638c-.06-.094-.172-.144-.234-.236a1.517 1.517 0 0 1-.2-.47c-.028-.11-.007-.227-.034-.336-.035-.142-.104-.273-.167-.404-.05-.104-.138-.19-.167-.302-.033-.13.016-.27 0-.404a1.558 1.558 0 0 0-.1-.403c-.05-.12-.134-.224-.2-.336-.08-.134-.185-.256-.234-.404-.03-.085-.034-.268-.034-.268"/>
            <path stroke-width="1.037" d="M123.383 398.998s.468.1.601.1c.134 0 .43-.067.635-.134.209-.068.429-.132.601-.269a.99.99 0 0 0 .334-.437c.072-.212-.011-.448 0-.672.028-.54.17-1.073.167-1.613-.002-.384-.096-.761-.133-1.143-.028-.28.036-.58-.067-.84-.053-.134-.168-.233-.267-.337-.072-.074-.234-.201-.234-.201"/>
            <path stroke-width="1.037" d="M125.621 398.191s.579.086.869.068c.329-.022.667-.068.968-.202.277-.123.54-.305.735-.538.193-.23.325-.516.401-.807.054-.206.028-.425.033-.638.005-.18-.023-.36 0-.538.034-.253.149-.49.2-.74.063-.299.153-.602.135-.907-.016-.255-.13-.494-.2-.74-.085-.292-.16-.589-.268-.874a5.342 5.342 0 0 0-.368-.806 3.815 3.815 0 0 0-.367-.505 5.184 5.184 0 0 0-.601-.638c-.226-.194-.507-.314-.735-.504a6.384 6.384 0 0 1-.668-.673c-.19-.213-.334-.468-.535-.672-.212-.215-.482-.365-.701-.571a5.672 5.672 0 0 1-.435-.47c-.21-.25-.43-.496-.6-.774-.15-.243-.256-.51-.368-.773-.171-.397-.26-.832-.468-1.21-.162-.294-.428-.52-.601-.807-.187-.308-.3-.656-.468-.975-.156-.297-.336-.58-.501-.874-.17-.3-.331-.606-.501-.907-.197-.35-.601-1.042-.601-1.042"/>
            <path stroke-width="1.037" d="M121.646 382.998s-.1-.491-.134-.74c-.05-.378-.036-.765-.1-1.142-.06-.354-.117-.717-.267-1.042-.138-.3-.379-.538-.568-.807-.19-.269-.377-.54-.568-.807-.242-.338-.54-.64-.735-1.008-.123-.231-.267-.74-.267-.74"/>
            <path stroke-width="1.037" d="M120.11 378.528s-.063-.425-.068-.639c-.008-.37.013-.743.067-1.11.05-.33.128-.657.234-.974.097-.29.294-.543.367-.84.109-.436.106-.895.1-1.345-.005-.45-.056-.9-.133-1.344-.063-.364-.123-.736-.267-1.076-.099-.232-.296-.41-.401-.639-.205-.447-.31-.935-.434-1.411a11.93 11.93 0 0 1-.2-.942 26.495 26.495 0 0 1-.301-2.184 25.785 25.785 0 0 1-.067-1.547c0-.134.053-1.367.1-2.05a59.313 59.313 0 0 1 .434-4.1c.088-.619.177-1.238.3-1.85.179-.881.602-2.487.636-2.621.033-.135.416-1.52.6-2.286.232-.959.463-1.92.636-2.89.144-.813.2-1.64.334-2.454.105-.642.258-1.275.367-1.916.28-1.642.519-3.29.735-4.942.116-.883.207-1.769.3-2.655.109-1.03.202-2.061.301-3.092.09-.93.121-1.868.268-2.79.136-.862.436-1.692.567-2.555.122-.8.131-1.613.2-2.42.076-.874.219-1.744.235-2.622.015-.841-.096-1.68-.134-2.52-.027-.583-.048-1.166-.067-1.749-.026-.806-.007-1.615-.067-2.42a40.801 40.801 0 0 0-.367-3.059c-.112-.743-.26-1.48-.401-2.218-.138-.73-.282-1.458-.434-2.185-.127-.606-.252-1.214-.401-1.815-.293-1.184-.65-2.352-.969-3.53-.203-.75-.434-1.493-.601-2.251-.167-.756-.203-1.539-.401-2.286-.177-.668-.514-1.285-.702-1.95-.149-.528-.191-1.083-.334-1.613-.073-.274-.212-.529-.267-.807-.097-.496-.078-1.008-.1-1.512-.024-.56-.033-1.12-.033-1.681 0-.583.015-1.165.033-1.748.024-.796.033-2.252.1-2.386.067-.135-.02-1.009-.033-1.513-.019-.661-.034-1.323-.067-1.983-.059-1.178-.182-2.352-.234-3.53-.044-.985-.018-1.972-.067-2.958-.05-1.032-.185-2.06-.234-3.092-.028-.593-.027-1.187-.033-1.781-.005-.572-.066-1.147 0-1.715.067-.583.28-1.14.4-1.714.15-.703.278-1.41.402-2.118.193-1.106.368-2.216.534-3.327.18-1.208.357-2.417.501-3.63.16-1.342.25-2.691.401-4.034.18-1.582.432-3.156.601-4.74.164-1.52.401-4.436.401-4.57 0-.135.072-2.197.1-3.295.027-1.03.041-2.062.067-3.092.04-1.558.088-3.115.134-4.672.065-2.23.18-4.459.2-6.69.017-1.86-.014-3.72-.066-5.58a102.715 102.715 0 0 0-.134-3.024c-.127-2.198-.225-4.4-.468-6.589-.147-1.329-.406-2.643-.601-3.966-.16-1.086-.302-2.175-.468-3.26-.073-.483-.198-.959-.234-1.446-.062-.849.022-1.703.034-2.554.01-.751.052-1.502.033-2.252a79.06 79.06 0 0 0-.4-6.219c-.09-.856-.234-1.705-.368-2.554-.103-.652-.204-1.304-.334-1.95-.437-2.165-1.037-4.294-1.503-6.454-.253-1.172-.473-2.352-.702-3.529-.285-1.467-.526-2.942-.835-4.403-.162-.766-.395-1.516-.534-2.286a6.576 6.576 0 0 1-.1-.773c0-.135.023-1.008.033-1.513.013-.694.062-1.39.033-2.084-.028-.675-.133-1.344-.2-2.016-.11-1.099-.204-2.199-.334-3.295a80.33 80.33 0 0 0-.501-3.697c-.161-.969-.535-2.723-.568-2.89-.034-.169-.334-2.447-.535-3.665-.12-.73-.298-1.451-.4-2.184-.081-.58-.13-1.164-.168-1.748-.045-.716-.093-1.435-.066-2.151.03-.856.17-1.704.267-2.555.092-.808.23-1.61.3-2.42.079-.905.083-1.816.134-2.723.04-.706.074-1.413.134-2.117.089-1.056.278-2.102.334-3.16.042-.795-.01-1.591 0-2.387.01-.896.065-1.792.067-2.689 0-.526-.068-1.054-.034-1.58.02-.294.028-.599.134-.873.029-.076.11-.125.133-.202.117-.386.012-.807 0-1.21-.044-1.57-.196-3.136-.267-4.706-.076-1.702-.12-3.406-.167-5.11-.04-1.467-.166-2.936-.1-4.402.018-.395.06-.79.134-1.177.096-.502.19-1.014.4-1.479.217-.478.58-.873.87-1.31.39-.594.867-1.138 1.168-1.782.293-.626.602-1.983.602-1.983"/>
            <path stroke-width="1.037" d="M115.065 126.127s.074 1.234.134 1.85c.097 1.01.21 2.02.367 3.024.191 1.218.46 2.422.702 3.63.194.976.415 1.947.6 2.925.243 1.274.428 2.558.669 3.832.176.932.374 1.86.568 2.79.174.83.445 1.644.534 2.487.064.602.021 1.21 0 1.815-.022.64-.071 1.279-.133 1.916-.053.54-.192 1.072-.2 1.613-.009.495.032.995.133 1.48.065.312.25.592.3.907.038.232-.002.47 0 .706.006.482-.011.965.034 1.445.032.34.08.68.167 1.009.107.404.299.78.434 1.176.084.245.176.488.234.74.12.518.167 1.051.234 1.58.054.424.022.864.134 1.277.183.677.561 1.285.868 1.916.348.715.751 1.403 1.102 2.117.48.975.936 1.962 1.37 2.958.493 1.132.913 2.295 1.403 3.429.416.96.873 1.902 1.303 2.857.529 1.174 1.104 2.329 1.57 3.53.56 1.441.976 2.936 1.47 4.402.43 1.279.922 2.538 1.303 3.832.143.488.209.997.367 1.48.155.472.369.922.568 1.377.223.51.46 1.012.701 1.513.12.248.255.488.368.74.183.407.322.834.5 1.243.19.432.378.864.602 1.278.202.37.47.702.668 1.075.115.217.25.432.301.672.054.252.003.516 0 .774-.005.549-.05 1.098-.033 1.647.025.831.115 1.66.2 2.487.092.898.157 1.803.334 2.689.139.696.32 1.386.568 2.05.244.652.61 1.25.902 1.883.38.823.732 1.66 1.102 2.487.221.494.464.978.668 1.479.208.508.338 1.048.568 1.546.162.35.43.648.568 1.009.09.235.083.501.167.74.1.282.327.515.401.806.072.282.013.583.033.874.031.438.112.872.134 1.31.03.605-.026 1.211 0 1.816.011.258.058.514.067.773.025.717-.028 1.434-.034 2.151-.004.56-.016 1.12 0 1.68.012.371-.011.748.067 1.11.08.364.283.689.401 1.042.103.31.153.636.267.941.074.197.142.403.268.572.151.203.342.39.568.504.142.072.308.097.467.1.203.005.43.01.602-.1.148-.095.206-.287.3-.437.096-.153.221-.296.267-.47.06-.228.003-.471 0-.707-.01-.829-.065-1.658-.066-2.487-.001-.482.02-.964.033-1.445l.033-1.11c.011-.347-.042-.703.034-1.042.043-.19.182-.349.234-.537.095-.349.12-.715.133-1.076a7.18 7.18 0 0 0-.066-1.311c-.028-.183-.112-.354-.134-.538-.014-.111-.03-.228 0-.336.029-.102.075-.218.167-.269.049-.027.116-.021.167 0 .087.037.152.12.2.202.06.1.068.224.1.336.058.201.119.402.168.605.077.323.162.645.2.975.043.367.024.74.033 1.109.014.538-.007 1.077.034 1.613.026.339.06.678.134 1.009.056.252.145.496.233.74.12.33.298.638.401.974.175.569.269 1.16.368 1.748.088.523.11 1.057.2 1.58.098.565.226 1.125.368 1.68.137.543.322 1.073.467 1.614.108.401.144.825.3 1.21.109.265.236.534.435.74.147.15.335.27.535.336.159.051.334.046.5.033.205-.016.405-.077.602-.134.193-.056.405-.084.568-.202.22-.158.418-.38.501-.639.082-.256-.023-.537-.033-.806-.012-.292.018-.587-.034-.874-.057-.314-.227-.598-.3-.908-.143-.606-.152-1.237-.268-1.849-.109-.576-.292-1.137-.4-1.714-.102-.534-.155-1.076-.234-1.613-.055-.37-.135-.737-.167-1.11-.038-.424 0-.852-.034-1.277-.033-.417-.065-.838-.167-1.243-.085-.337-.27-.642-.367-.975-.09-.308-.114-.633-.2-.941-.055-.195-.175-.372-.201-.572-.02-.145-.07-.333.033-.437.103-.103.29-.046.434-.033.092.008.197.008.268.067.161.134.201.371.267.571.107.326.136.672.2 1.009.105.548.15 1.11.301 1.647.075.266.212.51.3.773.09.265.195.53.234.807.024.166-.03.339 0 .504.063.33.228.635.368.94.179.393.434.747.601 1.144.224.531.365 1.095.535 1.647.14.457.3.91.4 1.378.085.398.09.81.167 1.21.097.499.266.981.368 1.479.098.478.121.97.234 1.445.051.217.09.445.2.639.133.235.31.458.535.605.215.14.478.224.735.235.307.014.637-.042.902-.201.264-.16.446-.438.6-.706.15-.258.255-.547.301-.84.062-.388-.007-.786-.033-1.177a20.788 20.788 0 0 0-.167-1.58 30.896 30.896 0 0 0-.4-2.185c-.203-.926-.481-1.834-.702-2.756-.177-.737-.248-1.504-.501-2.218-.151-.425-.411-.802-.602-1.21-.212-.455-.41-.915-.601-1.379a35.257 35.257 0 0 1-.735-1.882c-.1-.288-.235-.57-.267-.874-.015-.134-.023-.28.033-.403a.674.674 0 0 1 .334-.336.531.531 0 0 1 .368 0c.187.065.34.216.467.37.26.31.408.702.568 1.075.248.576.412 1.184.602 1.781.106.335.15.692.3 1.009.17.356.469.635.668.975.19.323.35.664.501 1.008.188.428.356.866.502 1.31.17.52.267 1.06.434 1.58.207.649.44 1.289.701 1.917.223.536.479 1.058.735 1.58.128.26.195.569.401.773.142.14.343.213.535.268.215.063.446.098.668.068.213-.03.425-.112.6-.236.208-.145.375-.352.502-.571.137-.236.225-.504.267-.773.073-.465.016-.944-.033-1.412-.05-.476-.15-.947-.267-1.412-.118-.467-.29-.918-.435-1.378-.179-.57-.344-1.147-.534-1.714-.178-.53-.406-1.044-.568-1.58-.134-.442-.2-.903-.334-1.344-.143-.468-.323-.923-.501-1.379-.252-.644-.555-1.269-.802-1.915-.182-.477-.317-.97-.501-1.446-.215-.557-.525-1.076-.701-1.647-.085-.273-.115-.56-.168-.84-.07-.38-.146-.76-.2-1.143-.06-.424-.055-.857-.134-1.277-.046-.251-.145-.49-.2-.74a15.52 15.52 0 0 1-.234-1.378c-.066-.524-.15-1.051-.133-1.58.016-.532.158-1.053.233-1.58.047-.324.092-.649.134-.974.036-.28.1-.84.1-.84"/>
            <path stroke-width="1.037" d="M141.655 197.589s.528 1.216.869 1.781c.496.822 1.002 1.667 1.704 2.32.54.502 1.199.875 1.87 1.176.699.313 1.457.48 2.205.639.814.172 1.644.262 2.472.336.533.047 1.069.056 1.604.067.267.005.801 0 .801 0M154.182 202.664s.36-.038.535 0c.263.058.514.182.735.336.259.18.442.452.668.673.395.386.817.746 1.202 1.143.337.345.705.67.97 1.075.147.226.197.506.333.74.21.36.45.706.735 1.008.208.22.464.385.702.571.439.345.836.763 1.336 1.009.456.224.972.302 1.47.403.418.085.842.179 1.27.17.373-.01.768-.034 1.102-.203.246-.126.45-.34.6-.572.11-.17.19-.37.201-.571a.987.987 0 0 0-.133-.572c-.107-.168-.308-.252-.468-.37-.304-.223-.627-.42-.935-.638-.248-.175-.526-.318-.735-.538-.25-.262-.41-.599-.602-.907-.258-.418-.466-.867-.735-1.278a8.681 8.681 0 0 0-.668-.907c-.226-.264-.498-.485-.735-.74a28.425 28.425 0 0 1-1.135-1.31c-.288-.352-.604-.686-.835-1.076-.2-.336-.271-.738-.468-1.076-.233-.4-.544-.75-.835-1.11-.225-.276-.454-.55-.702-.806-.148-.153-.286-.325-.467-.437-.364-.223-.8-.296-1.203-.437-.532-.186-1.436-.504-1.603-.538-.167-.033-1.11-.525-1.67-.773-.851-.374-1.713-.724-2.573-1.075-.533-.218-1.072-.419-1.603-.639-.314-.13-.662-.202-.936-.403-.178-.131-.298-.33-.434-.505-.202-.259-.41-.518-.568-.806a1.532 1.532 0 0 1-.167-.404c-.062-.284.027-.588-.033-.874-.088-.413-.322-.78-.468-1.176-.238-.644-.42-1.309-.668-1.95-.203-.523-.498-1.01-.668-1.546-.132-.414-.167-.854-.267-1.277a32.8 32.8 0 0 0-.568-2.118c-.208-.67-.498-1.312-.702-1.983a25.74 25.74 0 0 1-.568-2.218 30.785 30.785 0 0 1-.4-2.454 39.36 39.36 0 0 1-.234-2.622c-.07-1.186-.055-2.376-.1-3.563-.053-1.356-.047-2.718-.201-4.067-.107-.939-.315-1.864-.501-2.79-.253-1.26-.585-2.504-.835-3.765-.188-.948-.29-1.913-.501-2.857a21.134 21.134 0 0 0-.535-1.95 19.351 19.351 0 0 0-.668-1.747c-.231-.527-.5-1.037-.768-1.546-.437-.829-.982-1.6-1.37-2.454-.423-.932-.676-1.932-1.035-2.89-.3-.8-.693-1.568-.936-2.387-.36-1.217-.768-3.53-.768-3.731 0-.202-.356-2.645-.535-3.967-.244-1.815-.544-3.623-.734-5.445-.094-.894-.11-1.795-.2-2.689-.097-.944-.247-1.882-.368-2.824-.09-.694-.158-1.392-.268-2.084-.206-1.295-.549-2.567-.735-3.865a27.99 27.99 0 0 1-.233-2.42 26.352 26.352 0 0 1-.034-2.387c.028-.786.09-1.573.2-2.353.176-1.233.525-2.436.736-3.663.187-1.093.342-2.193.467-3.294.133-1.162.256-2.327.3-3.496.046-1.187.012-2.376-.033-3.563a82.512 82.512 0 0 0-.233-3.563c-.141-1.74-.35-3.472-.501-5.21-.063-.717-.008-1.45-.167-2.151a6.804 6.804 0 0 0-.669-1.715c-.236-.436-.551-.828-.868-1.21a8.976 8.976 0 0 0-.869-.907 23.39 23.39 0 0 0-2.472-1.95c-.577-.397-1.16-.802-1.803-1.076-.553-.234-1.156-.321-1.738-.47-1.154-.296-2.336-.485-3.474-.84-.98-.307-1.93-.703-2.873-1.11-.906-.39-1.777-.86-2.672-1.277-1.308-.608-2.65-1.141-3.942-1.781a104.801 104.801 0 0 1-6.848-3.698c-1.049-.62-2.055-1.313-3.073-1.983a203.334 203.334 0 0 1-1.604-1.076"/>
            <path stroke-width="1.037" d="M100.1 68.985s-.789-.378-1.136-.638a6.57 6.57 0 0 1-1.203-1.177 4.918 4.918 0 0 1-.568-.941c-.338-.71-.592-1.46-.802-2.218-.155-.561-.334-1.715-.334-1.715"/>
            <path stroke-width="1.037" d="M95.824 66.901s-.158-1.612-.134-2.42c.02-.687.163-1.366.234-2.05.061-.593.103-1.189.167-1.782.168-1.57.404-3.134.568-4.706.119-1.14.15-2.29.3-3.428.15-1.128.351-2.251.602-3.361.176-.782.437-1.543.634-2.32.156-.613.31-1.228.435-1.848.013-.067.033-.202.033-.202"/>
            <path stroke-width="1.037" d="M97.761 45.49s.273-.511.501-.672c.124-.088.285-.112.434-.135.309-.047.627.042.936 0a4.437 4.437 0 0 0 1.202-.336c.362-.161.718-.363 1.003-.639.311-.302.522-.697.734-1.075.331-.59.596-1.217.836-1.849.133-.351.254-.709.334-1.076.093-.43.065-.882.167-1.31.093-.394.266-.763.4-1.143.178-.505.41-.993.535-1.513.179-.747.305-1.517.3-2.286-.001-.396-.214-1.604-.214-1.604M70.639 45.96l-.142-.802s-.541-.51-.85-.713a.682.682 0 0 0-.19-.095c-.212-.059-.444-.002-.66-.048-.278-.058-.565-.13-.804-.285-.364-.238-.64-.598-.897-.95a8.108 8.108 0 0 1-.945-1.712c-.156-.38-.23-.79-.33-1.188a33.248 33.248 0 0 1-.379-1.664c-.11-.552-.174-1.112-.283-1.664-.07-.35-.187-.692-.236-1.046-.115-.817-.196-1.648-.142-2.472.027-.418.154-.824.236-1.235.06-.302.19-.904.19-.904M78.798 215.678s2.994 2.314 4.76 2.339c1.783.025 4.87-2.228 4.87-2.228"/>
            <path stroke-width="1.035" d="M65.376 31.852l-.612-3.942-.363-2.48V22.91l.363-2.1.612-2.068.66-2.348.82-2.09.774-2.08 1.12-2.194 1.59-2.63 1.716-2.029 1.7-1.711 1.556-.995 1.733-.743 1.78-.569 1.593-.26H82.2L83.558 1h2.14l1.779.092 2.168.26 1.711.57 1.872.742 1.435.518 1.628.667 1.488 1.025 1.82 1.447 1.258 1.079 1.714 1.979.805 1.333.832 1.511.642 1.781.543 1.137.42 2.055.172 2.247-.172 2.383-.42 2.999-.25 3.085-.293 3.244v1.125M70.639 45.96l1.701 8.506"/>
        </g>
    </g>
</svg>
