<svg xmlns="http://www.w3.org/2000/svg" width="45" height="100" viewBox="0 0 45 100">
    <g fill="none" fill-rule="evenodd">
        <path fill="#BCBC1C" d="M5.677.956c-.147.204-.364 1.724-.598 3.74-.483 4.176-1.038 10.482-1.2 11.674 0 1.713.109 9.986.454 14.51.345 4.523 1.127 5.017 1.325 8.801.197 3.784-.462 6.385-.462 7.729 0 1.343.253 1.947.253 2.645s-2.29 8.637-2.533 9.663c-.08.334-.005 1.482-.032 2.088-.057 1.255-.132 2.268.032 3.515.162 1.234.573 3.968 1.233 8.204.424 2.47.773 4.345 1.047 5.625.41 1.921.664 4.71.481 5.372-.182.66-.782 1.16-.782 2.137 0 .977.535 2.053.535 2.568 0 .515-.483.388-.644 1.102-.162.714-.137 1.086-.453 1.806s-.251.302-.83 1.09c-.578.786-.176.528-.928 1.302-.753.773-1.29.756-1.574 1.341-.284.586-.231 1.14 0 1.91.23.769.562.828.882 1.027.32.2.223-.145.692-.044.468.1.237.203.928.394.692.191 1.01.164 1.392.246.383.082.036.215.763.215.726 0 .812-.223 1.456-.215.643.009.114.33 1.285.252 1.172-.08 1.739-.171 1.912-.252.173-.08.207-.557.613-.922s.636-.14.88-.701c.042-.097.075-.204.1-.32.072-.333.139-.508-.1-1.59-.239-1.082-.614-.891-.614-1.65 0-.758.465-2.086.614-3.281.149-1.196-.043-1.404.102-2.485s.532-.846.504-2.034c-.027-1.188-.313-1.276-.606-2.369-.293-1.093-.408-1.075-.606-2.162-.199-1.086-.223-1.69-.211-2.316.012-.627 1.083-3.954 1.423-5.595.34-1.64-.073-2.088.457-3.465.53-1.377 1.72-4.21 2.049-5.625.329-1.414-.16-7.67-.16-8.528 0-.858 2.81-4.78 3.403-6.737.594-1.957.091-.757.133-4.921.042-4.164-.042-6.956 0-8.333.042-1.377.852-3.631 1.377-6.439.524-2.807.54-1.897.898-5.734.357-3.836.364-6.573.364-7.824 0-1.25-.728-2.422-.364-2.422s1.112.668 2.247.642c1.135-.026 2.403-.642 2.403-.422 0 .219-.294 3.147-.383 5.586-.09 2.438.293 3.568.383 5.026.089 1.458.38 1.12 1.06 5.199.679 4.079.974 3.798 1.186 8.286.211 4.488-.274 8.733-.274 9.655 0 .923 1.249 4.145 2.019 5.869.77 1.724 1.541 1.724 1.854 2.803.314 1.08-.313 5.214-.313 6.88 0 1.665 1.05 3.474 2.083 7.497 1.034 4.023 1.731 5.635 1.944 8.181.213 2.547-.598 4.105-.819 5.284-.221 1.178-.59.813-.59 2.225 0 1.413.233.595.59 2.887.358 2.292.612 3.33.59 4.672-.023 1.342-.763 1.584-.71 2.49.052.907.013.517.939 1.472.926.956 1.028 1.283 1.957 1.517.93.234 1.488-.542 1.912-.542.425 0 1.243.542 2.128.542.59 0 1.075-.18 1.453-.542.143-.034.476-.15.999-.35.784-.298 1.268-.121 1.566-.625.297-.503.297-1.472 0-2.023-.298-.551-2.65-2.416-3.291-3.46s-.727-2.243-.727-3.085V86.66c0-.56-.926-2.38-.79-4.202.135-1.822 2.38-11.436 2.243-13.945.25-2.276.66-3.12.66-5.55 0-2.43-1.625-9.928-2.355-11.777-.497-2.007-.413-9.532-.413-11.504.637-2.24 1.407-8.31 1.797-13.62.39-5.31.212-7.717 0-10.835-1.059-5.525-1.07-14.27-1.797-14.27-.366 0-10.61 11.443-17.304 13.634C17.357 11.796 5.902.644 5.677.956z"/>
        <g stroke="#333" stroke-width=".5">
            <path d="M5.713.95c-.435 1.547-.67 2.481-.703 2.803-.071.686-.102 1.375-.136 2.064-.023.45-.038.902-.046 1.353-.007.407.022.814 0 1.22-.026.49-.095.978-.159 1.465-.09.697-.221 1.39-.317 2.086-.11.797-.228 1.594-.295 2.396-.071.849-.09 1.7-.114 2.552-.02.717-.022 1.435-.022 2.152 0 .717.016 1.435.022 2.152.01 1.043-.008 2.086.023 3.129.026.873.094 1.745.136 2.618.033.666.043 1.332.09 1.997.023.311.06.621.092.932.071.696.146 1.39.227 2.086.1.866.194 1.732.317 2.596.113.793.234 1.586.386 2.374.092.476.237.942.318 1.42.044.264.06.532.09.799.023.192.06.383.069.576.01.244-.02.488-.023.733-.007.466.016.932 0 1.398-.02.563-.071 1.124-.114 1.686-.04.547-.097 1.094-.136 1.642-.028.399-.065.798-.068 1.198-.002.34.032.68.046 1.02.017.459.032.918.045 1.376.009.303.04.607.023.91-.013.209-.053.415-.091.621-.088.47-.2.935-.318 1.398-.158.618-.354 1.226-.522 1.842a94.147 94.147 0 0 0-.975 3.905c-.138.612-.294 1.221-.386 1.841-.038.25-.049.503-.068.755a55.372 55.372 0 0 0-.114 1.797 33.249 33.249 0 0 0-.045 1.82c.003.325.024.65.045.976.03.452.057.904.114 1.353.056.447.162.886.227 1.332.091.634.157 1.271.227 1.908.065.598.095 1.2.181 1.797.111.767.302 1.521.431 2.285.128.753.207 1.512.34 2.264.053.297.115.593.182.887.083.364.18.725.272 1.087.165.652.367 1.295.5 1.953.091.454.153.915.204 1.376.046.412.071.827.09 1.242.017.355.03.71.023 1.065-.007.37-.068 1.11-.068 1.11"/>
            <path d="M5.94 83.63s-.18.5-.25.755c-.066.249-.084.508-.158.755-.06.197-.156.383-.227.577-.073.198-.15.395-.204.599-.062.233-.114.47-.137.71-.02.213-.022.43 0 .643.02.18.067.357.114.533.038.142.107.277.136.421.019.095.019.192.023.289.007.177 0 .532 0 .532"/>
            <path d="M6.122 88.002s-.278.605-.454.887c-.147.235-.34.439-.5.666-.15.217-.33.422-.43.666-.07.168-.086.353-.114.532-.036.235-.043.474-.068.71-.014.134.004.275-.045.4-.06.153-.192.27-.295.4-.073.09-.171.164-.227.265-.087.157-.08.35-.16.51-.08.163-.205.3-.317.444-.136.176-.276.35-.431.51-.198.206-.425.384-.635.578-.19.176-.372.362-.568.532-.124.108-.278.186-.385.31a1.579 1.579 0 0 0-.273.467c-.054.141-.06.296-.09.444-.03.147-.09.292-.091.443-.001.12.04.238.068.355.033.142.091.278.113.422.03.19-.053.4.023.577.064.15.21.255.34.355.11.084.233.152.363.2.145.052.3.073.454.088.083.008.25 0 .25 0"/>
            <path d="M2.99 96.345s-.137.137-.181.222c-.065.123-.087.263-.114.399-.027.139-.032.28-.045.422-.017.177-.047.354-.045.532.001.223.013.45.068.666a.89.89 0 0 0 .136.333.506.506 0 0 0 .204.155c.098.04.21.04.318.044.128.005.385-.022.385-.022"/>
            <path d="M4.488 96.478s-.08.227-.136.333c-.051.094-.139.168-.182.266-.04.09-.043.193-.068.288-.027.105-.043.214-.09.311-.04.082-.126.138-.16.222-.021.056-.006.12-.022.177-.03.11-.075.215-.136.311-.037.058-.112.091-.136.155a.621.621 0 0 0 0 .378c.027.099.078.2.158.266.1.081.238.103.363.133.126.03.257.037.386.044a3.476 3.476 0 0 0 .613-.022"/>
            <path d="M5.85 96.655s-.15.2-.205.311c-.05.099-.072.208-.113.31-.042.105-.085.21-.136.311-.048.092-.12.171-.16.267-.035.084-.044.177-.067.266-.03.11-.054.224-.091.333-.039.113-.108.216-.136.332a.652.652 0 0 0-.023.267c.022.12.074.243.159.332a.857.857 0 0 0 .408.222c.103.026.212.007.318 0 .228-.014.455-.05.68-.088.145-.025.292-.047.432-.09.094-.028.195-.051.272-.11a.392.392 0 0 0 .136-.178c.015-.042 0-.133 0-.133"/>
            <path d="M8.345 96.323s-.168.275-.272.399c-.15.178-.345.314-.5.488-.098.112-.208.22-.271.355-.059.124-.063.266-.091.4-.033.154-.1.308-.09.465.007.155.084.298.135.444.034.098.055.203.114.289.092.134.223.246.363.332.192.12.41.212.635.245.263.037.532-.024.794-.067.185-.03.367-.078.545-.133.178-.056.361-.107.522-.2.102-.059.193-.136.272-.222.11-.119.225-.246.272-.4.033-.105-.006-.221 0-.332a2.68 2.68 0 0 1 .046-.377c.021-.106.09-.31.09-.31"/>
            <path d="M10.819 98.475s.237-.087.34-.156a1.39 1.39 0 0 0 .386-.355c.117-.17.175-.377.227-.576.056-.217.075-.443.09-.666.018-.251.044-.507 0-.754-.042-.24-.157-.462-.249-.688-.083-.203-.149-.417-.272-.6a1.755 1.755 0 0 0-.34-.354c-.084-.07-.273-.178-.273-.178M11.182 94.459s.057-.458.068-.688c.007-.14-.022-.283 0-.422.023-.145.103-.278.136-.421.06-.255.078-.518.114-.777.032-.236.068-.472.09-.71.013-.133-.005-.269.023-.4.035-.162.156-.3.182-.465.016-.11-.02-.222-.023-.333-.005-.126-.01-.252 0-.377.015-.209.075-.413.09-.622.008-.103-.007-.207 0-.31a6.88 6.88 0 0 1 .137-.865c.08-.382.22-.75.295-1.132.044-.227.11-.458.09-.688-.015-.177-.11-.339-.158-.51-.059-.206-.088-.42-.16-.622-.108-.306-.278-.588-.408-.887a20.897 20.897 0 0 1-.181-.444"/>
            <path d="M11.772 86.338s-.127-.619-.159-.932c-.024-.236-.019-.473-.023-.71-.003-.23.027-.46 0-.688-.023-.196-.093-.384-.136-.577-.057-.258-.11-.517-.159-.776-.05-.266-.113-.53-.136-.8-.018-.213.018-.429 0-.643-.03-.373-.16-.735-.181-1.109-.02-.34.02-.681.045-1.02.033-.468.05-.938.136-1.399.098-.52.285-1.021.431-1.53.141-.49.302-.973.431-1.465.11-.419.211-.84.295-1.265.073-.367.114-.74.182-1.11.096-.519.183-1.041.318-1.552.13-.496.297-.983.476-1.465.17-.458.393-.896.567-1.353.265-.695.518-1.395.727-2.108.117-.402.24-.806.295-1.22.046-.36.034-.725.022-1.088-.014-.437-.07-.873-.113-1.309-.054-.548-.144-1.092-.182-1.642-.04-.575-.02-1.154-.045-1.73-.011-.26-.041-.518-.046-.777-.004-.281.015-.562.023-.843.007-.244-.02-.492.023-.732.03-.161.091-.316.159-.466.156-.349.37-.67.567-.999.254-.42.544-.82.794-1.242.202-.341.391-.69.567-1.043.229-.458.43-.93.636-1.398.201-.456.422-.906.59-1.376.165-.464.316-.936.408-1.42a8.45 8.45 0 0 0 .114-1.176c.026-.546.03-1.095 0-1.642-.027-.482-.133-.959-.16-1.442-.024-.458 0-.917 0-1.375 0-.474.003-.947 0-1.42-.003-.792-.032-1.583-.022-2.375.008-.636.038-1.272.068-1.908.012-.259.02-.518.046-.776.042-.424.113-.845.181-1.265.088-.542.206-1.078.295-1.62.093-.56.143-1.128.25-1.686.08-.425.216-.84.295-1.265.131-.712.156-1.441.295-2.152.111-.57.302-1.12.43-1.686.138-.604.267-1.21.364-1.82.1-.633.162-1.27.227-1.908.072-.709.151-1.418.181-2.13.032-.747.006-1.494 0-2.241-.004-.474 0-.947-.022-1.42-.066-1.46-.324-4.37-.324-4.37M33.99 86.294s-.019-.544 0-.816c.016-.231.08-.458.096-.69.018-.26-.03-.525 0-.784.04-.339.186-.658.241-.994.07-.433.066-.874.113-1.31.05-.46.156-.914.182-1.375a8.654 8.654 0 0 0-.023-1.265c-.046-.515-.156-1.022-.25-1.53-.067-.372-.135-.744-.226-1.11-.136-.546-.332-1.076-.477-1.62a23.58 23.58 0 0 1-.34-1.42c-.111-.551-.151-1.115-.272-1.664a17.707 17.707 0 0 0-.477-1.709c-.24-.728-.544-1.435-.817-2.152-.12-.318-.251-.633-.363-.954-.14-.403-.278-.808-.386-1.22-.122-.468-.23-.941-.295-1.42a4.294 4.294 0 0 1-.043-.716c.017-.496.14-.982.192-1.475.05-.46.086-.92.114-1.38.04-.68.066-1.36.079-2.04.009-.46.02-.921 0-1.381-.01-.252-.004-.508-.064-.753-.06-.242-.182-.465-.29-.69-.106-.225-.231-.442-.352-.66-.281-.506-.59-.997-.867-1.506a26.607 26.607 0 0 1-.81-1.58c-.235-.51-.43-1.034-.636-1.554-.172-.434-.366-.862-.5-1.309-.131-.443-.248-.894-.294-1.353-.062-.604.004-1.214.022-1.82.029-.955.119-1.907.136-2.862.013-.703-.015-1.405-.022-2.108-.008-.814-.03-1.627-.023-2.44.003-.275.034-.548.023-.822-.02-.498-.097-.992-.16-1.486-.038-.312-.094-.621-.135-.932-.093-.71-.146-1.423-.25-2.13-.095-.647-.232-1.286-.34-1.93-.104-.621-.172-1.247-.295-1.865-.164-.82-.41-1.623-.59-2.44-.174-.788-.354-1.577-.477-2.374-.075-.493-.11-.991-.158-1.487-.066-.658-.149-1.315-.182-1.975-.042-.842-.025-1.686-.023-2.53.002-.487-.004-.976.023-1.464.079-1.428.406-4.273.406-4.273"/>
            <path d="M14.511 56.265s-1.245.999-1.797 1.569c-.565.583-1.54 1.882-1.54 1.882M30.942 56.39s1.043 1.58 1.54 2.385c.42.682 1.22 2.071 1.22 2.071M34.07 83.91s-.212.367-.288.564c-.067.172-.091.358-.145.534-.058.19-.135.374-.192.565a6.38 6.38 0 0 0-.145.549c-.029.14-.057.28-.064.423-.005.1.002.2.016.298.017.117.05.231.08.346.063.242.153.477.209.721.05.223.053.455.112.675.028.102.093.194.112.298.021.113.003.23 0 .345-.002.11-.03.22-.016.33.014.098.078.185.097.282.02.108.022.22.016.33-.006.1-.054.197-.048.298.01.2.133.382.16.58.016.12-.012.241 0 .361.014.138.05.273.08.408.034.147.094.29.113.44.019.15-.026.305 0 .454.021.126.103.236.128.361.036.175.021.356.032.534.01.177.018.355.032.533.009.105.048.345.048.345M35.05 93.888s-.25.227-.37.345c-.11.108-.232.206-.32.33-.09.124-.144.27-.21.408-.108.227-.235.449-.304.69a2.408 2.408 0 0 0-.08.565c-.008.178.018.356.032.533.013.178.009.36.048.534.05.227.115.46.24.659.09.141.212.267.353.36.096.063.321.126.321.126"/>
            <path d="M34.68 97.748s.089.194.112.298c.026.112.007.232.032.345.028.124.07.247.129.36.072.142.152.287.273.393.135.119.312.186.48.251.253.097.52.156.787.204.201.036.406.058.61.063.171.003.348.012.513-.032.185-.048.38-.117.514-.25.112-.112.155-.277.208-.424.07-.193.132-.393.145-.597a1.484 1.484 0 0 0-.048-.423 1.442 1.442 0 0 0-.129-.361c-.071-.132-.178-.243-.273-.36-.098-.124-.192-.251-.304-.362-.143-.139-.338-.224-.466-.376a2.104 2.104 0 0 1-.208-.377M38.29 99.113s.176.19.289.25c.16.086.349.113.53.142.19.03.384.024.577.031.214.009.442.09.642.016a.539.539 0 0 0 .273-.251c.035-.066.026-.146.032-.22.009-.125.03-.254 0-.376-.025-.103-.112-.182-.145-.283-.02-.065-.021-.136-.032-.204-.01-.068-.014-.137-.032-.204a1.415 1.415 0 0 0-.096-.25c-.032-.066-.081-.123-.112-.189-.04-.086-.062-.179-.097-.267-.035-.09-.06-.185-.112-.266-.047-.072-.14-.112-.176-.189-.035-.071-.033-.235-.033-.235M40.6 99.38s.29-.006.434-.016c.188-.014.385.003.562-.063a.814.814 0 0 0 .272-.188.58.58 0 0 0 .16-.22.583.583 0 0 0 0-.282.81.81 0 0 0-.112-.299c-.028-.043-.082-.067-.112-.11a.698.698 0 0 1-.096-.22c-.014-.05-.003-.105-.016-.156-.017-.066-.05-.127-.08-.188-.024-.049-.067-.09-.08-.141-.017-.061.007-.126 0-.189a.71.71 0 0 0-.049-.188c-.024-.056-.064-.104-.096-.157-.038-.062-.089-.12-.112-.188-.014-.04-.016-.126-.016-.126"/>
            <path d="M41.916 99.066s.225.047.29.047c.063 0 .205-.032.304-.063.1-.032.206-.062.289-.126a.464.464 0 0 0 .16-.204c.035-.099-.005-.209 0-.313.014-.252.082-.501.08-.754 0-.179-.046-.355-.064-.533-.013-.13.018-.27-.032-.392-.025-.062-.08-.109-.128-.157-.034-.035-.112-.094-.112-.094"/>
            <path d="M42.991 98.689s.278.04.418.031c.158-.01.32-.031.465-.094a.986.986 0 0 0 .353-.25.958.958 0 0 0 .192-.377c.026-.097.014-.199.017-.298.002-.084-.012-.169 0-.251.016-.119.07-.229.096-.346.03-.14.073-.28.064-.423-.007-.12-.062-.23-.096-.345-.04-.137-.077-.275-.129-.408a2.46 2.46 0 0 0-.176-.377 1.784 1.784 0 0 0-.177-.235 2.45 2.45 0 0 0-.288-.298c-.109-.09-.244-.147-.353-.236a3.024 3.024 0 0 1-.321-.313c-.092-.1-.16-.22-.257-.314-.102-.1-.231-.17-.337-.267a2.678 2.678 0 0 1-.209-.22c-.101-.116-.206-.23-.288-.36-.072-.114-.123-.239-.177-.361-.082-.186-.124-.389-.225-.565-.077-.137-.205-.243-.288-.377-.09-.144-.144-.306-.225-.455-.075-.138-.162-.271-.24-.408-.082-.14-.16-.283-.241-.423-.095-.163-.29-.487-.29-.487"/>
            <path d="M41.082 91.597s-.048-.229-.064-.345c-.024-.177-.017-.357-.048-.533-.03-.165-.057-.335-.129-.487-.066-.14-.181-.25-.272-.376-.091-.126-.181-.252-.273-.377-.116-.158-.26-.299-.353-.47-.06-.108-.128-.346-.128-.346"/>
            <path d="M40.344 89.51s-.03-.198-.032-.297a2.979 2.979 0 0 1 .032-.518c.024-.154.061-.307.112-.455.047-.136.141-.254.177-.392.052-.204.05-.418.048-.628a3.865 3.865 0 0 0-.064-.628c-.03-.17-.06-.343-.129-.502-.047-.108-.142-.191-.192-.298-.099-.209-.15-.436-.209-.659a5.433 5.433 0 0 1-.096-.439c-.06-.338-.113-.678-.144-1.02-.023-.24-.033-.659-.033-.722a23.922 23.922 0 0 1 .128-1.851c.038-.34.08-.68.13-1.02.041-.288.084-.577.144-.863.085-.411.288-1.16.304-1.223.017-.063.2-.71.29-1.067.11-.448.221-.896.304-1.35.07-.379.096-.765.16-1.145.051-.3.125-.595.177-.894.134-.766.25-1.536.353-2.307.056-.412.1-.825.144-1.239.053-.48.097-.962.145-1.443.043-.434.058-.872.128-1.303.066-.402.21-.79.273-1.192.058-.374.063-.753.096-1.13.036-.408.105-.814.113-1.223.007-.393-.046-.785-.065-1.177a62.406 62.406 0 0 1-.032-.816c-.012-.376-.003-.754-.032-1.13a18.53 18.53 0 0 0-.176-1.427c-.054-.347-.126-.691-.193-1.036a52.53 52.53 0 0 0-.208-1.02c-.062-.283-.121-.566-.193-.847-.14-.553-.312-1.098-.465-1.647-.098-.35-.209-.697-.29-1.052-.08-.352-.096-.717-.192-1.066-.085-.312-.247-.6-.337-.91-.071-.247-.092-.506-.16-.753-.035-.128-.102-.247-.128-.377-.047-.231-.038-.47-.049-.706a17.845 17.845 0 0 1-.016-.785c0-.272.008-.543.016-.815.012-.372.017-1.052.049-1.114.032-.063-.01-.471-.016-.706-.01-.309-.017-.618-.033-.926-.028-.55-.087-1.098-.112-1.647-.02-.46-.009-.921-.032-1.381-.024-.482-.089-.962-.112-1.443-.014-.277-.014-.555-.016-.832-.003-.267-.032-.535 0-.8.032-.272.134-.532.192-.8.072-.328.133-.658.193-.989.093-.516.177-1.034.256-1.553a55.32 55.32 0 0 0 .241-1.694c.077-.627.12-1.257.193-1.883.086-.739.207-1.473.289-2.212.078-.71.192-2.071.192-2.134 0-.063.034-1.025.048-1.538.013-.48.02-.962.032-1.443.02-.727.043-1.454.064-2.181.032-1.04.087-2.081.097-3.122a68.308 68.308 0 0 0-.032-2.605 46.6 46.6 0 0 0-.065-1.412c-.06-1.026-.107-2.054-.224-3.075-.071-.62-.195-1.234-.289-1.851-.077-.507-.145-1.015-.225-1.522-.035-.225-.095-.447-.112-.675-.03-.396.01-.795.016-1.192.005-.35.025-.701.016-1.051-.025-.97-.09-1.939-.192-2.903-.029-.266-.173-1.101-.434-2.505M20.502 13.498s1.438 1.08 2.285 1.092c.857.011 2.34-1.04 2.34-1.04"/>
        </g>
    </g>
</svg>
