<svg xmlns="http://www.w3.org/2000/svg" width="38" height="100" viewBox="0 0 38 100">
    <g fill="none" fill-rule="evenodd">
        <path fill="#BCBC1C" d="M1.788 4.34c-.223 1.673-.334 2.7-.334 3.08 0 .572-.873 3.49-.873 4.876 0 1.386-.09 7.852.257 10.242.346 2.39.2 7.873 1.244 10.76 1.043 2.888.652 3.512.652 5.883v8.66c0 .75-.024 4.954-.652 6.05S.58 61.194.58 61.505c0 .31-.345 5.559.578 9.36.923 3.8 3.36 11.818 3.36 13.961 0 2.144-.377 3.408-.377 5.957s-2.027 1.503-2.616 2.124c-.59.622-1.2 2.398-.322 2.917.878.519 1.95.927 2.238 1.395.289.468.66 1.515.868 1.556.21.04 1.535 1.061 3.77.673 2.236-.388 2.173-.608 2.38-1.372.206-.763-.472-1.602-.208-2.416.265-.814.872-.9.872-1.886 0-.986-.212-.889-.106-1.876.106-.988.76-1.898.76-3.204 0-1.307-.698-2.824-1.112-3.676-.414-.852-.516-3.601-.516-4.405 0-.804 1.146-6.367 1.387-7.295.242-.928 2.111-6.262 1.892-7.512-.22-1.25.251-2.698-.517-6.058-.512-2.24.305-5.534 2.452-9.884.786-1.248 1.074-3.417.864-6.506-.315-4.633 0-5.719 0-6.99 0-1.27 1.978-13.678 1.978-15.13 0-1.45.239-2.548.135-3.574-.103-1.027 0-2.023 0-2.347 0-.324.672-1.015 1.08-1.4 0-.547.382.462.773 1.043.298.588-.082 5.4.158 6.279.24.878.487 5.934 1.133 8.691.645 2.758.817 7.618.817 9.251 0 1.634-.172 5.092-.346 7.284-.055 4.731 1.737 5.04 3.49 10.851-.432 6.77-1.027 6.938-.208 10.158 1.27 5.194 2.717 11.28 3.037 13.91 0 1.707-.559 3.95-1.677 6.731-.143.747-.025 1.564.352 2.452.108 1.205-.753 1.839.566 4.845.33 2.172-.744 3.886 2.14 4.036 4.22.167 4.874-1.69 4.874-2.067 0-.378 2.604-1.485 2.909-2.11.304-.627.24-1.864-.733-2.364-.972-.499-.972-.321-1.574-.499-.602-.177-1.014-.267-1.014-.602 0-.335.28-.898.28-1.484 0-.585-.809-2.496-.809-3.347 0-.85.755-5.738 1.249-7.197.493-1.458 1.516-7.313 1.516-7.771 0-.459.643-2.87 1.085-5.213.102-2.285.09-7.07-.497-8.473-.588-1.404-1.187-5.55-1.81-7.449-.23-2.02.199-3.362.199-3.624 0-.263-.183-6.747 0-9.724.183-2.977 1.442-10.085 1.61-11.261.17-1.177 1.2-11.078.6-13.967-.6-2.89-.78-6.796-.984-7.956-.136-.773-11.725-.773-34.77 0z"/>
        <path fill="#DDDD8D" d="M1.788 4.34l17.633-.58h10.46c4.106 0 6.332.193 6.676.58l.768 8.748.102 2.002c-1.67.627-3.69 1.004-6.057 1.129-3.552.188-5.783-.116-7.507-.412-1.15-.197-2.393-.568-3.729-1.112l-.713-1.342c-.284.728-.662 1.231-1.136 1.508-.71.416-.553 1.336-6.133 1.358-2.017.008-3.821-.095-6.683-.412-1.908-.211-3.559-.687-4.952-1.426L.94 9.604l.849-5.264z"/>
        <g stroke="#333" stroke-linecap="round" stroke-width=".5">
            <path d="M20.197 14.695s-.024.48-.03.72c-.024.952-.04 1.904-.03 2.856.01.904.022 1.81.089 2.711.088 1.178.26 2.348.411 3.52.153 1.184.324 2.366.5 3.547.149 1.001.332 1.997.47 3 .147 1.074.293 2.15.382 3.23.07.864.084 1.73.117 2.596.049 1.278.13 2.557.118 3.836-.012 1.175-.09 2.348-.177 3.52-.051.693-.188 1.38-.205 2.076-.016.616.005 1.235.088 1.846.06.439.165.873.294 1.298.245.807.584 1.585.91 2.365.302.72.642 1.425.97 2.134.28.608.625 1.189.852 1.817.145.402.269.817.323 1.24.055.43.015.866 0 1.299-.025.703-.095 1.403-.147 2.105-.055.74-.093 1.483-.176 2.221-.053.473-.172.939-.206 1.413-.033.46-.038.925 0 1.385.035.417.14.826.206 1.24.062.394.09.793.176 1.183.149.665.392 1.307.588 1.961.186.625.386 1.246.558 1.875.16.583.313 1.168.44 1.76.14.649.23 1.308.353 1.96.196 1.04.444 2.072.617 3.116.12.727.185 1.462.294 2.192.053.356.156.707.176 1.067.01.192-.009.385-.03.577-.038.358-.111.712-.176 1.067-.072.395-.146.79-.235 1.183-.087.386-.172.775-.294 1.153a7.277 7.277 0 0 1-.293.75c-.106.236-.247.456-.353.692-.11.245-.225.491-.294.75-.052.198-.09.402-.088.606.003.234.064.464.118.692.039.166.1.326.147.49.062.22.164.436.176.664.01.194-.094.382-.088.577.007.235.122.458.147.692.026.249.01.5 0 .75-.005.116-.028.23-.03.346-.002.164.025.327.03.49.004.145-.024.29 0 .433.024.15.093.29.147.433.054.146.116.289.176.432.096.232.22.454.294.693.072.234.147.72.147.72"/>
            <path d="M28.98 86.312s.154 1.652.177 2.48c.016.587-.002 1.174-.03 1.76-.023.51-.006 1.03-.117 1.529-.102.46-.327.887-.5 1.327-.132.338-.292.666-.41 1.01-.105.302-.183.613-.265.922-.074.278-.146.556-.206.837-.08.382-.171.764-.206 1.153-.014.163-.04.332 0 .49.046.18.164.335.265.491.079.122.152.254.264.346.202.165.455.269.705.346.51.158 1.053.201 1.587.231.567.031 1.143.035 1.704-.058.424-.07.847-.188 1.234-.375.29-.14.58-.309.793-.548.167-.187.273-.426.352-.663.04-.12.004-.26.059-.375a.657.657 0 0 1 .235-.26c.103-.067.239-.067.353-.115.245-.104.48-.232.705-.375.352-.224.661-.505.999-.75.135-.098.295-.168.41-.288.127-.132.24-.289.295-.462.058-.183.05-.385.029-.577a2.65 2.65 0 0 0-.176-.663c-.062-.161-.153-.31-.235-.462-.075-.136-.13-.288-.235-.403a1.174 1.174 0 0 0-.441-.318c-.092-.034-.196-.014-.294-.028-.099-.015-.194-.064-.294-.058-.061.004-.176.058-.176.058"/>
            <path d="M35.62 92.427s-.139-.177-.235-.23c-.14-.079-.31-.097-.47-.116-.165-.02-.5 0-.5 0"/>
            <path d="M35.18 92.427s-.534-.253-.765-.433c-.157-.122-.41-.432-.41-.432"/>
            <path d="M33.563 92.6s.3-.606.412-.923c.09-.253.175-.512.205-.779a3.753 3.753 0 0 0-.029-.923c-.05-.372-.164-.733-.264-1.096-.07-.252-.18-.494-.235-.75-.052-.236-.062-.48-.089-.72-.033-.308-.089-.615-.088-.924.002-.57.1-1.136.177-1.701.079-.58.193-1.155.293-1.731.096-.548.176-1.1.294-1.644.143-.66.342-1.305.5-1.961.197-.825.386-1.651.558-2.48.224-1.084.428-2.17.617-3.26.15-.873.245-1.755.411-2.625.142-.745.353-1.477.5-2.22.158-.805.328-1.609.41-2.424.087-.852.093-1.71.089-2.567a27.021 27.021 0 0 0-.088-2.019c-.04-.511-.108-1.02-.177-1.528-.11-.82-.222-1.64-.381-2.452-.172-.873-.436-1.726-.617-2.596-.17-.813-.249-1.644-.441-2.452-.111-.468-.303-.915-.411-1.384a8.726 8.726 0 0 1-.206-1.24c-.041-.499-.018-1 0-1.5.02-.54.106-1.076.117-1.615.014-.635-.041-1.27-.058-1.904-.012-.442-.018-.885-.03-1.327-.017-.644-.052-1.288-.058-1.932-.01-1 0-2 .029-3 .018-.597.063-1.192.088-1.788.06-1.413.136-2.826.147-4.24.004-.51-.03-1.529-.03-1.529"/>
            <path d="M35.091 37.365s.445-2.75.676-4.124c.23-1.366.513-2.724.705-4.096.201-1.437.333-2.882.47-4.326.115-1.21.218-2.422.294-3.635.083-1.344.152-2.69.176-4.038.02-1.124.03-2.25-.03-3.374-.069-1.331-.247-2.655-.381-3.98-.112-1.107-.235-2.212-.353-3.318-.068-.644-.16-1.286-.205-1.932-.06-.854-.036-1.713-.089-2.567-.034-.559-.054-1.12-.147-1.673M1.997 1.384c-.063.411-.1.826-.147 1.24-.06.519-.123 1.038-.176 1.557-.039.375-.067.75-.103 1.125-.047.495-.09.991-.147 1.486-.047.4-.095.8-.162 1.197-.09.541-.228 1.074-.323 1.615-.08.455-.149.912-.205 1.37-.08.652-.154 1.305-.191 1.961-.032.543-.02 1.087-.03 1.63L.5 15.43c-.01.591-.042 1.183-.03 1.774.01.496.058.99.088 1.485.024.385.055.77.074 1.154.042.875.042 1.75.088 2.625.025.481.064.962.103 1.442.035.443.08.884.117 1.327.066.769.107 1.54.191 2.307.075.685.18 1.366.28 2.048.06.414.126.827.19 1.24.12.77.24 1.54.368 2.308.098.597.207 1.192.308 1.788.09.529.194 1.055.264 1.587.04.301.064.605.089.908.03.375.055.75.073 1.125.022.461.035.923.044 1.384a75.484 75.484 0 0 1 0 3.058c-.01.591-.026 1.182-.044 1.774-.02.668-.061 1.336-.073 2.004-.006.289-.01.577 0 .866.017.486.102.97.102 1.456 0 .361-.035.722-.073 1.082a10.66 10.66 0 0 1-.147 1.024c-.076.37-.195.73-.294 1.096-.058.216-.121.431-.176.649-.053.21-.105.421-.147.634-.093.469-.137.946-.235 1.414-.086.407-.217.804-.308 1.211-.09.401-.158.807-.235 1.211-.094.49-.28 1.4-.28 1.471 0 .072-.108.72-.146 1.082-.047.441-.074.884-.103 1.327-.042.624-.105 1.249-.103 1.875.001.4.059.797.073 1.197.016.437-.001.875.015 1.312.014.38.033.76.074 1.14.066.618.21 1.227.279 1.845.046.422.023.85.088 1.27.067.434.211.854.308 1.283.166.733.306 1.473.47 2.206a113.455 113.455 0 0 0 .984 4.024c.18.675.39 1.342.559 2.019.14.564.256 1.134.382 1.702.104.47.211.94.308 1.413.115.561.23 1.122.323 1.687.07.427.138.854.176 1.284.021.23.033.461.03.692a7.18 7.18 0 0 1-.044.65c-.04.38-.105.76-.162 1.138-.046.308-.1.615-.147.923-.041.279-.088.557-.117.837-.03.278-.059.557-.059.836 0 .14.016.28.03.419.01.115.008.235.043.346.048.15.145.28.22.418.091.165.19.325.28.49.06.11.176.332.176.332M4.028 91.188s-.05.179-.083.265a2.718 2.718 0 0 1-.145.327c-.061.113-.11.24-.208.326-.097.085-.237.107-.353.163-.19.092-.37.198-.561.286-.163.075-.32.18-.499.204-.055.007-.11-.02-.166-.02-.118-.001-.242-.002-.353.04a.927.927 0 0 0-.353.245c-.058.063-.08.151-.125.224-.064.105-.153.196-.208.306a2.49 2.49 0 0 0-.166.49 2.678 2.678 0 0 0-.104.57 1.74 1.74 0 0 0 .063.572c.056.183.126.38.27.51.105.095.271.092.394.163.205.117.37.291.561.428.21.15.426.29.644.428.178.113.357.224.54.327.116.065.353.183.353.183"/>
            <path d="M3.488 96.715s-.014.33.02.49c.044.2.138.387.23.57.119.242.229.498.415.694.166.176.387.296.602.408.302.158.624.286.956.367.351.086.718.112 1.08.123.374.01.749-.026 1.122-.061.396-.038.803-.05 1.184-.164.272-.081.551-.186.768-.367.156-.13.268-.308.353-.49a1.34 1.34 0 0 0 .125-.468c.015-.191-.04-.381-.062-.571-.026-.211-.057-.422-.083-.633-.022-.176-.05-.352-.063-.53-.021-.312.004-.626-.02-.938a4.167 4.167 0 0 0-.063-.47c-.063-.33-.16-.653-.249-.978-.058-.212-.108-.427-.187-.632-.092-.24-.257-.45-.332-.694-.12-.388-.152-.799-.187-1.203-.034-.386-.021-1.163-.021-1.163"/>
            <path d="M10.094 95.655s.155-.42.27-.612c.098-.163.257-.285.353-.449a2.2 2.2 0 0 0 .25-.591c.041-.173.047-.353.04-.53-.004-.138-.041-.272-.061-.408-.015-.095-.014-.194-.042-.286-.033-.108-.145-.306-.145-.306"/>
            <path d="M10.592 93.615s.092-.653.146-.979c.05-.3.12-.597.166-.897.06-.38.067-.766.145-1.142.056-.264.149-.518.229-.775.06-.191.122-.382.187-.571.053-.157.138-.306.166-.47a1.486 1.486 0 0 0 0-.468c-.052-.352-.214-.678-.312-1.02-.096-.338-.15-.69-.27-1.02-.133-.367-.363-.695-.498-1.06a7.352 7.352 0 0 1-.27-.98 10.06 10.06 0 0 1-.208-1.264c-.044-.494-.017-.993-.02-1.489-.003-.326-.036-.654 0-.979.059-.546.242-1.073.352-1.611.126-.61.243-1.222.354-1.836.162-.902.301-1.808.457-2.712.067-.395.112-.794.207-1.183.18-.734.45-1.444.686-2.162.248-.757.572-1.492.768-2.264.13-.508.21-1.029.27-1.55.07-.595.067-1.197.104-1.795.026-.414.084-.828.083-1.244 0-.702-.058-1.404-.145-2.1-.067-.542-.206-1.073-.29-1.612-.065-.406-.142-.813-.167-1.223-.029-.482.001-.966.02-1.448.018-.416.028-.833.084-1.245.064-.474.158-.946.29-1.407.17-.592.423-1.158.645-1.733.181-.472.37-.94.56-1.408.265-.648.572-1.28.81-1.937.185-.509.346-1.026.479-1.55.13-.511.252-1.027.311-1.55.056-.494.035-.993.042-1.49.009-.652-.005-1.304 0-1.957.007-1.095.034-2.19.041-3.284.007-1.053-.039-2.108 0-3.161.021-.559.063-1.117.125-1.672.063-.567.165-1.129.25-1.693.13-.877.26-1.755.394-2.631.17-1.116.366-2.227.52-3.345.142-1.045.233-2.096.373-3.14.137-1.023.335-2.036.457-3.06a29.29 29.29 0 0 0 .166-1.856c.037-.659.044-1.319.042-1.978a28.313 28.313 0 0 0-.042-1.448c-.023-.43-.104-1.285-.104-1.285"/>
            <path d="M11.236 16.052s.758.148 1.143.164c.437.017.874-.034 1.309-.082.725-.08 1.45-.18 2.16-.347a12.48 12.48 0 0 0 1.766-.55 5.21 5.21 0 0 0 .914-.45c.151-.098.3-.207.415-.346.174-.21.299-.46.395-.714.124-.326.177-.675.228-1.02.093-.613.11-1.236.146-1.855.044-.768.063-1.537.083-2.305.011-.422.056-.844.02-1.265-.012-.151-.05-.3-.082-.448-.018-.082-.063-.245-.063-.245M19.421 13.523s.088.29.145.429c.06.146.107.305.208.428.143.173.345.293.54.408.404.238.843.42 1.288.57.465.159.95.257 1.434.348.693.13 1.395.22 2.098.285.524.05 1.052.107 1.579.082.37-.018 1.1-.163 1.1-.163M19.837 7.262s.138-.471.166-.714c.025-.216 0-.652 0-.652"/>
        </g>
    </g>
</svg>
