<svg xmlns="http://www.w3.org/2000/svg" width="80" height="14" viewBox="0 0 80 14">
    <g fill="#BCBC1C" fill-rule="nonzero">
        <path d="M6.576 12.992H0V.242h6.576v2.86h-3.68v1.981h3.568v2.86H2.896v2.189h3.68v2.86zm13.184 0h-3.28l-.576-1.844h-4.112l-.624 1.844H7.92L12.672.242h2.384l4.704 12.75zm-4.656-4.428l-1.216-4.342-.048-.018-1.216 4.36h2.48zm13.904-4.6h-2.992c-.128-.914-.48-1.242-1.072-1.242-.56 0-1.04.431-1.04 1 0 .758.64 1.103 1.936 1.706 2.608 1.206 3.264 2.222 3.264 3.894 0 2.464-1.568 3.911-4.128 3.911-2.576 0-4.272-1.447-4.272-4.187V8.77h3.008c.016 1.052.496 1.74 1.248 1.74.624 0 1.136-.533 1.136-1.223 0-1.016-1.312-1.464-2.384-1.93-1.936-.844-2.816-1.947-2.816-3.6C20.896 1.584 22.848 0 25.024 0c.784 0 1.472.19 2.096.534 1.264.707 1.872 1.723 1.888 3.43zm4.96 9.028h-3.024V.242h3.024v12.75zM41.952 5.98h-1.664c-.08-.69-.448-1.155-1.136-1.155-.64 0-1.04.465-1.04 1.016 0 .81.768 1.051 1.648 1.344 1.248.414 2.4 1.224 2.4 2.998 0 1.844-1.248 3.05-2.976 3.05-1.6 0-3.136-1.171-3.136-3.377h1.664c.08 1.154.624 1.74 1.504 1.74.768 0 1.28-.534 1.28-1.31 0-.654-.464-1.085-1.504-1.447-2.176-.74-2.544-1.757-2.544-2.843 0-1.688 1.328-2.808 2.784-2.808 1.472 0 2.672 1.102 2.72 2.791zm8.624 3.859h1.856c-.704 2.154-2.4 3.394-4.368 3.394-2.544 0-4.544-2.205-4.544-4.928 0-2.877 1.936-5.117 4.528-5.117a4.533 4.533 0 0 1 4.384 3.429h-1.84c-.496-1.12-1.296-1.792-2.496-1.792-1.744 0-2.912 1.43-2.912 3.377 0 1.895 1.2 3.394 2.88 3.394 1.136 0 2.048-.654 2.512-1.757zM63.52 8.288c-.032 2.55-2.016 4.945-4.848 4.945-2.496 0-4.72-2.291-4.72-4.98 0-2.911 2.128-5.065 4.848-5.065 2.448 0 4.752 2.067 4.72 5.1zm-1.664-.103c0-1.861-1.392-3.36-3.136-3.36-1.664 0-3.104 1.516-3.104 3.377 0 1.81 1.392 3.394 3.072 3.394 1.744 0 3.168-1.482 3.168-3.411zm5.424 4.807h-1.664V3.446h1.552v.862h.032c.4-.638 1.088-1.051 2.256-1.12V5.03c-1.44.052-2.176 1-2.176 2.602v5.359zm4.944-5.376h5.728c-.128-1.62-1.456-2.791-2.88-2.791-1.36 0-2.72 1.154-2.848 2.791zm7.344 1.378h-7.344c.384 1.586 1.552 2.602 2.912 2.602 1.04 0 2.016-.586 2.528-1.602h1.664c-.688 1.964-2.352 3.24-4.256 3.24-2.496 0-4.512-2.379-4.512-4.929 0-3.015 2.112-5.117 4.464-5.117 2.608 0 4.592 2.17 4.592 4.91 0 .293 0 .57-.048.896z"/>
    </g>
</svg>
