<svg xmlns="http://www.w3.org/2000/svg" width="62" height="101" viewBox="0 0 62 101">
    <g fill="none" fill-rule="evenodd">
        <path fill="#F0DD00" d="M9.388 96.079c3.526-4.166 4.282-13.593 3.067-17.895-.81-2.868-1.62-7.512-2.43-13.932-2.149-1.092-3.548-1.638-4.197-1.638-.973 0-3.227-5.627-3.227-7.4 0-1.775-.675-5.346-.337-10.535.337-5.19-1.15-9.418-1.15-11.906 0-2.488 6.43-21.872 10.126-23.653 3.697-1.78-.616-6.527 17.24-7.874 9.166-.69 18.335 1.89 25.173 9.119 1.363 1.44 2.913 4.183 4.653 8.23 2.277 5.302 3.015 9.663 2.213 13.083-.8 3.42-1.539 8.075-2.213 13.965.776.922.97 2.787.582 5.597-.388 2.81-.954 4.134-1.698 3.973.193 1.222.193 2.204 0 2.947-.193.743-.71 1.741-1.547 2.996-2.37 2.45-4.246 3.58-5.631 3.386-.847-.119-.208.848-.328 1.846-.051.423-.356 1.107-.913 2.051-1.05 5.042-1.575 8.999-1.575 11.871 0 4.308-2.73 9.726.738 15.769 3.468 6.042-42.073 4.165-38.546 0z"/>
        <path fill="#F7EE7F" d="M10.622 65.327c4.853 8.553 11.17 12.808 18.95 12.766 7.78-.042 14.792-4.369 21.037-12.981l-2.386 10.834-1.817 15.008c-.143 3.578-.143 5.476 0 5.694.143.219.478-1.168 1.006-4.16l1.12 3.684-.71 2.52-9.255 2.044-16.944-.378-10.177-1.667-2.427-1.8c1.421-1.727 2.36-3.027 2.818-3.903.458-.875.863-2.146 1.215-3.814V78.252l-2.43-12.925z"/>
        <g stroke="#333">
            <path stroke-width="1.47" d="M52.57 98.987s-1.125-.544-1.622-.919a9.42 9.42 0 0 1-1.718-1.693 7.088 7.088 0 0 1-.811-1.354c-.483-1.021-.846-2.102-1.145-3.193-.222-.807-.478-2.466-.478-2.466"/>
            <path stroke-width="1.47" d="M46.462 95.988s-.224-2.32-.19-3.482c.028-.99.232-1.966.333-2.951.088-.854.148-1.71.24-2.564.24-2.26.577-4.51.81-6.771.17-1.642.214-3.298.43-4.934.214-1.624.5-3.24.859-4.837.252-1.125.624-2.22.907-3.337.222-.883.442-1.767.62-2.66.019-.097.048-.29.048-.29"/>
            <path stroke-width="1.47" d="M49.23 65.177s.39-.736.716-.967c.177-.127.406-.161.62-.194.44-.067.895.061 1.337 0a6.303 6.303 0 0 0 1.718-.484c.516-.232 1.024-.522 1.431-.919.445-.434.746-1.002 1.05-1.547.473-.848.85-1.75 1.193-2.66.19-.506.363-1.02.477-1.549.134-.619.094-1.27.239-1.886.133-.566.381-1.097.573-1.645.253-.725.585-1.428.763-2.176.256-1.075.435-2.183.43-3.29-.003-.57-.306-2.308-.306-2.308M10.484 65.854l-.202-1.155s-.774-.733-1.215-1.026a.971.971 0 0 0-.27-.137c-.305-.084-.636-.002-.945-.068-.397-.084-.807-.187-1.147-.41-.52-.343-.915-.862-1.282-1.368a11.693 11.693 0 0 1-1.35-2.463c-.222-.548-.329-1.136-.473-1.71a48.141 48.141 0 0 1-.54-2.394c-.156-.794-.248-1.6-.404-2.394-.1-.505-.267-.996-.338-1.505-.164-1.176-.28-2.372-.202-3.557.039-.603.22-1.187.337-1.779.086-.434.27-1.3.27-1.3"/>
            <path stroke-width="1.467" d="M2.966 45.552L2.09 39.88l-.518-3.569v-3.628l.518-3.021.875-2.977.942-3.379 1.173-3.008 1.105-2.992 1.599-3.158 2.271-3.783 2.453-2.92 2.43-2.463 2.22-1.432 2.477-1.068 2.543-.82 2.275-.374H27l1.94-.132h3.056l2.542.132 3.097.374 2.445.82 2.674 1.068 2.05.746 2.327.96 2.124 1.474 2.6 2.083 1.798 1.552 2.449 2.848 1.15 1.919 1.187 2.174.918 2.563.776 1.636.6 2.956.246 3.234-.246 3.43-.6 4.315-.356 4.44-.42 4.667v1.62M10.484 65.854l2.43 12.24"/>
            <path stroke-width="1.421" d="M12.65 76.797l.264 1.296v11.269l-2.43 4.812-3.666 3.67"/>
        </g>
    </g>
</svg>
