<svg xmlns="http://www.w3.org/2000/svg" width="73" height="102" viewBox="0 0 73 102">
    <g fill="none" fill-rule="evenodd">
        <path fill="#F0DD00" d="M18.266 94.563c-.554-1.174.554-2.647.554-4.183s-2.048-16.384-2.898-18.22c-.85-1.835-4.022-.64-6.168-2.372-2.146-1.732-2.389-5.827-3.309-8.79-.92-2.964-.708-3.787-1.34-6.186-.63-2.399-1.518-3.243-1.518-4.676 0-1.434-1.921-9.36-2.125-15.785-.203-6.425.15-8.357 1.216-12.907 1.066-4.55 2.544-5.361 4.08-7.437 1.535-2.076 9.58-9.825 14.596-11.628C26.37.577 36.674.883 39.43 1.397c2.756.515 8.075.074 12.954 1.378 4.879 1.303 7.306 2.316 11.163 6.734 3.858 4.417 7.506 13.233 7.996 15.54.489 2.308-.596 5.07-.596 7.97 0 2.898 1.025 7.384 1.296 11.535.27 4.15-.456 6.44-.7 8.922-.245 2.481-.86 3.45-.86 6.54s-1.478 3.018-2.723 6.186c-1.244 3.168-5.959 2.512-6.79 5.285-.83 2.773-1.674 15.057-1.57 17.947.104 2.89 3.141 4.601 2.401 5.13-14.234 5.415-33.167 5.202-43.735 0z"/>
        <path fill="#F7EE7F" d="M18.479 94.459V89.48l-1.036-8.449-.905-7.316-.883-2.263c7.523 4.964 14.95 7.63 22.28 7.997 7.33.368 14.93-1.543 22.8-5.734l-.831 6.034-.645 8.547-.112 3.899 1.589 2.263c-7.546 2.724-14.762 4.087-21.648 4.087-6.886 0-13.756-1.363-20.61-4.087z"/>
        <g stroke="#333">
            <path stroke-linecap="round" stroke-width="1.752" d="M70.633 100.642c-1.197-.547-2.391-1.1-3.544-1.733-1.458-.8-2.918-1.625-4.236-2.64-.988-.76-1.923-1.608-2.722-2.564-.386-.461-.644-1.014-.984-1.509-.633-.921-1.966-2.715-1.966-2.715"/>
            <path stroke-linecap="round" stroke-width="1.752" d="M59.828 93.101s-.377-.938-.454-1.433c-.23-1.491-.054-3.018 0-4.526.088-2.469.318-4.93.53-7.392.108-1.259.225-2.517.378-3.771.15-1.236.335-2.467.53-3.696.23-1.462.494-2.919.756-4.375.267-1.486.832-4.45.832-4.45"/>
            <path stroke-linecap="round" stroke-width="1.752" d="M60.736 72.584s.83-1.128 1.285-1.66c.43-.499.798-1.09 1.362-1.432.314-.19.713-.18 1.059-.302.543-.192 1.126-.336 1.588-.679.661-.49 1.144-1.195 1.589-1.886.572-.89.933-1.899 1.361-2.866.484-1.094 1.075-2.158 1.362-3.319.254-1.03.214-2.11.302-3.168.059-.703.042-1.415.151-2.112.181-1.15.693-2.238.832-3.394.13-1.074.022-2.163 0-3.244-.012-.629.082-1.276-.075-1.885-.155-.6-.832-1.66-.832-1.66M3.326 49.126s-.106.956-.075 1.433a9.08 9.08 0 0 0 .378 2.037c.278.916.801 1.742 1.135 2.64.32.865.624 1.74.832 2.64.229.99.288 2.013.453 3.017.163.983.261 1.982.53 2.942.283 1.011.71 1.98 1.134 2.941.433.978.708 2.085 1.438 2.867.539.577 1.311.903 2.042 1.206.553.23 1.152.335 1.74.453.349.07.743-.014 1.058.15.395.208.65.618.908.981.28.395.68 1.283.68 1.283"/>
            <path stroke-linecap="round" stroke-width="1.752" d="M14.596 67.606s.752 2.553 1.06 3.847c.355 1.497.665 3.006.907 4.526.403 2.525.583 5.081.908 7.618.283 2.215.726 4.412.907 6.638.076.927.136 1.862.076 2.79-.031.483-.227 1.434-.227 1.434"/>
            <path stroke-linecap="round" stroke-width="1.752" d="M19.891 89.858s-.543 1.932-.908 2.866c-.302.776-.515 1.631-1.058 2.263-.889 1.031-2.222 1.585-3.404 2.263-1.29.74-2.671 1.31-4.009 1.96"/>
            <path stroke-width="1.748" d="M3.326 49.126l-.863-5.515-.784-4.307-.558-4.53.558-6.867.504-4.354 1.626-4.835 2.607-4.288 4.463-4.009 2.338-2.403 3.566-2.676 3.063-1.77 5.27-1.278 3.095-.16 4.528-.313h3.483l4.78.473h4.502l4.491.292 4.006 1.34 3.284 1.416 3.45 2.26 4.146 4.304 2.276 4.177 1.772 3.365 1.903 4.547.384 3.912-.384 3.863v3.972l.384 4.266.685 4.434-.21 1.946"/>
        </g>
    </g>
</svg>
