<svg xmlns="http://www.w3.org/2000/svg" width="20" height="20" viewBox="0 0 20 20">
    <g fill="#525CA3" fill-rule="nonzero">
        <path d="M10 0C4.482 0 0 4.482 0 10s4.482 10 10 10 10-4.482 10-10S15.518 0 10 0zm0 .87A9.124 9.124 0 0 1 19.13 10 9.124 9.124 0 0 1 10 19.13 9.124 9.124 0 0 1 .87 10 9.124 9.124 0 0 1 10 .87z"/>
        <path d="M10.297 5c-1.014 0-1.825.317-2.384.952-.608.633-.861 1.477-.913 2.479h1.268c.052-.58.153-1.108.303-1.423.305-.581.864-.899 1.677-.899.608 0 1.113.159 1.367.528.253.317.408.74.408 1.214a1.8 1.8 0 0 1-.305 1.004c-.101.21-.254.37-.406.528l-.557.58c-.559.58-.914 1.055-1.066 1.478-.153.422-.254 1.001-.254 1.688h1.268c0-.633.05-1.056.202-1.32.153-.317.458-.686.914-1.16.66-.633 1.066-1.11 1.268-1.427.202-.315.303-.738.303-1.266 0-.845-.303-1.583-.86-2.11C11.971 5.263 11.21 5 10.297 5zM9.435 14.343v1.53h1.37v-1.53z"/>
    </g>
</svg>
