<svg xmlns="http://www.w3.org/2000/svg" xmlns:xlink="http://www.w3.org/1999/xlink" width="94" height="20" viewBox="0 0 94 20">
    <defs>
        <path id="a" d="M.02.175h50.71v13.274H.02z"/>
        <path id="c" d="M.315.18h16.23v19.8H.316z"/>
    </defs>
    <g fill="none" fill-rule="evenodd">
        <path fill="#485A98" d="M64.66 16.544h1.887V3.634H64.66z"/>
        <g transform="translate(0 3.279)">
            <mask id="b" fill="#fff">
                <use xlink:href="#a"/>
            </mask>
            <path fill="#485A98" d="M44.168.241c3.66 0 6.562 2.9 6.562 6.598 0 3.605-2.96 6.543-6.562 6.543-3.625 0-6.582-2.938-6.582-6.543 0-3.68 2.903-6.598 6.582-6.598zm-.077 1.754c-2.562 0-4.6 2.152-4.6 4.862 0 2.655 2.059 4.769 4.677 4.769 2.598 0 4.655-2.114 4.655-4.769 0-2.785-2.02-4.862-4.732-4.862zM4.414 1.814c-1.183 0-2.21.815-2.065 2.04.062.522.322.851.828 1.194.14.094.432.21.8.341.37.133.821.284 1.281.446.924.325 1.873.7 2.275 1.08.689.647 1.096 1.477 1.096 2.467 0 2.438-1.962 4.067-4.274 4.067-2.338 0-4.296-1.608-4.355-3.97h1.82c.236 1.614 1.254 2.33 2.535 2.33 1.187 0 2.41-.748 2.41-2.145 0-.748-.366-1.318-1.04-1.688a5.086 5.086 0 0 0-.744-.306c-.306-.108-.656-.22-1.018-.337-.718-.235-1.468-.494-1.948-.773A3.028 3.028 0 0 1 .501 3.932C.501 1.76 2.164.175 4.506.175c1.845 0 3.741 1.434 3.858 3.508H6.51c-.096-1.12-1.045-1.869-2.097-1.869" mask="url(#b)"/>
        </g>
        <path fill="#485A98" d="M55.137 3.636l6.1-.002v1.731h-5.469v4.192h5.469v1.73h-5.469v5.257h-1.884V4.89c0-.696.56-1.254 1.253-1.254M26.353 6.644l-.009 9.9h-1.886l.007-11.716c0-.723.585-1.308 1.307-1.308.47 0 .854.196 1.114.62 1.87 3.032 5.312 8.763 5.685 9.392l.011-9.898h1.887l-.007 11.716a1.31 1.31 0 0 1-1.308 1.311c-.469 0-.853-.197-1.114-.622a997.133 997.133 0 0 1-5.687-9.395M13.455 12.908l-1.336 3.636h-1.97L14.784 4.33a1.28 1.28 0 0 1 1.194-.81 1.28 1.28 0 0 1 1.192.81l4.633 12.215h-1.969L18.5 12.905l-5.045.003zm2.522-6.9l-1.9 5.212 3.803.003-1.903-5.215z"/>
        <g transform="translate(76.393)">
            <mask id="d" fill="#fff">
                <use xlink:href="#c"/>
            </mask>
            <path fill="#C4A474" d="M16.086 7.094C12.89 2.401 9.314 6.523 5.719 6.012c-3.565-.505-3.69-5.395.7-5.808.105-.012.212-.019.32-.023 4.387.04 8.085 2.936 9.347 6.913" mask="url(#d)"/>
            <path fill="#485A98" d="M16.173 7.373a9.96 9.96 0 0 1 .373 2.717c0 5.471-4.437 9.91-9.91 9.91a9.866 9.866 0 0 1-6.321-2.282c.675.27 1.475.381 2.158.384 8.977.048 5.144-11.888 13.7-10.729" mask="url(#d)"/>
        </g>
        <path fill="#AAB52A" d="M79.41 16.899c-1.243.759-3.214.532-4.584-1.343a8.992 8.992 0 0 1-.769-1.258 9.881 9.881 0 0 1-.866-5.397c2.161 2.914 4.65 2.825 6.23 3.771a2.48 2.48 0 0 1 1.17 2.109 2.5 2.5 0 0 1-1.182 2.118"/>
    </g>
</svg>
