<svg xmlns="http://www.w3.org/2000/svg" xmlns:xlink="http://www.w3.org/1999/xlink" width="75" height="16" viewBox="0 0 75 16">
    <defs>
        <path id="a" d="M.016.14h40.568v10.62H.016z"/>
        <path id="c" d="M.252.145h12.984v15.84H.252z"/>
    </defs>
    <g fill="none" fill-rule="evenodd">
        <path fill="#485A98" d="M51.728 13.235h1.51V2.907h-1.51z"/>
        <g transform="translate(0 2.623)">
            <mask id="b" fill="#fff">
                <use xlink:href="#a"/>
            </mask>
            <path fill="#485A98" d="M35.335.193c2.927 0 5.249 2.32 5.249 5.278 0 2.884-2.368 5.235-5.25 5.235-2.9 0-5.265-2.351-5.265-5.235 0-2.944 2.322-5.278 5.266-5.278zm-.062 1.403c-2.05 0-3.68 1.722-3.68 3.89 0 2.124 1.647 3.814 3.742 3.814 2.078 0 3.723-1.69 3.723-3.814 0-2.229-1.615-3.89-3.785-3.89zM3.531 1.452c-.946 0-1.767.651-1.652 1.632.05.417.258.68.662.955.112.075.346.168.64.272.297.106.658.227 1.025.357.74.26 1.499.56 1.82.864.552.517.877 1.182.877 1.974 0 1.95-1.57 3.253-3.42 3.253C1.614 10.76.048 9.473 0 7.583h1.457c.188 1.291 1.002 1.864 2.027 1.864.95 0 1.928-.598 1.928-1.716 0-.598-.293-1.054-.832-1.35a4.069 4.069 0 0 0-.595-.245c-.245-.087-.525-.176-.814-.27-.575-.188-1.175-.395-1.559-.618A2.422 2.422 0 0 1 .401 3.146C.4 1.408 1.73.14 3.604.14c1.477 0 2.994 1.147 3.087 2.806H5.209c-.077-.896-.836-1.494-1.678-1.494" mask="url(#b)"/>
        </g>
        <path fill="#485A98" d="M44.11 2.909l4.88-.002v1.385h-4.375v3.354h4.374v1.383h-4.374v4.206h-1.508V3.912a1 1 0 0 1 1.002-1.003M21.083 5.315l-.008 7.92h-1.509l.006-9.373c0-.578.468-1.046 1.046-1.046a.99.99 0 0 1 .891.495c1.496 2.427 4.25 7.011 4.548 7.515l.009-7.919h1.51l-.006 9.373c0 .578-.469 1.049-1.047 1.049a.988.988 0 0 1-.89-.498 797.707 797.707 0 0 1-4.55-7.516M10.764 10.326l-1.069 2.91H8.12l3.707-9.773c.14-.378.527-.647.955-.647.426 0 .812.269.953.647l3.707 9.772h-1.576l-1.066-2.91-4.036.001zm2.018-5.52l-1.52 4.17 3.042.002-1.522-4.172z"/>
        <g transform="translate(61.115)">
            <mask id="d" fill="#fff">
                <use xlink:href="#c"/>
            </mask>
            <path fill="#C4A474" d="M12.869 5.675c-2.556-3.754-5.417-.457-8.294-.865-2.852-.404-2.951-4.316.56-4.647.084-.01.17-.015.256-.018 3.51.032 6.468 2.349 7.478 5.53" mask="url(#d)"/>
            <path fill="#485A98" d="M12.939 5.898c.195.69.297 1.42.297 2.174A7.929 7.929 0 0 1 5.31 16a7.893 7.893 0 0 1-5.057-1.826c.54.216 1.18.305 1.727.307 7.181.039 4.115-9.51 10.96-8.583" mask="url(#d)"/>
        </g>
        <path fill="#AAB52A" d="M63.527 13.519c-.993.607-2.57.426-3.666-1.074a7.194 7.194 0 0 1-.615-1.007 7.905 7.905 0 0 1-.693-4.317c1.729 2.33 3.72 2.26 4.984 3.017.563.351.936.975.936 1.687a2 2 0 0 1-.946 1.694"/>
    </g>
</svg>
